<?xml version="1.0" encoding="utf-8" standalone="no"?>
<!DOCTYPE svg PUBLIC "-//W3C//DTD SVG 1.1//EN"
  "http://www.w3.org/Graphics/SVG/1.1/DTD/svg11.dtd">
<svg xmlns:xlink="http://www.w3.org/1999/xlink" width="511.704531pt" height="339.531875pt" viewBox="0 0 511.704531 339.531875" xmlns="http://www.w3.org/2000/svg" version="1.1">
 <metadata>
  <rdf:RDF xmlns:dc="http://purl.org/dc/elements/1.1/" xmlns:cc="http://creativecommons.org/ns#" xmlns:rdf="http://www.w3.org/1999/02/22-rdf-syntax-ns#">
   <cc:Work>
    <dc:type rdf:resource="http://purl.org/dc/dcmitype/StillImage"/>
    <dc:date>2024-02-05T09:24:01.734309</dc:date>
    <dc:format>image/svg+xml</dc:format>
    <dc:creator>
     <cc:Agent>
      <dc:title>Matplotlib v3.8.2, https://matplotlib.org/</dc:title>
     </cc:Agent>
    </dc:creator>
   </cc:Work>
  </rdf:RDF>
 </metadata>
 <defs>
  <style type="text/css">*{stroke-linejoin: round; stroke-linecap: butt}</style>
 </defs>
 <g id="figure_1">
  <g id="patch_1">
   <path d="M 0 339.531875 
L 511.704531 339.531875 
L 511.704531 0 
L 0 0 
z
" style="fill: #ffffff"/>
  </g>
  <g id="axes_1">
   <g id="patch_2">
    <path d="M 66.054531 105.98 
L 504.504531 105.98 
L 504.504531 7.2 
L 66.054531 7.2 
z
" style="fill: #ffffff"/>
   </g>
   <g id="line2d_1">
    <path d="M 85.984077 56.266766 
L 87.248797 56.483511 
L 88.513518 56.567192 
L 89.567451 56.745121 
L 90.515992 57.133321 
L 91.569925 57.838785 
L 94.626333 60.014715 
L 96.839594 61.781396 
L 98.104315 62.511506 
L 99.369035 62.950531 
L 100.949936 63.258805 
L 103.479377 63.449218 
L 105.376457 63.627678 
L 106.219604 64.046346 
L 108.854439 65.774144 
L 111.910846 67.941095 
L 118.023662 72.687254 
L 119.920743 73.457261 
L 121.817823 74.008122 
L 122.977151 74.378942 
L 124.874231 74.933549 
L 127.930639 75.902146 
L 130.670867 76.893957 
L 135.729749 79.414932 
L 137.837616 80.597015 
L 143.528858 83.05927 
L 144.898972 83.418036 
L 149.2201 84.467204 
L 151.854935 85.080617 
L 153.752015 85.657621 
L 158.389324 87.391742 
L 159.759438 87.554977 
L 160.813371 87.55576 
L 162.288879 87.324924 
L 163.132026 86.989002 
L 164.396746 86.246344 
L 166.504614 84.731755 
L 169.139448 82.742546 
L 173.249789 79.089192 
L 180.205752 75.025729 
L 182.102833 73.468202 
L 184.737667 71.025875 
L 192.95835 62.186997 
L 195.171611 60.26955 
L 196.436331 59.52297 
L 203.919261 55.39344 
L 207.397242 52.512526 
L 213.931631 46.897237 
L 215.617925 45.523344 
L 217.198826 44.641382 
L 221.309167 42.735746 
L 224.365575 41.429846 
L 225.946476 40.817017 
L 228.26513 39.618239 
L 231.216144 37.967929 
L 233.218619 36.929566 
L 235.221093 35.797578 
L 237.539747 34.417882 
L 239.436828 33.572905 
L 243.968743 32.036788 
L 247.235937 31.223387 
L 249.343805 30.603565 
L 254.82426 28.866456 
L 257.037521 27.805988 
L 259.566962 26.653748 
L 264.52045 24.643606 
L 266.312138 24.316871 
L 269.473939 23.710978 
L 272.214166 22.931007 
L 274.427427 22.354811 
L 277.167655 21.775633 
L 279.064736 21.305455 
L 284.861371 19.446427 
L 286.442272 19.256668 
L 288.339353 19.046944 
L 291.39576 18.145278 
L 292.555087 17.905201 
L 297.930149 17.583659 
L 299.405657 17.21586 
L 305.307686 16.054481 
L 306.783193 15.810834 
L 309.734207 15.216154 
L 311.842075 15.130127 
L 313.528369 14.936607 
L 315.636236 14.678795 
L 317.533317 14.723527 
L 318.798037 14.953079 
L 320.273544 15.475391 
L 321.432872 16.098918 
L 322.381412 16.791801 
L 325.859393 19.726807 
L 327.756474 21.281876 
L 333.658503 26.974228 
L 335.028617 27.981141 
L 337.768844 29.845715 
L 339.982105 31.501536 
L 341.352219 32.849727 
L 342.93312 34.696031 
L 347.254248 40.400895 
L 349.678296 43.404496 
L 351.68077 45.401969 
L 353.367064 46.802608 
L 355.158751 48.044941 
L 358.531339 49.992604 
L 361.903927 52.00083 
L 363.590221 53.173019 
L 365.065728 54.448744 
L 368.016742 57.398824 
L 370.546183 59.810265 
L 373.181018 62.095539 
L 374.656525 63.228643 
L 375.921245 63.993254 
L 378.977653 65.634718 
L 384.247322 68.133347 
L 386.671369 69.197458 
L 388.779237 70.522241 
L 392.362612 72.95147 
L 395.945986 75.052261 
L 399.213181 76.571059 
L 401.637228 77.398367 
L 409.647125 79.7588 
L 411.860385 80.686403 
L 416.603087 82.804802 
L 426.404671 86.317776 
L 430.198832 87.138515 
L 432.93906 87.764904 
L 437.892549 89.330886 
L 441.265136 90.639867 
L 444.848511 91.633607 
L 448.010312 92.101904 
L 450.961327 92.429344 
L 454.860882 93.066909 
L 458.655043 94.051336 
L 461.079091 94.299941 
L 467.2973 95.846872 
L 469.51056 96.115017 
L 471.618428 96.257508 
L 480.893045 97.006062 
L 482.263159 96.784988 
L 482.368552 96.759431 
L 482.368552 96.759431 
" clip-path="url(#p8156a17dd6)" style="fill: none; stroke: #000000; stroke-linecap: round"/>
   </g>
   <g id="matplotlib.axis_1">
    <g id="xtick_1">
     <g id="line2d_2">
      <path d="M 85.984077 105.98 
L 85.984077 7.2 
" clip-path="url(#p8156a17dd6)" style="fill: none; stroke: #b0b0b0; stroke-width: 0.8; stroke-linecap: round"/>
     </g>
     <g id="line2d_3"/>
    </g>
    <g id="xtick_2">
     <g id="line2d_4">
      <path d="M 138.988187 105.98 
L 138.988187 7.2 
" clip-path="url(#p8156a17dd6)" style="fill: none; stroke: #b0b0b0; stroke-width: 0.8; stroke-linecap: round"/>
     </g>
     <g id="line2d_5"/>
    </g>
    <g id="xtick_3">
     <g id="line2d_6">
      <path d="M 191.992297 105.98 
L 191.992297 7.2 
" clip-path="url(#p8156a17dd6)" style="fill: none; stroke: #b0b0b0; stroke-width: 0.8; stroke-linecap: round"/>
     </g>
     <g id="line2d_7"/>
    </g>
    <g id="xtick_4">
     <g id="line2d_8">
      <path d="M 244.996407 105.98 
L 244.996407 7.2 
" clip-path="url(#p8156a17dd6)" style="fill: none; stroke: #b0b0b0; stroke-width: 0.8; stroke-linecap: round"/>
     </g>
     <g id="line2d_9"/>
    </g>
    <g id="xtick_5">
     <g id="line2d_10">
      <path d="M 298.000518 105.98 
L 298.000518 7.2 
" clip-path="url(#p8156a17dd6)" style="fill: none; stroke: #b0b0b0; stroke-width: 0.8; stroke-linecap: round"/>
     </g>
     <g id="line2d_11"/>
    </g>
    <g id="xtick_6">
     <g id="line2d_12">
      <path d="M 351.004628 105.98 
L 351.004628 7.2 
" clip-path="url(#p8156a17dd6)" style="fill: none; stroke: #b0b0b0; stroke-width: 0.8; stroke-linecap: round"/>
     </g>
     <g id="line2d_13"/>
    </g>
    <g id="xtick_7">
     <g id="line2d_14">
      <path d="M 404.008738 105.98 
L 404.008738 7.2 
" clip-path="url(#p8156a17dd6)" style="fill: none; stroke: #b0b0b0; stroke-width: 0.8; stroke-linecap: round"/>
     </g>
     <g id="line2d_15"/>
    </g>
    <g id="xtick_8">
     <g id="line2d_16">
      <path d="M 457.012848 105.98 
L 457.012848 7.2 
" clip-path="url(#p8156a17dd6)" style="fill: none; stroke: #b0b0b0; stroke-width: 0.8; stroke-linecap: round"/>
     </g>
     <g id="line2d_17"/>
    </g>
   </g>
   <g id="matplotlib.axis_2">
    <g id="ytick_1">
     <g id="line2d_18">
      <path d="M 66.054531 90.213048 
L 504.504531 90.213048 
" clip-path="url(#p8156a17dd6)" style="fill: none; stroke: #b0b0b0; stroke-width: 0.8; stroke-linecap: round"/>
     </g>
     <g id="line2d_19"/>
     <g id="text_1">
      <!-- −5 -->
      <g style="fill: #262626" transform="translate(46.338125 94.392189) scale(0.11 -0.11)">
       <defs>
        <path id="DejaVuSerif-2212" d="M 678 2259 
L 4684 2259 
L 4684 1753 
L 678 1753 
L 678 2259 
z
" transform="scale(0.015625)"/>
        <path id="DejaVuSerif-35" d="M 3219 4666 
L 3219 4153 
L 1081 4153 
L 1081 2816 
Q 1244 2928 1461 2984 
Q 1678 3041 1947 3041 
Q 2703 3041 3140 2622 
Q 3578 2203 3578 1478 
Q 3578 738 3136 323 
Q 2694 -91 1894 -91 
Q 1572 -91 1234 -12 
Q 897 66 544 225 
L 544 1131 
L 897 1131 
Q 925 688 1179 453 
Q 1434 219 1894 219 
Q 2388 219 2653 544 
Q 2919 869 2919 1478 
Q 2919 2084 2655 2407 
Q 2391 2731 1894 2731 
Q 1613 2731 1398 2631 
Q 1184 2531 1019 2322 
L 750 2322 
L 750 4666 
L 3219 4666 
z
" transform="scale(0.015625)"/>
       </defs>
       <use xlink:href="#DejaVuSerif-2212"/>
       <use xlink:href="#DejaVuSerif-35" x="83.789062"/>
      </g>
     </g>
    </g>
    <g id="ytick_2">
     <g id="line2d_20">
      <path d="M 66.054531 56.843523 
L 504.504531 56.843523 
" clip-path="url(#p8156a17dd6)" style="fill: none; stroke: #b0b0b0; stroke-width: 0.8; stroke-linecap: round"/>
     </g>
     <g id="line2d_21"/>
     <g id="text_2">
      <!-- 0 -->
      <g style="fill: #262626" transform="translate(55.555781 61.022664) scale(0.11 -0.11)">
       <defs>
        <path id="DejaVuSerif-30" d="M 2034 219 
Q 2513 219 2750 744 
Q 2988 1269 2988 2328 
Q 2988 3391 2750 3916 
Q 2513 4441 2034 4441 
Q 1556 4441 1318 3916 
Q 1081 3391 1081 2328 
Q 1081 1269 1318 744 
Q 1556 219 2034 219 
z
M 2034 -91 
Q 1275 -91 848 546 
Q 422 1184 422 2328 
Q 422 3475 848 4112 
Q 1275 4750 2034 4750 
Q 2797 4750 3222 4112 
Q 3647 3475 3647 2328 
Q 3647 1184 3222 546 
Q 2797 -91 2034 -91 
z
" transform="scale(0.015625)"/>
       </defs>
       <use xlink:href="#DejaVuSerif-30"/>
      </g>
     </g>
    </g>
    <g id="ytick_3">
     <g id="line2d_22">
      <path d="M 66.054531 23.473998 
L 504.504531 23.473998 
" clip-path="url(#p8156a17dd6)" style="fill: none; stroke: #b0b0b0; stroke-width: 0.8; stroke-linecap: round"/>
     </g>
     <g id="line2d_23"/>
     <g id="text_3">
      <!-- 5 -->
      <g style="fill: #262626" transform="translate(55.555781 27.653139) scale(0.11 -0.11)">
       <use xlink:href="#DejaVuSerif-35"/>
      </g>
     </g>
    </g>
    <g id="text_4">
     <!-- $\beta$ $[deg]$ -->
     <g style="fill: #262626" transform="translate(40.028125 76.555) rotate(-90) scale(0.11 -0.11)">
      <defs>
       <path id="DejaVuSans-Oblique-3b2" d="M 872 216 
L 572 -1331 
L -6 -1331 
L 928 3478 
Q 1206 4903 2538 4903 
Q 3888 4903 3659 3700 
Q 3503 2844 2894 2531 
Q 3713 2250 3553 1416 
Q 3272 -69 1759 -66 
Q 1097 -63 872 216 
z
M 1019 966 
Q 1259 422 1875 425 
Q 2775 425 2966 1406 
Q 3138 2288 1675 2219 
L 1778 2750 
Q 2909 2731 3106 3750 
Q 3241 4438 2509 4434 
Q 1691 4434 1503 3459 
L 1019 966 
z
" transform="scale(0.015625)"/>
       <path id="DejaVuSerif-20" transform="scale(0.015625)"/>
       <path id="DejaVuSans-5b" d="M 550 4863 
L 1875 4863 
L 1875 4416 
L 1125 4416 
L 1125 -397 
L 1875 -397 
L 1875 -844 
L 550 -844 
L 550 4863 
z
" transform="scale(0.015625)"/>
       <path id="DejaVuSans-Oblique-64" d="M 2675 525 
Q 2444 222 2128 65 
Q 1813 -91 1428 -91 
Q 903 -91 598 267 
Q 294 625 294 1247 
Q 294 1766 478 2236 
Q 663 2706 1013 3078 
Q 1244 3325 1534 3454 
Q 1825 3584 2144 3584 
Q 2481 3584 2739 3421 
Q 2997 3259 3138 2956 
L 3513 4863 
L 4091 4863 
L 3144 0 
L 2566 0 
L 2675 525 
z
M 891 1350 
Q 891 897 1095 644 
Q 1300 391 1663 391 
Q 1931 391 2161 520 
Q 2391 650 2566 903 
Q 2750 1166 2856 1509 
Q 2963 1853 2963 2188 
Q 2963 2622 2758 2865 
Q 2553 3109 2194 3109 
Q 1922 3109 1687 2981 
Q 1453 2853 1288 2613 
Q 1106 2353 998 2009 
Q 891 1666 891 1350 
z
" transform="scale(0.015625)"/>
       <path id="DejaVuSans-Oblique-65" d="M 3078 2063 
Q 3088 2113 3092 2166 
Q 3097 2219 3097 2272 
Q 3097 2653 2873 2875 
Q 2650 3097 2266 3097 
Q 1838 3097 1509 2826 
Q 1181 2556 1013 2059 
L 3078 2063 
z
M 3578 1613 
L 903 1613 
Q 884 1494 878 1425 
Q 872 1356 872 1306 
Q 872 872 1139 634 
Q 1406 397 1894 397 
Q 2269 397 2603 481 
Q 2938 566 3225 728 
L 3116 159 
Q 2806 34 2476 -28 
Q 2147 -91 1806 -91 
Q 1078 -91 686 257 
Q 294 606 294 1247 
Q 294 1794 489 2264 
Q 684 2734 1063 3103 
Q 1306 3334 1642 3459 
Q 1978 3584 2356 3584 
Q 2950 3584 3301 3228 
Q 3653 2872 3653 2272 
Q 3653 2128 3634 1964 
Q 3616 1800 3578 1613 
z
" transform="scale(0.015625)"/>
       <path id="DejaVuSans-Oblique-67" d="M 3816 3500 
L 3219 434 
Q 3047 -456 2561 -893 
Q 2075 -1331 1253 -1331 
Q 950 -1331 690 -1286 
Q 431 -1241 206 -1147 
L 313 -588 
Q 525 -725 762 -790 
Q 1000 -856 1269 -856 
Q 1816 -856 2167 -557 
Q 2519 -259 2631 300 
L 2681 563 
Q 2441 288 2122 144 
Q 1803 0 1434 0 
Q 903 0 598 351 
Q 294 703 294 1319 
Q 294 1803 478 2267 
Q 663 2731 997 3091 
Q 1219 3328 1514 3456 
Q 1809 3584 2131 3584 
Q 2484 3584 2746 3420 
Q 3009 3256 3138 2956 
L 3238 3500 
L 3816 3500 
z
M 2950 2216 
Q 2950 2641 2750 2872 
Q 2550 3103 2181 3103 
Q 1953 3103 1747 3012 
Q 1541 2922 1394 2759 
Q 1156 2491 1023 2127 
Q 891 1763 891 1375 
Q 891 944 1092 712 
Q 1294 481 1672 481 
Q 2219 481 2584 976 
Q 2950 1472 2950 2216 
z
" transform="scale(0.015625)"/>
       <path id="DejaVuSans-5d" d="M 1947 4863 
L 1947 -844 
L 622 -844 
L 622 -397 
L 1369 -397 
L 1369 4416 
L 622 4416 
L 622 4863 
L 1947 4863 
z
" transform="scale(0.015625)"/>
      </defs>
      <use xlink:href="#DejaVuSans-Oblique-3b2" transform="translate(0 0.390625)"/>
      <use xlink:href="#DejaVuSerif-20" transform="translate(63.818359 0.390625)"/>
      <use xlink:href="#DejaVuSans-5b" transform="translate(95.605469 0.390625)"/>
      <use xlink:href="#DejaVuSans-Oblique-64" transform="translate(134.619141 0.390625)"/>
      <use xlink:href="#DejaVuSans-Oblique-65" transform="translate(198.095703 0.390625)"/>
      <use xlink:href="#DejaVuSans-Oblique-67" transform="translate(259.619141 0.390625)"/>
      <use xlink:href="#DejaVuSans-5d" transform="translate(323.095703 0.390625)"/>
     </g>
    </g>
   </g>
   <g id="line2d_24">
    <path d="M 85.984077 56.843523 
L 87.892225 56.955824 
L 89.800373 57.305864 
L 91.496504 57.834015 
L 93.298644 58.63076 
L 98.599055 61.41267 
L 108.881852 67.12239 
L 118.952633 72.59508 
L 126.797242 76.566519 
L 133.899792 79.914957 
L 141.426376 83.206072 
L 148.528927 86.063688 
L 154.88942 88.421096 
L 160.083823 90.162173 
L 161.885963 90.495614 
L 163.582094 90.592631 
L 165.278226 90.459968 
L 166.974357 90.094559 
L 168.670489 89.494035 
L 170.36662 88.64204 
L 172.062752 87.542738 
L 174.288924 85.800689 
L 180.119377 80.917153 
L 198.140774 65.542496 
L 204.289251 60.657886 
L 210.119703 56.286007 
L 216.480196 51.831407 
L 222.522665 47.884234 
L 228.565133 44.193365 
L 234.501594 40.809477 
L 241.604144 37.042329 
L 248.176654 33.843212 
L 254.96118 30.809774 
L 261.53369 28.117306 
L 269.060274 25.267842 
L 276.692865 22.642873 
L 284.007433 20.351198 
L 293.018131 17.764426 
L 301.392781 15.59157 
L 310.40348 13.498444 
L 318.460104 11.826178 
L 320.156236 11.692299 
L 321.852367 11.770056 
L 323.548499 12.074376 
L 325.24463 12.610788 
L 326.940762 13.381717 
L 328.636893 14.390377 
L 330.333025 15.645877 
L 332.347181 17.432975 
L 338.707674 23.501426 
L 353.336809 37.557207 
L 359.80331 43.436413 
L 365.633762 48.448131 
L 371.570223 53.234247 
L 377.08265 57.418878 
L 383.231127 61.77642 
L 388.743554 65.419823 
L 395.210056 69.430146 
L 401.676557 73.144699 
L 408.779108 76.919064 
L 414.821577 79.877725 
L 421.076062 82.680435 
L 427.436555 85.308637 
L 435.175155 88.260848 
L 442.701739 90.894332 
L 450.546347 93.4098 
L 458.920996 95.845998 
L 466.44758 97.825552 
L 474.928238 99.855445 
L 482.454821 101.49 
L 482.454821 101.49 
" clip-path="url(#p8156a17dd6)" style="fill: none; stroke: #0000ff; stroke-linecap: round"/>
   </g>
   <g id="line2d_25">
    <path d="M 85.984077 56.843523 
L 87.892225 56.955739 
L 89.800373 57.305169 
L 91.496504 57.831873 
L 93.298644 58.625635 
L 98.91708 61.556631 
L 120.33074 72.934829 
L 126.797242 76.030049 
L 133.899792 79.158242 
L 140.896335 82.000522 
L 147.680861 84.506491 
L 154.995428 86.964528 
L 161.355921 88.88629 
L 163.264069 89.228301 
L 165.066209 89.314002 
L 166.762341 89.172324 
L 168.458472 88.795552 
L 170.154604 88.189031 
L 171.850735 87.349303 
L 173.652875 86.193425 
L 175.561023 84.682671 
L 181.391475 79.690459 
L 198.034766 65.235104 
L 204.289251 60.2132 
L 209.801678 56.058356 
L 215.208097 52.265641 
L 220.508509 48.793898 
L 226.338961 45.249706 
L 232.169413 41.97434 
L 238.105873 38.885438 
L 244.148342 35.995312 
L 249.978794 33.424522 
L 256.233279 30.910619 
L 262.69978 28.557213 
L 269.590315 26.268671 
L 276.798874 24.096788 
L 284.431465 22.019972 
L 293.336156 19.841579 
L 300.756731 18.232704 
L 310.297471 16.39662 
L 320.792285 14.60774 
L 322.594425 14.465694 
L 324.396565 14.549131 
L 326.092696 14.851554 
L 327.788828 15.378245 
L 329.484959 16.140143 
L 331.287099 17.20084 
L 333.089239 18.522986 
L 334.891378 20.115267 
L 342.311954 27.31912 
L 354.820924 39.493687 
L 361.181417 45.308912 
L 366.587836 49.96257 
L 372.31228 54.587356 
L 377.7187 58.631569 
L 383.125119 62.408824 
L 388.743554 66.042679 
L 394.786023 69.662159 
L 400.404459 72.760075 
L 406.552936 75.913804 
L 412.065363 78.493043 
L 418.637873 81.312625 
L 424.468325 83.57802 
L 431.464867 86.072047 
L 438.567418 88.355868 
L 445.987994 90.494377 
L 453.726594 92.502627 
L 462.949309 94.646513 
L 472.278032 96.561128 
L 482.348813 98.389013 
L 484.574986 98.762861 
L 484.574986 98.762861 
" clip-path="url(#p8156a17dd6)" style="fill: none; stroke: #008000; stroke-linecap: round"/>
   </g>
   <g id="line2d_26">
    <path d="M 85.984077 56.843523 
L 88.104241 56.951478 
L 90.012389 57.26212 
L 91.814529 57.778978 
L 93.616669 58.53647 
L 97.963006 60.683027 
L 104.747532 64.319315 
L 115.878395 70.271334 
L 122.238888 73.405337 
L 128.281357 76.13103 
L 134.217817 78.565532 
L 140.048269 80.719683 
L 146.196746 82.752266 
L 152.557239 84.620457 
L 158.705716 86.205378 
L 160.613864 86.48122 
L 162.416004 86.525475 
L 164.112135 86.348858 
L 165.808267 85.952487 
L 167.39839 85.372729 
L 169.094522 84.512481 
L 170.790653 83.400565 
L 172.592793 81.943126 
L 176.833122 78.101056 
L 185.419788 69.961272 
L 192.522338 63.391884 
L 197.822749 58.791522 
L 202.699127 54.848131 
L 207.469497 51.277644 
L 212.133859 48.059933 
L 216.904229 45.040825 
L 221.674599 42.286137 
L 226.550977 39.726807 
L 231.533363 37.362537 
L 236.833774 35.101197 
L 242.240194 33.033829 
L 247.858629 31.122048 
L 253.689082 29.351152 
L 259.943567 27.686439 
L 266.728093 26.114169 
L 274.148668 24.632744 
L 281.887268 23.314 
L 290.473934 22.084472 
L 299.166608 21.07292 
L 309.979447 20.057075 
L 311.993603 19.988863 
L 313.901751 20.165295 
L 315.703891 20.552872 
L 317.50603 21.168328 
L 319.202162 21.972004 
L 321.004302 23.076475 
L 322.806441 24.457062 
L 324.608581 26.12666 
L 329.378951 31.003222 
L 343.584053 45.70087 
L 348.672447 50.559338 
L 353.442817 54.807237 
L 358.107179 58.659862 
L 362.665532 62.134343 
L 367.223886 65.327414 
L 371.888247 68.320059 
L 376.658617 71.112693 
L 381.428987 73.650686 
L 386.411374 76.04673 
L 391.605776 78.292499 
L 396.906187 80.339664 
L 402.73664 82.337906 
L 408.885116 84.208867 
L 415.24561 85.911568 
L 421.818119 87.442765 
L 428.92067 88.863432 
L 436.65927 90.180588 
L 445.03392 91.37839 
L 454.680668 92.523037 
L 464.433424 93.470447 
L 464.433424 93.470447 
" clip-path="url(#p8156a17dd6)" style="fill: none; stroke: #ff0000; stroke-linecap: round"/>
   </g>
   <g id="patch_3">
    <path d="M 66.054531 105.98 
L 66.054531 7.2 
" style="fill: none; stroke: #000000; stroke-linejoin: miter; stroke-linecap: square"/>
   </g>
   <g id="patch_4">
    <path d="M 66.054531 105.98 
L 504.504531 105.98 
" style="fill: none; stroke: #000000; stroke-linejoin: miter; stroke-linecap: square"/>
   </g>
   <g id="legend_1">
    <g id="line2d_27">
     <path d="M 213.69875 41.348125 
L 224.69875 41.348125 
L 235.69875 41.348125 
" style="fill: none; stroke: #000000; stroke-linecap: round"/>
    </g>
    <g id="text_5">
     <!-- Experiment -->
     <g style="fill: #262626" transform="translate(244.49875 45.198125) scale(0.11 -0.11)">
      <defs>
       <path id="DejaVuSerif-45" d="M 353 0 
L 353 331 
L 947 331 
L 947 4331 
L 353 4331 
L 353 4666 
L 4109 4666 
L 4109 3628 
L 3725 3628 
L 3725 4281 
L 1581 4281 
L 1581 2719 
L 3109 2719 
L 3109 3303 
L 3494 3303 
L 3494 1753 
L 3109 1753 
L 3109 2338 
L 1581 2338 
L 1581 384 
L 3775 384 
L 3775 1038 
L 4159 1038 
L 4159 0 
L 353 0 
z
" transform="scale(0.015625)"/>
       <path id="DejaVuSerif-78" d="M 1863 2028 
L 2559 2988 
L 2113 2988 
L 2113 3322 
L 3391 3322 
L 3391 2988 
L 2950 2988 
L 2059 1759 
L 3097 331 
L 3531 331 
L 3531 0 
L 1997 0 
L 1997 331 
L 2419 331 
L 1697 1325 
L 972 331 
L 1403 331 
L 1403 0 
L 141 0 
L 141 331 
L 581 331 
L 1497 1594 
L 488 2988 
L 78 2988 
L 78 3322 
L 1563 3322 
L 1563 2988 
L 1166 2988 
L 1863 2028 
z
" transform="scale(0.015625)"/>
       <path id="DejaVuSerif-70" d="M 1313 1825 
L 1313 1497 
Q 1313 897 1542 583 
Q 1772 269 2209 269 
Q 2650 269 2876 622 
Q 3103 975 3103 1663 
Q 3103 2353 2876 2703 
Q 2650 3053 2209 3053 
Q 1772 3053 1542 2737 
Q 1313 2422 1313 1825 
z
M 738 2988 
L 184 2988 
L 184 3322 
L 1313 3322 
L 1313 2803 
Q 1481 3116 1742 3264 
Q 2003 3413 2388 3413 
Q 3000 3413 3387 2928 
Q 3775 2444 3775 1663 
Q 3775 881 3387 395 
Q 3000 -91 2388 -91 
Q 2003 -91 1742 57 
Q 1481 206 1313 519 
L 1313 -997 
L 1856 -997 
L 1856 -1331 
L 184 -1331 
L 184 -997 
L 738 -997 
L 738 2988 
z
" transform="scale(0.015625)"/>
       <path id="DejaVuSerif-65" d="M 3469 1600 
L 991 1600 
L 991 1575 
Q 991 903 1244 561 
Q 1497 219 1991 219 
Q 2369 219 2611 417 
Q 2853 616 2950 1006 
L 3413 1006 
Q 3275 459 2904 184 
Q 2534 -91 1931 -91 
Q 1203 -91 761 389 
Q 319 869 319 1663 
Q 319 2450 753 2931 
Q 1188 3413 1894 3413 
Q 2647 3413 3050 2948 
Q 3453 2484 3469 1600 
z
M 2791 1931 
Q 2772 2513 2545 2808 
Q 2319 3103 1894 3103 
Q 1497 3103 1269 2806 
Q 1041 2509 991 1931 
L 2791 1931 
z
" transform="scale(0.015625)"/>
       <path id="DejaVuSerif-72" d="M 3059 3328 
L 3059 2497 
L 2728 2497 
Q 2713 2744 2591 2866 
Q 2469 2988 2234 2988 
Q 1809 2988 1582 2694 
Q 1356 2400 1356 1850 
L 1356 331 
L 2022 331 
L 2022 0 
L 263 0 
L 263 331 
L 781 331 
L 781 2994 
L 231 2994 
L 231 3322 
L 1356 3322 
L 1356 2731 
Q 1525 3078 1790 3245 
Q 2056 3413 2438 3413 
Q 2578 3413 2733 3391 
Q 2888 3369 3059 3328 
z
" transform="scale(0.015625)"/>
       <path id="DejaVuSerif-69" d="M 622 4353 
Q 622 4497 726 4603 
Q 831 4709 978 4709 
Q 1122 4709 1226 4603 
Q 1331 4497 1331 4353 
Q 1331 4206 1228 4103 
Q 1125 4000 978 4000 
Q 831 4000 726 4103 
Q 622 4206 622 4353 
z
M 1356 331 
L 1900 331 
L 1900 0 
L 231 0 
L 231 331 
L 781 331 
L 781 2988 
L 231 2988 
L 231 3322 
L 1356 3322 
L 1356 331 
z
" transform="scale(0.015625)"/>
       <path id="DejaVuSerif-6d" d="M 3316 2675 
Q 3481 3041 3739 3227 
Q 3997 3413 4341 3413 
Q 4863 3413 5119 3089 
Q 5375 2766 5375 2113 
L 5375 331 
L 5894 331 
L 5894 0 
L 4300 0 
L 4300 331 
L 4800 331 
L 4800 2047 
Q 4800 2556 4650 2772 
Q 4500 2988 4153 2988 
Q 3769 2988 3567 2697 
Q 3366 2406 3366 1850 
L 3366 331 
L 3866 331 
L 3866 0 
L 2291 0 
L 2291 331 
L 2791 331 
L 2791 2069 
Q 2791 2566 2641 2777 
Q 2491 2988 2144 2988 
Q 1759 2988 1557 2697 
Q 1356 2406 1356 1850 
L 1356 331 
L 1856 331 
L 1856 0 
L 263 0 
L 263 331 
L 781 331 
L 781 2994 
L 231 2994 
L 231 3322 
L 1356 3322 
L 1356 2731 
Q 1516 3063 1762 3238 
Q 2009 3413 2322 3413 
Q 2709 3413 2968 3220 
Q 3228 3028 3316 2675 
z
" transform="scale(0.015625)"/>
       <path id="DejaVuSerif-6e" d="M 263 0 
L 263 331 
L 781 331 
L 781 2988 
L 231 2988 
L 231 3322 
L 1356 3322 
L 1356 2731 
Q 1516 3069 1770 3241 
Q 2025 3413 2363 3413 
Q 2913 3413 3172 3097 
Q 3431 2781 3431 2113 
L 3431 331 
L 3944 331 
L 3944 0 
L 2356 0 
L 2356 331 
L 2853 331 
L 2853 1931 
Q 2853 2541 2703 2767 
Q 2553 2994 2175 2994 
Q 1775 2994 1565 2701 
Q 1356 2409 1356 1850 
L 1356 331 
L 1856 331 
L 1856 0 
L 263 0 
z
" transform="scale(0.015625)"/>
       <path id="DejaVuSerif-74" d="M 691 2988 
L 184 2988 
L 184 3322 
L 691 3322 
L 691 4353 
L 1269 4353 
L 1269 3322 
L 2350 3322 
L 2350 2988 
L 1269 2988 
L 1269 878 
Q 1269 456 1350 337 
Q 1431 219 1650 219 
Q 1875 219 1978 351 
Q 2081 484 2088 781 
L 2522 781 
Q 2497 328 2275 118 
Q 2053 -91 1600 -91 
Q 1103 -91 897 129 
Q 691 350 691 878 
L 691 2988 
z
" transform="scale(0.015625)"/>
      </defs>
      <use xlink:href="#DejaVuSerif-45"/>
      <use xlink:href="#DejaVuSerif-78" x="72.998047"/>
      <use xlink:href="#DejaVuSerif-70" x="129.394531"/>
      <use xlink:href="#DejaVuSerif-65" x="193.408203"/>
      <use xlink:href="#DejaVuSerif-72" x="252.587891"/>
      <use xlink:href="#DejaVuSerif-69" x="300.390625"/>
      <use xlink:href="#DejaVuSerif-6d" x="332.373047"/>
      <use xlink:href="#DejaVuSerif-65" x="427.197266"/>
      <use xlink:href="#DejaVuSerif-6e" x="486.376953"/>
      <use xlink:href="#DejaVuSerif-74" x="550.78125"/>
     </g>
    </g>
    <g id="line2d_28">
     <path d="M 213.69875 57.494063 
L 224.69875 57.494063 
L 235.69875 57.494063 
" style="fill: none; stroke: #0000ff; stroke-linecap: round"/>
    </g>
    <g id="text_6">
     <!-- Reference model -->
     <g style="fill: #262626" transform="translate(244.49875 61.344063) scale(0.11 -0.11)">
      <defs>
       <path id="DejaVuSerif-52" d="M 3066 2316 
Q 3284 2256 3442 2114 
Q 3600 1972 3725 1716 
L 4403 331 
L 4972 331 
L 4972 0 
L 3872 0 
L 3144 1484 
Q 2934 1916 2759 2042 
Q 2584 2169 2278 2169 
L 1581 2169 
L 1581 331 
L 2241 331 
L 2241 0 
L 353 0 
L 353 331 
L 947 331 
L 947 4331 
L 353 4331 
L 353 4666 
L 2719 4666 
Q 3400 4666 3770 4341 
Q 4141 4016 4141 3419 
Q 4141 2938 3870 2661 
Q 3600 2384 3066 2316 
z
M 1581 2503 
L 2503 2503 
Q 2975 2503 3200 2726 
Q 3425 2950 3425 3419 
Q 3425 3888 3200 4109 
Q 2975 4331 2503 4331 
L 1581 4331 
L 1581 2503 
z
" transform="scale(0.015625)"/>
       <path id="DejaVuSerif-66" d="M 2753 4078 
L 2450 4078 
Q 2447 4313 2317 4434 
Q 2188 4556 1941 4556 
Q 1619 4556 1487 4379 
Q 1356 4203 1356 3750 
L 1356 3322 
L 2284 3322 
L 2284 2988 
L 1356 2988 
L 1356 331 
L 2094 331 
L 2094 0 
L 231 0 
L 231 331 
L 781 331 
L 781 2988 
L 231 2988 
L 231 3322 
L 781 3322 
L 781 3738 
Q 781 4294 1070 4578 
Q 1359 4863 1919 4863 
Q 2128 4863 2337 4825 
Q 2547 4788 2753 4709 
L 2753 4078 
z
" transform="scale(0.015625)"/>
       <path id="DejaVuSerif-63" d="M 3291 997 
Q 3169 466 2822 187 
Q 2475 -91 1925 -91 
Q 1200 -91 759 389 
Q 319 869 319 1663 
Q 319 2459 759 2936 
Q 1200 3413 1925 3413 
Q 2241 3413 2553 3339 
Q 2866 3266 3181 3116 
L 3181 2266 
L 2847 2266 
Q 2781 2703 2561 2903 
Q 2341 3103 1931 3103 
Q 1466 3103 1228 2742 
Q 991 2381 991 1663 
Q 991 944 1227 581 
Q 1463 219 1931 219 
Q 2303 219 2525 412 
Q 2747 606 2828 997 
L 3291 997 
z
" transform="scale(0.015625)"/>
       <path id="DejaVuSerif-6f" d="M 1925 219 
Q 2388 219 2623 584 
Q 2859 950 2859 1663 
Q 2859 2375 2623 2739 
Q 2388 3103 1925 3103 
Q 1463 3103 1227 2739 
Q 991 2375 991 1663 
Q 991 950 1228 584 
Q 1466 219 1925 219 
z
M 1925 -91 
Q 1200 -91 759 389 
Q 319 869 319 1663 
Q 319 2456 758 2934 
Q 1197 3413 1925 3413 
Q 2653 3413 3092 2934 
Q 3531 2456 3531 1663 
Q 3531 869 3092 389 
Q 2653 -91 1925 -91 
z
" transform="scale(0.015625)"/>
       <path id="DejaVuSerif-64" d="M 3359 331 
L 3909 331 
L 3909 0 
L 2784 0 
L 2784 519 
Q 2616 206 2355 57 
Q 2094 -91 1709 -91 
Q 1097 -91 708 395 
Q 319 881 319 1663 
Q 319 2444 706 2928 
Q 1094 3413 1709 3413 
Q 2094 3413 2355 3264 
Q 2616 3116 2784 2803 
L 2784 4531 
L 2241 4531 
L 2241 4863 
L 3359 4863 
L 3359 331 
z
M 2784 1497 
L 2784 1825 
Q 2784 2422 2554 2737 
Q 2325 3053 1888 3053 
Q 1444 3053 1217 2703 
Q 991 2353 991 1663 
Q 991 975 1217 622 
Q 1444 269 1888 269 
Q 2325 269 2554 583 
Q 2784 897 2784 1497 
z
" transform="scale(0.015625)"/>
       <path id="DejaVuSerif-6c" d="M 1313 331 
L 1856 331 
L 1856 0 
L 184 0 
L 184 331 
L 738 331 
L 738 4531 
L 184 4531 
L 184 4863 
L 1313 4863 
L 1313 331 
z
" transform="scale(0.015625)"/>
      </defs>
      <use xlink:href="#DejaVuSerif-52"/>
      <use xlink:href="#DejaVuSerif-65" x="75.292969"/>
      <use xlink:href="#DejaVuSerif-66" x="134.472656"/>
      <use xlink:href="#DejaVuSerif-65" x="171.484375"/>
      <use xlink:href="#DejaVuSerif-72" x="230.664062"/>
      <use xlink:href="#DejaVuSerif-65" x="278.466797"/>
      <use xlink:href="#DejaVuSerif-6e" x="337.646484"/>
      <use xlink:href="#DejaVuSerif-63" x="402.050781"/>
      <use xlink:href="#DejaVuSerif-65" x="458.056641"/>
      <use xlink:href="#DejaVuSerif-20" x="517.236328"/>
      <use xlink:href="#DejaVuSerif-6d" x="549.023438"/>
      <use xlink:href="#DejaVuSerif-6f" x="643.847656"/>
      <use xlink:href="#DejaVuSerif-64" x="704.052734"/>
      <use xlink:href="#DejaVuSerif-65" x="768.066406"/>
      <use xlink:href="#DejaVuSerif-6c" x="827.246094"/>
     </g>
    </g>
    <g id="line2d_29">
     <path d="M 213.69875 73.64 
L 224.69875 73.64 
L 235.69875 73.64 
" style="fill: none; stroke: #008000; stroke-linecap: round"/>
    </g>
    <g id="text_7">
     <!-- Physics informed ID -->
     <g style="fill: #262626" transform="translate(244.49875 77.49) scale(0.11 -0.11)">
      <defs>
       <path id="DejaVuSerif-50" d="M 1581 2375 
L 2406 2375 
Q 2872 2375 3115 2626 
Q 3359 2878 3359 3353 
Q 3359 3831 3115 4081 
Q 2872 4331 2406 4331 
L 1581 4331 
L 1581 2375 
z
M 353 0 
L 353 331 
L 947 331 
L 947 4331 
L 353 4331 
L 353 4666 
L 2559 4666 
Q 3259 4666 3668 4311 
Q 4078 3956 4078 3353 
Q 4078 2753 3668 2397 
Q 3259 2041 2559 2041 
L 1581 2041 
L 1581 331 
L 2303 331 
L 2303 0 
L 353 0 
z
" transform="scale(0.015625)"/>
       <path id="DejaVuSerif-68" d="M 263 0 
L 263 331 
L 781 331 
L 781 4531 
L 231 4531 
L 231 4863 
L 1356 4863 
L 1356 2731 
Q 1516 3069 1770 3241 
Q 2025 3413 2363 3413 
Q 2913 3413 3172 3097 
Q 3431 2781 3431 2113 
L 3431 331 
L 3944 331 
L 3944 0 
L 2356 0 
L 2356 331 
L 2853 331 
L 2853 1931 
Q 2853 2541 2704 2764 
Q 2556 2988 2175 2988 
Q 1775 2988 1565 2697 
Q 1356 2406 1356 1850 
L 1356 331 
L 1856 331 
L 1856 0 
L 263 0 
z
" transform="scale(0.015625)"/>
       <path id="DejaVuSerif-79" d="M 1381 -609 
L 1600 -56 
L 359 2988 
L -19 2988 
L -19 3322 
L 1509 3322 
L 1509 2988 
L 978 2988 
L 1913 703 
L 2847 2988 
L 2350 2988 
L 2350 3322 
L 3597 3322 
L 3597 2988 
L 3225 2988 
L 1703 -750 
Q 1547 -1138 1356 -1280 
Q 1166 -1422 819 -1422 
Q 672 -1422 517 -1397 
Q 363 -1372 206 -1325 
L 206 -691 
L 500 -691 
Q 519 -903 608 -995 
Q 697 -1088 884 -1088 
Q 1056 -1088 1161 -992 
Q 1266 -897 1381 -609 
z
" transform="scale(0.015625)"/>
       <path id="DejaVuSerif-73" d="M 359 184 
L 359 959 
L 691 959 
Q 703 588 923 403 
Q 1144 219 1575 219 
Q 1963 219 2166 364 
Q 2369 509 2369 788 
Q 2369 1006 2220 1140 
Q 2072 1275 1594 1428 
L 1178 1569 
Q 750 1706 558 1912 
Q 366 2119 366 2438 
Q 366 2894 700 3153 
Q 1034 3413 1625 3413 
Q 1888 3413 2178 3344 
Q 2469 3275 2778 3144 
L 2778 2419 
L 2447 2419 
Q 2434 2741 2221 2922 
Q 2009 3103 1644 3103 
Q 1281 3103 1095 2975 
Q 909 2847 909 2591 
Q 909 2381 1050 2254 
Q 1191 2128 1613 1997 
L 2069 1856 
Q 2541 1709 2748 1489 
Q 2956 1269 2956 922 
Q 2956 450 2595 179 
Q 2234 -91 1600 -91 
Q 1278 -91 972 -22 
Q 666 47 359 184 
z
" transform="scale(0.015625)"/>
       <path id="DejaVuSerif-49" d="M 1581 331 
L 2175 331 
L 2175 0 
L 353 0 
L 353 331 
L 947 331 
L 947 4331 
L 353 4331 
L 353 4666 
L 2175 4666 
L 2175 4331 
L 1581 4331 
L 1581 331 
z
" transform="scale(0.015625)"/>
       <path id="DejaVuSerif-44" d="M 1581 331 
L 2163 331 
Q 3072 331 3558 850 
Q 4044 1369 4044 2338 
Q 4044 3306 3559 3818 
Q 3075 4331 2163 4331 
L 1581 4331 
L 1581 331 
z
M 353 0 
L 353 331 
L 947 331 
L 947 4331 
L 353 4331 
L 353 4666 
L 2209 4666 
Q 3416 4666 4089 4050 
Q 4763 3434 4763 2338 
Q 4763 1238 4088 619 
Q 3413 0 2209 0 
L 353 0 
z
" transform="scale(0.015625)"/>
      </defs>
      <use xlink:href="#DejaVuSerif-50"/>
      <use xlink:href="#DejaVuSerif-68" x="67.285156"/>
      <use xlink:href="#DejaVuSerif-79" x="131.689453"/>
      <use xlink:href="#DejaVuSerif-73" x="188.183594"/>
      <use xlink:href="#DejaVuSerif-69" x="239.501953"/>
      <use xlink:href="#DejaVuSerif-63" x="271.484375"/>
      <use xlink:href="#DejaVuSerif-73" x="327.490234"/>
      <use xlink:href="#DejaVuSerif-20" x="378.808594"/>
      <use xlink:href="#DejaVuSerif-69" x="410.595703"/>
      <use xlink:href="#DejaVuSerif-6e" x="442.578125"/>
      <use xlink:href="#DejaVuSerif-66" x="506.982422"/>
      <use xlink:href="#DejaVuSerif-6f" x="543.994141"/>
      <use xlink:href="#DejaVuSerif-72" x="604.199219"/>
      <use xlink:href="#DejaVuSerif-6d" x="652.001953"/>
      <use xlink:href="#DejaVuSerif-65" x="746.826172"/>
      <use xlink:href="#DejaVuSerif-64" x="806.005859"/>
      <use xlink:href="#DejaVuSerif-20" x="870.019531"/>
      <use xlink:href="#DejaVuSerif-49" x="901.806641"/>
      <use xlink:href="#DejaVuSerif-44" x="941.308594"/>
     </g>
    </g>
    <g id="line2d_30">
     <path d="M 213.69875 89.942344 
L 224.69875 89.942344 
L 235.69875 89.942344 
" style="fill: none; stroke: #ff0000; stroke-linecap: round"/>
    </g>
    <g id="text_8">
     <!-- Abkowitz ID -->
     <g style="fill: #262626" transform="translate(244.49875 93.792344) scale(0.11 -0.11)">
      <defs>
       <path id="DejaVuSerif-41" d="M 1281 1691 
L 2994 1691 
L 2138 3909 
L 1281 1691 
z
M -38 0 
L -38 331 
L 372 331 
L 2034 4666 
L 2559 4666 
L 4225 331 
L 4684 331 
L 4684 0 
L 2988 0 
L 2988 331 
L 3506 331 
L 3116 1356 
L 1153 1356 
L 763 331 
L 1275 331 
L 1275 0 
L -38 0 
z
" transform="scale(0.015625)"/>
       <path id="DejaVuSerif-62" d="M 738 331 
L 738 4531 
L 184 4531 
L 184 4863 
L 1313 4863 
L 1313 2803 
Q 1481 3116 1742 3264 
Q 2003 3413 2388 3413 
Q 3000 3413 3387 2928 
Q 3775 2444 3775 1663 
Q 3775 881 3387 395 
Q 3000 -91 2388 -91 
Q 2003 -91 1742 57 
Q 1481 206 1313 519 
L 1313 0 
L 184 0 
L 184 331 
L 738 331 
z
M 1313 1497 
Q 1313 897 1542 583 
Q 1772 269 2209 269 
Q 2650 269 2876 622 
Q 3103 975 3103 1663 
Q 3103 2353 2876 2703 
Q 2650 3053 2209 3053 
Q 1772 3053 1542 2737 
Q 1313 2422 1313 1825 
L 1313 1497 
z
" transform="scale(0.015625)"/>
       <path id="DejaVuSerif-6b" d="M 1831 0 
L 219 0 
L 219 331 
L 738 331 
L 738 4531 
L 184 4531 
L 184 4863 
L 1313 4863 
L 1313 1697 
L 2713 2988 
L 2234 2988 
L 2234 3322 
L 3738 3322 
L 3738 2988 
L 3169 2988 
L 2181 2075 
L 3444 331 
L 3922 331 
L 3922 0 
L 2284 0 
L 2284 331 
L 2759 331 
L 1766 1697 
L 1313 1275 
L 1313 331 
L 1831 331 
L 1831 0 
z
" transform="scale(0.015625)"/>
       <path id="DejaVuSerif-77" d="M 3072 3322 
L 3922 728 
L 4672 2988 
L 4191 2988 
L 4191 3322 
L 5394 3322 
L 5394 2988 
L 5025 2988 
L 4038 0 
L 3559 0 
L 2741 2484 
L 1919 0 
L 1459 0 
L 475 2988 
L 103 2988 
L 103 3322 
L 1606 3322 
L 1606 2988 
L 1069 2988 
L 1813 728 
L 2669 3322 
L 3072 3322 
z
" transform="scale(0.015625)"/>
       <path id="DejaVuSerif-7a" d="M 256 0 
L 256 269 
L 2338 2988 
L 691 2988 
L 691 2413 
L 359 2413 
L 359 3322 
L 3078 3322 
L 3078 3053 
L 997 331 
L 2803 331 
L 2803 934 
L 3138 934 
L 3138 0 
L 256 0 
z
" transform="scale(0.015625)"/>
      </defs>
      <use xlink:href="#DejaVuSerif-41"/>
      <use xlink:href="#DejaVuSerif-62" x="72.216797"/>
      <use xlink:href="#DejaVuSerif-6b" x="136.230469"/>
      <use xlink:href="#DejaVuSerif-6f" x="196.826172"/>
      <use xlink:href="#DejaVuSerif-77" x="257.03125"/>
      <use xlink:href="#DejaVuSerif-69" x="342.626953"/>
      <use xlink:href="#DejaVuSerif-74" x="374.609375"/>
      <use xlink:href="#DejaVuSerif-7a" x="414.794922"/>
      <use xlink:href="#DejaVuSerif-20" x="467.480469"/>
      <use xlink:href="#DejaVuSerif-49" x="499.267578"/>
      <use xlink:href="#DejaVuSerif-44" x="538.769531"/>
     </g>
    </g>
   </g>
  </g>
  <g id="axes_2">
   <g id="patch_5">
    <path d="M 66.054531 204.76 
L 504.504531 204.76 
L 504.504531 105.98 
L 66.054531 105.98 
z
" style="fill: #ffffff"/>
   </g>
   <g id="line2d_31">
    <path d="M 85.984077 155.89037 
L 89.883631 156.038046 
L 92.729253 156.38972 
L 95.680267 156.993799 
L 99.158248 157.939196 
L 103.58477 159.389449 
L 106.641178 160.649795 
L 112.33242 163.329181 
L 117.602089 166.148876 
L 125.401198 170.571499 
L 131.935587 174.642139 
L 141.842564 181.15742 
L 154.700556 190.315729 
L 159.337864 193.62871 
L 162.710452 195.882917 
L 165.239893 197.303949 
L 167.769334 198.460049 
L 169.877201 199.205479 
L 172.195856 199.767173 
L 174.51451 200.085974 
L 177.360131 200.269392 
L 180.732719 200.116209 
L 183.472947 199.778514 
L 186.845534 199.137069 
L 191.69363 197.893866 
L 197.068692 196.134814 
L 201.38982 194.366086 
L 205.605555 192.491451 
L 211.823764 189.410632 
L 215.617925 187.355041 
L 221.414561 184.075284 
L 226.684229 180.956456 
L 245.549643 169.263492 
L 252.927179 164.512651 
L 261.147862 158.886353 
L 273.58428 150.071824 
L 281.172603 144.52181 
L 302.778245 128.854568 
L 306.783193 125.886897 
L 318.587251 117.152062 
L 320.905905 115.691198 
L 324.383886 113.741893 
L 326.807934 112.597775 
L 328.810408 111.898511 
L 331.023669 111.352686 
L 333.447716 110.997264 
L 336.293337 110.819731 
L 339.455138 110.911945 
L 341.984579 111.193979 
L 346.411101 111.974017 
L 351.469983 113.217344 
L 359.796059 115.896258 
L 366.014268 118.521235 
L 371.810904 121.328333 
L 379.8208 125.522422 
L 387.830696 130.206168 
L 413.125106 145.821369 
L 426.826244 155.04908 
L 438.735696 163.344907 
L 476.888097 190.556386 
L 482.263159 194.346916 
L 482.368552 194.417488 
L 482.368552 194.417488 
" clip-path="url(#p89d5e6e3c5)" style="fill: none; stroke: #000000; stroke-linecap: round"/>
   </g>
   <g id="line2d_32">
    <path d="M 85.984077 156.417099 
L 86.72183 160.370146 
L 92.940039 191.265053 
L 93.150826 191.22059 
L 93.677793 191.087201 
L 102.109263 191.085811 
L 156.281456 191.085811 
L 156.492243 190.185433 
L 157.124603 186.838196 
L 170.614955 119.918452 
L 171.036529 120.037946 
L 172.722823 120.067125 
L 315.214663 120.064346 
L 315.425449 120.999461 
L 315.847023 123.180932 
L 318.587251 137.013124 
L 318.692644 137.013124 
L 320.695118 147.029827 
L 322.486805 156.069731 
L 323.856919 162.829511 
L 325.332426 170.297923 
L 329.653555 191.280337 
L 330.285915 191.109432 
L 332.393782 191.081643 
L 340.825252 191.083032 
L 478.152817 191.084422 
L 478.363604 190.199328 
L 478.785177 187.974784 
L 480.366078 179.972815 
L 482.157765 170.967648 
L 482.263159 170.967648 
L 482.368552 170.443817 
L 482.368552 170.443817 
" clip-path="url(#p89d5e6e3c5)" style="fill: none; stroke-dasharray: 5.55,2.4; stroke-dashoffset: 0; stroke: #808080; stroke-width: 1.5"/>
   </g>
   <g id="matplotlib.axis_3">
    <g id="xtick_9">
     <g id="line2d_33">
      <path d="M 85.984077 204.76 
L 85.984077 105.98 
" clip-path="url(#p89d5e6e3c5)" style="fill: none; stroke: #b0b0b0; stroke-width: 0.8; stroke-linecap: round"/>
     </g>
     <g id="line2d_34"/>
    </g>
    <g id="xtick_10">
     <g id="line2d_35">
      <path d="M 138.988187 204.76 
L 138.988187 105.98 
" clip-path="url(#p89d5e6e3c5)" style="fill: none; stroke: #b0b0b0; stroke-width: 0.8; stroke-linecap: round"/>
     </g>
     <g id="line2d_36"/>
    </g>
    <g id="xtick_11">
     <g id="line2d_37">
      <path d="M 191.992297 204.76 
L 191.992297 105.98 
" clip-path="url(#p89d5e6e3c5)" style="fill: none; stroke: #b0b0b0; stroke-width: 0.8; stroke-linecap: round"/>
     </g>
     <g id="line2d_38"/>
    </g>
    <g id="xtick_12">
     <g id="line2d_39">
      <path d="M 244.996407 204.76 
L 244.996407 105.98 
" clip-path="url(#p89d5e6e3c5)" style="fill: none; stroke: #b0b0b0; stroke-width: 0.8; stroke-linecap: round"/>
     </g>
     <g id="line2d_40"/>
    </g>
    <g id="xtick_13">
     <g id="line2d_41">
      <path d="M 298.000518 204.76 
L 298.000518 105.98 
" clip-path="url(#p89d5e6e3c5)" style="fill: none; stroke: #b0b0b0; stroke-width: 0.8; stroke-linecap: round"/>
     </g>
     <g id="line2d_42"/>
    </g>
    <g id="xtick_14">
     <g id="line2d_43">
      <path d="M 351.004628 204.76 
L 351.004628 105.98 
" clip-path="url(#p89d5e6e3c5)" style="fill: none; stroke: #b0b0b0; stroke-width: 0.8; stroke-linecap: round"/>
     </g>
     <g id="line2d_44"/>
    </g>
    <g id="xtick_15">
     <g id="line2d_45">
      <path d="M 404.008738 204.76 
L 404.008738 105.98 
" clip-path="url(#p89d5e6e3c5)" style="fill: none; stroke: #b0b0b0; stroke-width: 0.8; stroke-linecap: round"/>
     </g>
     <g id="line2d_46"/>
    </g>
    <g id="xtick_16">
     <g id="line2d_47">
      <path d="M 457.012848 204.76 
L 457.012848 105.98 
" clip-path="url(#p89d5e6e3c5)" style="fill: none; stroke: #b0b0b0; stroke-width: 0.8; stroke-linecap: round"/>
     </g>
     <g id="line2d_48"/>
    </g>
   </g>
   <g id="matplotlib.axis_4">
    <g id="ytick_4">
     <g id="line2d_49">
      <path d="M 66.054531 191.083836 
L 504.504531 191.083836 
" clip-path="url(#p89d5e6e3c5)" style="fill: none; stroke: #b0b0b0; stroke-width: 0.8; stroke-linecap: round"/>
     </g>
     <g id="line2d_50"/>
     <g id="text_9">
      <!-- −10 -->
      <g style="fill: #262626" transform="translate(39.339375 195.262976) scale(0.11 -0.11)">
       <defs>
        <path id="DejaVuSerif-31" d="M 909 0 
L 909 331 
L 1722 331 
L 1722 4213 
L 781 3603 
L 781 4013 
L 1919 4750 
L 2350 4750 
L 2350 331 
L 3163 331 
L 3163 0 
L 909 0 
z
" transform="scale(0.015625)"/>
       </defs>
       <use xlink:href="#DejaVuSerif-2212"/>
       <use xlink:href="#DejaVuSerif-31" x="83.789062"/>
       <use xlink:href="#DejaVuSerif-30" x="147.412109"/>
      </g>
     </g>
    </g>
    <g id="ytick_5">
     <g id="line2d_51">
      <path d="M 66.054531 155.575079 
L 504.504531 155.575079 
" clip-path="url(#p89d5e6e3c5)" style="fill: none; stroke: #b0b0b0; stroke-width: 0.8; stroke-linecap: round"/>
     </g>
     <g id="line2d_52"/>
     <g id="text_10">
      <!-- 0 -->
      <g style="fill: #262626" transform="translate(55.555781 159.754219) scale(0.11 -0.11)">
       <use xlink:href="#DejaVuSerif-30"/>
      </g>
     </g>
    </g>
    <g id="ytick_6">
     <g id="line2d_53">
      <path d="M 66.054531 120.066322 
L 504.504531 120.066322 
" clip-path="url(#p89d5e6e3c5)" style="fill: none; stroke: #b0b0b0; stroke-width: 0.8; stroke-linecap: round"/>
     </g>
     <g id="line2d_54"/>
     <g id="text_11">
      <!-- 10 -->
      <g style="fill: #262626" transform="translate(48.557031 124.245462) scale(0.11 -0.11)">
       <use xlink:href="#DejaVuSerif-31"/>
       <use xlink:href="#DejaVuSerif-30" x="63.623047"/>
      </g>
     </g>
    </g>
    <g id="text_12">
     <!-- $\psi$ $[deg]$ -->
     <g style="fill: #262626" transform="translate(33.029375 175.445) rotate(-90) scale(0.11 -0.11)">
      <defs>
       <path id="DejaVuSans-Oblique-3c8" d="M 1591 -78 
Q 891 38 616 341 
Q 278 713 425 1472 
L 819 3500 
L 1400 3500 
L 1009 1494 
Q 900 922 1119 684 
Q 1313 478 1691 434 
L 2284 3500 
L 2856 3500 
L 2263 438 
Q 2681 481 2928 688 
Q 3247 950 3353 1497 
L 3741 3500 
L 4322 3500 
L 3928 1475 
Q 3775 688 3300 344 
Q 2872 34 2163 -75 
L 1919 -1331 
L 1347 -1331 
L 1591 -78 
z
" transform="scale(0.015625)"/>
      </defs>
      <use xlink:href="#DejaVuSans-Oblique-3c8" transform="translate(0 0.015625)"/>
      <use xlink:href="#DejaVuSerif-20" transform="translate(65.966797 0.015625)"/>
      <use xlink:href="#DejaVuSans-5b" transform="translate(97.753906 0.015625)"/>
      <use xlink:href="#DejaVuSans-Oblique-64" transform="translate(136.767578 0.015625)"/>
      <use xlink:href="#DejaVuSans-Oblique-65" transform="translate(200.244141 0.015625)"/>
      <use xlink:href="#DejaVuSans-Oblique-67" transform="translate(261.767578 0.015625)"/>
      <use xlink:href="#DejaVuSans-5d" transform="translate(325.244141 0.015625)"/>
     </g>
    </g>
   </g>
   <g id="line2d_55">
    <path d="M 85.984077 155.575079 
L 90.966463 155.683848 
L 93.722677 155.968904 
L 96.478891 156.488498 
L 99.553129 157.304496 
L 102.945392 158.43914 
L 106.761688 159.952657 
L 111.108025 161.918564 
L 116.090411 164.419157 
L 122.026872 167.656788 
L 128.917406 171.674374 
L 136.762014 176.515541 
L 145.772713 182.344814 
L 156.161519 189.335942 
L 164.960201 195.225306 
L 167.822423 196.822284 
L 170.260612 197.936017 
L 172.486785 198.711612 
L 174.606949 199.212862 
L 176.833122 199.510468 
L 179.271311 199.610221 
L 181.921516 199.493686 
L 184.889746 199.131522 
L 188.069993 198.517285 
L 191.674273 197.587436 
L 195.702585 196.30847 
L 200.15493 194.657949 
L 205.243325 192.5278 
L 210.967769 189.882044 
L 217.43427 186.647529 
L 224.642829 182.790517 
L 232.593446 178.277368 
L 241.074103 173.202238 
L 250.296818 167.414951 
L 260.791632 160.565778 
L 271.922495 153.044377 
L 284.219449 144.469537 
L 296.410394 135.712786 
L 312.205619 124.058919 
L 323.654507 115.647229 
L 326.516729 113.887395 
L 328.954918 112.639997 
L 331.181091 111.74487 
L 333.301255 111.133106 
L 335.527428 110.72291 
L 337.965617 110.503031 
L 340.615822 110.491468 
L 343.478044 110.700257 
L 346.658291 111.157471 
L 350.156562 111.887644 
L 354.078866 112.940008 
L 358.425203 114.345209 
L 363.301582 116.16302 
L 368.814009 118.466994 
L 374.856478 121.236641 
L 381.641004 124.59709 
L 389.061579 128.52373 
L 396.906187 132.922493 
L 405.386845 137.938069 
L 414.291536 143.464425 
L 425.634415 150.783868 
L 436.977295 158.366401 
L 448.426183 166.292912 
L 461.041161 175.30453 
L 476.730377 186.806746 
L 482.454821 191.069393 
L 482.454821 191.069393 
" clip-path="url(#p89d5e6e3c5)" style="fill: none; stroke: #0000ff; stroke-linecap: round"/>
   </g>
   <g id="line2d_56">
    <path d="M 85.984077 155.575079 
L 90.966463 155.683702 
L 93.722677 155.968068 
L 96.478891 156.485703 
L 99.553129 157.297062 
L 103.0514 158.461065 
L 106.973704 160.008749 
L 111.532058 162.053337 
L 116.832469 164.681567 
L 123.086954 168.034451 
L 130.825554 172.452307 
L 139.624236 177.732746 
L 150.755099 184.684993 
L 168.140448 195.590384 
L 170.790653 196.842345 
L 173.122834 197.700606 
L 175.242998 198.249606 
L 177.363163 198.568909 
L 179.695344 198.691525 
L 182.239541 198.596625 
L 184.995755 198.269813 
L 188.069993 197.677064 
L 191.462256 196.792104 
L 195.278552 195.562358 
L 199.624889 193.924357 
L 204.607275 191.805577 
L 210.331719 189.123609 
L 217.222254 185.639938 
L 225.17287 181.360955 
L 234.183569 176.254481 
L 244.148342 170.339922 
L 255.385213 163.400399 
L 269.696323 154.292664 
L 284.007433 144.916476 
L 299.590641 134.442261 
L 319.30817 120.94559 
L 325.986688 116.451723 
L 328.954918 114.745535 
L 331.393107 113.587889 
L 333.61928 112.76411 
L 335.739444 112.215401 
L 337.965617 111.880242 
L 340.403806 111.750971 
L 343.054011 111.84582 
L 345.916233 112.177129 
L 349.09648 112.775257 
L 352.594751 113.662608 
L 356.517055 114.890505 
L 360.969401 116.521275 
L 366.057795 118.627471 
L 371.888247 121.287591 
L 378.778782 124.68863 
L 386.62339 128.817617 
L 395.528081 133.761693 
L 405.280837 139.442075 
L 416.4117 146.208552 
L 429.662728 154.530622 
L 444.821903 164.327434 
L 461.359186 175.266833 
L 479.698608 187.695245 
L 484.574986 191.042292 
L 484.574986 191.042292 
" clip-path="url(#p89d5e6e3c5)" style="fill: none; stroke: #008000; stroke-linecap: round"/>
   </g>
   <g id="line2d_57">
    <path d="M 85.984077 155.575079 
L 90.860455 155.686135 
L 93.616669 155.978023 
L 96.372882 156.506237 
L 99.341112 157.304184 
L 102.733376 158.454928 
L 106.549671 159.994652 
L 110.896009 161.997799 
L 115.878395 164.545424 
L 121.814855 167.841467 
L 128.70539 171.927823 
L 137.186047 177.229245 
L 147.256828 183.795854 
L 165.59625 195.831057 
L 168.140448 197.074014 
L 170.36662 197.922669 
L 172.486785 198.494634 
L 174.606949 198.827645 
L 176.833122 198.949496 
L 179.271311 198.854877 
L 181.921516 198.523939 
L 184.889746 197.918512 
L 188.176001 197.01103 
L 191.780281 195.780871 
L 195.914601 194.127944 
L 200.578963 192.015527 
L 205.985382 189.316025 
L 212.133859 185.987245 
L 219.342418 181.822163 
L 227.611059 176.782207 
L 237.469824 170.502667 
L 249.02472 162.872017 
L 262.911797 153.425349 
L 280.403153 141.240753 
L 305.421093 123.513298 
L 315.597882 116.397763 
L 318.460104 114.710992 
L 320.898293 113.525241 
L 323.124466 112.688726 
L 325.138622 112.159094 
L 327.258787 111.832963 
L 329.484959 111.71203 
L 331.923148 111.801365 
L 334.573354 112.120039 
L 337.541584 112.705428 
L 340.827839 113.585733 
L 344.538127 114.818392 
L 348.672447 116.431914 
L 353.442817 118.54102 
L 358.743228 121.135139 
L 364.891705 124.399183 
L 371.888247 128.370969 
L 379.944872 133.209906 
L 389.273596 139.078486 
L 400.29845 146.286014 
L 413.44347 155.152524 
L 429.344703 166.158544 
L 450.334331 180.975648 
L 464.433424 191.034898 
L 464.433424 191.034898 
" clip-path="url(#p89d5e6e3c5)" style="fill: none; stroke: #ff0000; stroke-linecap: round"/>
   </g>
   <g id="patch_6">
    <path d="M 66.054531 204.76 
L 66.054531 105.98 
" style="fill: none; stroke: #000000; stroke-linejoin: miter; stroke-linecap: square"/>
   </g>
   <g id="patch_7">
    <path d="M 66.054531 204.76 
L 504.504531 204.76 
" style="fill: none; stroke: #000000; stroke-linejoin: miter; stroke-linecap: square"/>
   </g>
  </g>
  <g id="axes_3">
   <g id="patch_8">
    <path d="M 66.054531 303.54 
L 504.504531 303.54 
L 504.504531 204.76 
L 66.054531 204.76 
z
" style="fill: #ffffff"/>
   </g>
   <g id="line2d_58">
    <path d="M 85.984077 255.009405 
L 86.827224 255.074678 
L 87.459584 255.304423 
L 88.197338 255.900644 
L 89.145878 257.006774 
L 90.410598 258.902606 
L 91.569925 260.997025 
L 94.731727 267.034759 
L 96.523414 269.5796 
L 99.369035 272.909382 
L 100.949936 274.325806 
L 103.163196 275.752844 
L 104.111737 276.845668 
L 107.378931 280.955787 
L 108.643652 282.219736 
L 109.486799 282.583682 
L 110.646126 283.007502 
L 112.01624 283.970161 
L 115.810401 286.796094 
L 117.391302 287.488107 
L 118.023662 287.689466 
L 119.182989 287.731953 
L 120.44771 287.425517 
L 121.290857 287.615355 
L 122.450184 288.438372 
L 124.452658 289.995713 
L 125.822772 290.476309 
L 126.876705 290.968376 
L 127.825246 291.323384 
L 128.773786 291.608246 
L 130.670867 292.050138 
L 131.724801 292.501679 
L 134.465028 293.775584 
L 137.099863 294.227119 
L 138.153796 293.560666 
L 138.786156 293.264612 
L 139.313123 293.252816 
L 139.945484 293.393099 
L 141.104811 294.09191 
L 143.739645 296.045235 
L 144.372005 296.111975 
L 146.374479 296.356035 
L 147.112233 296.393629 
L 148.90392 296.757484 
L 150.063247 297.09076 
L 150.695608 297.21983 
L 152.592688 297.356333 
L 153.014262 297.215164 
L 153.541229 297.188961 
L 154.278982 297.434775 
L 155.332916 297.787249 
L 157.65157 297.100945 
L 158.28393 296.842583 
L 159.970224 295.710519 
L 161.234945 294.292886 
L 162.183485 292.815423 
L 163.342812 290.376388 
L 165.239893 285.656846 
L 169.034054 275.050089 
L 172.828216 263.64407 
L 174.303723 260.036523 
L 175.252263 258.324751 
L 177.043951 255.382873 
L 177.992491 253.085822 
L 178.730245 251.571161 
L 179.678785 250.269835 
L 181.154292 248.267834 
L 182.208226 246.650954 
L 184.2107 243.57339 
L 185.053847 242.604118 
L 186.002388 241.60292 
L 188.215648 239.041856 
L 188.848009 238.712306 
L 189.796549 238.217063 
L 190.639696 237.404919 
L 192.220597 235.465571 
L 195.066218 233.595882 
L 196.330938 233.075473 
L 197.174085 232.206455 
L 199.387346 229.519971 
L 201.600607 228.486997 
L 203.076114 228.093114 
L 203.813868 227.484681 
L 204.973195 226.299974 
L 205.710948 225.822255 
L 206.448702 225.40572 
L 208.134996 224.325205 
L 208.767356 224.031998 
L 209.50511 223.817504 
L 210.032077 223.592811 
L 210.875224 223.520861 
L 211.612977 223.428871 
L 212.456124 223.09435 
L 215.301745 221.232694 
L 217.515006 220.546473 
L 218.25276 220.210804 
L 219.939054 219.881588 
L 220.992987 219.436963 
L 223.311641 219.027263 
L 224.576362 218.485715 
L 226.578836 217.957941 
L 227.31659 217.758036 
L 228.26513 217.843301 
L 229.21367 218.452107 
L 229.635244 218.58855 
L 230.056817 218.523412 
L 230.794571 218.154544 
L 234.167159 216.644902 
L 235.115699 216.626799 
L 237.118173 216.40405 
L 239.015254 216.628155 
L 239.963794 216.508762 
L 240.912335 216.37118 
L 241.650088 216.273732 
L 242.704022 215.887968 
L 243.863349 215.511452 
L 246.498184 216.097162 
L 247.34133 216.645208 
L 247.868297 216.794722 
L 248.289871 216.757927 
L 248.816838 216.527635 
L 251.346279 214.82679 
L 252.400212 214.389179 
L 255.983587 213.94854 
L 257.986061 213.151102 
L 259.356175 212.708837 
L 261.464042 212.505121 
L 262.93955 212.384661 
L 264.415057 212.242395 
L 264.942024 212.660351 
L 265.785171 213.418207 
L 266.312138 213.515387 
L 266.733711 213.358266 
L 267.893038 212.189958 
L 268.630792 211.53946 
L 269.579332 211.063055 
L 270.527873 210.713036 
L 271.054839 210.73001 
L 272.214166 210.984517 
L 273.689674 211.121883 
L 274.532821 211.176762 
L 275.586754 210.923814 
L 276.324508 210.784831 
L 277.694622 210.399673 
L 278.221589 210.291464 
L 280.540243 210.429531 
L 281.594177 210.30037 
L 282.542717 210.424772 
L 283.807437 211.484745 
L 284.439798 211.786792 
L 285.072158 211.839386 
L 285.599125 211.656412 
L 287.285419 210.740522 
L 288.023172 210.652529 
L 288.655533 210.60745 
L 289.920253 210.44163 
L 290.974187 210.398864 
L 291.71194 210.438981 
L 292.555087 210.502901 
L 292.871268 210.578511 
L 293.398234 210.834843 
L 294.030595 210.856041 
L 297.930149 209.926533 
L 300.564984 210.206815 
L 300.986557 210.490899 
L 302.251278 211.627626 
L 302.989031 211.736176 
L 303.515998 211.539795 
L 305.623866 210.303707 
L 308.469487 209.667415 
L 309.418027 209.627375 
L 310.050387 209.653286 
L 313.422975 209.729519 
L 315.109269 209.595364 
L 315.847023 209.770554 
L 316.69017 210.133451 
L 317.111743 210.439937 
L 318.060284 211.345668 
L 318.903431 212.503541 
L 319.641184 214.149803 
L 321.116691 217.214886 
L 325.43782 225.647899 
L 326.70254 228.90975 
L 328.178047 233.6018 
L 330.496702 241.013198 
L 332.182996 245.507148 
L 333.553109 248.636221 
L 334.81783 250.982941 
L 336.293337 253.704841 
L 337.558058 255.975264 
L 339.033565 258.081478 
L 341.352219 261.689958 
L 343.143906 264.507679 
L 343.987053 265.437517 
L 344.619414 265.840417 
L 345.462561 266.325898 
L 346.094921 266.990448 
L 347.886608 269.016275 
L 350.205262 270.277521 
L 351.153803 271.271605 
L 352.62931 273.011778 
L 353.367064 273.482032 
L 354.210211 273.65273 
L 355.158751 273.716523 
L 356.212685 273.66981 
L 356.950438 273.92757 
L 357.688192 274.473717 
L 358.531339 275.402983 
L 359.269092 276.385873 
L 360.323026 277.753819 
L 361.37696 278.604218 
L 366.752022 282.072979 
L 367.595169 282.660476 
L 369.070676 283.294411 
L 369.597643 283.457646 
L 370.862363 284.17994 
L 372.443264 284.960921 
L 373.391804 285.291241 
L 375.710459 285.057777 
L 376.553606 285.549698 
L 378.029113 286.481871 
L 378.766866 286.887043 
L 381.507094 288.603115 
L 382.244848 288.807636 
L 383.404175 289.073758 
L 384.879682 289.515283 
L 386.249796 289.706128 
L 386.987549 289.969515 
L 388.990024 290.849092 
L 390.676318 291.167162 
L 391.414071 291.113343 
L 392.046431 290.66613 
L 392.994972 290.013662 
L 393.732725 289.815775 
L 394.365086 289.954315 
L 395.735199 290.576565 
L 396.68374 291.049551 
L 398.370034 291.417288 
L 400.056328 291.566601 
L 401.215655 291.681497 
L 403.007342 291.458099 
L 404.061276 291.768188 
L 405.852963 292.336837 
L 406.906897 292.433303 
L 407.960831 292.681497 
L 409.963305 292.810469 
L 411.438812 292.059473 
L 411.965779 292.112566 
L 412.598139 292.352339 
L 415.44376 294.081287 
L 416.497694 294.329506 
L 419.659495 294.470371 
L 421.029609 294.464762 
L 423.348263 294.874326 
L 424.19141 294.729472 
L 425.034557 294.884894 
L 426.510064 295.288478 
L 427.985572 295.438549 
L 430.198832 294.79393 
L 430.831193 295.048708 
L 433.25524 296.314486 
L 433.992994 296.574116 
L 434.414567 296.378491 
L 434.836141 296.068631 
L 435.363108 295.998601 
L 435.995468 296.160007 
L 437.892549 296.705219 
L 438.946482 296.774847 
L 440.527383 296.787231 
L 442.846037 296.655493 
L 445.902445 296.812034 
L 446.429412 296.472694 
L 447.377952 295.779833 
L 448.115706 295.610698 
L 448.642673 295.637833 
L 449.169639 295.834416 
L 450.961327 296.570327 
L 451.69908 296.789469 
L 453.912341 297.589589 
L 454.860882 297.516114 
L 455.598635 297.455524 
L 456.863356 297.334017 
L 458.23347 297.412967 
L 459.49819 297.677936 
L 462.133024 297.597106 
L 462.765385 297.261682 
L 463.186958 296.940938 
L 463.608532 296.91356 
L 464.240892 296.978043 
L 464.767859 296.765668 
L 465.084039 296.530178 
L 465.716399 296.067998 
L 466.137972 296.009804 
L 466.770333 296.195616 
L 469.615954 297.296659 
L 470.459101 297.460194 
L 471.091461 297.433984 
L 471.934608 297.429772 
L 473.199328 297.643265 
L 475.939556 297.417346 
L 478.468997 297.74118 
L 479.101357 297.28623 
L 479.522931 296.670763 
L 480.260684 295.966217 
L 480.787651 295.839694 
L 481.525405 295.651956 
L 482.157765 295.222075 
L 482.368552 294.963852 
L 482.368552 294.963852 
" clip-path="url(#p43b5c798dd)" style="fill: none; stroke: #000000; stroke-linecap: round"/>
   </g>
   <g id="matplotlib.axis_5">
    <g id="xtick_17">
     <g id="line2d_59">
      <path d="M 85.984077 303.54 
L 85.984077 204.76 
" clip-path="url(#p43b5c798dd)" style="fill: none; stroke: #b0b0b0; stroke-width: 0.8; stroke-linecap: round"/>
     </g>
     <g id="line2d_60"/>
     <g id="text_13">
      <!-- 0 -->
      <g style="fill: #262626" transform="translate(82.484702 315.398281) scale(0.11 -0.11)">
       <use xlink:href="#DejaVuSerif-30"/>
      </g>
     </g>
    </g>
    <g id="xtick_18">
     <g id="line2d_61">
      <path d="M 138.988187 303.54 
L 138.988187 204.76 
" clip-path="url(#p43b5c798dd)" style="fill: none; stroke: #b0b0b0; stroke-width: 0.8; stroke-linecap: round"/>
     </g>
     <g id="line2d_62"/>
     <g id="text_14">
      <!-- 5 -->
      <g style="fill: #262626" transform="translate(135.488812 315.398281) scale(0.11 -0.11)">
       <use xlink:href="#DejaVuSerif-35"/>
      </g>
     </g>
    </g>
    <g id="xtick_19">
     <g id="line2d_63">
      <path d="M 191.992297 303.54 
L 191.992297 204.76 
" clip-path="url(#p43b5c798dd)" style="fill: none; stroke: #b0b0b0; stroke-width: 0.8; stroke-linecap: round"/>
     </g>
     <g id="line2d_64"/>
     <g id="text_15">
      <!-- 10 -->
      <g style="fill: #262626" transform="translate(184.993547 315.398281) scale(0.11 -0.11)">
       <use xlink:href="#DejaVuSerif-31"/>
       <use xlink:href="#DejaVuSerif-30" x="63.623047"/>
      </g>
     </g>
    </g>
    <g id="xtick_20">
     <g id="line2d_65">
      <path d="M 244.996407 303.54 
L 244.996407 204.76 
" clip-path="url(#p43b5c798dd)" style="fill: none; stroke: #b0b0b0; stroke-width: 0.8; stroke-linecap: round"/>
     </g>
     <g id="line2d_66"/>
     <g id="text_16">
      <!-- 15 -->
      <g style="fill: #262626" transform="translate(237.997657 315.398281) scale(0.11 -0.11)">
       <use xlink:href="#DejaVuSerif-31"/>
       <use xlink:href="#DejaVuSerif-35" x="63.623047"/>
      </g>
     </g>
    </g>
    <g id="xtick_21">
     <g id="line2d_67">
      <path d="M 298.000518 303.54 
L 298.000518 204.76 
" clip-path="url(#p43b5c798dd)" style="fill: none; stroke: #b0b0b0; stroke-width: 0.8; stroke-linecap: round"/>
     </g>
     <g id="line2d_68"/>
     <g id="text_17">
      <!-- 20 -->
      <g style="fill: #262626" transform="translate(291.001768 315.398281) scale(0.11 -0.11)">
       <defs>
        <path id="DejaVuSerif-32" d="M 819 3553 
L 469 3553 
L 469 4384 
Q 803 4563 1142 4656 
Q 1481 4750 1806 4750 
Q 2534 4750 2956 4397 
Q 3378 4044 3378 3438 
Q 3378 2753 2422 1800 
Q 2347 1728 2309 1691 
L 1131 513 
L 3078 513 
L 3078 1088 
L 3444 1088 
L 3444 0 
L 434 0 
L 434 341 
L 1850 1753 
Q 2319 2222 2519 2614 
Q 2719 3006 2719 3438 
Q 2719 3909 2473 4175 
Q 2228 4441 1797 4441 
Q 1350 4441 1106 4219 
Q 863 3997 819 3553 
z
" transform="scale(0.015625)"/>
       </defs>
       <use xlink:href="#DejaVuSerif-32"/>
       <use xlink:href="#DejaVuSerif-30" x="63.623047"/>
      </g>
     </g>
    </g>
    <g id="xtick_22">
     <g id="line2d_69">
      <path d="M 351.004628 303.54 
L 351.004628 204.76 
" clip-path="url(#p43b5c798dd)" style="fill: none; stroke: #b0b0b0; stroke-width: 0.8; stroke-linecap: round"/>
     </g>
     <g id="line2d_70"/>
     <g id="text_18">
      <!-- 25 -->
      <g style="fill: #262626" transform="translate(344.005878 315.398281) scale(0.11 -0.11)">
       <use xlink:href="#DejaVuSerif-32"/>
       <use xlink:href="#DejaVuSerif-35" x="63.623047"/>
      </g>
     </g>
    </g>
    <g id="xtick_23">
     <g id="line2d_71">
      <path d="M 404.008738 303.54 
L 404.008738 204.76 
" clip-path="url(#p43b5c798dd)" style="fill: none; stroke: #b0b0b0; stroke-width: 0.8; stroke-linecap: round"/>
     </g>
     <g id="line2d_72"/>
     <g id="text_19">
      <!-- 30 -->
      <g style="fill: #262626" transform="translate(397.009988 315.398281) scale(0.11 -0.11)">
       <defs>
        <path id="DejaVuSerif-33" d="M 622 4469 
Q 988 4606 1323 4678 
Q 1659 4750 1953 4750 
Q 2638 4750 3022 4454 
Q 3406 4159 3406 3634 
Q 3406 3213 3140 2930 
Q 2875 2647 2388 2547 
Q 2963 2466 3280 2130 
Q 3597 1794 3597 1259 
Q 3597 606 3158 257 
Q 2719 -91 1894 -91 
Q 1528 -91 1179 -12 
Q 831 66 488 225 
L 488 1131 
L 838 1131 
Q 869 681 1141 450 
Q 1413 219 1906 219 
Q 2384 219 2661 495 
Q 2938 772 2938 1253 
Q 2938 1803 2653 2086 
Q 2369 2369 1819 2369 
L 1522 2369 
L 1522 2688 
L 1678 2688 
Q 2225 2688 2498 2914 
Q 2772 3141 2772 3597 
Q 2772 4006 2547 4223 
Q 2322 4441 1900 4441 
Q 1478 4441 1245 4241 
Q 1013 4041 972 3647 
L 622 3647 
L 622 4469 
z
" transform="scale(0.015625)"/>
       </defs>
       <use xlink:href="#DejaVuSerif-33"/>
       <use xlink:href="#DejaVuSerif-30" x="63.623047"/>
      </g>
     </g>
    </g>
    <g id="xtick_24">
     <g id="line2d_73">
      <path d="M 457.012848 303.54 
L 457.012848 204.76 
" clip-path="url(#p43b5c798dd)" style="fill: none; stroke: #b0b0b0; stroke-width: 0.8; stroke-linecap: round"/>
     </g>
     <g id="line2d_74"/>
     <g id="text_20">
      <!-- 35 -->
      <g style="fill: #262626" transform="translate(450.014098 315.398281) scale(0.11 -0.11)">
       <use xlink:href="#DejaVuSerif-33"/>
       <use xlink:href="#DejaVuSerif-35" x="63.623047"/>
      </g>
     </g>
    </g>
    <g id="text_21">
     <!-- Time [s] -->
     <g style="fill: #262626" transform="translate(262.518984 330.044219) scale(0.11 -0.11)">
      <defs>
       <path id="DejaVuSerif-54" d="M 1222 0 
L 1222 331 
L 1819 331 
L 1819 4294 
L 447 4294 
L 447 3566 
L 63 3566 
L 63 4666 
L 4206 4666 
L 4206 3566 
L 3822 3566 
L 3822 4294 
L 2450 4294 
L 2450 331 
L 3047 331 
L 3047 0 
L 1222 0 
z
" transform="scale(0.015625)"/>
       <path id="DejaVuSerif-5b" d="M 550 4863 
L 2003 4863 
L 2003 4531 
L 1147 4531 
L 1147 -513 
L 2003 -513 
L 2003 -844 
L 550 -844 
L 550 4863 
z
" transform="scale(0.015625)"/>
       <path id="DejaVuSerif-5d" d="M 1947 4863 
L 1947 -844 
L 494 -844 
L 494 -513 
L 1350 -513 
L 1350 4531 
L 494 4531 
L 494 4863 
L 1947 4863 
z
" transform="scale(0.015625)"/>
      </defs>
      <use xlink:href="#DejaVuSerif-54"/>
      <use xlink:href="#DejaVuSerif-69" x="66.699219"/>
      <use xlink:href="#DejaVuSerif-6d" x="98.681641"/>
      <use xlink:href="#DejaVuSerif-65" x="193.505859"/>
      <use xlink:href="#DejaVuSerif-20" x="252.685547"/>
      <use xlink:href="#DejaVuSerif-5b" x="284.472656"/>
      <use xlink:href="#DejaVuSerif-73" x="323.486328"/>
      <use xlink:href="#DejaVuSerif-5d" x="374.804688"/>
     </g>
    </g>
   </g>
   <g id="matplotlib.axis_6">
    <g id="ytick_7">
     <g id="line2d_75">
      <path d="M 66.054531 283.008771 
L 504.504531 283.008771 
" clip-path="url(#p43b5c798dd)" style="fill: none; stroke: #b0b0b0; stroke-width: 0.8; stroke-linecap: round"/>
     </g>
     <g id="line2d_76"/>
     <g id="text_22">
      <!-- −0.025 -->
      <g style="fill: #262626" transform="translate(21.845937 287.187912) scale(0.11 -0.11)">
       <defs>
        <path id="DejaVuSerif-2e" d="M 603 325 
Q 603 500 722 622 
Q 841 744 1019 744 
Q 1191 744 1312 622 
Q 1434 500 1434 325 
Q 1434 153 1312 31 
Q 1191 -91 1019 -91 
Q 841 -91 722 29 
Q 603 150 603 325 
z
" transform="scale(0.015625)"/>
       </defs>
       <use xlink:href="#DejaVuSerif-2212"/>
       <use xlink:href="#DejaVuSerif-30" x="83.789062"/>
       <use xlink:href="#DejaVuSerif-2e" x="147.412109"/>
       <use xlink:href="#DejaVuSerif-30" x="179.199219"/>
       <use xlink:href="#DejaVuSerif-32" x="242.822266"/>
       <use xlink:href="#DejaVuSerif-35" x="306.445312"/>
      </g>
     </g>
    </g>
    <g id="ytick_8">
     <g id="line2d_77">
      <path d="M 66.054531 254.285808 
L 504.504531 254.285808 
" clip-path="url(#p43b5c798dd)" style="fill: none; stroke: #b0b0b0; stroke-width: 0.8; stroke-linecap: round"/>
     </g>
     <g id="line2d_78"/>
     <g id="text_23">
      <!-- 0.000 -->
      <g style="fill: #262626" transform="translate(31.063594 258.464948) scale(0.11 -0.11)">
       <use xlink:href="#DejaVuSerif-30"/>
       <use xlink:href="#DejaVuSerif-2e" x="63.623047"/>
       <use xlink:href="#DejaVuSerif-30" x="95.410156"/>
       <use xlink:href="#DejaVuSerif-30" x="159.033203"/>
       <use xlink:href="#DejaVuSerif-30" x="222.65625"/>
      </g>
     </g>
    </g>
    <g id="ytick_9">
     <g id="line2d_79">
      <path d="M 66.054531 225.562844 
L 504.504531 225.562844 
" clip-path="url(#p43b5c798dd)" style="fill: none; stroke: #b0b0b0; stroke-width: 0.8; stroke-linecap: round"/>
     </g>
     <g id="line2d_80"/>
     <g id="text_24">
      <!-- 0.025 -->
      <g style="fill: #262626" transform="translate(31.063594 229.741985) scale(0.11 -0.11)">
       <use xlink:href="#DejaVuSerif-30"/>
       <use xlink:href="#DejaVuSerif-2e" x="63.623047"/>
       <use xlink:href="#DejaVuSerif-30" x="95.410156"/>
       <use xlink:href="#DejaVuSerif-32" x="159.033203"/>
       <use xlink:href="#DejaVuSerif-35" x="222.65625"/>
      </g>
     </g>
    </g>
    <g id="text_25">
     <!-- $r$ $[rad/s]$ -->
     <g style="fill: #262626" transform="translate(15.558281 276.315) rotate(-90) scale(0.11 -0.11)">
      <defs>
       <path id="DejaVuSans-Oblique-72" d="M 2853 2969 
Q 2766 3016 2653 3041 
Q 2541 3066 2413 3066 
Q 1953 3066 1609 2717 
Q 1266 2369 1153 1784 
L 800 0 
L 225 0 
L 909 3500 
L 1484 3500 
L 1375 2956 
Q 1603 3259 1920 3421 
Q 2238 3584 2597 3584 
Q 2691 3584 2781 3573 
Q 2872 3563 2963 3538 
L 2853 2969 
z
" transform="scale(0.015625)"/>
       <path id="DejaVuSans-Oblique-61" d="M 3438 1997 
L 3047 0 
L 2472 0 
L 2578 531 
Q 2325 219 2001 64 
Q 1678 -91 1281 -91 
Q 834 -91 548 182 
Q 263 456 263 884 
Q 263 1497 752 1853 
Q 1241 2209 2100 2209 
L 2900 2209 
L 2931 2363 
Q 2938 2388 2941 2417 
Q 2944 2447 2944 2509 
Q 2944 2788 2717 2942 
Q 2491 3097 2081 3097 
Q 1800 3097 1504 3025 
Q 1209 2953 897 2809 
L 997 3341 
Q 1322 3463 1633 3523 
Q 1944 3584 2234 3584 
Q 2853 3584 3176 3315 
Q 3500 3047 3500 2534 
Q 3500 2431 3484 2292 
Q 3469 2153 3438 1997 
z
M 2816 1759 
L 2241 1759 
Q 1534 1759 1195 1570 
Q 856 1381 856 984 
Q 856 709 1029 553 
Q 1203 397 1509 397 
Q 1978 397 2328 733 
Q 2678 1069 2791 1631 
L 2816 1759 
z
" transform="scale(0.015625)"/>
       <path id="DejaVuSans-2f" d="M 1625 4666 
L 2156 4666 
L 531 -594 
L 0 -594 
L 1625 4666 
z
" transform="scale(0.015625)"/>
       <path id="DejaVuSans-Oblique-73" d="M 3200 3397 
L 3091 2853 
Q 2863 2978 2609 3040 
Q 2356 3103 2088 3103 
Q 1634 3103 1373 2948 
Q 1113 2794 1113 2528 
Q 1113 2219 1719 2053 
Q 1766 2041 1788 2034 
L 1972 1978 
Q 2547 1819 2739 1644 
Q 2931 1469 2931 1166 
Q 2931 609 2489 259 
Q 2047 -91 1331 -91 
Q 1053 -91 747 -37 
Q 441 16 72 128 
L 184 722 
Q 500 559 806 475 
Q 1113 391 1394 391 
Q 1816 391 2080 572 
Q 2344 753 2344 1031 
Q 2344 1331 1650 1516 
L 1591 1531 
L 1394 1581 
Q 956 1697 753 1886 
Q 550 2075 550 2369 
Q 550 2928 970 3256 
Q 1391 3584 2113 3584 
Q 2397 3584 2667 3537 
Q 2938 3491 3200 3397 
z
" transform="scale(0.015625)"/>
      </defs>
      <use xlink:href="#DejaVuSans-Oblique-72" transform="translate(0 0.015625)"/>
      <use xlink:href="#DejaVuSerif-20" transform="translate(41.113281 0.015625)"/>
      <use xlink:href="#DejaVuSans-5b" transform="translate(72.900391 0.015625)"/>
      <use xlink:href="#DejaVuSans-Oblique-72" transform="translate(111.914062 0.015625)"/>
      <use xlink:href="#DejaVuSans-Oblique-61" transform="translate(153.027344 0.015625)"/>
      <use xlink:href="#DejaVuSans-Oblique-64" transform="translate(214.306641 0.015625)"/>
      <use xlink:href="#DejaVuSans-2f" transform="translate(277.783203 0.015625)"/>
      <use xlink:href="#DejaVuSans-Oblique-73" transform="translate(311.474609 0.015625)"/>
      <use xlink:href="#DejaVuSans-5d" transform="translate(363.574219 0.015625)"/>
     </g>
    </g>
   </g>
   <g id="line2d_81">
    <path d="M 85.984077 254.285808 
L 86.832142 254.405906 
L 87.786216 254.818135 
L 88.74029 255.504846 
L 89.800373 256.581087 
L 90.860455 257.966186 
L 92.026545 259.837932 
L 93.404652 262.461205 
L 95.3128 265.978971 
L 97.326956 269.209826 
L 99.341112 272.016773 
L 101.567285 274.705409 
L 103.793458 277.043172 
L 106.01963 279.102963 
L 108.881852 281.363364 
L 111.532058 283.142401 
L 114.182263 284.67911 
L 117.044485 286.108256 
L 119.800699 287.258613 
L 124.041028 288.745519 
L 128.599381 290.141032 
L 132.309669 291.124482 
L 137.292055 292.2546 
L 141.638392 293.108826 
L 149.483001 294.412876 
L 154.147362 294.981599 
L 159.553782 295.539385 
L 160.507856 295.262714 
L 161.355921 294.765834 
L 162.309995 293.962624 
L 163.370078 292.773276 
L 164.536168 291.116312 
L 165.808267 288.902603 
L 167.39839 285.620838 
L 168.988513 281.818334 
L 170.790653 276.891511 
L 172.910818 270.40707 
L 174.818965 264.667484 
L 176.727113 259.733852 
L 178.529253 255.672553 
L 180.543409 251.712098 
L 182.557566 248.261765 
L 184.67773 245.092248 
L 186.797894 242.293477 
L 189.236083 239.47789 
L 191.462256 237.232092 
L 193.688429 235.25363 
L 196.868675 232.796805 
L 200.472955 230.463343 
L 204.077234 228.475588 
L 207.575506 226.81258 
L 210.755752 225.554748 
L 217.116245 223.380346 
L 221.992624 221.981762 
L 228.035092 220.442478 
L 233.865544 219.097395 
L 237.999865 218.204178 
L 242.770235 217.23669 
L 249.02472 216.16293 
L 254.643156 215.314409 
L 261.215665 214.511748 
L 277.222906 212.589568 
L 300.22669 210.357652 
L 318.354096 209.328924 
L 319.096154 209.577096 
L 320.050228 210.166104 
L 321.11031 211.1108 
L 322.170392 212.384692 
L 323.336482 214.144561 
L 324.714589 216.648188 
L 326.198704 219.839052 
L 327.788828 223.749581 
L 329.696976 229.071639 
L 331.81714 235.704398 
L 333.513272 240.84242 
L 335.315411 245.586215 
L 337.117551 249.739043 
L 338.919691 253.371139 
L 340.827839 256.742644 
L 342.948003 260.028418 
L 345.174176 263.06399 
L 347.29434 265.593695 
L 349.732529 268.165888 
L 352.488743 270.696281 
L 355.350965 273.015589 
L 357.895162 274.790244 
L 361.287425 276.873158 
L 364.57368 278.631968 
L 367.753927 280.081997 
L 372.206272 281.885778 
L 376.234584 283.330785 
L 380.580921 284.640109 
L 388.637546 286.781196 
L 407.931042 291.090897 
L 414.397544 292.21986 
L 423.408243 293.34642 
L 459.345029 297.529573 
L 463.47935 297.795774 
L 468.885769 298.204263 
L 472.808073 298.461876 
L 477.684451 298.737988 
L 482.454821 299.05 
L 482.454821 299.05 
" clip-path="url(#p43b5c798dd)" style="fill: none; stroke: #0000ff; stroke-linecap: round"/>
   </g>
   <g id="line2d_82">
    <path d="M 85.984077 254.285808 
L 86.832142 254.405872 
L 87.786216 254.817797 
L 88.74029 255.50364 
L 89.800373 256.577928 
L 90.860455 257.959655 
L 92.026545 259.825584 
L 93.404652 262.438592 
L 95.206792 265.754309 
L 97.220948 268.975651 
L 99.129096 271.628284 
L 101.24926 274.18587 
L 103.369425 276.398013 
L 105.701606 278.547189 
L 107.82177 280.180858 
L 110.683992 282.087491 
L 113.122181 283.481846 
L 115.772387 284.73783 
L 119.482674 286.220374 
L 123.086954 287.476478 
L 126.2672 288.331666 
L 131.991644 289.579584 
L 137.928105 290.717896 
L 143.122508 291.461864 
L 149.907034 292.193156 
L 161.143905 293.17425 
L 161.885963 292.997513 
L 162.734028 292.616353 
L 163.794111 291.818883 
L 164.854193 290.715845 
L 166.020283 289.17545 
L 167.292382 287.077212 
L 168.670489 284.366732 
L 170.36662 280.495326 
L 172.062752 276.069018 
L 174.076908 270.151202 
L 177.257155 260.620949 
L 179.059294 256.137249 
L 180.967442 252.014017 
L 182.87559 248.425458 
L 184.889746 245.110849 
L 187.009911 242.060549 
L 189.342092 239.123609 
L 191.568264 236.6965 
L 194.006453 234.391695 
L 196.232626 232.577429 
L 198.776823 230.800042 
L 201.745053 229.007061 
L 204.9253 227.348005 
L 207.89353 226.028202 
L 211.073777 224.860222 
L 216.162171 223.294957 
L 219.766451 222.376623 
L 228.77715 220.527395 
L 239.271964 218.727695 
L 247.752621 217.521004 
L 254.007106 216.855654 
L 262.063731 216.248114 
L 265.986035 215.913326 
L 281.993276 214.679188 
L 291.322 214.019053 
L 295.45632 213.773749 
L 309.131381 213.340512 
L 320.898293 212.793216 
L 321.746359 213.009271 
L 322.594425 213.434474 
L 323.548499 214.162657 
L 324.502573 215.158549 
L 325.668663 216.711764 
L 326.940762 218.796894 
L 328.318869 221.514224 
L 330.015 225.420116 
L 331.81714 230.144427 
L 333.831296 236.085931 
L 337.011543 245.751619 
L 338.813683 250.295883 
L 340.721831 254.476957 
L 342.52397 257.940726 
L 344.538127 261.33666 
L 346.658291 264.4506 
L 348.778455 267.164985 
L 351.216644 269.892376 
L 353.654833 272.273123 
L 356.093023 274.315396 
L 358.319195 275.956299 
L 361.287425 277.846101 
L 364.149647 279.427146 
L 367.435902 280.949501 
L 372.100264 282.837065 
L 376.976642 284.326218 
L 382.277053 285.720273 
L 389.59162 287.236412 
L 400.510467 289.157734 
L 408.991125 290.501102 
L 418.531864 291.525773 
L 421.924127 291.79891 
L 426.800506 292.192173 
L 432.312933 292.655428 
L 442.59573 293.282208 
L 455.528733 294.010618 
L 478.214493 295.227738 
L 483.938936 295.461878 
L 484.574986 295.492205 
L 484.574986 295.492205 
" clip-path="url(#p43b5c798dd)" style="fill: none; stroke: #008000; stroke-linecap: round"/>
   </g>
   <g id="line2d_83">
    <path d="M 85.984077 254.285808 
L 86.726134 254.388352 
L 87.5742 254.744492 
L 88.528274 255.43008 
L 89.482348 256.397512 
L 90.648438 257.932879 
L 91.920537 259.989728 
L 93.616669 263.235174 
L 95.630825 266.901451 
L 97.644981 270.101037 
L 99.765145 273.044885 
L 101.991318 275.737088 
L 104.217491 278.065033 
L 106.65568 280.276699 
L 109.093869 282.186383 
L 111.638066 283.894669 
L 114.39428 285.480696 
L 117.36251 286.920743 
L 120.648765 288.260542 
L 124.465061 289.571565 
L 128.493373 290.717632 
L 133.051727 291.75877 
L 138.458146 292.754694 
L 144.924647 293.717451 
L 151.391149 294.430192 
L 158.387691 294.992584 
L 159.235757 294.832931 
L 160.083823 294.446944 
L 161.037897 293.73476 
L 161.991971 292.730087 
L 163.052053 291.27605 
L 164.324152 289.120392 
L 165.702259 286.310652 
L 167.186374 282.797339 
L 168.988513 277.908644 
L 171.108678 271.472448 
L 174.924974 259.655399 
L 176.833122 254.735219 
L 178.74127 250.438601 
L 180.649418 246.674787 
L 182.663574 243.205901 
L 184.67773 240.177048 
L 186.797894 237.383797 
L 189.024067 234.819411 
L 191.25024 232.58437 
L 193.688429 230.445522 
L 196.232626 228.508808 
L 198.98884 226.702108 
L 201.95707 225.016852 
L 205.137317 223.467633 
L 208.635588 222.016286 
L 212.6639 220.595937 
L 216.374188 219.498411 
L 221.356574 218.241153 
L 226.656985 217.135828 
L 232.805462 216.094363 
L 239.589988 215.162244 
L 248.070646 214.234055 
L 256.975336 213.468235 
L 267.576158 212.780646 
L 282.735334 212.110222 
L 292.382082 211.859976 
L 310.615496 211.606653 
L 311.463562 211.838895 
L 312.311627 212.310471 
L 313.265701 213.129653 
L 314.325784 214.354453 
L 315.491874 216.079231 
L 316.763973 218.389633 
L 318.248088 221.581846 
L 319.838211 225.546527 
L 321.640351 230.633613 
L 323.760515 237.310161 
L 326.516729 246.046972 
L 328.424877 251.205497 
L 330.333025 255.708598 
L 332.241173 259.645356 
L 334.149321 263.091101 
L 336.163477 266.284349 
L 338.283642 269.225531 
L 340.403806 271.791477 
L 342.735987 274.262325 
L 345.068168 276.408263 
L 347.506357 278.357646 
L 350.368579 280.354717 
L 353.336809 282.155696 
L 356.517055 283.817687 
L 359.909318 285.330594 
L 363.831623 286.823403 
L 368.17796 288.235021 
L 372.94833 289.541678 
L 378.566765 290.835718 
L 384.185201 291.903156 
L 390.651702 292.899261 
L 398.178286 293.827965 
L 407.613018 294.749031 
L 417.789807 295.516795 
L 429.238695 296.150376 
L 441.323632 296.617144 
L 461.359186 297.071153 
L 464.433424 297.116277 
L 464.433424 297.116277 
" clip-path="url(#p43b5c798dd)" style="fill: none; stroke: #ff0000; stroke-linecap: round"/>
   </g>
   <g id="patch_9">
    <path d="M 66.054531 303.54 
L 66.054531 204.76 
" style="fill: none; stroke: #000000; stroke-linejoin: miter; stroke-linecap: square"/>
   </g>
   <g id="patch_10">
    <path d="M 66.054531 303.54 
L 504.504531 303.54 
" style="fill: none; stroke: #000000; stroke-linejoin: miter; stroke-linecap: square"/>
   </g>
  </g>
 </g>
 <defs>
  <clipPath id="p8156a17dd6">
   <rect x="66.054531" y="7.2" width="438.45" height="98.78"/>
  </clipPath>
  <clipPath id="p89d5e6e3c5">
   <rect x="66.054531" y="105.98" width="438.45" height="98.78"/>
  </clipPath>
  <clipPath id="p43b5c798dd">
   <rect x="66.054531" y="204.76" width="438.45" height="98.78"/>
  </clipPath>
 </defs>
</svg>
