<?xml version="1.0" encoding="utf-8" standalone="no"?>
<!DOCTYPE svg PUBLIC "-//W3C//DTD SVG 1.1//EN"
  "http://www.w3.org/Graphics/SVG/1.1/DTD/svg11.dtd">
<svg xmlns:xlink="http://www.w3.org/1999/xlink" width="518.4pt" height="345.6pt" viewBox="0 0 518.4 345.6" xmlns="http://www.w3.org/2000/svg" version="1.1">
 <metadata>
  <rdf:RDF xmlns:dc="http://purl.org/dc/elements/1.1/" xmlns:cc="http://creativecommons.org/ns#" xmlns:rdf="http://www.w3.org/1999/02/22-rdf-syntax-ns#">
   <cc:Work>
    <dc:type rdf:resource="http://purl.org/dc/dcmitype/StillImage"/>
    <dc:date>2024-02-05T09:24:07.829930</dc:date>
    <dc:format>image/svg+xml</dc:format>
    <dc:creator>
     <cc:Agent>
      <dc:title>Matplotlib v3.8.2, https://matplotlib.org/</dc:title>
     </cc:Agent>
    </dc:creator>
   </cc:Work>
  </rdf:RDF>
 </metadata>
 <defs>
  <style type="text/css">*{stroke-linejoin: round; stroke-linecap: butt}</style>
 </defs>
 <g id="figure_1">
  <g id="patch_1">
   <path d="M 0 345.6 
L 518.4 345.6 
L 518.4 0 
L 0 0 
z
" style="fill: #ffffff"/>
  </g>
  <g id="axes_1">
   <g id="patch_2">
    <path d="M 44.361334 87.880289 
L 515.39976 87.880289 
L 515.39976 18.571571 
L 44.361334 18.571571 
z
" style="fill: #ffffff"/>
   </g>
   <g id="matplotlib.axis_1">
    <g id="xtick_1">
     <g id="line2d_1">
      <path d="M 65.772171 87.880289 
L 65.772171 18.571571 
" clip-path="url(#p7ec6e4dd78)" style="fill: none; stroke: #b0b0b0; stroke-width: 0.8; stroke-linecap: round"/>
     </g>
     <g id="line2d_2"/>
    </g>
    <g id="xtick_2">
     <g id="line2d_3">
      <path d="M 128.133687 87.880289 
L 128.133687 18.571571 
" clip-path="url(#p7ec6e4dd78)" style="fill: none; stroke: #b0b0b0; stroke-width: 0.8; stroke-linecap: round"/>
     </g>
     <g id="line2d_4"/>
    </g>
    <g id="xtick_3">
     <g id="line2d_5">
      <path d="M 190.495202 87.880289 
L 190.495202 18.571571 
" clip-path="url(#p7ec6e4dd78)" style="fill: none; stroke: #b0b0b0; stroke-width: 0.8; stroke-linecap: round"/>
     </g>
     <g id="line2d_6"/>
    </g>
    <g id="xtick_4">
     <g id="line2d_7">
      <path d="M 252.856717 87.880289 
L 252.856717 18.571571 
" clip-path="url(#p7ec6e4dd78)" style="fill: none; stroke: #b0b0b0; stroke-width: 0.8; stroke-linecap: round"/>
     </g>
     <g id="line2d_8"/>
    </g>
    <g id="xtick_5">
     <g id="line2d_9">
      <path d="M 315.218233 87.880289 
L 315.218233 18.571571 
" clip-path="url(#p7ec6e4dd78)" style="fill: none; stroke: #b0b0b0; stroke-width: 0.8; stroke-linecap: round"/>
     </g>
     <g id="line2d_10"/>
    </g>
    <g id="xtick_6">
     <g id="line2d_11">
      <path d="M 377.579748 87.880289 
L 377.579748 18.571571 
" clip-path="url(#p7ec6e4dd78)" style="fill: none; stroke: #b0b0b0; stroke-width: 0.8; stroke-linecap: round"/>
     </g>
     <g id="line2d_12"/>
    </g>
    <g id="xtick_7">
     <g id="line2d_13">
      <path d="M 439.941263 87.880289 
L 439.941263 18.571571 
" clip-path="url(#p7ec6e4dd78)" style="fill: none; stroke: #b0b0b0; stroke-width: 0.8; stroke-linecap: round"/>
     </g>
     <g id="line2d_14"/>
    </g>
    <g id="xtick_8">
     <g id="line2d_15">
      <path d="M 502.302779 87.880289 
L 502.302779 18.571571 
" clip-path="url(#p7ec6e4dd78)" style="fill: none; stroke: #b0b0b0; stroke-width: 0.8; stroke-linecap: round"/>
     </g>
     <g id="line2d_16"/>
    </g>
   </g>
   <g id="matplotlib.axis_2">
    <g id="ytick_1">
     <g id="line2d_17">
      <path d="M 44.361334 75.388768 
L 515.39976 75.388768 
" clip-path="url(#p7ec6e4dd78)" style="fill: none; stroke: #b0b0b0; stroke-width: 0.8; stroke-linecap: round"/>
     </g>
     <g id="line2d_18"/>
     <g id="text_1">
      <!-- −50 -->
      <g style="fill: #262626" transform="translate(17.646178 79.567908) scale(0.11 -0.11)">
       <defs>
        <path id="DejaVuSerif-2212" d="M 678 2259 
L 4684 2259 
L 4684 1753 
L 678 1753 
L 678 2259 
z
" transform="scale(0.015625)"/>
        <path id="DejaVuSerif-35" d="M 3219 4666 
L 3219 4153 
L 1081 4153 
L 1081 2816 
Q 1244 2928 1461 2984 
Q 1678 3041 1947 3041 
Q 2703 3041 3140 2622 
Q 3578 2203 3578 1478 
Q 3578 738 3136 323 
Q 2694 -91 1894 -91 
Q 1572 -91 1234 -12 
Q 897 66 544 225 
L 544 1131 
L 897 1131 
Q 925 688 1179 453 
Q 1434 219 1894 219 
Q 2388 219 2653 544 
Q 2919 869 2919 1478 
Q 2919 2084 2655 2407 
Q 2391 2731 1894 2731 
Q 1613 2731 1398 2631 
Q 1184 2531 1019 2322 
L 750 2322 
L 750 4666 
L 3219 4666 
z
" transform="scale(0.015625)"/>
        <path id="DejaVuSerif-30" d="M 2034 219 
Q 2513 219 2750 744 
Q 2988 1269 2988 2328 
Q 2988 3391 2750 3916 
Q 2513 4441 2034 4441 
Q 1556 4441 1318 3916 
Q 1081 3391 1081 2328 
Q 1081 1269 1318 744 
Q 1556 219 2034 219 
z
M 2034 -91 
Q 1275 -91 848 546 
Q 422 1184 422 2328 
Q 422 3475 848 4112 
Q 1275 4750 2034 4750 
Q 2797 4750 3222 4112 
Q 3647 3475 3647 2328 
Q 3647 1184 3222 546 
Q 2797 -91 2034 -91 
z
" transform="scale(0.015625)"/>
       </defs>
       <use xlink:href="#DejaVuSerif-2212"/>
       <use xlink:href="#DejaVuSerif-35" x="83.789062"/>
       <use xlink:href="#DejaVuSerif-30" x="147.412109"/>
      </g>
     </g>
    </g>
    <g id="ytick_2">
     <g id="line2d_19">
      <path d="M 44.361334 56.171245 
L 515.39976 56.171245 
" clip-path="url(#p7ec6e4dd78)" style="fill: none; stroke: #b0b0b0; stroke-width: 0.8; stroke-linecap: round"/>
     </g>
     <g id="line2d_20"/>
     <g id="text_2">
      <!-- 0 -->
      <g style="fill: #262626" transform="translate(33.862584 60.350386) scale(0.11 -0.11)">
       <use xlink:href="#DejaVuSerif-30"/>
      </g>
     </g>
    </g>
    <g id="ytick_3">
     <g id="line2d_21">
      <path d="M 44.361334 36.953723 
L 515.39976 36.953723 
" clip-path="url(#p7ec6e4dd78)" style="fill: none; stroke: #b0b0b0; stroke-width: 0.8; stroke-linecap: round"/>
     </g>
     <g id="line2d_22"/>
     <g id="text_3">
      <!-- 50 -->
      <g style="fill: #262626" transform="translate(26.863834 41.132863) scale(0.11 -0.11)">
       <use xlink:href="#DejaVuSerif-35"/>
       <use xlink:href="#DejaVuSerif-30" x="63.623047"/>
      </g>
     </g>
    </g>
    <g id="text_4">
     <!-- $N_H(v)$ -->
     <g style="fill: #262626" transform="translate(11.358521 67.96593) rotate(-90) scale(0.11 -0.11)">
      <defs>
       <path id="DejaVuSans-Oblique-4e" d="M 1081 4666 
L 1931 4666 
L 3219 666 
L 4000 4666 
L 4616 4666 
L 3706 0 
L 2853 0 
L 1569 4025 
L 788 0 
L 172 0 
L 1081 4666 
z
" transform="scale(0.015625)"/>
       <path id="DejaVuSans-Oblique-48" d="M 1081 4666 
L 1716 4666 
L 1344 2753 
L 3634 2753 
L 4006 4666 
L 4641 4666 
L 3731 0 
L 3097 0 
L 3531 2222 
L 1241 2222 
L 806 0 
L 172 0 
L 1081 4666 
z
" transform="scale(0.015625)"/>
       <path id="DejaVuSans-28" d="M 1984 4856 
Q 1566 4138 1362 3434 
Q 1159 2731 1159 2009 
Q 1159 1288 1364 580 
Q 1569 -128 1984 -844 
L 1484 -844 
Q 1016 -109 783 600 
Q 550 1309 550 2009 
Q 550 2706 781 3412 
Q 1013 4119 1484 4856 
L 1984 4856 
z
" transform="scale(0.015625)"/>
       <path id="DejaVuSans-Oblique-76" d="M 459 3500 
L 1069 3500 
L 1581 525 
L 3256 3500 
L 3866 3500 
L 1875 0 
L 1100 0 
L 459 3500 
z
" transform="scale(0.015625)"/>
       <path id="DejaVuSans-29" d="M 513 4856 
L 1013 4856 
Q 1481 4119 1714 3412 
Q 1947 2706 1947 2009 
Q 1947 1309 1714 600 
Q 1481 -109 1013 -844 
L 513 -844 
Q 928 -128 1133 580 
Q 1338 1288 1338 2009 
Q 1338 2731 1133 3434 
Q 928 4138 513 4856 
z
" transform="scale(0.015625)"/>
      </defs>
      <use xlink:href="#DejaVuSans-Oblique-4e" transform="translate(0 0.125)"/>
      <use xlink:href="#DejaVuSans-Oblique-48" transform="translate(74.804688 -16.28125) scale(0.7)"/>
      <use xlink:href="#DejaVuSans-28" transform="translate(130.175781 0.125)"/>
      <use xlink:href="#DejaVuSans-Oblique-76" transform="translate(169.189453 0.125)"/>
      <use xlink:href="#DejaVuSans-29" transform="translate(228.369141 0.125)"/>
     </g>
    </g>
   </g>
   <g id="line2d_23">
    <path d="M 65.772171 56.161275 
L 68.187975 56.23674 
L 69.860455 56.529953 
L 73.391246 57.475512 
L 75.001782 58.01201 
L 77.975079 59.061058 
L 85.03666 61.305865 
L 88.319676 62.836456 
L 90.673536 63.448998 
L 91.540748 63.520731 
L 92.903509 63.525816 
L 94.080439 63.790316 
L 96.434299 64.72478 
L 98.478441 65.412433 
L 100.46064 65.871047 
L 102.504781 65.755428 
L 103.433937 66.054413 
L 105.16836 66.630631 
L 106.716953 66.8765 
L 109.070813 67.157554 
L 109.876081 67.179804 
L 111.672448 66.943707 
L 113.035209 67.132885 
L 114.459914 67.306885 
L 115.512957 67.313602 
L 116.875718 67.151799 
L 118.795973 66.621073 
L 119.477353 66.231475 
L 120.654283 65.574223 
L 121.583439 65.336285 
L 123.070088 64.967706 
L 124.928398 64.273102 
L 127.530033 62.82784 
L 130.565274 61.136923 
L 133.972178 59.763629 
L 138.679898 57.527499 
L 140.538209 56.678049 
L 143.263732 55.597433 
L 147.166184 54.331199 
L 149.581988 53.630541 
L 151.192524 52.96507 
L 152.865004 52.337902 
L 156.086076 51.503268 
L 158.625767 51.178402 
L 160.979628 50.50157 
L 163.395432 49.913361 
L 165.501517 49.588143 
L 167.235941 49.449368 
L 168.536758 49.080501 
L 170.518957 48.521954 
L 172.934761 48.150061 
L 174.545297 48.019795 
L 176.031945 48.116628 
L 177.208875 47.85397 
L 179.934398 47.226185 
L 182.226315 46.924365 
L 184.084625 46.873577 
L 185.137668 47.007389 
L 186.314598 46.879276 
L 188.172909 46.386434 
L 189.659558 46.101421 
L 191.951474 45.938962 
L 193.252292 45.984295 
L 194.800884 46.272607 
L 195.668096 46.173971 
L 199.570549 45.458595 
L 201.428859 45.323865 
L 202.419959 45.399501 
L 203.78272 45.674038 
L 204.711875 45.598332 
L 208.924046 45.047283 
L 211.897344 45.237891 
L 213.198161 45.532828 
L 214.003429 45.49352 
L 215.180359 45.230061 
L 216.852839 44.901154 
L 218.896981 44.777329 
L 220.569461 44.951272 
L 221.250841 45.280445 
L 222.179997 45.687126 
L 223.109152 45.859235 
L 227.692985 46.255053 
L 229.861015 46.831818 
L 230.852114 47.413745 
L 231.905156 47.916497 
L 233.329861 48.342188 
L 234.630679 48.777655 
L 236.984539 49.969681 
L 238.904794 50.847423 
L 241.878091 51.969744 
L 243.674458 52.547477 
L 251.851026 55.759315 
L 257.921508 57.553752 
L 260.64703 58.280565 
L 264.363652 59.365763 
L 266.965287 59.878048 
L 269.752753 60.292335 
L 272.292444 60.901776 
L 275.017967 61.43585 
L 276.566559 61.652535 
L 277.929321 61.728303 
L 280.09735 62.232195 
L 282.203435 62.610003 
L 285.548395 63.016911 
L 287.220875 62.994727 
L 288.707523 63.334286 
L 290.937496 63.899224 
L 292.981638 64.12195 
L 295.02578 64.147927 
L 296.264654 64.021468 
L 297.193809 64.143171 
L 300.662656 64.860364 
L 303.635953 65.129939 
L 304.503165 64.967888 
L 305.680095 64.8124 
L 306.671194 64.946213 
L 309.086998 65.464781 
L 311.255027 65.634828 
L 313.608888 65.545305 
L 314.847762 65.325734 
L 315.776917 65.423073 
L 318.378552 65.881094 
L 321.042131 66.090676 
L 322.404892 65.997794 
L 324.263203 65.692737 
L 325.37819 65.809192 
L 327.979825 66.331966 
L 330.023967 66.392935 
L 331.634503 66.330977 
L 334.174194 65.845931 
L 336.466111 65.834523 
L 340.802169 65.01232 
L 343.032142 64.158243 
L 346.253214 63.361581 
L 347.86375 62.561753 
L 349.845948 61.65472 
L 350.960935 61.073727 
L 352.013978 60.623286 
L 353.996176 60.157476 
L 355.606712 59.688384 
L 357.465023 58.989749 
L 362.296631 57.137795 
L 367.066295 55.755765 
L 378.030329 52.886509 
L 380.322245 52.661105 
L 387.136052 51.257695 
L 388.6227 51.163334 
L 389.923518 50.920354 
L 395.126788 49.86746 
L 396.923155 49.800181 
L 398.223973 49.807259 
L 399.462847 49.617827 
L 402.3742 48.877912 
L 405.533329 48.514556 
L 408.506626 48.648367 
L 409.807443 48.210174 
L 411.046317 47.904925 
L 414.205446 47.677609 
L 415.444319 47.807537 
L 416.62125 47.847175 
L 418.417617 47.48846 
L 419.966209 47.16591 
L 423.930605 46.99254 
L 425.726973 47.286475 
L 427.02779 47.042389 
L 429.319707 46.645644 
L 432.23106 46.481776 
L 433.593822 46.542114 
L 434.956583 46.846607 
L 435.761851 46.797226 
L 439.912078 46.143652 
L 442.575657 46.255755 
L 443.442869 46.486837 
L 444.372024 46.652955 
L 445.363123 46.537469 
L 447.469209 46.089749 
L 449.823069 46.182872 
L 451.867211 46.678707 
L 453.849409 47.405948 
L 455.336058 47.525609 
L 457.627975 47.800734 
L 459.114623 48.20373 
L 461.034878 49.05972 
L 463.017076 50.161252 
L 465.185105 50.920764 
L 470.574206 52.744534 
L 476.520801 54.948674 
L 480.609085 56.208134 
L 484.325706 57.217145 
L 487.980384 58.258639 
L 489.776751 58.619506 
L 491.325344 58.967221 
L 493.988922 59.663447 
L 493.988922 59.663447 
" clip-path="url(#p7ec6e4dd78)" style="fill: none; stroke: #0000ff; stroke-linecap: round"/>
   </g>
   <g id="line2d_24">
    <path d="M 65.772171 56.16245 
L 68.249919 56.235089 
L 70.046286 56.526879 
L 74.196514 57.536752 
L 81.753644 59.71978 
L 84.974716 60.673019 
L 88.257732 62.036044 
L 91.292973 62.661652 
L 93.337115 62.719489 
L 94.76182 63.112947 
L 99.283709 64.524688 
L 100.46064 64.728038 
L 102.504781 64.626043 
L 103.557824 64.932137 
L 105.044473 65.367866 
L 106.221403 65.56314 
L 109.999968 65.85954 
L 111.238842 65.673064 
L 112.167998 65.719568 
L 115.512957 66.000604 
L 116.937662 65.845711 
L 119.105691 65.25162 
L 120.964002 64.375266 
L 124.804511 63.369482 
L 126.476991 62.570915 
L 130.813049 60.472743 
L 133.352741 59.595894 
L 143.759281 55.50629 
L 147.166184 54.548027 
L 149.705876 53.892989 
L 151.564186 53.198083 
L 153.174722 52.709644 
L 156.14802 52.048598 
L 158.50188 51.793589 
L 165.37763 50.36547 
L 167.112053 50.261945 
L 168.412871 49.955319 
L 170.271182 49.469025 
L 173.120592 49.075413 
L 174.669184 48.99639 
L 176.093889 49.058498 
L 177.45665 48.776873 
L 180.120229 48.254113 
L 182.288258 48.009517 
L 184.146569 47.981413 
L 185.385443 48.084516 
L 186.562373 47.923495 
L 190.588713 47.215108 
L 192.942573 47.125553 
L 195.358377 47.399776 
L 201.304972 46.609339 
L 202.296071 46.639486 
L 203.844663 46.912995 
L 205.145481 46.773664 
L 207.747116 46.424324 
L 209.543483 46.366815 
L 211.587625 46.44584 
L 213.50788 46.792173 
L 214.437035 46.680438 
L 218.153657 46.121142 
L 220.197798 46.212328 
L 220.941123 46.414001 
L 222.365828 46.969833 
L 223.418871 47.088989 
L 226.701886 47.290858 
L 228.993803 47.695524 
L 230.170733 48.075938 
L 231.9671 48.909875 
L 233.391805 49.278591 
L 234.754566 49.700005 
L 237.356201 50.86775 
L 240.267555 52.034444 
L 241.754204 52.437756 
L 243.550571 52.930211 
L 252.284632 55.927279 
L 258.355113 57.47919 
L 260.64703 58.032006 
L 264.549483 59.029061 
L 267.213062 59.461384 
L 269.443035 59.735102 
L 274.460474 60.721194 
L 276.628503 61.005357 
L 277.929321 61.073468 
L 280.407068 61.581126 
L 282.760929 61.921734 
L 285.610338 62.205956 
L 287.096987 62.178481 
L 288.273917 62.384922 
L 291.433046 63.047951 
L 294.53023 63.264226 
L 297.317697 63.228704 
L 302.273192 63.987118 
L 304.25539 63.980818 
L 305.680095 63.79414 
L 306.733138 63.926431 
L 309.582548 64.421564 
L 311.564746 64.530844 
L 313.361113 64.500653 
L 314.971649 64.249028 
L 316.024692 64.389036 
L 318.00689 64.709335 
L 322.466836 64.827657 
L 324.015428 64.56982 
L 325.068471 64.631288 
L 326.183458 64.839234 
L 328.785093 65.178838 
L 331.820334 65.086677 
L 333.554757 64.710554 
L 334.793631 64.739555 
L 336.342223 64.70865 
L 338.881915 64.372252 
L 340.30662 64.097816 
L 341.111888 63.845923 
L 342.846311 63.254937 
L 346.810707 62.284393 
L 352.38564 60.007292 
L 356.597811 58.96305 
L 363.96911 56.564812 
L 369.544043 55.265018 
L 372.269565 54.60025 
L 375.490637 53.760821 
L 377.72061 53.299343 
L 381.499176 52.811138 
L 383.91498 52.289973 
L 388.312982 51.781023 
L 389.923518 51.539111 
L 395.250675 50.598457 
L 396.985099 50.555856 
L 398.409804 50.544196 
L 399.648678 50.341735 
L 402.002538 49.779951 
L 405.657216 49.425661 
L 408.506626 49.534851 
L 410.117162 49.067081 
L 411.727698 48.812632 
L 414.205446 48.678485 
L 415.568207 48.807635 
L 416.683193 48.820388 
L 419.346772 48.313366 
L 420.64759 48.18953 
L 423.930605 48.074144 
L 425.788916 48.327874 
L 427.337509 48.050175 
L 428.70027 47.821806 
L 430.496637 47.715445 
L 432.974385 47.603301 
L 433.593822 47.676796 
L 435.018527 47.948812 
L 435.823795 47.891882 
L 440.407628 47.337361 
L 443.876475 47.727191 
L 444.743686 47.762917 
L 445.858673 47.541797 
L 447.283378 47.284001 
L 449.637238 47.324481 
L 452.362761 47.997118 
L 453.601634 48.394544 
L 454.902452 48.526417 
L 456.698819 48.664539 
L 458.309355 48.91404 
L 459.857947 49.406965 
L 461.468484 50.139128 
L 462.893188 50.823727 
L 465.185105 51.539472 
L 470.698094 53.1921 
L 475.15804 54.66626 
L 478.626887 55.743671 
L 481.042691 56.290917 
L 483.768213 56.941287 
L 489.095371 58.237448 
L 492.254499 58.849006 
L 493.988922 59.251931 
L 493.988922 59.251931 
" clip-path="url(#p7ec6e4dd78)" style="fill: none; stroke: #008000; stroke-linecap: round"/>
   </g>
   <g id="line2d_25">
    <path d="M 65.772171 56.170343 
L 72.585978 56.271373 
L 85.346378 56.649631 
L 91.602691 56.835783 
L 96.000694 56.929158 
L 102.071176 57.031532 
L 118.424311 57.126877 
L 126.724765 56.814394 
L 140.228491 56.229087 
L 154.723315 55.776547 
L 171.510056 55.463996 
L 194.367278 55.273421 
L 199.384718 55.203558 
L 211.959287 55.183728 
L 215.428134 55.175261 
L 220.693348 55.160104 
L 225.896618 55.253251 
L 231.347663 55.403221 
L 249.74494 56.070256 
L 266.965287 56.50663 
L 289.574735 56.842488 
L 296.264654 56.881519 
L 310.573647 57.024871 
L 335.846674 57.05117 
L 341.979099 56.924076 
L 364.278829 56.203779 
L 387.383826 55.726457 
L 395.684281 55.595751 
L 423.497 55.338393 
L 446.911716 55.263989 
L 451.619436 55.30359 
L 489.157314 56.384172 
L 493.988922 56.487213 
L 493.988922 56.487213 
" clip-path="url(#p7ec6e4dd78)" style="fill: none; stroke: #ff0000; stroke-linecap: round"/>
   </g>
   <g id="patch_3">
    <path d="M 44.361334 87.880289 
L 44.361334 18.571571 
" style="fill: none; stroke: #000000; stroke-linejoin: miter; stroke-linecap: square"/>
   </g>
   <g id="patch_4">
    <path d="M 44.361334 87.880289 
L 515.39976 87.880289 
" style="fill: none; stroke: #000000; stroke-linejoin: miter; stroke-linecap: square"/>
   </g>
   <g id="legend_1">
    <g id="line2d_26">
     <path d="M 74.198594 12.187236 
L 85.198594 12.187236 
L 96.198594 12.187236 
" style="fill: none; stroke: #0000ff; stroke-linecap: round"/>
    </g>
    <g id="text_5">
     <!-- Reference model -->
     <g style="fill: #262626" transform="translate(104.998594 16.037236) scale(0.11 -0.11)">
      <defs>
       <path id="DejaVuSerif-52" d="M 3066 2316 
Q 3284 2256 3442 2114 
Q 3600 1972 3725 1716 
L 4403 331 
L 4972 331 
L 4972 0 
L 3872 0 
L 3144 1484 
Q 2934 1916 2759 2042 
Q 2584 2169 2278 2169 
L 1581 2169 
L 1581 331 
L 2241 331 
L 2241 0 
L 353 0 
L 353 331 
L 947 331 
L 947 4331 
L 353 4331 
L 353 4666 
L 2719 4666 
Q 3400 4666 3770 4341 
Q 4141 4016 4141 3419 
Q 4141 2938 3870 2661 
Q 3600 2384 3066 2316 
z
M 1581 2503 
L 2503 2503 
Q 2975 2503 3200 2726 
Q 3425 2950 3425 3419 
Q 3425 3888 3200 4109 
Q 2975 4331 2503 4331 
L 1581 4331 
L 1581 2503 
z
" transform="scale(0.015625)"/>
       <path id="DejaVuSerif-65" d="M 3469 1600 
L 991 1600 
L 991 1575 
Q 991 903 1244 561 
Q 1497 219 1991 219 
Q 2369 219 2611 417 
Q 2853 616 2950 1006 
L 3413 1006 
Q 3275 459 2904 184 
Q 2534 -91 1931 -91 
Q 1203 -91 761 389 
Q 319 869 319 1663 
Q 319 2450 753 2931 
Q 1188 3413 1894 3413 
Q 2647 3413 3050 2948 
Q 3453 2484 3469 1600 
z
M 2791 1931 
Q 2772 2513 2545 2808 
Q 2319 3103 1894 3103 
Q 1497 3103 1269 2806 
Q 1041 2509 991 1931 
L 2791 1931 
z
" transform="scale(0.015625)"/>
       <path id="DejaVuSerif-66" d="M 2753 4078 
L 2450 4078 
Q 2447 4313 2317 4434 
Q 2188 4556 1941 4556 
Q 1619 4556 1487 4379 
Q 1356 4203 1356 3750 
L 1356 3322 
L 2284 3322 
L 2284 2988 
L 1356 2988 
L 1356 331 
L 2094 331 
L 2094 0 
L 231 0 
L 231 331 
L 781 331 
L 781 2988 
L 231 2988 
L 231 3322 
L 781 3322 
L 781 3738 
Q 781 4294 1070 4578 
Q 1359 4863 1919 4863 
Q 2128 4863 2337 4825 
Q 2547 4788 2753 4709 
L 2753 4078 
z
" transform="scale(0.015625)"/>
       <path id="DejaVuSerif-72" d="M 3059 3328 
L 3059 2497 
L 2728 2497 
Q 2713 2744 2591 2866 
Q 2469 2988 2234 2988 
Q 1809 2988 1582 2694 
Q 1356 2400 1356 1850 
L 1356 331 
L 2022 331 
L 2022 0 
L 263 0 
L 263 331 
L 781 331 
L 781 2994 
L 231 2994 
L 231 3322 
L 1356 3322 
L 1356 2731 
Q 1525 3078 1790 3245 
Q 2056 3413 2438 3413 
Q 2578 3413 2733 3391 
Q 2888 3369 3059 3328 
z
" transform="scale(0.015625)"/>
       <path id="DejaVuSerif-6e" d="M 263 0 
L 263 331 
L 781 331 
L 781 2988 
L 231 2988 
L 231 3322 
L 1356 3322 
L 1356 2731 
Q 1516 3069 1770 3241 
Q 2025 3413 2363 3413 
Q 2913 3413 3172 3097 
Q 3431 2781 3431 2113 
L 3431 331 
L 3944 331 
L 3944 0 
L 2356 0 
L 2356 331 
L 2853 331 
L 2853 1931 
Q 2853 2541 2703 2767 
Q 2553 2994 2175 2994 
Q 1775 2994 1565 2701 
Q 1356 2409 1356 1850 
L 1356 331 
L 1856 331 
L 1856 0 
L 263 0 
z
" transform="scale(0.015625)"/>
       <path id="DejaVuSerif-63" d="M 3291 997 
Q 3169 466 2822 187 
Q 2475 -91 1925 -91 
Q 1200 -91 759 389 
Q 319 869 319 1663 
Q 319 2459 759 2936 
Q 1200 3413 1925 3413 
Q 2241 3413 2553 3339 
Q 2866 3266 3181 3116 
L 3181 2266 
L 2847 2266 
Q 2781 2703 2561 2903 
Q 2341 3103 1931 3103 
Q 1466 3103 1228 2742 
Q 991 2381 991 1663 
Q 991 944 1227 581 
Q 1463 219 1931 219 
Q 2303 219 2525 412 
Q 2747 606 2828 997 
L 3291 997 
z
" transform="scale(0.015625)"/>
       <path id="DejaVuSerif-20" transform="scale(0.015625)"/>
       <path id="DejaVuSerif-6d" d="M 3316 2675 
Q 3481 3041 3739 3227 
Q 3997 3413 4341 3413 
Q 4863 3413 5119 3089 
Q 5375 2766 5375 2113 
L 5375 331 
L 5894 331 
L 5894 0 
L 4300 0 
L 4300 331 
L 4800 331 
L 4800 2047 
Q 4800 2556 4650 2772 
Q 4500 2988 4153 2988 
Q 3769 2988 3567 2697 
Q 3366 2406 3366 1850 
L 3366 331 
L 3866 331 
L 3866 0 
L 2291 0 
L 2291 331 
L 2791 331 
L 2791 2069 
Q 2791 2566 2641 2777 
Q 2491 2988 2144 2988 
Q 1759 2988 1557 2697 
Q 1356 2406 1356 1850 
L 1356 331 
L 1856 331 
L 1856 0 
L 263 0 
L 263 331 
L 781 331 
L 781 2994 
L 231 2994 
L 231 3322 
L 1356 3322 
L 1356 2731 
Q 1516 3063 1762 3238 
Q 2009 3413 2322 3413 
Q 2709 3413 2968 3220 
Q 3228 3028 3316 2675 
z
" transform="scale(0.015625)"/>
       <path id="DejaVuSerif-6f" d="M 1925 219 
Q 2388 219 2623 584 
Q 2859 950 2859 1663 
Q 2859 2375 2623 2739 
Q 2388 3103 1925 3103 
Q 1463 3103 1227 2739 
Q 991 2375 991 1663 
Q 991 950 1228 584 
Q 1466 219 1925 219 
z
M 1925 -91 
Q 1200 -91 759 389 
Q 319 869 319 1663 
Q 319 2456 758 2934 
Q 1197 3413 1925 3413 
Q 2653 3413 3092 2934 
Q 3531 2456 3531 1663 
Q 3531 869 3092 389 
Q 2653 -91 1925 -91 
z
" transform="scale(0.015625)"/>
       <path id="DejaVuSerif-64" d="M 3359 331 
L 3909 331 
L 3909 0 
L 2784 0 
L 2784 519 
Q 2616 206 2355 57 
Q 2094 -91 1709 -91 
Q 1097 -91 708 395 
Q 319 881 319 1663 
Q 319 2444 706 2928 
Q 1094 3413 1709 3413 
Q 2094 3413 2355 3264 
Q 2616 3116 2784 2803 
L 2784 4531 
L 2241 4531 
L 2241 4863 
L 3359 4863 
L 3359 331 
z
M 2784 1497 
L 2784 1825 
Q 2784 2422 2554 2737 
Q 2325 3053 1888 3053 
Q 1444 3053 1217 2703 
Q 991 2353 991 1663 
Q 991 975 1217 622 
Q 1444 269 1888 269 
Q 2325 269 2554 583 
Q 2784 897 2784 1497 
z
" transform="scale(0.015625)"/>
       <path id="DejaVuSerif-6c" d="M 1313 331 
L 1856 331 
L 1856 0 
L 184 0 
L 184 331 
L 738 331 
L 738 4531 
L 184 4531 
L 184 4863 
L 1313 4863 
L 1313 331 
z
" transform="scale(0.015625)"/>
      </defs>
      <use xlink:href="#DejaVuSerif-52"/>
      <use xlink:href="#DejaVuSerif-65" x="75.292969"/>
      <use xlink:href="#DejaVuSerif-66" x="134.472656"/>
      <use xlink:href="#DejaVuSerif-65" x="171.484375"/>
      <use xlink:href="#DejaVuSerif-72" x="230.664062"/>
      <use xlink:href="#DejaVuSerif-65" x="278.466797"/>
      <use xlink:href="#DejaVuSerif-6e" x="337.646484"/>
      <use xlink:href="#DejaVuSerif-63" x="402.050781"/>
      <use xlink:href="#DejaVuSerif-65" x="458.056641"/>
      <use xlink:href="#DejaVuSerif-20" x="517.236328"/>
      <use xlink:href="#DejaVuSerif-6d" x="549.023438"/>
      <use xlink:href="#DejaVuSerif-6f" x="643.847656"/>
      <use xlink:href="#DejaVuSerif-64" x="704.052734"/>
      <use xlink:href="#DejaVuSerif-65" x="768.066406"/>
      <use xlink:href="#DejaVuSerif-6c" x="827.246094"/>
     </g>
    </g>
    <g id="line2d_27">
     <path d="M 221.517812 12.187236 
L 232.517812 12.187236 
L 243.517812 12.187236 
" style="fill: none; stroke: #008000; stroke-linecap: round"/>
    </g>
    <g id="text_6">
     <!-- Physics informed ID -->
     <g style="fill: #262626" transform="translate(252.317812 16.037236) scale(0.11 -0.11)">
      <defs>
       <path id="DejaVuSerif-50" d="M 1581 2375 
L 2406 2375 
Q 2872 2375 3115 2626 
Q 3359 2878 3359 3353 
Q 3359 3831 3115 4081 
Q 2872 4331 2406 4331 
L 1581 4331 
L 1581 2375 
z
M 353 0 
L 353 331 
L 947 331 
L 947 4331 
L 353 4331 
L 353 4666 
L 2559 4666 
Q 3259 4666 3668 4311 
Q 4078 3956 4078 3353 
Q 4078 2753 3668 2397 
Q 3259 2041 2559 2041 
L 1581 2041 
L 1581 331 
L 2303 331 
L 2303 0 
L 353 0 
z
" transform="scale(0.015625)"/>
       <path id="DejaVuSerif-68" d="M 263 0 
L 263 331 
L 781 331 
L 781 4531 
L 231 4531 
L 231 4863 
L 1356 4863 
L 1356 2731 
Q 1516 3069 1770 3241 
Q 2025 3413 2363 3413 
Q 2913 3413 3172 3097 
Q 3431 2781 3431 2113 
L 3431 331 
L 3944 331 
L 3944 0 
L 2356 0 
L 2356 331 
L 2853 331 
L 2853 1931 
Q 2853 2541 2704 2764 
Q 2556 2988 2175 2988 
Q 1775 2988 1565 2697 
Q 1356 2406 1356 1850 
L 1356 331 
L 1856 331 
L 1856 0 
L 263 0 
z
" transform="scale(0.015625)"/>
       <path id="DejaVuSerif-79" d="M 1381 -609 
L 1600 -56 
L 359 2988 
L -19 2988 
L -19 3322 
L 1509 3322 
L 1509 2988 
L 978 2988 
L 1913 703 
L 2847 2988 
L 2350 2988 
L 2350 3322 
L 3597 3322 
L 3597 2988 
L 3225 2988 
L 1703 -750 
Q 1547 -1138 1356 -1280 
Q 1166 -1422 819 -1422 
Q 672 -1422 517 -1397 
Q 363 -1372 206 -1325 
L 206 -691 
L 500 -691 
Q 519 -903 608 -995 
Q 697 -1088 884 -1088 
Q 1056 -1088 1161 -992 
Q 1266 -897 1381 -609 
z
" transform="scale(0.015625)"/>
       <path id="DejaVuSerif-73" d="M 359 184 
L 359 959 
L 691 959 
Q 703 588 923 403 
Q 1144 219 1575 219 
Q 1963 219 2166 364 
Q 2369 509 2369 788 
Q 2369 1006 2220 1140 
Q 2072 1275 1594 1428 
L 1178 1569 
Q 750 1706 558 1912 
Q 366 2119 366 2438 
Q 366 2894 700 3153 
Q 1034 3413 1625 3413 
Q 1888 3413 2178 3344 
Q 2469 3275 2778 3144 
L 2778 2419 
L 2447 2419 
Q 2434 2741 2221 2922 
Q 2009 3103 1644 3103 
Q 1281 3103 1095 2975 
Q 909 2847 909 2591 
Q 909 2381 1050 2254 
Q 1191 2128 1613 1997 
L 2069 1856 
Q 2541 1709 2748 1489 
Q 2956 1269 2956 922 
Q 2956 450 2595 179 
Q 2234 -91 1600 -91 
Q 1278 -91 972 -22 
Q 666 47 359 184 
z
" transform="scale(0.015625)"/>
       <path id="DejaVuSerif-69" d="M 622 4353 
Q 622 4497 726 4603 
Q 831 4709 978 4709 
Q 1122 4709 1226 4603 
Q 1331 4497 1331 4353 
Q 1331 4206 1228 4103 
Q 1125 4000 978 4000 
Q 831 4000 726 4103 
Q 622 4206 622 4353 
z
M 1356 331 
L 1900 331 
L 1900 0 
L 231 0 
L 231 331 
L 781 331 
L 781 2988 
L 231 2988 
L 231 3322 
L 1356 3322 
L 1356 331 
z
" transform="scale(0.015625)"/>
       <path id="DejaVuSerif-49" d="M 1581 331 
L 2175 331 
L 2175 0 
L 353 0 
L 353 331 
L 947 331 
L 947 4331 
L 353 4331 
L 353 4666 
L 2175 4666 
L 2175 4331 
L 1581 4331 
L 1581 331 
z
" transform="scale(0.015625)"/>
       <path id="DejaVuSerif-44" d="M 1581 331 
L 2163 331 
Q 3072 331 3558 850 
Q 4044 1369 4044 2338 
Q 4044 3306 3559 3818 
Q 3075 4331 2163 4331 
L 1581 4331 
L 1581 331 
z
M 353 0 
L 353 331 
L 947 331 
L 947 4331 
L 353 4331 
L 353 4666 
L 2209 4666 
Q 3416 4666 4089 4050 
Q 4763 3434 4763 2338 
Q 4763 1238 4088 619 
Q 3413 0 2209 0 
L 353 0 
z
" transform="scale(0.015625)"/>
      </defs>
      <use xlink:href="#DejaVuSerif-50"/>
      <use xlink:href="#DejaVuSerif-68" x="67.285156"/>
      <use xlink:href="#DejaVuSerif-79" x="131.689453"/>
      <use xlink:href="#DejaVuSerif-73" x="188.183594"/>
      <use xlink:href="#DejaVuSerif-69" x="239.501953"/>
      <use xlink:href="#DejaVuSerif-63" x="271.484375"/>
      <use xlink:href="#DejaVuSerif-73" x="327.490234"/>
      <use xlink:href="#DejaVuSerif-20" x="378.808594"/>
      <use xlink:href="#DejaVuSerif-69" x="410.595703"/>
      <use xlink:href="#DejaVuSerif-6e" x="442.578125"/>
      <use xlink:href="#DejaVuSerif-66" x="506.982422"/>
      <use xlink:href="#DejaVuSerif-6f" x="543.994141"/>
      <use xlink:href="#DejaVuSerif-72" x="604.199219"/>
      <use xlink:href="#DejaVuSerif-6d" x="652.001953"/>
      <use xlink:href="#DejaVuSerif-65" x="746.826172"/>
      <use xlink:href="#DejaVuSerif-64" x="806.005859"/>
      <use xlink:href="#DejaVuSerif-20" x="870.019531"/>
      <use xlink:href="#DejaVuSerif-49" x="901.806641"/>
      <use xlink:href="#DejaVuSerif-44" x="941.308594"/>
     </g>
    </g>
    <g id="line2d_28">
     <path d="M 386.679375 12.187236 
L 397.679375 12.187236 
L 408.679375 12.187236 
" style="fill: none; stroke: #ff0000; stroke-linecap: round"/>
    </g>
    <g id="text_7">
     <!-- Abkowitz ID -->
     <g style="fill: #262626" transform="translate(417.479375 16.037236) scale(0.11 -0.11)">
      <defs>
       <path id="DejaVuSerif-41" d="M 1281 1691 
L 2994 1691 
L 2138 3909 
L 1281 1691 
z
M -38 0 
L -38 331 
L 372 331 
L 2034 4666 
L 2559 4666 
L 4225 331 
L 4684 331 
L 4684 0 
L 2988 0 
L 2988 331 
L 3506 331 
L 3116 1356 
L 1153 1356 
L 763 331 
L 1275 331 
L 1275 0 
L -38 0 
z
" transform="scale(0.015625)"/>
       <path id="DejaVuSerif-62" d="M 738 331 
L 738 4531 
L 184 4531 
L 184 4863 
L 1313 4863 
L 1313 2803 
Q 1481 3116 1742 3264 
Q 2003 3413 2388 3413 
Q 3000 3413 3387 2928 
Q 3775 2444 3775 1663 
Q 3775 881 3387 395 
Q 3000 -91 2388 -91 
Q 2003 -91 1742 57 
Q 1481 206 1313 519 
L 1313 0 
L 184 0 
L 184 331 
L 738 331 
z
M 1313 1497 
Q 1313 897 1542 583 
Q 1772 269 2209 269 
Q 2650 269 2876 622 
Q 3103 975 3103 1663 
Q 3103 2353 2876 2703 
Q 2650 3053 2209 3053 
Q 1772 3053 1542 2737 
Q 1313 2422 1313 1825 
L 1313 1497 
z
" transform="scale(0.015625)"/>
       <path id="DejaVuSerif-6b" d="M 1831 0 
L 219 0 
L 219 331 
L 738 331 
L 738 4531 
L 184 4531 
L 184 4863 
L 1313 4863 
L 1313 1697 
L 2713 2988 
L 2234 2988 
L 2234 3322 
L 3738 3322 
L 3738 2988 
L 3169 2988 
L 2181 2075 
L 3444 331 
L 3922 331 
L 3922 0 
L 2284 0 
L 2284 331 
L 2759 331 
L 1766 1697 
L 1313 1275 
L 1313 331 
L 1831 331 
L 1831 0 
z
" transform="scale(0.015625)"/>
       <path id="DejaVuSerif-77" d="M 3072 3322 
L 3922 728 
L 4672 2988 
L 4191 2988 
L 4191 3322 
L 5394 3322 
L 5394 2988 
L 5025 2988 
L 4038 0 
L 3559 0 
L 2741 2484 
L 1919 0 
L 1459 0 
L 475 2988 
L 103 2988 
L 103 3322 
L 1606 3322 
L 1606 2988 
L 1069 2988 
L 1813 728 
L 2669 3322 
L 3072 3322 
z
" transform="scale(0.015625)"/>
       <path id="DejaVuSerif-74" d="M 691 2988 
L 184 2988 
L 184 3322 
L 691 3322 
L 691 4353 
L 1269 4353 
L 1269 3322 
L 2350 3322 
L 2350 2988 
L 1269 2988 
L 1269 878 
Q 1269 456 1350 337 
Q 1431 219 1650 219 
Q 1875 219 1978 351 
Q 2081 484 2088 781 
L 2522 781 
Q 2497 328 2275 118 
Q 2053 -91 1600 -91 
Q 1103 -91 897 129 
Q 691 350 691 878 
L 691 2988 
z
" transform="scale(0.015625)"/>
       <path id="DejaVuSerif-7a" d="M 256 0 
L 256 269 
L 2338 2988 
L 691 2988 
L 691 2413 
L 359 2413 
L 359 3322 
L 3078 3322 
L 3078 3053 
L 997 331 
L 2803 331 
L 2803 934 
L 3138 934 
L 3138 0 
L 256 0 
z
" transform="scale(0.015625)"/>
      </defs>
      <use xlink:href="#DejaVuSerif-41"/>
      <use xlink:href="#DejaVuSerif-62" x="72.216797"/>
      <use xlink:href="#DejaVuSerif-6b" x="136.230469"/>
      <use xlink:href="#DejaVuSerif-6f" x="196.826172"/>
      <use xlink:href="#DejaVuSerif-77" x="257.03125"/>
      <use xlink:href="#DejaVuSerif-69" x="342.626953"/>
      <use xlink:href="#DejaVuSerif-74" x="374.609375"/>
      <use xlink:href="#DejaVuSerif-7a" x="414.794922"/>
      <use xlink:href="#DejaVuSerif-20" x="467.480469"/>
      <use xlink:href="#DejaVuSerif-49" x="499.267578"/>
      <use xlink:href="#DejaVuSerif-44" x="538.769531"/>
     </g>
    </g>
   </g>
  </g>
  <g id="axes_2">
   <g id="patch_5">
    <path d="M 44.361334 163.189488 
L 515.39976 163.189488 
L 515.39976 93.880769 
L 44.361334 93.880769 
z
" style="fill: #ffffff"/>
   </g>
   <g id="matplotlib.axis_3">
    <g id="xtick_9">
     <g id="line2d_29">
      <path d="M 65.772171 163.189488 
L 65.772171 93.880769 
" clip-path="url(#pebe1f7810f)" style="fill: none; stroke: #b0b0b0; stroke-width: 0.8; stroke-linecap: round"/>
     </g>
     <g id="line2d_30"/>
    </g>
    <g id="xtick_10">
     <g id="line2d_31">
      <path d="M 128.133687 163.189488 
L 128.133687 93.880769 
" clip-path="url(#pebe1f7810f)" style="fill: none; stroke: #b0b0b0; stroke-width: 0.8; stroke-linecap: round"/>
     </g>
     <g id="line2d_32"/>
    </g>
    <g id="xtick_11">
     <g id="line2d_33">
      <path d="M 190.495202 163.189488 
L 190.495202 93.880769 
" clip-path="url(#pebe1f7810f)" style="fill: none; stroke: #b0b0b0; stroke-width: 0.8; stroke-linecap: round"/>
     </g>
     <g id="line2d_34"/>
    </g>
    <g id="xtick_12">
     <g id="line2d_35">
      <path d="M 252.856717 163.189488 
L 252.856717 93.880769 
" clip-path="url(#pebe1f7810f)" style="fill: none; stroke: #b0b0b0; stroke-width: 0.8; stroke-linecap: round"/>
     </g>
     <g id="line2d_36"/>
    </g>
    <g id="xtick_13">
     <g id="line2d_37">
      <path d="M 315.218233 163.189488 
L 315.218233 93.880769 
" clip-path="url(#pebe1f7810f)" style="fill: none; stroke: #b0b0b0; stroke-width: 0.8; stroke-linecap: round"/>
     </g>
     <g id="line2d_38"/>
    </g>
    <g id="xtick_14">
     <g id="line2d_39">
      <path d="M 377.579748 163.189488 
L 377.579748 93.880769 
" clip-path="url(#pebe1f7810f)" style="fill: none; stroke: #b0b0b0; stroke-width: 0.8; stroke-linecap: round"/>
     </g>
     <g id="line2d_40"/>
    </g>
    <g id="xtick_15">
     <g id="line2d_41">
      <path d="M 439.941263 163.189488 
L 439.941263 93.880769 
" clip-path="url(#pebe1f7810f)" style="fill: none; stroke: #b0b0b0; stroke-width: 0.8; stroke-linecap: round"/>
     </g>
     <g id="line2d_42"/>
    </g>
    <g id="xtick_16">
     <g id="line2d_43">
      <path d="M 502.302779 163.189488 
L 502.302779 93.880769 
" clip-path="url(#pebe1f7810f)" style="fill: none; stroke: #b0b0b0; stroke-width: 0.8; stroke-linecap: round"/>
     </g>
     <g id="line2d_44"/>
    </g>
   </g>
   <g id="matplotlib.axis_4">
    <g id="ytick_4">
     <g id="line2d_45">
      <path d="M 44.361334 150.697966 
L 515.39976 150.697966 
" clip-path="url(#pebe1f7810f)" style="fill: none; stroke: #b0b0b0; stroke-width: 0.8; stroke-linecap: round"/>
     </g>
     <g id="line2d_46"/>
     <g id="text_8">
      <!-- −50 -->
      <g style="fill: #262626" transform="translate(17.646178 154.877107) scale(0.11 -0.11)">
       <use xlink:href="#DejaVuSerif-2212"/>
       <use xlink:href="#DejaVuSerif-35" x="83.789062"/>
       <use xlink:href="#DejaVuSerif-30" x="147.412109"/>
      </g>
     </g>
    </g>
    <g id="ytick_5">
     <g id="line2d_47">
      <path d="M 44.361334 131.480444 
L 515.39976 131.480444 
" clip-path="url(#pebe1f7810f)" style="fill: none; stroke: #b0b0b0; stroke-width: 0.8; stroke-linecap: round"/>
     </g>
     <g id="line2d_48"/>
     <g id="text_9">
      <!-- 0 -->
      <g style="fill: #262626" transform="translate(33.862584 135.659584) scale(0.11 -0.11)">
       <use xlink:href="#DejaVuSerif-30"/>
      </g>
     </g>
    </g>
    <g id="ytick_6">
     <g id="line2d_49">
      <path d="M 44.361334 112.262921 
L 515.39976 112.262921 
" clip-path="url(#pebe1f7810f)" style="fill: none; stroke: #b0b0b0; stroke-width: 0.8; stroke-linecap: round"/>
     </g>
     <g id="line2d_50"/>
     <g id="text_10">
      <!-- 50 -->
      <g style="fill: #262626" transform="translate(26.863834 116.442062) scale(0.11 -0.11)">
       <use xlink:href="#DejaVuSerif-35"/>
       <use xlink:href="#DejaVuSerif-30" x="63.623047"/>
      </g>
     </g>
    </g>
    <g id="text_11">
     <!-- $N_H(r)$ -->
     <g style="fill: #262626" transform="translate(11.358521 142.285128) rotate(-90) scale(0.11 -0.11)">
      <defs>
       <path id="DejaVuSans-Oblique-72" d="M 2853 2969 
Q 2766 3016 2653 3041 
Q 2541 3066 2413 3066 
Q 1953 3066 1609 2717 
Q 1266 2369 1153 1784 
L 800 0 
L 225 0 
L 909 3500 
L 1484 3500 
L 1375 2956 
Q 1603 3259 1920 3421 
Q 2238 3584 2597 3584 
Q 2691 3584 2781 3573 
Q 2872 3563 2963 3538 
L 2853 2969 
z
" transform="scale(0.015625)"/>
      </defs>
      <use xlink:href="#DejaVuSans-Oblique-4e" transform="translate(0 0.125)"/>
      <use xlink:href="#DejaVuSans-Oblique-48" transform="translate(74.804688 -16.28125) scale(0.7)"/>
      <use xlink:href="#DejaVuSans-28" transform="translate(130.175781 0.125)"/>
      <use xlink:href="#DejaVuSans-Oblique-72" transform="translate(169.189453 0.125)"/>
      <use xlink:href="#DejaVuSans-29" transform="translate(210.302734 0.125)"/>
     </g>
    </g>
   </g>
   <g id="line2d_51">
    <path d="M 65.772171 131.676396 
L 66.76327 131.577318 
L 67.754369 131.289558 
L 69.426849 130.525036 
L 71.223216 129.425147 
L 75.125669 126.684403 
L 76.736205 125.416882 
L 79.461728 123.69428 
L 81.320038 122.79902 
L 81.939475 122.58583 
L 83.36418 122.532089 
L 84.417223 122.014537 
L 86.399421 120.972618 
L 87.266633 120.730457 
L 91.292973 120.116033 
L 92.160185 120.384097 
L 92.717678 120.336598 
L 93.646833 120.037972 
L 95.381257 119.476093 
L 96.434299 119.274735 
L 98.478441 119.116054 
L 100.46064 119.131277 
L 101.451739 119.717334 
L 101.947288 119.749253 
L 102.566725 119.567131 
L 104.053374 119.006982 
L 104.982529 118.894699 
L 109.442475 118.792203 
L 109.876081 119.003131 
L 110.805236 119.518711 
L 112.04411 119.697284 
L 112.849378 119.854968 
L 113.840477 120.205491 
L 115.38907 121.115472 
L 118.857916 124.025586 
L 120.778171 126.042894 
L 122.388707 127.436521 
L 126.29116 131.520302 
L 127.653921 132.812505 
L 128.583076 133.39705 
L 134.034121 136.428446 
L 136.140207 137.201345 
L 137.626855 137.568331 
L 138.432123 137.595693 
L 139.237391 137.81164 
L 142.272632 138.88422 
L 145.369817 139.553243 
L 147.042297 139.656612 
L 147.847565 139.538647 
L 148.590889 139.671076 
L 149.95365 140.119697 
L 150.758918 140.339343 
L 153.29861 140.670948 
L 155.962189 140.760583 
L 157.448837 140.399598 
L 158.377993 140.677408 
L 159.926585 141.05983 
L 161.103515 141.190536 
L 163.643207 141.343953 
L 164.944024 141.397052 
L 166.802335 140.979275 
L 167.669547 141.222912 
L 168.722589 141.568695 
L 169.961463 141.709667 
L 174.173634 141.849074 
L 174.60724 141.677263 
L 175.288621 141.38916 
L 175.970002 141.363581 
L 176.713326 141.583181 
L 177.766369 141.758176 
L 180.925497 142.001886 
L 183.836851 141.862392 
L 184.642119 141.493577 
L 185.385443 141.51341 
L 187.987078 142.126355 
L 189.721501 142.090097 
L 191.332037 142.039283 
L 192.38508 142.048959 
L 193.004517 141.925706 
L 194.119504 141.431689 
L 194.986715 141.504008 
L 197.402519 141.944353 
L 199.508605 142.032269 
L 202.419959 141.772877 
L 203.411058 141.376944 
L 204.154382 141.447593 
L 206.570186 141.842987 
L 207.561285 141.826763 
L 209.419596 141.752452 
L 211.525681 141.54476 
L 212.330949 141.190128 
L 213.198161 141.102783 
L 214.003429 141.256185 
L 215.86174 141.526746 
L 219.826136 141.325265 
L 220.569461 141.087729 
L 221.498616 140.343823 
L 222.118053 140.034915 
L 223.171096 139.774597 
L 224.286082 139.382088 
L 225.215238 138.878368 
L 229.11769 136.171756 
L 235.559834 130.936678 
L 236.612877 130.200315 
L 239.090625 128.87981 
L 240.391442 128.517267 
L 242.559472 127.486186 
L 243.798346 127.027501 
L 248.196348 125.939631 
L 250.178546 125.868159 
L 251.355476 125.427965 
L 253.027956 124.917156 
L 255.877366 124.397104 
L 257.983451 124.368138 
L 258.850663 124.393502 
L 260.027593 124.161255 
L 262.567285 123.631639 
L 265.602526 123.474064 
L 267.089174 123.546089 
L 268.01833 123.785381 
L 269.009429 123.586885 
L 272.292444 123.055127 
L 273.283544 123.044086 
L 276.132953 122.913268 
L 277.000165 123.250019 
L 277.743489 123.230404 
L 279.292082 122.804778 
L 280.902618 122.572368 
L 285.30062 122.433568 
L 286.47755 122.832471 
L 287.282818 122.716455 
L 289.946397 122.171441 
L 291.061383 122.108496 
L 294.963836 122.344941 
L 295.769104 122.538308 
L 296.512429 122.400674 
L 298.122965 122.02511 
L 300.848487 121.97587 
L 303.821784 122.023305 
L 304.75094 122.428799 
L 305.494264 122.494588 
L 306.237588 122.40296 
L 307.352575 122.113819 
L 308.591449 121.975669 
L 309.892266 121.992403 
L 311.193084 121.979037 
L 313.299169 122.159916 
L 314.104437 122.468037 
L 314.723874 122.499761 
L 315.467199 122.334387 
L 317.077735 122.060317 
L 321.971286 122.108926 
L 322.404892 122.256293 
L 323.457935 122.57824 
L 324.263203 122.54415 
L 326.679007 122.108256 
L 327.2365 122.050729 
L 329.032867 122.079094 
L 330.767291 122.176675 
L 331.75839 122.353057 
L 332.873376 122.888907 
L 334.6078 123.13151 
L 335.28918 123.302284 
L 336.218336 123.691393 
L 340.368563 126.169086 
L 341.111888 126.768492 
L 342.722424 127.969311 
L 346.439045 130.729368 
L 347.801806 131.750294 
L 349.907892 133.161446 
L 352.137865 133.99307 
L 354.058119 134.864221 
L 355.23505 135.32722 
L 357.960572 136.060567 
L 359.571108 136.412939 
L 360.995813 136.458078 
L 362.296631 136.849624 
L 363.349673 137.151797 
L 368.614887 138.090391 
L 369.853761 137.9468 
L 370.597086 138.144511 
L 371.835959 138.493401 
L 373.384552 138.733367 
L 377.163117 138.968731 
L 377.844498 138.981496 
L 379.145315 138.710913 
L 380.012527 138.829083 
L 381.932781 139.19324 
L 383.047768 139.290265 
L 386.021065 139.528482 
L 387.136052 139.438315 
L 387.755489 139.274167 
L 389.427968 139.325953 
L 391.843772 139.839944 
L 395.126788 139.996973 
L 396.737324 139.851666 
L 397.728423 139.698213 
L 399.896452 140.100047 
L 401.011439 140.313581 
L 405.71916 140.3315 
L 407.143865 140.019704 
L 408.630513 140.206559 
L 409.559669 140.551792 
L 411.232148 140.751966 
L 413.957671 140.628806 
L 415.072657 140.389336 
L 415.568207 140.203699 
L 416.373475 140.162204 
L 418.417617 140.568029 
L 419.718434 140.73858 
L 420.709533 140.662178 
L 421.762576 140.655104 
L 422.753675 140.724107 
L 423.930605 140.549189 
L 424.983648 140.160602 
L 425.541141 140.15819 
L 428.080833 140.644944 
L 429.133876 140.65644 
L 430.620524 140.609724 
L 432.72661 140.650806 
L 433.284103 140.645773 
L 434.027427 140.282952 
L 434.522977 140.157725 
L 435.266301 140.22431 
L 436.505175 140.40044 
L 437.496274 140.540363 
L 438.42543 140.671104 
L 442.080108 140.484623 
L 442.699544 140.415313 
L 444.248137 139.984943 
L 445.425067 140.22902 
L 446.292279 140.416772 
L 447.469209 140.335644 
L 450.0089 139.468241 
L 450.999999 139.031124 
L 451.805267 138.570007 
L 453.229972 137.515979 
L 454.406902 136.935266 
L 456.327157 135.857142 
L 459.981835 133.090925 
L 463.946231 130.168364 
L 465.990373 129.087734 
L 470.574206 127.462038 
L 472.370574 127.017161 
L 474.352772 126.402129 
L 476.706632 125.859434 
L 478.193281 125.535433 
L 479.989648 125.444711 
L 480.732972 125.426021 
L 482.839058 124.885357 
L 483.768213 124.642285 
L 485.378749 124.396657 
L 486.927341 124.228294 
L 488.785652 124.140296 
L 490.024526 124.410462 
L 490.705907 124.272081 
L 492.44033 123.869232 
L 493.988922 123.673279 
L 493.988922 123.673279 
" clip-path="url(#pebe1f7810f)" style="fill: none; stroke: #0000ff; stroke-linecap: round"/>
   </g>
   <g id="line2d_52">
    <path d="M 65.772171 131.668185 
L 66.825214 131.562079 
L 67.878257 131.250365 
L 69.61268 130.467502 
L 71.532935 129.308602 
L 74.939838 126.997196 
L 76.736205 125.581474 
L 79.647559 123.73261 
L 81.01032 123.04562 
L 82.125306 122.696893 
L 83.178349 122.652916 
L 84.045561 122.273606 
L 87.204689 120.700329 
L 91.169086 119.950873 
L 92.531847 120.232761 
L 93.151284 120.042679 
L 95.009595 119.348599 
L 97.177624 118.934442 
L 99.593428 118.709514 
L 100.212865 118.696106 
L 100.708414 119.013179 
L 101.389795 119.426231 
L 101.885344 119.471556 
L 102.566725 119.244589 
L 103.929486 118.648492 
L 105.354191 118.492187 
L 109.628306 118.43556 
L 111.300786 119.251437 
L 112.725491 119.498418 
L 114.212139 120.202372 
L 115.946563 121.497128 
L 119.167635 124.509167 
L 120.344565 125.803275 
L 124.866455 130.069809 
L 127.530033 132.661515 
L 128.397245 133.2192 
L 130.379443 134.404581 
L 133.104966 135.873404 
L 137.317137 137.440392 
L 139.05156 137.636344 
L 143.57345 139.120695 
L 145.865367 139.593304 
L 146.856466 139.673602 
L 147.785621 139.508022 
L 148.590889 139.661226 
L 149.95365 140.13882 
L 150.758918 140.367001 
L 153.29861 140.713707 
L 155.962189 140.820959 
L 157.386894 140.453891 
L 158.00633 140.619426 
L 159.554923 141.099241 
L 161.784896 141.341253 
L 165.129855 141.469532 
L 166.059011 141.115591 
L 166.678448 141.093225 
L 167.979265 141.537002 
L 168.784533 141.780832 
L 170.271182 141.917805 
L 173.182535 142.00791 
L 174.359465 142.005054 
L 175.536396 141.546754 
L 176.155833 141.618178 
L 177.084988 141.913505 
L 180.244116 142.226014 
L 183.527132 142.286423 
L 184.270456 141.882791 
L 184.766006 141.731943 
L 185.323499 141.771637 
L 185.942936 141.999138 
L 186.995979 142.375586 
L 188.668459 142.461192 
L 190.898432 142.363192 
L 192.137305 142.374333 
L 192.88063 142.294566 
L 193.56201 141.898123 
L 194.119504 141.711893 
L 194.924772 141.794237 
L 196.968914 142.258273 
L 202.048296 142.286172 
L 203.596889 141.676153 
L 204.835763 141.937878 
L 205.826862 142.166496 
L 206.756017 142.218267 
L 211.401794 141.944132 
L 212.578724 141.440991 
L 213.569823 141.478055 
L 215.180359 141.874754 
L 216.047571 141.860451 
L 219.454474 141.703827 
L 220.569461 141.354386 
L 222.489715 140.066401 
L 224.657744 139.250493 
L 226.949661 137.686651 
L 237.046483 130.019086 
L 239.276456 128.943461 
L 240.267555 128.672296 
L 244.170008 127.055783 
L 245.7186 126.68289 
L 247.576911 126.160566 
L 248.506066 126.060518 
L 249.74494 126.068286 
L 250.797983 125.719174 
L 252.904068 124.996148 
L 254.576548 124.644457 
L 256.558746 124.369163 
L 257.921508 124.370996 
L 258.602888 124.425632 
L 259.532044 124.264785 
L 262.753116 123.576475 
L 265.602526 123.431995 
L 267.027231 123.478259 
L 268.01833 123.742726 
L 268.947485 123.538251 
L 271.363289 123.007464 
L 272.664107 122.989045 
L 274.708248 122.853475 
L 275.947122 122.735134 
L 276.504616 122.982874 
L 277.309884 123.165565 
L 278.177095 123.007615 
L 279.849575 122.544453 
L 282.884816 122.332905 
L 284.80507 122.212199 
L 285.362564 122.285377 
L 286.229775 122.648549 
L 286.9731 122.622389 
L 289.32696 121.981809 
L 294.778005 122.035764 
L 295.583273 122.317514 
L 296.016879 122.289877 
L 296.946034 122.003361 
L 297.813246 121.761275 
L 299.299895 121.694194 
L 302.087361 121.703017 
L 303.697897 121.703679 
L 305.494264 122.247702 
L 306.237588 122.136341 
L 307.228687 121.838888 
L 308.591449 121.682968 
L 309.768379 121.716265 
L 312.617789 121.692148 
L 313.051395 121.768986 
L 314.166381 122.223177 
L 314.909705 122.205298 
L 316.768016 121.746045 
L 322.03323 121.819656 
L 322.714611 122.117302 
L 323.457935 122.312327 
L 324.201259 122.27435 
L 327.360388 121.73682 
L 329.714248 121.804833 
L 330.395629 121.848536 
L 331.696446 122.039648 
L 333.183095 122.733404 
L 335.908617 123.427804 
L 337.952759 124.67992 
L 339.129689 125.381673 
L 340.554394 126.390246 
L 343.465748 128.539509 
L 345.50989 129.994728 
L 347.987638 131.869185 
L 349.969836 133.120781 
L 354.058119 134.757707 
L 355.23505 135.215829 
L 358.146403 136.004062 
L 359.818883 136.287495 
L 360.995813 136.364282 
L 362.296631 136.765416 
L 363.349673 137.073434 
L 368.676831 138.039552 
L 369.66793 137.899846 
L 370.287367 138.011477 
L 372.331509 138.589644 
L 374.623426 138.841898 
L 376.729511 138.942181 
L 377.844498 139.005411 
L 379.145315 138.729106 
L 380.012527 138.86064 
L 381.870838 139.243003 
L 383.481374 139.392814 
L 384.224698 139.411614 
L 387.012164 139.551819 
L 388.003263 139.314079 
L 389.056306 139.336864 
L 390.357124 139.678393 
L 391.348223 139.909241 
L 396.303718 140.145216 
L 397.480648 139.814556 
L 399.091184 140.000297 
L 399.834509 140.24706 
L 400.639777 140.449715 
L 402.064482 140.538495 
L 402.745862 140.535983 
L 405.595272 140.555338 
L 407.081921 140.20027 
L 408.320795 140.283903 
L 410.488824 140.937416 
L 411.417979 140.983588 
L 414.762939 140.776372 
L 415.939869 140.367555 
L 416.559306 140.442923 
L 417.79818 140.771621 
L 420.399815 140.932849 
L 422.320069 140.957663 
L 423.125337 140.936946 
L 423.992549 140.761022 
L 424.735873 140.429072 
L 425.541141 140.392761 
L 427.956945 140.940739 
L 428.824157 140.925261 
L 433.346047 140.899664 
L 434.584921 140.397849 
L 435.761851 140.593666 
L 436.938781 140.727839 
L 437.682105 140.884152 
L 438.42543 140.96052 
L 440.159853 140.895637 
L 442.885376 140.600268 
L 443.876475 140.245738 
L 444.557855 140.276508 
L 447.097547 140.673234 
L 447.902815 140.480423 
L 448.83197 140.126847 
L 449.761125 139.714715 
L 452.424704 138.058084 
L 453.291916 137.435636 
L 454.221071 136.960412 
L 456.327157 135.749923 
L 464.627612 129.84008 
L 466.114261 129.129389 
L 468.28229 128.242984 
L 469.335333 127.857392 
L 470.945869 127.512613 
L 471.81308 127.310758 
L 475.529702 126.246188 
L 478.68883 125.542134 
L 479.989648 125.504898 
L 480.732972 125.478043 
L 482.839058 124.905388 
L 483.706269 124.663462 
L 487.794553 124.075958 
L 488.723709 124.09805 
L 489.838695 124.384945 
L 490.458132 124.317435 
L 492.811992 123.754596 
L 493.988922 123.615616 
L 493.988922 123.615616 
" clip-path="url(#pebe1f7810f)" style="fill: none; stroke: #008000; stroke-linecap: round"/>
   </g>
   <g id="line2d_53">
    <path d="M 65.772171 131.746139 
L 66.639383 131.641232 
L 67.506595 131.347045 
L 68.807412 130.604841 
L 70.046286 129.69287 
L 71.718766 128.153198 
L 74.196514 125.497481 
L 75.125669 124.145833 
L 77.231755 120.920377 
L 81.815588 114.485294 
L 82.249194 114.423836 
L 82.6828 114.380119 
L 83.178349 113.99575 
L 83.797786 113.155384 
L 84.664998 111.58512 
L 86.337477 108.844659 
L 86.771083 108.382792 
L 87.824126 107.582455 
L 89.248831 106.49808 
L 89.558549 106.243164 
L 89.992155 105.833282 
L 90.673536 105.313245 
L 91.107142 105.11694 
L 91.354917 105.30019 
L 92.098241 105.731518 
L 92.469903 105.518869 
L 92.903509 104.966987 
L 94.76182 102.30678 
L 95.133482 101.962281 
L 95.690975 101.449584 
L 96.682074 100.903583 
L 97.673173 100.637494 
L 98.106779 100.483472 
L 98.973991 100.087607 
L 99.283709 99.957755 
L 99.96509 99.514814 
L 100.274808 99.623875 
L 101.513682 101.717637 
L 101.761457 101.655405 
L 101.947288 101.495325 
L 102.31895 100.946459 
L 103.248106 99.226312 
L 103.99143 98.315185 
L 105.106416 98.049303 
L 105.66391 98.044743 
L 106.221403 98.019769 
L 106.655009 97.88296 
L 109.442475 97.031717 
L 109.69025 97.358372 
L 110.743293 99.412354 
L 111.053011 99.630835 
L 111.486617 99.825287 
L 112.477716 100.633521 
L 113.468815 102.52227 
L 114.89352 106.280114 
L 118.238479 116.002101 
L 119.229579 118.822248 
L 120.034847 120.986787 
L 121.025946 122.93169 
L 122.26482 125.133921 
L 124.370905 128.683847 
L 126.043385 131.173146 
L 127.591977 133.239918 
L 128.459189 134.045941 
L 129.512232 135.047758 
L 131.680261 137.191769 
L 135.149108 140.307046 
L 137.564912 141.98805 
L 138.246292 142.08353 
L 138.927673 142.538642 
L 139.423223 143.007004 
L 141.095702 144.738975 
L 142.644295 145.751145 
L 143.201788 146.108605 
L 144.007056 146.781366 
L 146.546747 148.309121 
L 146.856466 148.235337 
L 147.537846 147.963441 
L 147.971452 148.064835 
L 148.77672 148.795396 
L 150.201425 150.323742 
L 150.635031 150.631699 
L 151.935849 151.181778 
L 152.369454 151.326072 
L 152.679173 151.3872 
L 153.360554 151.677973 
L 154.165822 151.961543 
L 154.661371 152.15693 
L 155.528583 152.315756 
L 155.838301 152.284933 
L 156.395794 151.701445 
L 156.8294 151.328267 
L 157.139119 151.276307 
L 157.448837 151.398934 
L 158.00633 151.995458 
L 158.99743 153.129061 
L 159.554923 153.41123 
L 161.289346 153.920792 
L 162.652107 154.156881 
L 163.767094 154.738736 
L 164.88208 155.053165 
L 165.129855 154.802739 
L 165.687348 154.095907 
L 166.182898 153.844093 
L 166.55456 153.924208 
L 166.988166 154.350968 
L 168.784533 156.416517 
L 169.589801 156.637129 
L 169.89952 156.661795 
L 170.271182 156.673827 
L 171.448112 156.638285 
L 173.368366 157.093183 
L 173.92586 157.26818 
L 174.173634 157.222148 
L 174.421409 156.932764 
L 175.350565 155.755396 
L 175.660283 155.792725 
L 176.155833 156.245239 
L 176.713326 157.066524 
L 177.208875 157.49784 
L 178.819411 158.058718 
L 179.12913 158.122301 
L 179.562736 158.237509 
L 180.120229 158.296003 
L 180.553835 158.394155 
L 180.863553 158.476266 
L 181.297159 158.485314 
L 181.668821 158.474094 
L 183.465188 158.923913 
L 183.712963 158.593221 
L 184.642119 157.159593 
L 185.013781 157.218948 
L 185.385443 157.550153 
L 186.128767 158.804882 
L 186.624317 159.587161 
L 186.934035 159.832968 
L 187.305697 159.920763 
L 189.225952 159.653515 
L 190.155107 159.422207 
L 191.022319 159.367092 
L 191.332037 159.397308 
L 191.765643 159.551475 
L 192.137305 159.592955 
L 192.694799 159.573016 
L 192.88063 159.361528 
L 193.190348 158.775725 
L 193.747841 157.778762 
L 194.05756 157.568273 
L 194.305335 157.608139 
L 194.615053 157.790582 
L 196.535308 159.682305 
L 199.26083 160.010419 
L 199.632492 159.970942 
L 200.251929 159.896157 
L 200.685535 159.848982 
L 202.048296 159.780034 
L 203.349114 157.878769 
L 203.658832 157.976218 
L 204.402157 158.728263 
L 205.455199 159.77224 
L 206.13658 160.003412 
L 206.694073 160.002881 
L 207.375454 159.769762 
L 208.118778 159.637728 
L 208.676272 159.480302 
L 209.295708 159.344982 
L 209.853202 159.377299 
L 210.410695 159.310557 
L 211.33985 159.043661 
L 211.773456 158.220999 
L 212.207062 157.614463 
L 212.578724 157.374907 
L 213.322049 157.574365 
L 214.994528 159.157619 
L 215.490078 159.232929 
L 216.728952 158.646242 
L 217.348389 158.499459 
L 217.967826 158.363116 
L 218.525319 158.239078 
L 219.082812 158.148617 
L 219.578362 157.903589 
L 220.135855 157.336214 
L 220.507517 156.763735 
L 222.056109 152.588181 
L 223.109152 151.407644 
L 223.666645 150.615821 
L 224.471913 148.994871 
L 227.754929 141.787424 
L 230.79017 136.376575 
L 232.090988 134.70777 
L 236.303159 129.983206 
L 238.84285 127.813117 
L 239.462287 127.586025 
L 240.081724 127.289248 
L 241.568373 126.068706 
L 243.116965 124.639746 
L 243.984177 124.07546 
L 244.851388 123.71407 
L 245.346938 123.414244 
L 247.824686 121.755118 
L 248.382179 121.591419 
L 249.311334 121.669444 
L 249.930771 121.387008 
L 250.488264 120.884288 
L 251.974913 119.359188 
L 252.59435 118.84319 
L 256.063197 116.96926 
L 257.178183 116.654268 
L 257.549845 116.583565 
L 258.540945 116.775603 
L 259.160381 116.400018 
L 259.96565 115.759551 
L 261.018692 114.976236 
L 262.753116 114.197105 
L 263.620327 114.141381 
L 264.239764 114.089443 
L 265.16892 113.88389 
L 266.283906 113.610012 
L 266.779456 113.624255 
L 267.336949 114.132994 
L 267.832499 114.458857 
L 268.142217 114.396722 
L 268.451935 114.147198 
L 269.071372 113.591888 
L 271.54912 112.17402 
L 272.292444 112.167887 
L 272.72605 112.207961 
L 274.708248 111.622415 
L 275.513517 111.217269 
L 275.947122 111.149444 
L 276.194897 111.445862 
L 276.75239 112.134068 
L 277.124053 112.299904 
L 277.371827 112.230434 
L 277.743489 112.009477 
L 279.787631 110.28973 
L 280.840674 109.97079 
L 281.460111 109.931624 
L 282.822872 109.602986 
L 283.256478 109.545989 
L 284.185634 109.322382 
L 284.80507 109.064364 
L 285.176733 109.059059 
L 285.486451 109.482703 
L 286.229775 110.325147 
L 286.725325 110.26513 
L 287.530593 109.405146 
L 289.017242 107.994001 
L 289.636679 107.930055 
L 290.194172 107.862572 
L 291.123327 107.70793 
L 293.972737 107.70062 
L 294.468287 107.633162 
L 294.654118 107.821305 
L 295.459386 108.753849 
L 295.831048 108.669818 
L 296.140766 108.378321 
L 297.813246 106.36968 
L 298.370739 106.341273 
L 299.05212 106.391191 
L 299.423782 106.468464 
L 299.981275 106.539785 
L 301.777642 106.661355 
L 302.644854 106.404703 
L 303.016516 106.336142 
L 303.697897 106.503304 
L 304.069559 107.159212 
L 304.503165 107.843344 
L 304.936771 108.166618 
L 305.370377 108.125923 
L 306.361476 107.320013 
L 307.042856 106.5427 
L 307.414519 106.324778 
L 307.786181 106.083441 
L 308.467561 106.075 
L 309.025055 106.347356 
L 309.334773 106.463358 
L 309.892266 106.428961 
L 310.511703 106.307133 
L 311.62669 106.250581 
L 312.246127 106.152989 
L 312.989451 106.368233 
L 314.104437 107.783351 
L 314.414156 107.833843 
L 315.033593 107.357514 
L 316.458298 105.960395 
L 316.953847 105.904211 
L 317.635228 106.022014 
L 317.944946 106.032302 
L 318.378552 106.132853 
L 319.493539 105.880629 
L 320.36075 105.94972 
L 320.732413 105.988885 
L 321.104075 106.010879 
L 321.351849 106.026343 
L 322.157117 106.490517 
L 322.466836 107.007463 
L 322.962386 107.641017 
L 323.457935 107.879629 
L 323.891541 107.810924 
L 324.820696 106.970319 
L 325.254302 106.695245 
L 325.687908 106.4708 
L 326.740951 105.839803 
L 327.050669 105.740757 
L 328.661205 106.065968 
L 329.218699 106.136948 
L 329.962023 106.390858 
L 330.271741 106.42922 
L 330.705347 106.496391 
L 331.26284 106.672448 
L 331.510615 106.769103 
L 331.944221 107.556413 
L 332.563658 108.801295 
L 333.059207 109.34564 
L 334.979462 111.018591 
L 336.713885 114.571893 
L 339.191633 119.640506 
L 341.917156 124.820183 
L 343.032142 126.377848 
L 347.739863 131.784106 
L 349.969836 133.875698 
L 352.881189 135.695098 
L 354.243951 136.866447 
L 355.420881 137.711133 
L 356.350036 138.298172 
L 359.571108 140.04725 
L 360.686095 140.144318 
L 361.305532 140.497557 
L 363.597448 142.166824 
L 366.322971 143.718962 
L 366.942408 144.078453 
L 368.614887 144.739076 
L 369.544043 144.463022 
L 370.039592 144.702244 
L 371.774016 146.287826 
L 372.269565 146.528805 
L 373.136777 146.857616 
L 373.69427 146.97113 
L 377.782554 147.792315 
L 378.092272 147.509191 
L 378.587822 147.087895 
L 378.959484 147.009617 
L 379.455034 147.218289 
L 380.446133 147.886939 
L 381.127513 148.223285 
L 381.685007 148.622299 
L 381.994725 148.687273 
L 382.676106 148.824309 
L 383.543317 149.132566 
L 383.976923 149.176906 
L 384.472473 149.234615 
L 385.09191 149.602777 
L 385.711347 149.699497 
L 387.012164 149.610952 
L 387.693545 149.070231 
L 388.870475 149.186909 
L 389.675743 149.901488 
L 390.047405 150.224338 
L 390.666842 150.787964 
L 391.100448 151.037774 
L 393.454308 151.524811 
L 393.887914 151.666774 
L 394.755126 151.68457 
L 395.994 152.011862 
L 396.179831 151.970225 
L 396.551493 151.604947 
L 396.985099 151.213776 
L 397.418705 151.044954 
L 397.852311 151.233862 
L 398.285916 151.429401 
L 398.657579 151.534463 
L 399.215072 151.994214 
L 400.639777 153.283334 
L 401.135326 153.331966 
L 401.445045 153.332383 
L 401.878651 153.457639 
L 402.560031 153.291097 
L 403.055581 153.284558 
L 403.427243 153.182999 
L 404.356398 153.412608 
L 404.790004 153.576629 
L 405.285554 153.794404 
L 405.595272 153.644275 
L 406.090822 153.040118 
L 406.462484 152.631977 
L 406.834146 152.642606 
L 407.391639 152.857552 
L 407.639414 152.74593 
L 407.949133 152.92983 
L 408.56857 153.675891 
L 409.188006 154.567875 
L 409.7455 155.077001 
L 410.736599 155.336026 
L 411.479923 155.356334 
L 411.913529 155.230315 
L 413.028515 155.098676 
L 413.462121 155.05493 
L 414.639051 154.928064 
L 415.072657 154.249436 
L 415.382376 153.810816 
L 415.754038 153.694899 
L 416.249587 153.712528 
L 416.559306 154.080966 
L 417.240687 154.901206 
L 418.045955 155.235965 
L 418.355673 155.251509 
L 419.718434 155.628797 
L 420.028153 155.529877 
L 420.399815 155.356951 
L 421.019252 155.135407 
L 421.32897 155.103868 
L 421.700632 155.346048 
L 422.258126 155.602709 
L 422.939506 155.658028 
L 423.930605 155.029188 
L 424.67393 153.922922 
L 425.35531 153.866679 
L 425.665029 154.209234 
L 426.284466 155.078571 
L 427.02779 155.808102 
L 427.956945 155.91028 
L 428.390551 155.695717 
L 429.38165 155.715725 
L 429.815256 155.734679 
L 430.434693 155.625539 
L 430.806355 155.494976 
L 431.363849 155.539268 
L 431.921342 155.655543 
L 432.416891 155.683793 
L 432.72661 155.839812 
L 433.098272 155.978987 
L 433.346047 155.74776 
L 434.337146 154.20983 
L 434.584921 154.18953 
L 435.266301 154.696144 
L 435.823795 155.181371 
L 436.505175 155.375072 
L 436.876837 155.47381 
L 437.496274 155.782002 
L 438.053767 156.139176 
L 438.42543 156.114637 
L 439.168754 155.816407 
L 441.398727 155.458495 
L 441.832333 155.385177 
L 442.45177 155.402559 
L 443.009263 154.708726 
L 443.442869 154.159006 
L 443.814531 153.916369 
L 444.124249 153.87544 
L 444.80563 154.382954 
L 446.044504 155.451232 
L 446.416166 155.483026 
L 447.221434 155.007117 
L 448.460308 153.207512 
L 449.079745 152.123511 
L 449.637238 151.122501 
L 450.50445 149.370822 
L 451.557493 147.438298 
L 453.35386 143.256317 
L 454.159128 142.072579 
L 455.831607 139.567294 
L 457.132425 137.495673 
L 458.55713 135.472902 
L 460.663215 132.987736 
L 464.008175 129.609434 
L 466.238148 127.85567 
L 467.662853 126.842778 
L 469.954769 125.193135 
L 472.060855 124.170725 
L 474.043053 122.653293 
L 474.66249 122.323947 
L 478.812718 119.980419 
L 479.86576 119.778933 
L 480.36131 119.817699 
L 480.609085 119.720771 
L 481.166578 119.246453 
L 483.830157 117.191772 
L 485.378749 116.509642 
L 485.812355 116.33007 
L 486.803454 115.960658 
L 487.299004 115.707477 
L 487.918441 115.487731 
L 488.475934 115.453207 
L 488.723709 115.546544 
L 489.467033 116.144485 
L 489.962582 116.225681 
L 490.210357 116.11286 
L 490.643963 115.685334 
L 491.387287 114.886353 
L 492.93588 114.249023 
L 493.988922 113.950518 
L 493.988922 113.950518 
" clip-path="url(#pebe1f7810f)" style="fill: none; stroke: #ff0000; stroke-linecap: round"/>
   </g>
   <g id="patch_6">
    <path d="M 44.361334 163.189488 
L 44.361334 93.880769 
" style="fill: none; stroke: #000000; stroke-linejoin: miter; stroke-linecap: square"/>
   </g>
   <g id="patch_7">
    <path d="M 44.361334 163.189488 
L 515.39976 163.189488 
" style="fill: none; stroke: #000000; stroke-linejoin: miter; stroke-linecap: square"/>
   </g>
  </g>
  <g id="axes_3">
   <g id="patch_8">
    <path d="M 44.361334 238.498686 
L 515.39976 238.498686 
L 515.39976 169.189968 
L 44.361334 169.189968 
z
" style="fill: #ffffff"/>
   </g>
   <g id="matplotlib.axis_5">
    <g id="xtick_17">
     <g id="line2d_54">
      <path d="M 65.772171 238.498686 
L 65.772171 169.189968 
" clip-path="url(#p1bdd065fa4)" style="fill: none; stroke: #b0b0b0; stroke-width: 0.8; stroke-linecap: round"/>
     </g>
     <g id="line2d_55"/>
    </g>
    <g id="xtick_18">
     <g id="line2d_56">
      <path d="M 128.133687 238.498686 
L 128.133687 169.189968 
" clip-path="url(#p1bdd065fa4)" style="fill: none; stroke: #b0b0b0; stroke-width: 0.8; stroke-linecap: round"/>
     </g>
     <g id="line2d_57"/>
    </g>
    <g id="xtick_19">
     <g id="line2d_58">
      <path d="M 190.495202 238.498686 
L 190.495202 169.189968 
" clip-path="url(#p1bdd065fa4)" style="fill: none; stroke: #b0b0b0; stroke-width: 0.8; stroke-linecap: round"/>
     </g>
     <g id="line2d_59"/>
    </g>
    <g id="xtick_20">
     <g id="line2d_60">
      <path d="M 252.856717 238.498686 
L 252.856717 169.189968 
" clip-path="url(#p1bdd065fa4)" style="fill: none; stroke: #b0b0b0; stroke-width: 0.8; stroke-linecap: round"/>
     </g>
     <g id="line2d_61"/>
    </g>
    <g id="xtick_21">
     <g id="line2d_62">
      <path d="M 315.218233 238.498686 
L 315.218233 169.189968 
" clip-path="url(#p1bdd065fa4)" style="fill: none; stroke: #b0b0b0; stroke-width: 0.8; stroke-linecap: round"/>
     </g>
     <g id="line2d_63"/>
    </g>
    <g id="xtick_22">
     <g id="line2d_64">
      <path d="M 377.579748 238.498686 
L 377.579748 169.189968 
" clip-path="url(#p1bdd065fa4)" style="fill: none; stroke: #b0b0b0; stroke-width: 0.8; stroke-linecap: round"/>
     </g>
     <g id="line2d_65"/>
    </g>
    <g id="xtick_23">
     <g id="line2d_66">
      <path d="M 439.941263 238.498686 
L 439.941263 169.189968 
" clip-path="url(#p1bdd065fa4)" style="fill: none; stroke: #b0b0b0; stroke-width: 0.8; stroke-linecap: round"/>
     </g>
     <g id="line2d_67"/>
    </g>
    <g id="xtick_24">
     <g id="line2d_68">
      <path d="M 502.302779 238.498686 
L 502.302779 169.189968 
" clip-path="url(#p1bdd065fa4)" style="fill: none; stroke: #b0b0b0; stroke-width: 0.8; stroke-linecap: round"/>
     </g>
     <g id="line2d_69"/>
    </g>
   </g>
   <g id="matplotlib.axis_6">
    <g id="ytick_7">
     <g id="line2d_70">
      <path d="M 44.361334 226.007165 
L 515.39976 226.007165 
" clip-path="url(#p1bdd065fa4)" style="fill: none; stroke: #b0b0b0; stroke-width: 0.8; stroke-linecap: round"/>
     </g>
     <g id="line2d_71"/>
     <g id="text_12">
      <!-- −50 -->
      <g style="fill: #262626" transform="translate(17.646178 230.186305) scale(0.11 -0.11)">
       <use xlink:href="#DejaVuSerif-2212"/>
       <use xlink:href="#DejaVuSerif-35" x="83.789062"/>
       <use xlink:href="#DejaVuSerif-30" x="147.412109"/>
      </g>
     </g>
    </g>
    <g id="ytick_8">
     <g id="line2d_72">
      <path d="M 44.361334 206.789642 
L 515.39976 206.789642 
" clip-path="url(#p1bdd065fa4)" style="fill: none; stroke: #b0b0b0; stroke-width: 0.8; stroke-linecap: round"/>
     </g>
     <g id="line2d_73"/>
     <g id="text_13">
      <!-- 0 -->
      <g style="fill: #262626" transform="translate(33.862584 210.968783) scale(0.11 -0.11)">
       <use xlink:href="#DejaVuSerif-30"/>
      </g>
     </g>
    </g>
    <g id="ytick_9">
     <g id="line2d_74">
      <path d="M 44.361334 187.57212 
L 515.39976 187.57212 
" clip-path="url(#p1bdd065fa4)" style="fill: none; stroke: #b0b0b0; stroke-width: 0.8; stroke-linecap: round"/>
     </g>
     <g id="line2d_75"/>
     <g id="text_14">
      <!-- 50 -->
      <g style="fill: #262626" transform="translate(26.863834 191.75126) scale(0.11 -0.11)">
       <use xlink:href="#DejaVuSerif-35"/>
       <use xlink:href="#DejaVuSerif-30" x="63.623047"/>
      </g>
     </g>
    </g>
    <g id="text_15">
     <!-- $Y_H(v)$ -->
     <g style="fill: #262626" transform="translate(11.358521 217.814327) rotate(-90) scale(0.11 -0.11)">
      <defs>
       <path id="DejaVuSans-Oblique-59" d="M 403 4666 
L 1081 4666 
L 1953 2747 
L 3616 4666 
L 4325 4666 
L 2209 2222 
L 1778 0 
L 1147 0 
L 1575 2222 
L 403 4666 
z
" transform="scale(0.015625)"/>
      </defs>
      <use xlink:href="#DejaVuSans-Oblique-59" transform="translate(0 0.125)"/>
      <use xlink:href="#DejaVuSans-Oblique-48" transform="translate(61.083984 -16.28125) scale(0.7)"/>
      <use xlink:href="#DejaVuSans-28" transform="translate(116.455078 0.125)"/>
      <use xlink:href="#DejaVuSans-Oblique-76" transform="translate(155.46875 0.125)"/>
      <use xlink:href="#DejaVuSans-29" transform="translate(214.648438 0.125)"/>
     </g>
    </g>
   </g>
   <g id="line2d_76">
    <path d="M 65.772171 206.784691 
L 68.869356 206.868742 
L 71.718766 207.219556 
L 81.258095 208.710027 
L 85.532209 209.463252 
L 88.691338 210.154198 
L 91.602691 210.437162 
L 93.58489 210.502825 
L 95.814863 210.911634 
L 98.726216 211.415828 
L 100.770358 211.586094 
L 102.442838 211.542856 
L 104.177261 211.83514 
L 106.531121 212.095623 
L 110.123856 212.22855 
L 111.796335 212.143367 
L 116.07045 212.302828 
L 118.114592 212.075454 
L 119.539297 211.765289 
L 121.087889 211.393173 
L 124.61868 210.881725 
L 126.600878 210.356489 
L 130.936937 209.190183 
L 134.467727 208.463605 
L 145.555648 206.131024 
L 157.077175 204.443474 
L 158.99743 204.260717 
L 164.138756 203.611248 
L 165.997067 203.518062 
L 167.855378 203.378792 
L 172.934761 202.806184 
L 174.978902 202.771828 
L 176.465551 202.7507 
L 182.536033 202.181869 
L 184.3324 202.19849 
L 185.633218 202.231023 
L 187.553472 202.016401 
L 190.464826 201.751023 
L 193.500067 201.763629 
L 194.986715 201.87 
L 196.968914 201.681031 
L 200.623591 201.429475 
L 202.543846 201.458673 
L 203.906607 201.576824 
L 205.826862 201.442611 
L 209.295708 201.26912 
L 211.897344 201.359949 
L 213.569823 201.509443 
L 215.36619 201.331286 
L 217.472276 201.156995 
L 219.826136 201.161765 
L 221.003066 201.313228 
L 222.489715 201.624672 
L 223.852476 201.681357 
L 227.445211 201.84223 
L 230.046846 202.198541 
L 232.958199 202.856109 
L 235.374003 203.298397 
L 240.51533 204.509264 
L 258.231226 207.51189 
L 262.071735 208.063407 
L 266.221963 208.567829 
L 276.442672 209.511746 
L 278.610701 209.620226 
L 285.114789 210.191661 
L 289.141129 210.411454 
L 291.309158 210.654507 
L 295.211611 210.733132 
L 296.822147 210.714268 
L 299.485726 211.009182 
L 302.520967 211.200011 
L 304.565109 211.151354 
L 305.989814 211.086589 
L 307.972012 211.297199 
L 310.449759 211.471461 
L 313.423057 211.47085 
L 315.281368 211.348194 
L 316.82996 211.522522 
L 318.812158 211.633448 
L 321.909343 211.700619 
L 323.024329 211.586899 
L 324.263203 211.51818 
L 325.873739 211.634987 
L 328.599262 211.858764 
L 331.510615 211.849501 
L 334.545856 211.604834 
L 336.528054 211.583551 
L 340.926057 211.154002 
L 343.279917 210.730331 
L 346.562933 210.290899 
L 353.438683 208.833503 
L 356.907529 208.302032 
L 364.092998 206.993662 
L 378.21616 205.155628 
L 380.57002 205.017084 
L 386.144953 204.400554 
L 391.410166 203.989061 
L 394.755126 203.676515 
L 397.17093 203.637265 
L 398.905353 203.591914 
L 401.19727 203.284745 
L 403.613074 203.089341 
L 406.028878 203.013604 
L 408.134964 203.088595 
L 409.373838 202.911856 
L 411.294092 202.669278 
L 415.258488 202.619464 
L 416.62125 202.655765 
L 424.054493 202.246504 
L 425.603085 202.382963 
L 427.399452 202.209178 
L 429.133876 202.067098 
L 433.098272 201.964853 
L 434.089371 202.086029 
L 435.266301 202.161503 
L 437.496274 201.966866 
L 439.292641 201.832981 
L 441.398727 201.84829 
L 443.566756 201.999275 
L 444.743686 202.056132 
L 446.725885 201.83024 
L 448.150589 201.764298 
L 449.946957 201.84208 
L 452.920254 202.306689 
L 454.406902 202.474168 
L 458.928792 202.79912 
L 461.220709 203.315713 
L 463.388738 203.876466 
L 469.45922 204.902103 
L 473.237785 205.600924 
L 480.36131 206.779326 
L 485.007087 207.412236 
L 491.077569 208.145738 
L 493.988922 208.52393 
L 493.988922 208.52393 
" clip-path="url(#p1bdd065fa4)" style="fill: none; stroke: #0000ff; stroke-linecap: round"/>
   </g>
   <g id="line2d_77">
    <path d="M 65.772171 206.784139 
L 68.745469 206.866524 
L 71.28516 207.19806 
L 76.798149 208.181826 
L 85.841928 209.85372 
L 87.88607 210.3959 
L 90.73548 210.814051 
L 92.036297 210.833258 
L 93.461002 210.902365 
L 95.071538 211.202148 
L 98.168723 211.837584 
L 100.522583 212.140255 
L 102.566725 212.08742 
L 107.708052 212.748552 
L 110.309687 212.810685 
L 111.920223 212.748698 
L 116.566 212.88097 
L 118.610142 212.594114 
L 119.41541 212.365074 
L 120.964002 211.923278 
L 125.114229 211.210978 
L 128.025583 210.299673 
L 130.565274 209.530743 
L 135.02522 208.509193 
L 142.954013 206.535446 
L 147.537846 205.722303 
L 150.4492 205.202488 
L 153.29861 204.603661 
L 156.581626 204.196581 
L 158.50188 204.05034 
L 165.687348 203.15529 
L 167.669547 203.026637 
L 172.563098 202.39162 
L 175.040846 202.327438 
L 176.403607 202.308008 
L 182.226315 201.685278 
L 184.394344 201.693698 
L 185.819049 201.710998 
L 187.553472 201.484 
L 190.340938 201.19505 
L 193.128405 201.150946 
L 195.296434 201.304604 
L 197.216688 201.082177 
L 200.313873 200.841668 
L 202.481902 200.8532 
L 203.906607 200.995393 
L 205.641031 200.861143 
L 209.233765 200.651966 
L 212.330949 200.829002 
L 213.693711 200.914796 
L 215.242303 200.740977 
L 217.658107 200.517337 
L 219.764193 200.531792 
L 220.941123 200.684083 
L 222.613603 201.063194 
L 224.162195 201.117123 
L 227.692985 201.315812 
L 230.108789 201.704667 
L 232.524593 202.351151 
L 235.31206 202.891865 
L 240.886992 204.322847 
L 245.284994 205.184349 
L 250.24049 206.268467 
L 256.558746 207.345425 
L 266.469737 208.79416 
L 268.885541 208.956665 
L 272.973825 209.470884 
L 276.628503 209.81457 
L 278.239039 209.890163 
L 283.62814 210.45872 
L 286.167832 210.541089 
L 287.716424 210.604396 
L 293.167469 211.184118 
L 295.335498 211.16149 
L 296.574372 211.133332 
L 298.246852 211.325791 
L 302.273192 211.680396 
L 304.503165 211.645471 
L 305.989814 211.565865 
L 307.848124 211.78328 
L 310.325872 211.987643 
L 313.299169 212.01071 
L 315.15748 211.849401 
L 322.466836 212.20636 
L 324.263203 212.045595 
L 325.811795 212.166522 
L 328.289543 212.412673 
L 331.696446 212.389899 
L 333.988363 212.126755 
L 337.581097 212.031326 
L 341.111888 211.592044 
L 343.156029 211.184893 
L 346.500989 210.697608 
L 352.943133 209.121618 
L 356.41198 208.576582 
L 364.712435 206.919838 
L 378.030329 204.976437 
L 380.817795 204.784654 
L 387.136052 204.077317 
L 389.180194 203.980232 
L 391.657941 203.641169 
L 394.507351 203.347279 
L 397.232874 203.288232 
L 398.905353 203.235244 
L 400.949495 202.928742 
L 402.993637 202.714773 
L 406.524428 202.634393 
L 408.506626 202.636943 
L 413.090459 202.118147 
L 415.258488 202.154328 
L 416.559306 202.198347 
L 418.603448 201.96908 
L 420.213984 201.809866 
L 424.426155 201.796955 
L 425.912804 201.873996 
L 433.284103 201.433521 
L 436.319344 201.561196 
L 441.27484 201.29544 
L 443.504812 201.453952 
L 444.557855 201.535368 
L 445.858673 201.389797 
L 447.593096 201.222582 
L 449.575294 201.246877 
L 452.300817 201.657593 
L 453.725522 201.938108 
L 455.769664 202.036988 
L 458.495186 202.279581 
L 460.787103 202.784922 
L 464.503724 203.770129 
L 481.662127 206.942556 
L 487.608722 207.884531 
L 489.776751 208.141105 
L 492.192555 208.45653 
L 493.988922 208.71737 
L 493.988922 208.71737 
" clip-path="url(#p1bdd065fa4)" style="fill: none; stroke: #008000; stroke-linecap: round"/>
   </g>
   <g id="line2d_78">
    <path d="M 65.772171 206.776968 
L 67.940201 206.84196 
L 69.426849 207.124826 
L 71.223216 207.707635 
L 75.559275 209.405691 
L 77.975079 210.463305 
L 84.912773 213.236545 
L 88.071901 215.16942 
L 89.992155 215.839881 
L 91.354917 216.140435 
L 93.337115 216.226041 
L 94.514045 216.671858 
L 96.558187 217.724166 
L 97.735117 218.233207 
L 100.336752 219.125013 
L 100.956189 219.026868 
L 101.947288 218.866588 
L 102.690612 219.033116 
L 103.805599 219.536575 
L 105.106416 220.065537 
L 106.221403 220.323909 
L 109.938025 220.769156 
L 111.300786 220.476319 
L 112.291885 220.568825 
L 114.645745 220.971961 
L 115.698788 220.942424 
L 117.061549 220.689508 
L 119.167635 219.827487 
L 120.716227 218.713486 
L 121.459551 218.470559 
L 123.44175 217.822404 
L 124.990342 217.049057 
L 126.476991 216.011938 
L 130.627218 213.07314 
L 133.538572 211.616687 
L 142.458463 206.438249 
L 144.874268 205.367561 
L 149.581988 203.559782 
L 150.944749 202.851098 
L 152.617229 202.013469 
L 155.466639 200.999528 
L 156.333851 200.831253 
L 157.944387 200.629109 
L 159.369092 200.177686 
L 163.333488 198.848943 
L 165.625405 198.419331 
L 166.864279 198.328426 
L 167.979265 198.012164 
L 170.704788 197.017605 
L 172.748929 196.627357 
L 174.483353 196.419202 
L 176.155833 196.528442 
L 177.890256 195.986006 
L 179.562736 195.502734 
L 182.040483 195.054479 
L 184.146569 194.987619 
L 185.199612 195.138448 
L 186.128767 195.02822 
L 190.588713 193.883329 
L 192.818686 193.733528 
L 193.685898 193.990671 
L 194.553109 194.197101 
L 195.23449 194.165932 
L 196.225589 193.930723 
L 199.074999 193.235383 
L 200.93331 193.041063 
L 202.234127 193.033593 
L 203.844663 193.447967 
L 204.897706 193.307989 
L 207.251567 192.823789 
L 209.233765 192.654922 
L 211.897344 192.890659 
L 213.136217 193.259938 
L 213.941485 193.226808 
L 215.118416 192.902124 
L 216.605064 192.500763 
L 218.463375 192.299279 
L 220.321686 192.457663 
L 220.755292 192.61675 
L 222.613603 193.601958 
L 223.480814 193.704125 
L 226.949661 194.032436 
L 228.622141 194.444048 
L 229.861015 194.916932 
L 230.728226 195.561429 
L 231.719325 196.206137 
L 232.958199 196.720543 
L 234.754566 197.464209 
L 236.674821 198.707779 
L 239.772006 200.55081 
L 241.010879 201.157386 
L 244.04612 202.381113 
L 248.196348 204.591999 
L 251.107701 205.962116 
L 254.452661 207.250999 
L 259.036494 208.881677 
L 261.266467 209.727646 
L 263.806158 210.671076 
L 265.974188 211.275405 
L 267.460836 211.553519 
L 268.885541 211.780172 
L 270.310246 212.21315 
L 273.593262 213.128838 
L 276.876278 213.745712 
L 277.743489 213.816091 
L 279.477913 214.295123 
L 281.27428 214.795074 
L 284.743127 215.431077 
L 285.610338 215.486011 
L 286.911156 215.420866 
L 287.964199 215.642149 
L 292.052483 216.785056 
L 294.716061 216.989272 
L 296.760203 216.823728 
L 298.184908 217.217535 
L 300.600712 217.828328 
L 303.945672 218.124819 
L 305.92787 217.784667 
L 306.671194 217.944785 
L 308.901167 218.571805 
L 310.263928 218.756459 
L 313.175282 218.845675 
L 315.281368 218.45867 
L 316.086636 218.651178 
L 317.51134 219.038064 
L 319.803257 219.3127 
L 321.475737 219.391763 
L 322.900442 219.109762 
L 323.953485 218.894751 
L 324.944584 218.961809 
L 326.05957 219.244334 
L 328.103712 219.720902 
L 329.280642 219.787587 
L 331.324784 219.768285 
L 331.882277 219.612325 
L 333.43087 219.111327 
L 334.421969 219.102369 
L 335.722786 219.159719 
L 337.147491 218.959808 
L 339.749126 218.386409 
L 341.173831 217.812999 
L 342.412705 217.164985 
L 343.527692 216.810156 
L 346.129327 215.994532 
L 347.244313 215.327807 
L 349.722061 213.824797 
L 350.651216 213.238088 
L 351.766203 212.552785 
L 352.757302 212.209831 
L 355.173106 211.446831 
L 357.465023 210.372654 
L 362.048856 208.115615 
L 368.181282 205.881081 
L 372.51734 204.423366 
L 375.986187 203.148137 
L 377.782554 202.642067 
L 378.89754 202.583808 
L 380.074471 202.394443 
L 382.056669 201.756746 
L 384.348585 201.098805 
L 386.888277 200.551073 
L 389.180194 200.319729 
L 390.419067 199.952814 
L 392.339322 199.341714 
L 395.250675 198.758931 
L 396.799268 198.675425 
L 397.914254 198.728875 
L 399.215072 198.532087 
L 400.515889 198.05071 
L 402.250313 197.537776 
L 405.966934 197.112644 
L 407.825245 197.334775 
L 408.506626 197.226213 
L 409.559669 196.776112 
L 411.046317 196.281115 
L 413.957671 195.987651 
L 415.258488 196.114778 
L 416.1257 196.235525 
L 416.807081 196.171693 
L 418.913166 195.575879 
L 419.966209 195.341646 
L 423.868662 195.104509 
L 425.726973 195.494913 
L 426.841959 195.247984 
L 428.576382 194.782771 
L 430.001087 194.618808 
L 431.859398 194.488296 
L 433.40799 194.482899 
L 435.390189 194.930738 
L 437.062668 194.577827 
L 439.354585 194.094485 
L 440.345684 194.055714 
L 443.009263 194.310071 
L 444.124249 194.673324 
L 444.929517 194.643698 
L 445.734785 194.399731 
L 446.973659 194.029423 
L 448.274477 193.922688 
L 449.823069 194.091962 
L 451.805267 194.687059 
L 453.601634 195.582965 
L 454.716621 195.770699 
L 456.20327 195.891057 
L 458.433243 196.377289 
L 460.167666 197.217558 
L 461.282652 197.946516 
L 462.707357 198.988499 
L 464.999274 200.040022 
L 469.335333 201.906649 
L 471.441418 202.886952 
L 474.228884 204.188066 
L 479.803817 206.589761 
L 484.573481 208.218458 
L 488.104272 209.483329 
L 489.652864 209.879452 
L 491.077569 210.26099 
L 493.988922 211.22909 
L 493.988922 211.22909 
" clip-path="url(#p1bdd065fa4)" style="fill: none; stroke: #ff0000; stroke-linecap: round"/>
   </g>
   <g id="patch_9">
    <path d="M 44.361334 238.498686 
L 44.361334 169.189968 
" style="fill: none; stroke: #000000; stroke-linejoin: miter; stroke-linecap: square"/>
   </g>
   <g id="patch_10">
    <path d="M 44.361334 238.498686 
L 515.39976 238.498686 
" style="fill: none; stroke: #000000; stroke-linejoin: miter; stroke-linecap: square"/>
   </g>
  </g>
  <g id="axes_4">
   <g id="patch_11">
    <path d="M 44.361334 313.807885 
L 515.39976 313.807885 
L 515.39976 244.499166 
L 44.361334 244.499166 
z
" style="fill: #ffffff"/>
   </g>
   <g id="matplotlib.axis_7">
    <g id="xtick_25">
     <g id="line2d_79">
      <path d="M 65.772171 313.807885 
L 65.772171 244.499166 
" clip-path="url(#pcaf5f5abc6)" style="fill: none; stroke: #b0b0b0; stroke-width: 0.8; stroke-linecap: round"/>
     </g>
     <g id="line2d_80"/>
     <g id="text_16">
      <!-- 0 -->
      <g style="fill: #262626" transform="translate(62.272796 325.666166) scale(0.11 -0.11)">
       <use xlink:href="#DejaVuSerif-30"/>
      </g>
     </g>
    </g>
    <g id="xtick_26">
     <g id="line2d_81">
      <path d="M 128.133687 313.807885 
L 128.133687 244.499166 
" clip-path="url(#pcaf5f5abc6)" style="fill: none; stroke: #b0b0b0; stroke-width: 0.8; stroke-linecap: round"/>
     </g>
     <g id="line2d_82"/>
     <g id="text_17">
      <!-- 10 -->
      <g style="fill: #262626" transform="translate(121.134937 325.666166) scale(0.11 -0.11)">
       <defs>
        <path id="DejaVuSerif-31" d="M 909 0 
L 909 331 
L 1722 331 
L 1722 4213 
L 781 3603 
L 781 4013 
L 1919 4750 
L 2350 4750 
L 2350 331 
L 3163 331 
L 3163 0 
L 909 0 
z
" transform="scale(0.015625)"/>
       </defs>
       <use xlink:href="#DejaVuSerif-31"/>
       <use xlink:href="#DejaVuSerif-30" x="63.623047"/>
      </g>
     </g>
    </g>
    <g id="xtick_27">
     <g id="line2d_83">
      <path d="M 190.495202 313.807885 
L 190.495202 244.499166 
" clip-path="url(#pcaf5f5abc6)" style="fill: none; stroke: #b0b0b0; stroke-width: 0.8; stroke-linecap: round"/>
     </g>
     <g id="line2d_84"/>
     <g id="text_18">
      <!-- 20 -->
      <g style="fill: #262626" transform="translate(183.496452 325.666166) scale(0.11 -0.11)">
       <defs>
        <path id="DejaVuSerif-32" d="M 819 3553 
L 469 3553 
L 469 4384 
Q 803 4563 1142 4656 
Q 1481 4750 1806 4750 
Q 2534 4750 2956 4397 
Q 3378 4044 3378 3438 
Q 3378 2753 2422 1800 
Q 2347 1728 2309 1691 
L 1131 513 
L 3078 513 
L 3078 1088 
L 3444 1088 
L 3444 0 
L 434 0 
L 434 341 
L 1850 1753 
Q 2319 2222 2519 2614 
Q 2719 3006 2719 3438 
Q 2719 3909 2473 4175 
Q 2228 4441 1797 4441 
Q 1350 4441 1106 4219 
Q 863 3997 819 3553 
z
" transform="scale(0.015625)"/>
       </defs>
       <use xlink:href="#DejaVuSerif-32"/>
       <use xlink:href="#DejaVuSerif-30" x="63.623047"/>
      </g>
     </g>
    </g>
    <g id="xtick_28">
     <g id="line2d_85">
      <path d="M 252.856717 313.807885 
L 252.856717 244.499166 
" clip-path="url(#pcaf5f5abc6)" style="fill: none; stroke: #b0b0b0; stroke-width: 0.8; stroke-linecap: round"/>
     </g>
     <g id="line2d_86"/>
     <g id="text_19">
      <!-- 30 -->
      <g style="fill: #262626" transform="translate(245.857967 325.666166) scale(0.11 -0.11)">
       <defs>
        <path id="DejaVuSerif-33" d="M 622 4469 
Q 988 4606 1323 4678 
Q 1659 4750 1953 4750 
Q 2638 4750 3022 4454 
Q 3406 4159 3406 3634 
Q 3406 3213 3140 2930 
Q 2875 2647 2388 2547 
Q 2963 2466 3280 2130 
Q 3597 1794 3597 1259 
Q 3597 606 3158 257 
Q 2719 -91 1894 -91 
Q 1528 -91 1179 -12 
Q 831 66 488 225 
L 488 1131 
L 838 1131 
Q 869 681 1141 450 
Q 1413 219 1906 219 
Q 2384 219 2661 495 
Q 2938 772 2938 1253 
Q 2938 1803 2653 2086 
Q 2369 2369 1819 2369 
L 1522 2369 
L 1522 2688 
L 1678 2688 
Q 2225 2688 2498 2914 
Q 2772 3141 2772 3597 
Q 2772 4006 2547 4223 
Q 2322 4441 1900 4441 
Q 1478 4441 1245 4241 
Q 1013 4041 972 3647 
L 622 3647 
L 622 4469 
z
" transform="scale(0.015625)"/>
       </defs>
       <use xlink:href="#DejaVuSerif-33"/>
       <use xlink:href="#DejaVuSerif-30" x="63.623047"/>
      </g>
     </g>
    </g>
    <g id="xtick_29">
     <g id="line2d_87">
      <path d="M 315.218233 313.807885 
L 315.218233 244.499166 
" clip-path="url(#pcaf5f5abc6)" style="fill: none; stroke: #b0b0b0; stroke-width: 0.8; stroke-linecap: round"/>
     </g>
     <g id="line2d_88"/>
     <g id="text_20">
      <!-- 40 -->
      <g style="fill: #262626" transform="translate(308.219483 325.666166) scale(0.11 -0.11)">
       <defs>
        <path id="DejaVuSerif-34" d="M 2234 1581 
L 2234 4063 
L 641 1581 
L 2234 1581 
z
M 3609 0 
L 1484 0 
L 1484 331 
L 2234 331 
L 2234 1247 
L 197 1247 
L 197 1588 
L 2241 4750 
L 2859 4750 
L 2859 1581 
L 3750 1581 
L 3750 1247 
L 2859 1247 
L 2859 331 
L 3609 331 
L 3609 0 
z
" transform="scale(0.015625)"/>
       </defs>
       <use xlink:href="#DejaVuSerif-34"/>
       <use xlink:href="#DejaVuSerif-30" x="63.623047"/>
      </g>
     </g>
    </g>
    <g id="xtick_30">
     <g id="line2d_89">
      <path d="M 377.579748 313.807885 
L 377.579748 244.499166 
" clip-path="url(#pcaf5f5abc6)" style="fill: none; stroke: #b0b0b0; stroke-width: 0.8; stroke-linecap: round"/>
     </g>
     <g id="line2d_90"/>
     <g id="text_21">
      <!-- 50 -->
      <g style="fill: #262626" transform="translate(370.580998 325.666166) scale(0.11 -0.11)">
       <use xlink:href="#DejaVuSerif-35"/>
       <use xlink:href="#DejaVuSerif-30" x="63.623047"/>
      </g>
     </g>
    </g>
    <g id="xtick_31">
     <g id="line2d_91">
      <path d="M 439.941263 313.807885 
L 439.941263 244.499166 
" clip-path="url(#pcaf5f5abc6)" style="fill: none; stroke: #b0b0b0; stroke-width: 0.8; stroke-linecap: round"/>
     </g>
     <g id="line2d_92"/>
     <g id="text_22">
      <!-- 60 -->
      <g style="fill: #262626" transform="translate(432.942513 325.666166) scale(0.11 -0.11)">
       <defs>
        <path id="DejaVuSerif-36" d="M 2094 219 
Q 2534 219 2771 542 
Q 3009 866 3009 1472 
Q 3009 2078 2771 2401 
Q 2534 2725 2094 2725 
Q 1647 2725 1412 2412 
Q 1178 2100 1178 1509 
Q 1178 888 1415 553 
Q 1653 219 2094 219 
z
M 1075 2569 
Q 1288 2803 1556 2918 
Q 1825 3034 2163 3034 
Q 2859 3034 3264 2615 
Q 3669 2197 3669 1472 
Q 3669 763 3233 336 
Q 2797 -91 2069 -91 
Q 1278 -91 853 498 
Q 428 1088 428 2181 
Q 428 3406 931 4078 
Q 1434 4750 2350 4750 
Q 2597 4750 2869 4703 
Q 3141 4656 3425 4563 
L 3425 3794 
L 3072 3794 
Q 3034 4109 2831 4275 
Q 2628 4441 2284 4441 
Q 1678 4441 1381 3981 
Q 1084 3522 1075 2569 
z
" transform="scale(0.015625)"/>
       </defs>
       <use xlink:href="#DejaVuSerif-36"/>
       <use xlink:href="#DejaVuSerif-30" x="63.623047"/>
      </g>
     </g>
    </g>
    <g id="xtick_32">
     <g id="line2d_93">
      <path d="M 502.302779 313.807885 
L 502.302779 244.499166 
" clip-path="url(#pcaf5f5abc6)" style="fill: none; stroke: #b0b0b0; stroke-width: 0.8; stroke-linecap: round"/>
     </g>
     <g id="line2d_94"/>
     <g id="text_23">
      <!-- 70 -->
      <g style="fill: #262626" transform="translate(495.304029 325.666166) scale(0.11 -0.11)">
       <defs>
        <path id="DejaVuSerif-37" d="M 3609 4347 
L 1784 0 
L 1319 0 
L 3059 4153 
L 903 4153 
L 903 3578 
L 538 3578 
L 538 4666 
L 3609 4666 
L 3609 4347 
z
" transform="scale(0.015625)"/>
       </defs>
       <use xlink:href="#DejaVuSerif-37"/>
       <use xlink:href="#DejaVuSerif-30" x="63.623047"/>
      </g>
     </g>
    </g>
    <g id="text_24">
     <!-- Time [s] -->
     <g style="fill: #262626" transform="translate(257.12 340.312104) scale(0.11 -0.11)">
      <defs>
       <path id="DejaVuSerif-54" d="M 1222 0 
L 1222 331 
L 1819 331 
L 1819 4294 
L 447 4294 
L 447 3566 
L 63 3566 
L 63 4666 
L 4206 4666 
L 4206 3566 
L 3822 3566 
L 3822 4294 
L 2450 4294 
L 2450 331 
L 3047 331 
L 3047 0 
L 1222 0 
z
" transform="scale(0.015625)"/>
       <path id="DejaVuSerif-5b" d="M 550 4863 
L 2003 4863 
L 2003 4531 
L 1147 4531 
L 1147 -513 
L 2003 -513 
L 2003 -844 
L 550 -844 
L 550 4863 
z
" transform="scale(0.015625)"/>
       <path id="DejaVuSerif-5d" d="M 1947 4863 
L 1947 -844 
L 494 -844 
L 494 -513 
L 1350 -513 
L 1350 4531 
L 494 4531 
L 494 4863 
L 1947 4863 
z
" transform="scale(0.015625)"/>
      </defs>
      <use xlink:href="#DejaVuSerif-54"/>
      <use xlink:href="#DejaVuSerif-69" x="66.699219"/>
      <use xlink:href="#DejaVuSerif-6d" x="98.681641"/>
      <use xlink:href="#DejaVuSerif-65" x="193.505859"/>
      <use xlink:href="#DejaVuSerif-20" x="252.685547"/>
      <use xlink:href="#DejaVuSerif-5b" x="284.472656"/>
      <use xlink:href="#DejaVuSerif-73" x="323.486328"/>
      <use xlink:href="#DejaVuSerif-5d" x="374.804688"/>
     </g>
    </g>
   </g>
   <g id="matplotlib.axis_8">
    <g id="ytick_10">
     <g id="line2d_95">
      <path d="M 44.361334 301.316363 
L 515.39976 301.316363 
" clip-path="url(#pcaf5f5abc6)" style="fill: none; stroke: #b0b0b0; stroke-width: 0.8; stroke-linecap: round"/>
     </g>
     <g id="line2d_96"/>
     <g id="text_25">
      <!-- −50 -->
      <g style="fill: #262626" transform="translate(17.646178 305.495504) scale(0.11 -0.11)">
       <use xlink:href="#DejaVuSerif-2212"/>
       <use xlink:href="#DejaVuSerif-35" x="83.789062"/>
       <use xlink:href="#DejaVuSerif-30" x="147.412109"/>
      </g>
     </g>
    </g>
    <g id="ytick_11">
     <g id="line2d_97">
      <path d="M 44.361334 282.098841 
L 515.39976 282.098841 
" clip-path="url(#pcaf5f5abc6)" style="fill: none; stroke: #b0b0b0; stroke-width: 0.8; stroke-linecap: round"/>
     </g>
     <g id="line2d_98"/>
     <g id="text_26">
      <!-- 0 -->
      <g style="fill: #262626" transform="translate(33.862584 286.277982) scale(0.11 -0.11)">
       <use xlink:href="#DejaVuSerif-30"/>
      </g>
     </g>
    </g>
    <g id="ytick_12">
     <g id="line2d_99">
      <path d="M 44.361334 262.881318 
L 515.39976 262.881318 
" clip-path="url(#pcaf5f5abc6)" style="fill: none; stroke: #b0b0b0; stroke-width: 0.8; stroke-linecap: round"/>
     </g>
     <g id="line2d_100"/>
     <g id="text_27">
      <!-- 50 -->
      <g style="fill: #262626" transform="translate(26.863834 267.060459) scale(0.11 -0.11)">
       <use xlink:href="#DejaVuSerif-35"/>
       <use xlink:href="#DejaVuSerif-30" x="63.623047"/>
      </g>
     </g>
    </g>
    <g id="text_28">
     <!-- $Y_H(r)$ -->
     <g style="fill: #262626" transform="translate(11.358521 292.133526) rotate(-90) scale(0.11 -0.11)">
      <use xlink:href="#DejaVuSans-Oblique-59" transform="translate(0 0.125)"/>
      <use xlink:href="#DejaVuSans-Oblique-48" transform="translate(61.083984 -16.28125) scale(0.7)"/>
      <use xlink:href="#DejaVuSans-28" transform="translate(116.455078 0.125)"/>
      <use xlink:href="#DejaVuSans-Oblique-72" transform="translate(155.46875 0.125)"/>
      <use xlink:href="#DejaVuSans-29" transform="translate(196.582031 0.125)"/>
     </g>
    </g>
   </g>
   <g id="line2d_101">
    <path d="M 65.772171 282.098841 
L 493.988922 282.098841 
L 493.988922 282.098841 
" clip-path="url(#pcaf5f5abc6)" style="fill: none; stroke: #0000ff; stroke-linecap: round"/>
   </g>
   <g id="line2d_102">
    <path d="M 65.772171 282.098841 
L 493.988922 282.098841 
L 493.988922 282.098841 
" clip-path="url(#pcaf5f5abc6)" style="fill: none; stroke: #008000; stroke-linecap: round"/>
   </g>
   <g id="line2d_103">
    <path d="M 65.772171 282.098841 
L 493.988922 282.098841 
L 493.988922 282.098841 
" clip-path="url(#pcaf5f5abc6)" style="fill: none; stroke: #ff0000; stroke-linecap: round"/>
   </g>
   <g id="patch_12">
    <path d="M 44.361334 313.807885 
L 44.361334 244.499166 
" style="fill: none; stroke: #000000; stroke-linejoin: miter; stroke-linecap: square"/>
   </g>
   <g id="patch_13">
    <path d="M 44.361334 313.807885 
L 515.39976 313.807885 
" style="fill: none; stroke: #000000; stroke-linejoin: miter; stroke-linecap: square"/>
   </g>
  </g>
 </g>
 <defs>
  <clipPath id="p7ec6e4dd78">
   <rect x="44.361334" y="18.571571" width="471.038426" height="69.308719"/>
  </clipPath>
  <clipPath id="pebe1f7810f">
   <rect x="44.361334" y="93.880769" width="471.038426" height="69.308719"/>
  </clipPath>
  <clipPath id="p1bdd065fa4">
   <rect x="44.361334" y="169.189968" width="471.038426" height="69.308719"/>
  </clipPath>
  <clipPath id="pcaf5f5abc6">
   <rect x="44.361334" y="244.499166" width="471.038426" height="69.308719"/>
  </clipPath>
 </defs>
</svg>
