<?xml version="1.0" encoding="utf-8" standalone="no"?>
<!DOCTYPE svg PUBLIC "-//W3C//DTD SVG 1.1//EN"
  "http://www.w3.org/Graphics/SVG/1.1/DTD/svg11.dtd">
<svg xmlns:xlink="http://www.w3.org/1999/xlink" width="511.725781pt" height="339.531875pt" viewBox="0 0 511.725781 339.531875" xmlns="http://www.w3.org/2000/svg" version="1.1">
 <metadata>
  <rdf:RDF xmlns:dc="http://purl.org/dc/elements/1.1/" xmlns:cc="http://creativecommons.org/ns#" xmlns:rdf="http://www.w3.org/1999/02/22-rdf-syntax-ns#">
   <cc:Work>
    <dc:type rdf:resource="http://purl.org/dc/dcmitype/StillImage"/>
    <dc:date>2024-02-05T09:24:06.854632</dc:date>
    <dc:format>image/svg+xml</dc:format>
    <dc:creator>
     <cc:Agent>
      <dc:title>Matplotlib v3.8.2, https://matplotlib.org/</dc:title>
     </cc:Agent>
    </dc:creator>
   </cc:Work>
  </rdf:RDF>
 </metadata>
 <defs>
  <style type="text/css">*{stroke-linejoin: round; stroke-linecap: butt}</style>
 </defs>
 <g id="figure_1">
  <g id="patch_1">
   <path d="M 0 339.531875 
L 511.725781 339.531875 
L 511.725781 0 
L 0 0 
z
" style="fill: #ffffff"/>
  </g>
  <g id="axes_1">
   <g id="patch_2">
    <path d="M 59.055781 105.98 
L 504.525781 105.98 
L 504.525781 7.2 
L 59.055781 7.2 
z
" style="fill: #ffffff"/>
   </g>
   <g id="line2d_1">
    <path d="M 79.304418 56.782233 
L 81.896543 56.824752 
L 83.624626 57.082746 
L 85.352709 57.587147 
L 87.368807 58.413527 
L 91.881024 60.563594 
L 97.545298 63.819318 
L 102.057516 65.934571 
L 105.129664 67.671511 
L 108.77784 70.135644 
L 113.866085 73.692466 
L 117.034238 75.249091 
L 120.298396 76.492068 
L 123.946572 77.908776 
L 126.442692 79.241125 
L 132.20297 82.464718 
L 134.603086 83.452338 
L 137.675234 84.576252 
L 139.691331 85.292844 
L 141.419415 85.791823 
L 144.683572 86.779825 
L 148.811772 88.288247 
L 150.539855 88.605392 
L 152.075929 88.684043 
L 153.612003 88.602377 
L 157.06817 88.10391 
L 159.276276 87.545104 
L 162.828448 86.145094 
L 165.132559 84.848406 
L 168.68473 82.545368 
L 170.604823 81.031554 
L 172.140897 79.641709 
L 174.925032 76.787366 
L 176.845124 74.87733 
L 180.685309 71.564985 
L 182.797411 69.671765 
L 185.389536 67.232901 
L 192.589884 60.748544 
L 194.701986 58.793179 
L 197.48612 56.477904 
L 200.846282 54.093214 
L 211.79081 46.910265 
L 213.326885 45.777591 
L 215.150973 44.754736 
L 219.8552 42.269771 
L 222.543329 41.26292 
L 224.559427 40.562373 
L 227.631575 39.159825 
L 232.91183 36.615121 
L 241.264233 33.164441 
L 246.352478 31.630874 
L 248.656589 31.1088 
L 251.344719 30.080435 
L 254.032849 29.051122 
L 261.425205 26.679377 
L 265.937423 25.642632 
L 267.761511 25.236426 
L 271.409687 24.100431 
L 274.289826 23.379991 
L 278.322021 22.556484 
L 281.586178 22.027791 
L 289.266549 20.375213 
L 291.954679 19.833681 
L 295.026827 19.285349 
L 296.946919 19.106835 
L 298.963017 18.81869 
L 307.987452 17.660552 
L 311.347614 17.213246 
L 313.74773 16.85169 
L 316.531864 16.614635 
L 318.451957 16.779321 
L 320.852073 17.240968 
L 322.100133 17.707182 
L 324.692258 18.914484 
L 327.668402 20.325748 
L 331.220573 21.73156 
L 333.23667 22.773037 
L 334.580735 23.664182 
L 336.500828 25.259073 
L 338.228911 26.885922 
L 340.725032 29.403935 
L 342.645124 31.75568 
L 345.429259 35.06088 
L 347.253347 36.999074 
L 348.885426 38.350238 
L 353.781662 42.303731 
L 356.181778 44.879424 
L 359.829954 48.59907 
L 363.28612 51.711087 
L 368.182357 55.663747 
L 371.35051 57.848141 
L 373.462611 59.313744 
L 376.438755 61.3201 
L 383.831112 66.112735 
L 387.575292 68.182105 
L 392.279519 70.403894 
L 396.791737 72.215328 
L 398.999844 73.100816 
L 401.015941 74.042233 
L 406.008182 76.422446 
L 409.464349 77.691539 
L 412.248483 78.464225 
L 427.705229 83.803038 
L 429.433312 84.361771 
L 431.545414 85.002822 
L 433.465507 85.464188 
L 442.009919 87.541638 
L 446.906155 88.886074 
L 450.266317 89.46141 
L 453.146456 90.059115 
L 456.506619 90.739566 
L 459.290753 91.217791 
L 462.170892 91.704858 
L 466.107082 92.277599 
L 467.835165 92.582759 
L 470.043272 92.997003 
L 473.595443 93.494092 
L 475.419531 93.734714 
L 478.395675 94.044799 
L 483.963943 94.652035 
L 484.251957 94.69558 
L 484.251957 94.69558 
" clip-path="url(#pb328c80160)" style="fill: none; stroke: #000000; stroke-linecap: round"/>
   </g>
   <g id="matplotlib.axis_1">
    <g id="xtick_1">
     <g id="line2d_2">
      <path d="M 79.304418 105.98 
L 79.304418 7.2 
" clip-path="url(#pb328c80160)" style="fill: none; stroke: #b0b0b0; stroke-width: 0.8; stroke-linecap: round"/>
     </g>
     <g id="line2d_3"/>
    </g>
    <g id="xtick_2">
     <g id="line2d_4">
      <path d="M 175.95662 105.98 
L 175.95662 7.2 
" clip-path="url(#pb328c80160)" style="fill: none; stroke: #b0b0b0; stroke-width: 0.8; stroke-linecap: round"/>
     </g>
     <g id="line2d_5"/>
    </g>
    <g id="xtick_3">
     <g id="line2d_6">
      <path d="M 272.608822 105.98 
L 272.608822 7.2 
" clip-path="url(#pb328c80160)" style="fill: none; stroke: #b0b0b0; stroke-width: 0.8; stroke-linecap: round"/>
     </g>
     <g id="line2d_7"/>
    </g>
    <g id="xtick_4">
     <g id="line2d_8">
      <path d="M 369.261024 105.98 
L 369.261024 7.2 
" clip-path="url(#pb328c80160)" style="fill: none; stroke: #b0b0b0; stroke-width: 0.8; stroke-linecap: round"/>
     </g>
     <g id="line2d_9"/>
    </g>
    <g id="xtick_5">
     <g id="line2d_10">
      <path d="M 465.913226 105.98 
L 465.913226 7.2 
" clip-path="url(#pb328c80160)" style="fill: none; stroke: #b0b0b0; stroke-width: 0.8; stroke-linecap: round"/>
     </g>
     <g id="line2d_11"/>
    </g>
   </g>
   <g id="matplotlib.axis_2">
    <g id="ytick_1">
     <g id="line2d_12">
      <path d="M 59.055781 87.540177 
L 504.525781 87.540177 
" clip-path="url(#pb328c80160)" style="fill: none; stroke: #b0b0b0; stroke-width: 0.8; stroke-linecap: round"/>
     </g>
     <g id="line2d_13"/>
     <g id="text_1">
      <!-- −10 -->
      <g style="fill: #262626" transform="translate(32.340625 91.719318) scale(0.11 -0.11)">
       <defs>
        <path id="DejaVuSerif-2212" d="M 678 2259 
L 4684 2259 
L 4684 1753 
L 678 1753 
L 678 2259 
z
" transform="scale(0.015625)"/>
        <path id="DejaVuSerif-31" d="M 909 0 
L 909 331 
L 1722 331 
L 1722 4213 
L 781 3603 
L 781 4013 
L 1919 4750 
L 2350 4750 
L 2350 331 
L 3163 331 
L 3163 0 
L 909 0 
z
" transform="scale(0.015625)"/>
        <path id="DejaVuSerif-30" d="M 2034 219 
Q 2513 219 2750 744 
Q 2988 1269 2988 2328 
Q 2988 3391 2750 3916 
Q 2513 4441 2034 4441 
Q 1556 4441 1318 3916 
Q 1081 3391 1081 2328 
Q 1081 1269 1318 744 
Q 1556 219 2034 219 
z
M 2034 -91 
Q 1275 -91 848 546 
Q 422 1184 422 2328 
Q 422 3475 848 4112 
Q 1275 4750 2034 4750 
Q 2797 4750 3222 4112 
Q 3647 3475 3647 2328 
Q 3647 1184 3222 546 
Q 2797 -91 2034 -91 
z
" transform="scale(0.015625)"/>
       </defs>
       <use xlink:href="#DejaVuSerif-2212"/>
       <use xlink:href="#DejaVuSerif-31" x="83.789062"/>
       <use xlink:href="#DejaVuSerif-30" x="147.412109"/>
      </g>
     </g>
    </g>
    <g id="ytick_2">
     <g id="line2d_14">
      <path d="M 59.055781 56.807782 
L 504.525781 56.807782 
" clip-path="url(#pb328c80160)" style="fill: none; stroke: #b0b0b0; stroke-width: 0.8; stroke-linecap: round"/>
     </g>
     <g id="line2d_15"/>
     <g id="text_2">
      <!-- 0 -->
      <g style="fill: #262626" transform="translate(48.557031 60.986922) scale(0.11 -0.11)">
       <use xlink:href="#DejaVuSerif-30"/>
      </g>
     </g>
    </g>
    <g id="ytick_3">
     <g id="line2d_16">
      <path d="M 59.055781 26.075386 
L 504.525781 26.075386 
" clip-path="url(#pb328c80160)" style="fill: none; stroke: #b0b0b0; stroke-width: 0.8; stroke-linecap: round"/>
     </g>
     <g id="line2d_17"/>
     <g id="text_3">
      <!-- 10 -->
      <g style="fill: #262626" transform="translate(41.558281 30.254527) scale(0.11 -0.11)">
       <use xlink:href="#DejaVuSerif-31"/>
       <use xlink:href="#DejaVuSerif-30" x="63.623047"/>
      </g>
     </g>
    </g>
    <g id="text_4">
     <!-- $\beta$ $[deg]$ -->
     <g style="fill: #262626" transform="translate(26.030625 76.555) rotate(-90) scale(0.11 -0.11)">
      <defs>
       <path id="DejaVuSans-Oblique-3b2" d="M 872 216 
L 572 -1331 
L -6 -1331 
L 928 3478 
Q 1206 4903 2538 4903 
Q 3888 4903 3659 3700 
Q 3503 2844 2894 2531 
Q 3713 2250 3553 1416 
Q 3272 -69 1759 -66 
Q 1097 -63 872 216 
z
M 1019 966 
Q 1259 422 1875 425 
Q 2775 425 2966 1406 
Q 3138 2288 1675 2219 
L 1778 2750 
Q 2909 2731 3106 3750 
Q 3241 4438 2509 4434 
Q 1691 4434 1503 3459 
L 1019 966 
z
" transform="scale(0.015625)"/>
       <path id="DejaVuSerif-20" transform="scale(0.015625)"/>
       <path id="DejaVuSans-5b" d="M 550 4863 
L 1875 4863 
L 1875 4416 
L 1125 4416 
L 1125 -397 
L 1875 -397 
L 1875 -844 
L 550 -844 
L 550 4863 
z
" transform="scale(0.015625)"/>
       <path id="DejaVuSans-Oblique-64" d="M 2675 525 
Q 2444 222 2128 65 
Q 1813 -91 1428 -91 
Q 903 -91 598 267 
Q 294 625 294 1247 
Q 294 1766 478 2236 
Q 663 2706 1013 3078 
Q 1244 3325 1534 3454 
Q 1825 3584 2144 3584 
Q 2481 3584 2739 3421 
Q 2997 3259 3138 2956 
L 3513 4863 
L 4091 4863 
L 3144 0 
L 2566 0 
L 2675 525 
z
M 891 1350 
Q 891 897 1095 644 
Q 1300 391 1663 391 
Q 1931 391 2161 520 
Q 2391 650 2566 903 
Q 2750 1166 2856 1509 
Q 2963 1853 2963 2188 
Q 2963 2622 2758 2865 
Q 2553 3109 2194 3109 
Q 1922 3109 1687 2981 
Q 1453 2853 1288 2613 
Q 1106 2353 998 2009 
Q 891 1666 891 1350 
z
" transform="scale(0.015625)"/>
       <path id="DejaVuSans-Oblique-65" d="M 3078 2063 
Q 3088 2113 3092 2166 
Q 3097 2219 3097 2272 
Q 3097 2653 2873 2875 
Q 2650 3097 2266 3097 
Q 1838 3097 1509 2826 
Q 1181 2556 1013 2059 
L 3078 2063 
z
M 3578 1613 
L 903 1613 
Q 884 1494 878 1425 
Q 872 1356 872 1306 
Q 872 872 1139 634 
Q 1406 397 1894 397 
Q 2269 397 2603 481 
Q 2938 566 3225 728 
L 3116 159 
Q 2806 34 2476 -28 
Q 2147 -91 1806 -91 
Q 1078 -91 686 257 
Q 294 606 294 1247 
Q 294 1794 489 2264 
Q 684 2734 1063 3103 
Q 1306 3334 1642 3459 
Q 1978 3584 2356 3584 
Q 2950 3584 3301 3228 
Q 3653 2872 3653 2272 
Q 3653 2128 3634 1964 
Q 3616 1800 3578 1613 
z
" transform="scale(0.015625)"/>
       <path id="DejaVuSans-Oblique-67" d="M 3816 3500 
L 3219 434 
Q 3047 -456 2561 -893 
Q 2075 -1331 1253 -1331 
Q 950 -1331 690 -1286 
Q 431 -1241 206 -1147 
L 313 -588 
Q 525 -725 762 -790 
Q 1000 -856 1269 -856 
Q 1816 -856 2167 -557 
Q 2519 -259 2631 300 
L 2681 563 
Q 2441 288 2122 144 
Q 1803 0 1434 0 
Q 903 0 598 351 
Q 294 703 294 1319 
Q 294 1803 478 2267 
Q 663 2731 997 3091 
Q 1219 3328 1514 3456 
Q 1809 3584 2131 3584 
Q 2484 3584 2746 3420 
Q 3009 3256 3138 2956 
L 3238 3500 
L 3816 3500 
z
M 2950 2216 
Q 2950 2641 2750 2872 
Q 2550 3103 2181 3103 
Q 1953 3103 1747 3012 
Q 1541 2922 1394 2759 
Q 1156 2491 1023 2127 
Q 891 1763 891 1375 
Q 891 944 1092 712 
Q 1294 481 1672 481 
Q 2219 481 2584 976 
Q 2950 1472 2950 2216 
z
" transform="scale(0.015625)"/>
       <path id="DejaVuSans-5d" d="M 1947 4863 
L 1947 -844 
L 622 -844 
L 622 -397 
L 1369 -397 
L 1369 4416 
L 622 4416 
L 622 4863 
L 1947 4863 
z
" transform="scale(0.015625)"/>
      </defs>
      <use xlink:href="#DejaVuSans-Oblique-3b2" transform="translate(0 0.390625)"/>
      <use xlink:href="#DejaVuSerif-20" transform="translate(63.818359 0.390625)"/>
      <use xlink:href="#DejaVuSans-5b" transform="translate(95.605469 0.390625)"/>
      <use xlink:href="#DejaVuSans-Oblique-64" transform="translate(134.619141 0.390625)"/>
      <use xlink:href="#DejaVuSans-Oblique-65" transform="translate(198.095703 0.390625)"/>
      <use xlink:href="#DejaVuSans-Oblique-67" transform="translate(259.619141 0.390625)"/>
      <use xlink:href="#DejaVuSans-5d" transform="translate(323.095703 0.390625)"/>
     </g>
    </g>
   </g>
   <g id="line2d_18">
    <path d="M 79.304418 56.807782 
L 81.817375 56.918793 
L 84.23368 57.250065 
L 86.553333 57.795382 
L 88.776333 58.542159 
L 91.095986 59.55592 
L 94.76877 61.470682 
L 117.965298 73.805402 
L 125.50417 77.412907 
L 132.366477 80.469364 
L 140.098653 83.66596 
L 147.540872 86.517117 
L 152.083526 88.07044 
L 154.209874 88.532741 
L 156.336223 88.766075 
L 158.365919 88.769962 
L 160.395615 88.558044 
L 162.521964 88.114361 
L 164.648312 87.444753 
L 166.871313 86.506654 
L 169.190966 85.283043 
L 171.510619 83.803242 
L 174.023576 81.938633 
L 177.696359 78.882338 
L 192.967407 66.110088 
L 199.346453 61.144678 
L 205.435542 56.691481 
L 211.814587 52.332169 
L 218.000328 48.37177 
L 223.606156 45.036829 
L 229.695244 41.659738 
L 236.07429 38.371975 
L 243.033248 35.039526 
L 250.088859 31.902987 
L 257.434426 28.889436 
L 265.06995 25.997831 
L 273.478692 23.058521 
L 281.984086 20.324492 
L 291.552654 17.492336 
L 300.541308 15.077129 
L 310.593138 12.611241 
L 314.265921 11.853723 
L 316.295617 11.694701 
L 318.325314 11.75642 
L 320.35501 12.035813 
L 322.481358 12.552852 
L 324.607707 13.300425 
L 326.830707 14.322292 
L 329.247013 15.690372 
L 331.75997 17.376489 
L 334.369579 19.405456 
L 337.172493 21.880189 
L 358.242673 41.241929 
L 364.138458 46.233965 
L 369.93759 50.83439 
L 375.833374 55.22959 
L 381.632506 59.285727 
L 388.108204 63.54003 
L 393.810684 67.046287 
L 399.513164 70.300686 
L 405.892209 73.684111 
L 413.141124 77.270407 
L 420.776648 80.776057 
L 427.638954 83.684747 
L 435.177826 86.649502 
L 443.489916 89.669074 
L 452.188614 92.586061 
L 460.500703 95.146716 
L 470.745837 98.055953 
L 480.314405 100.520601 
L 484.277145 101.49 
L 484.277145 101.49 
" clip-path="url(#pb328c80160)" style="fill: none; stroke: #0000ff; stroke-linecap: round"/>
   </g>
   <g id="line2d_19">
    <path d="M 79.304418 56.807782 
L 81.817375 56.918672 
L 84.23368 57.249274 
L 86.553333 57.791955 
L 88.872986 58.569316 
L 91.192638 59.583051 
L 94.962074 61.527923 
L 112.842732 70.872789 
L 120.284951 74.397095 
L 126.857301 77.264169 
L 133.81626 80.075831 
L 141.065175 82.759434 
L 148.217438 85.162637 
L 153.629961 86.783416 
L 155.852962 87.191125 
L 157.97931 87.357189 
L 160.105659 87.30054 
L 162.135355 87.033696 
L 164.261703 86.533255 
L 166.484704 85.781527 
L 168.707705 84.801105 
L 171.027358 83.526654 
L 173.443663 81.942707 
L 176.053272 79.959523 
L 179.822708 76.756129 
L 192.870755 65.6237 
L 198.863192 60.871251 
L 204.275715 56.853969 
L 209.784891 53.050019 
L 215.680675 49.245249 
L 221.18985 45.955414 
L 226.602374 42.984072 
L 232.401506 40.055933 
L 238.683899 37.135964 
L 245.256249 34.333265 
L 252.118555 31.646528 
L 259.174166 29.119471 
L 266.423081 26.762224 
L 274.541866 24.355688 
L 283.530521 21.928556 
L 292.229219 19.781068 
L 302.087744 17.583654 
L 312.429529 15.500271 
L 316.198965 14.885002 
L 318.421966 14.808275 
L 320.548314 14.964365 
L 322.674663 15.347865 
L 324.897663 15.982789 
L 327.120664 16.850473 
L 329.440317 17.996402 
L 331.856622 19.446932 
L 334.369579 21.223822 
L 336.882537 23.270781 
L 340.072059 26.187487 
L 357.372803 42.362412 
L 362.978631 47.212423 
L 368.391154 51.597023 
L 373.90033 55.768171 
L 379.312853 59.585315 
L 384.918681 63.266022 
L 390.911118 66.942144 
L 396.033684 69.826054 
L 402.026121 72.935448 
L 408.018557 75.796358 
L 414.977516 78.855631 
L 421.74317 81.580809 
L 428.895433 84.215696 
L 436.530957 86.789833 
L 443.973177 89.071652 
L 452.285266 91.378026 
L 462.143791 93.872606 
L 471.905663 96.125774 
L 481.764188 98.174258 
L 483.213971 98.457742 
L 483.213971 98.457742 
" clip-path="url(#pb328c80160)" style="fill: none; stroke: #008000; stroke-linecap: round"/>
   </g>
   <g id="line2d_20">
    <path d="M 79.304418 56.807782 
L 82.107331 56.916109 
L 84.523637 57.222745 
L 86.746637 57.721641 
L 88.872986 58.429929 
L 90.902682 59.33856 
L 93.125683 60.598845 
L 103.757425 66.770952 
L 111.682905 71.122274 
L 118.738516 74.745824 
L 125.310866 77.873346 
L 131.979868 80.802547 
L 138.745522 83.527294 
L 146.091089 86.2383 
L 150.633743 87.725819 
L 152.663439 88.125626 
L 154.693135 88.300806 
L 156.722832 88.249794 
L 158.752528 87.974105 
L 160.782224 87.478632 
L 162.81192 86.755951 
L 164.938269 85.753254 
L 167.161269 84.447841 
L 169.480922 82.815966 
L 171.897227 80.833341 
L 174.410185 78.458929 
L 185.718492 67.360922 
L 191.131016 62.493703 
L 196.253582 58.185184 
L 201.279497 54.24937 
L 206.305411 50.596863 
L 211.331326 47.215785 
L 216.453893 44.03907 
L 221.866416 40.945816 
L 227.665548 37.890548 
L 233.368028 35.138546 
L 239.457117 32.447743 
L 245.836162 29.866659 
L 252.505164 27.408215 
L 259.754079 24.978194 
L 267.099647 22.724712 
L 275.025127 20.529311 
L 283.433869 18.429037 
L 293.099089 16.243035 
L 302.571005 14.327571 
L 304.794005 14.010262 
L 306.823702 13.968656 
L 308.853398 14.157891 
L 310.883094 14.57548 
L 312.91279 15.229165 
L 315.039139 16.159934 
L 317.165487 17.335544 
L 319.388488 18.816032 
L 321.708141 20.626537 
L 324.221098 22.880565 
L 326.830707 25.531358 
L 329.923578 29.025816 
L 335.336101 35.054954 
L 340.748625 40.761843 
L 345.774539 45.742583 
L 350.607149 50.215022 
L 355.343107 54.293732 
L 360.079065 58.080033 
L 364.911675 61.659541 
L 369.840937 65.03686 
L 374.963504 68.275762 
L 380.279375 71.373749 
L 385.691899 74.270817 
L 391.297726 77.015785 
L 397.483467 79.800833 
L 403.959165 82.470112 
L 410.434862 84.92496 
L 417.393821 87.320631 
L 424.836041 89.647679 
L 432.954826 91.951944 
L 441.750176 94.207603 
L 450.738831 96.285942 
L 460.307399 98.269561 
L 464.656748 99.090548 
L 464.656748 99.090548 
" clip-path="url(#pb328c80160)" style="fill: none; stroke: #ff0000; stroke-linecap: round"/>
   </g>
   <g id="patch_3">
    <path d="M 59.055781 105.98 
L 59.055781 7.2 
" style="fill: none; stroke: #000000; stroke-linejoin: miter; stroke-linecap: square"/>
   </g>
   <g id="patch_4">
    <path d="M 59.055781 105.98 
L 504.525781 105.98 
" style="fill: none; stroke: #000000; stroke-linejoin: miter; stroke-linecap: square"/>
   </g>
   <g id="legend_1">
    <g id="line2d_21">
     <path d="M 210.21 41.348125 
L 221.21 41.348125 
L 232.21 41.348125 
" style="fill: none; stroke: #000000; stroke-linecap: round"/>
    </g>
    <g id="text_5">
     <!-- Experiment -->
     <g style="fill: #262626" transform="translate(241.01 45.198125) scale(0.11 -0.11)">
      <defs>
       <path id="DejaVuSerif-45" d="M 353 0 
L 353 331 
L 947 331 
L 947 4331 
L 353 4331 
L 353 4666 
L 4109 4666 
L 4109 3628 
L 3725 3628 
L 3725 4281 
L 1581 4281 
L 1581 2719 
L 3109 2719 
L 3109 3303 
L 3494 3303 
L 3494 1753 
L 3109 1753 
L 3109 2338 
L 1581 2338 
L 1581 384 
L 3775 384 
L 3775 1038 
L 4159 1038 
L 4159 0 
L 353 0 
z
" transform="scale(0.015625)"/>
       <path id="DejaVuSerif-78" d="M 1863 2028 
L 2559 2988 
L 2113 2988 
L 2113 3322 
L 3391 3322 
L 3391 2988 
L 2950 2988 
L 2059 1759 
L 3097 331 
L 3531 331 
L 3531 0 
L 1997 0 
L 1997 331 
L 2419 331 
L 1697 1325 
L 972 331 
L 1403 331 
L 1403 0 
L 141 0 
L 141 331 
L 581 331 
L 1497 1594 
L 488 2988 
L 78 2988 
L 78 3322 
L 1563 3322 
L 1563 2988 
L 1166 2988 
L 1863 2028 
z
" transform="scale(0.015625)"/>
       <path id="DejaVuSerif-70" d="M 1313 1825 
L 1313 1497 
Q 1313 897 1542 583 
Q 1772 269 2209 269 
Q 2650 269 2876 622 
Q 3103 975 3103 1663 
Q 3103 2353 2876 2703 
Q 2650 3053 2209 3053 
Q 1772 3053 1542 2737 
Q 1313 2422 1313 1825 
z
M 738 2988 
L 184 2988 
L 184 3322 
L 1313 3322 
L 1313 2803 
Q 1481 3116 1742 3264 
Q 2003 3413 2388 3413 
Q 3000 3413 3387 2928 
Q 3775 2444 3775 1663 
Q 3775 881 3387 395 
Q 3000 -91 2388 -91 
Q 2003 -91 1742 57 
Q 1481 206 1313 519 
L 1313 -997 
L 1856 -997 
L 1856 -1331 
L 184 -1331 
L 184 -997 
L 738 -997 
L 738 2988 
z
" transform="scale(0.015625)"/>
       <path id="DejaVuSerif-65" d="M 3469 1600 
L 991 1600 
L 991 1575 
Q 991 903 1244 561 
Q 1497 219 1991 219 
Q 2369 219 2611 417 
Q 2853 616 2950 1006 
L 3413 1006 
Q 3275 459 2904 184 
Q 2534 -91 1931 -91 
Q 1203 -91 761 389 
Q 319 869 319 1663 
Q 319 2450 753 2931 
Q 1188 3413 1894 3413 
Q 2647 3413 3050 2948 
Q 3453 2484 3469 1600 
z
M 2791 1931 
Q 2772 2513 2545 2808 
Q 2319 3103 1894 3103 
Q 1497 3103 1269 2806 
Q 1041 2509 991 1931 
L 2791 1931 
z
" transform="scale(0.015625)"/>
       <path id="DejaVuSerif-72" d="M 3059 3328 
L 3059 2497 
L 2728 2497 
Q 2713 2744 2591 2866 
Q 2469 2988 2234 2988 
Q 1809 2988 1582 2694 
Q 1356 2400 1356 1850 
L 1356 331 
L 2022 331 
L 2022 0 
L 263 0 
L 263 331 
L 781 331 
L 781 2994 
L 231 2994 
L 231 3322 
L 1356 3322 
L 1356 2731 
Q 1525 3078 1790 3245 
Q 2056 3413 2438 3413 
Q 2578 3413 2733 3391 
Q 2888 3369 3059 3328 
z
" transform="scale(0.015625)"/>
       <path id="DejaVuSerif-69" d="M 622 4353 
Q 622 4497 726 4603 
Q 831 4709 978 4709 
Q 1122 4709 1226 4603 
Q 1331 4497 1331 4353 
Q 1331 4206 1228 4103 
Q 1125 4000 978 4000 
Q 831 4000 726 4103 
Q 622 4206 622 4353 
z
M 1356 331 
L 1900 331 
L 1900 0 
L 231 0 
L 231 331 
L 781 331 
L 781 2988 
L 231 2988 
L 231 3322 
L 1356 3322 
L 1356 331 
z
" transform="scale(0.015625)"/>
       <path id="DejaVuSerif-6d" d="M 3316 2675 
Q 3481 3041 3739 3227 
Q 3997 3413 4341 3413 
Q 4863 3413 5119 3089 
Q 5375 2766 5375 2113 
L 5375 331 
L 5894 331 
L 5894 0 
L 4300 0 
L 4300 331 
L 4800 331 
L 4800 2047 
Q 4800 2556 4650 2772 
Q 4500 2988 4153 2988 
Q 3769 2988 3567 2697 
Q 3366 2406 3366 1850 
L 3366 331 
L 3866 331 
L 3866 0 
L 2291 0 
L 2291 331 
L 2791 331 
L 2791 2069 
Q 2791 2566 2641 2777 
Q 2491 2988 2144 2988 
Q 1759 2988 1557 2697 
Q 1356 2406 1356 1850 
L 1356 331 
L 1856 331 
L 1856 0 
L 263 0 
L 263 331 
L 781 331 
L 781 2994 
L 231 2994 
L 231 3322 
L 1356 3322 
L 1356 2731 
Q 1516 3063 1762 3238 
Q 2009 3413 2322 3413 
Q 2709 3413 2968 3220 
Q 3228 3028 3316 2675 
z
" transform="scale(0.015625)"/>
       <path id="DejaVuSerif-6e" d="M 263 0 
L 263 331 
L 781 331 
L 781 2988 
L 231 2988 
L 231 3322 
L 1356 3322 
L 1356 2731 
Q 1516 3069 1770 3241 
Q 2025 3413 2363 3413 
Q 2913 3413 3172 3097 
Q 3431 2781 3431 2113 
L 3431 331 
L 3944 331 
L 3944 0 
L 2356 0 
L 2356 331 
L 2853 331 
L 2853 1931 
Q 2853 2541 2703 2767 
Q 2553 2994 2175 2994 
Q 1775 2994 1565 2701 
Q 1356 2409 1356 1850 
L 1356 331 
L 1856 331 
L 1856 0 
L 263 0 
z
" transform="scale(0.015625)"/>
       <path id="DejaVuSerif-74" d="M 691 2988 
L 184 2988 
L 184 3322 
L 691 3322 
L 691 4353 
L 1269 4353 
L 1269 3322 
L 2350 3322 
L 2350 2988 
L 1269 2988 
L 1269 878 
Q 1269 456 1350 337 
Q 1431 219 1650 219 
Q 1875 219 1978 351 
Q 2081 484 2088 781 
L 2522 781 
Q 2497 328 2275 118 
Q 2053 -91 1600 -91 
Q 1103 -91 897 129 
Q 691 350 691 878 
L 691 2988 
z
" transform="scale(0.015625)"/>
      </defs>
      <use xlink:href="#DejaVuSerif-45"/>
      <use xlink:href="#DejaVuSerif-78" x="72.998047"/>
      <use xlink:href="#DejaVuSerif-70" x="129.394531"/>
      <use xlink:href="#DejaVuSerif-65" x="193.408203"/>
      <use xlink:href="#DejaVuSerif-72" x="252.587891"/>
      <use xlink:href="#DejaVuSerif-69" x="300.390625"/>
      <use xlink:href="#DejaVuSerif-6d" x="332.373047"/>
      <use xlink:href="#DejaVuSerif-65" x="427.197266"/>
      <use xlink:href="#DejaVuSerif-6e" x="486.376953"/>
      <use xlink:href="#DejaVuSerif-74" x="550.78125"/>
     </g>
    </g>
    <g id="line2d_22">
     <path d="M 210.21 57.494063 
L 221.21 57.494063 
L 232.21 57.494063 
" style="fill: none; stroke: #0000ff; stroke-linecap: round"/>
    </g>
    <g id="text_6">
     <!-- Reference model -->
     <g style="fill: #262626" transform="translate(241.01 61.344063) scale(0.11 -0.11)">
      <defs>
       <path id="DejaVuSerif-52" d="M 3066 2316 
Q 3284 2256 3442 2114 
Q 3600 1972 3725 1716 
L 4403 331 
L 4972 331 
L 4972 0 
L 3872 0 
L 3144 1484 
Q 2934 1916 2759 2042 
Q 2584 2169 2278 2169 
L 1581 2169 
L 1581 331 
L 2241 331 
L 2241 0 
L 353 0 
L 353 331 
L 947 331 
L 947 4331 
L 353 4331 
L 353 4666 
L 2719 4666 
Q 3400 4666 3770 4341 
Q 4141 4016 4141 3419 
Q 4141 2938 3870 2661 
Q 3600 2384 3066 2316 
z
M 1581 2503 
L 2503 2503 
Q 2975 2503 3200 2726 
Q 3425 2950 3425 3419 
Q 3425 3888 3200 4109 
Q 2975 4331 2503 4331 
L 1581 4331 
L 1581 2503 
z
" transform="scale(0.015625)"/>
       <path id="DejaVuSerif-66" d="M 2753 4078 
L 2450 4078 
Q 2447 4313 2317 4434 
Q 2188 4556 1941 4556 
Q 1619 4556 1487 4379 
Q 1356 4203 1356 3750 
L 1356 3322 
L 2284 3322 
L 2284 2988 
L 1356 2988 
L 1356 331 
L 2094 331 
L 2094 0 
L 231 0 
L 231 331 
L 781 331 
L 781 2988 
L 231 2988 
L 231 3322 
L 781 3322 
L 781 3738 
Q 781 4294 1070 4578 
Q 1359 4863 1919 4863 
Q 2128 4863 2337 4825 
Q 2547 4788 2753 4709 
L 2753 4078 
z
" transform="scale(0.015625)"/>
       <path id="DejaVuSerif-63" d="M 3291 997 
Q 3169 466 2822 187 
Q 2475 -91 1925 -91 
Q 1200 -91 759 389 
Q 319 869 319 1663 
Q 319 2459 759 2936 
Q 1200 3413 1925 3413 
Q 2241 3413 2553 3339 
Q 2866 3266 3181 3116 
L 3181 2266 
L 2847 2266 
Q 2781 2703 2561 2903 
Q 2341 3103 1931 3103 
Q 1466 3103 1228 2742 
Q 991 2381 991 1663 
Q 991 944 1227 581 
Q 1463 219 1931 219 
Q 2303 219 2525 412 
Q 2747 606 2828 997 
L 3291 997 
z
" transform="scale(0.015625)"/>
       <path id="DejaVuSerif-6f" d="M 1925 219 
Q 2388 219 2623 584 
Q 2859 950 2859 1663 
Q 2859 2375 2623 2739 
Q 2388 3103 1925 3103 
Q 1463 3103 1227 2739 
Q 991 2375 991 1663 
Q 991 950 1228 584 
Q 1466 219 1925 219 
z
M 1925 -91 
Q 1200 -91 759 389 
Q 319 869 319 1663 
Q 319 2456 758 2934 
Q 1197 3413 1925 3413 
Q 2653 3413 3092 2934 
Q 3531 2456 3531 1663 
Q 3531 869 3092 389 
Q 2653 -91 1925 -91 
z
" transform="scale(0.015625)"/>
       <path id="DejaVuSerif-64" d="M 3359 331 
L 3909 331 
L 3909 0 
L 2784 0 
L 2784 519 
Q 2616 206 2355 57 
Q 2094 -91 1709 -91 
Q 1097 -91 708 395 
Q 319 881 319 1663 
Q 319 2444 706 2928 
Q 1094 3413 1709 3413 
Q 2094 3413 2355 3264 
Q 2616 3116 2784 2803 
L 2784 4531 
L 2241 4531 
L 2241 4863 
L 3359 4863 
L 3359 331 
z
M 2784 1497 
L 2784 1825 
Q 2784 2422 2554 2737 
Q 2325 3053 1888 3053 
Q 1444 3053 1217 2703 
Q 991 2353 991 1663 
Q 991 975 1217 622 
Q 1444 269 1888 269 
Q 2325 269 2554 583 
Q 2784 897 2784 1497 
z
" transform="scale(0.015625)"/>
       <path id="DejaVuSerif-6c" d="M 1313 331 
L 1856 331 
L 1856 0 
L 184 0 
L 184 331 
L 738 331 
L 738 4531 
L 184 4531 
L 184 4863 
L 1313 4863 
L 1313 331 
z
" transform="scale(0.015625)"/>
      </defs>
      <use xlink:href="#DejaVuSerif-52"/>
      <use xlink:href="#DejaVuSerif-65" x="75.292969"/>
      <use xlink:href="#DejaVuSerif-66" x="134.472656"/>
      <use xlink:href="#DejaVuSerif-65" x="171.484375"/>
      <use xlink:href="#DejaVuSerif-72" x="230.664062"/>
      <use xlink:href="#DejaVuSerif-65" x="278.466797"/>
      <use xlink:href="#DejaVuSerif-6e" x="337.646484"/>
      <use xlink:href="#DejaVuSerif-63" x="402.050781"/>
      <use xlink:href="#DejaVuSerif-65" x="458.056641"/>
      <use xlink:href="#DejaVuSerif-20" x="517.236328"/>
      <use xlink:href="#DejaVuSerif-6d" x="549.023438"/>
      <use xlink:href="#DejaVuSerif-6f" x="643.847656"/>
      <use xlink:href="#DejaVuSerif-64" x="704.052734"/>
      <use xlink:href="#DejaVuSerif-65" x="768.066406"/>
      <use xlink:href="#DejaVuSerif-6c" x="827.246094"/>
     </g>
    </g>
    <g id="line2d_23">
     <path d="M 210.21 73.64 
L 221.21 73.64 
L 232.21 73.64 
" style="fill: none; stroke: #008000; stroke-linecap: round"/>
    </g>
    <g id="text_7">
     <!-- Physics informed ID -->
     <g style="fill: #262626" transform="translate(241.01 77.49) scale(0.11 -0.11)">
      <defs>
       <path id="DejaVuSerif-50" d="M 1581 2375 
L 2406 2375 
Q 2872 2375 3115 2626 
Q 3359 2878 3359 3353 
Q 3359 3831 3115 4081 
Q 2872 4331 2406 4331 
L 1581 4331 
L 1581 2375 
z
M 353 0 
L 353 331 
L 947 331 
L 947 4331 
L 353 4331 
L 353 4666 
L 2559 4666 
Q 3259 4666 3668 4311 
Q 4078 3956 4078 3353 
Q 4078 2753 3668 2397 
Q 3259 2041 2559 2041 
L 1581 2041 
L 1581 331 
L 2303 331 
L 2303 0 
L 353 0 
z
" transform="scale(0.015625)"/>
       <path id="DejaVuSerif-68" d="M 263 0 
L 263 331 
L 781 331 
L 781 4531 
L 231 4531 
L 231 4863 
L 1356 4863 
L 1356 2731 
Q 1516 3069 1770 3241 
Q 2025 3413 2363 3413 
Q 2913 3413 3172 3097 
Q 3431 2781 3431 2113 
L 3431 331 
L 3944 331 
L 3944 0 
L 2356 0 
L 2356 331 
L 2853 331 
L 2853 1931 
Q 2853 2541 2704 2764 
Q 2556 2988 2175 2988 
Q 1775 2988 1565 2697 
Q 1356 2406 1356 1850 
L 1356 331 
L 1856 331 
L 1856 0 
L 263 0 
z
" transform="scale(0.015625)"/>
       <path id="DejaVuSerif-79" d="M 1381 -609 
L 1600 -56 
L 359 2988 
L -19 2988 
L -19 3322 
L 1509 3322 
L 1509 2988 
L 978 2988 
L 1913 703 
L 2847 2988 
L 2350 2988 
L 2350 3322 
L 3597 3322 
L 3597 2988 
L 3225 2988 
L 1703 -750 
Q 1547 -1138 1356 -1280 
Q 1166 -1422 819 -1422 
Q 672 -1422 517 -1397 
Q 363 -1372 206 -1325 
L 206 -691 
L 500 -691 
Q 519 -903 608 -995 
Q 697 -1088 884 -1088 
Q 1056 -1088 1161 -992 
Q 1266 -897 1381 -609 
z
" transform="scale(0.015625)"/>
       <path id="DejaVuSerif-73" d="M 359 184 
L 359 959 
L 691 959 
Q 703 588 923 403 
Q 1144 219 1575 219 
Q 1963 219 2166 364 
Q 2369 509 2369 788 
Q 2369 1006 2220 1140 
Q 2072 1275 1594 1428 
L 1178 1569 
Q 750 1706 558 1912 
Q 366 2119 366 2438 
Q 366 2894 700 3153 
Q 1034 3413 1625 3413 
Q 1888 3413 2178 3344 
Q 2469 3275 2778 3144 
L 2778 2419 
L 2447 2419 
Q 2434 2741 2221 2922 
Q 2009 3103 1644 3103 
Q 1281 3103 1095 2975 
Q 909 2847 909 2591 
Q 909 2381 1050 2254 
Q 1191 2128 1613 1997 
L 2069 1856 
Q 2541 1709 2748 1489 
Q 2956 1269 2956 922 
Q 2956 450 2595 179 
Q 2234 -91 1600 -91 
Q 1278 -91 972 -22 
Q 666 47 359 184 
z
" transform="scale(0.015625)"/>
       <path id="DejaVuSerif-49" d="M 1581 331 
L 2175 331 
L 2175 0 
L 353 0 
L 353 331 
L 947 331 
L 947 4331 
L 353 4331 
L 353 4666 
L 2175 4666 
L 2175 4331 
L 1581 4331 
L 1581 331 
z
" transform="scale(0.015625)"/>
       <path id="DejaVuSerif-44" d="M 1581 331 
L 2163 331 
Q 3072 331 3558 850 
Q 4044 1369 4044 2338 
Q 4044 3306 3559 3818 
Q 3075 4331 2163 4331 
L 1581 4331 
L 1581 331 
z
M 353 0 
L 353 331 
L 947 331 
L 947 4331 
L 353 4331 
L 353 4666 
L 2209 4666 
Q 3416 4666 4089 4050 
Q 4763 3434 4763 2338 
Q 4763 1238 4088 619 
Q 3413 0 2209 0 
L 353 0 
z
" transform="scale(0.015625)"/>
      </defs>
      <use xlink:href="#DejaVuSerif-50"/>
      <use xlink:href="#DejaVuSerif-68" x="67.285156"/>
      <use xlink:href="#DejaVuSerif-79" x="131.689453"/>
      <use xlink:href="#DejaVuSerif-73" x="188.183594"/>
      <use xlink:href="#DejaVuSerif-69" x="239.501953"/>
      <use xlink:href="#DejaVuSerif-63" x="271.484375"/>
      <use xlink:href="#DejaVuSerif-73" x="327.490234"/>
      <use xlink:href="#DejaVuSerif-20" x="378.808594"/>
      <use xlink:href="#DejaVuSerif-69" x="410.595703"/>
      <use xlink:href="#DejaVuSerif-6e" x="442.578125"/>
      <use xlink:href="#DejaVuSerif-66" x="506.982422"/>
      <use xlink:href="#DejaVuSerif-6f" x="543.994141"/>
      <use xlink:href="#DejaVuSerif-72" x="604.199219"/>
      <use xlink:href="#DejaVuSerif-6d" x="652.001953"/>
      <use xlink:href="#DejaVuSerif-65" x="746.826172"/>
      <use xlink:href="#DejaVuSerif-64" x="806.005859"/>
      <use xlink:href="#DejaVuSerif-20" x="870.019531"/>
      <use xlink:href="#DejaVuSerif-49" x="901.806641"/>
      <use xlink:href="#DejaVuSerif-44" x="941.308594"/>
     </g>
    </g>
    <g id="line2d_24">
     <path d="M 210.21 89.942344 
L 221.21 89.942344 
L 232.21 89.942344 
" style="fill: none; stroke: #ff0000; stroke-linecap: round"/>
    </g>
    <g id="text_8">
     <!-- Abkowitz ID -->
     <g style="fill: #262626" transform="translate(241.01 93.792344) scale(0.11 -0.11)">
      <defs>
       <path id="DejaVuSerif-41" d="M 1281 1691 
L 2994 1691 
L 2138 3909 
L 1281 1691 
z
M -38 0 
L -38 331 
L 372 331 
L 2034 4666 
L 2559 4666 
L 4225 331 
L 4684 331 
L 4684 0 
L 2988 0 
L 2988 331 
L 3506 331 
L 3116 1356 
L 1153 1356 
L 763 331 
L 1275 331 
L 1275 0 
L -38 0 
z
" transform="scale(0.015625)"/>
       <path id="DejaVuSerif-62" d="M 738 331 
L 738 4531 
L 184 4531 
L 184 4863 
L 1313 4863 
L 1313 2803 
Q 1481 3116 1742 3264 
Q 2003 3413 2388 3413 
Q 3000 3413 3387 2928 
Q 3775 2444 3775 1663 
Q 3775 881 3387 395 
Q 3000 -91 2388 -91 
Q 2003 -91 1742 57 
Q 1481 206 1313 519 
L 1313 0 
L 184 0 
L 184 331 
L 738 331 
z
M 1313 1497 
Q 1313 897 1542 583 
Q 1772 269 2209 269 
Q 2650 269 2876 622 
Q 3103 975 3103 1663 
Q 3103 2353 2876 2703 
Q 2650 3053 2209 3053 
Q 1772 3053 1542 2737 
Q 1313 2422 1313 1825 
L 1313 1497 
z
" transform="scale(0.015625)"/>
       <path id="DejaVuSerif-6b" d="M 1831 0 
L 219 0 
L 219 331 
L 738 331 
L 738 4531 
L 184 4531 
L 184 4863 
L 1313 4863 
L 1313 1697 
L 2713 2988 
L 2234 2988 
L 2234 3322 
L 3738 3322 
L 3738 2988 
L 3169 2988 
L 2181 2075 
L 3444 331 
L 3922 331 
L 3922 0 
L 2284 0 
L 2284 331 
L 2759 331 
L 1766 1697 
L 1313 1275 
L 1313 331 
L 1831 331 
L 1831 0 
z
" transform="scale(0.015625)"/>
       <path id="DejaVuSerif-77" d="M 3072 3322 
L 3922 728 
L 4672 2988 
L 4191 2988 
L 4191 3322 
L 5394 3322 
L 5394 2988 
L 5025 2988 
L 4038 0 
L 3559 0 
L 2741 2484 
L 1919 0 
L 1459 0 
L 475 2988 
L 103 2988 
L 103 3322 
L 1606 3322 
L 1606 2988 
L 1069 2988 
L 1813 728 
L 2669 3322 
L 3072 3322 
z
" transform="scale(0.015625)"/>
       <path id="DejaVuSerif-7a" d="M 256 0 
L 256 269 
L 2338 2988 
L 691 2988 
L 691 2413 
L 359 2413 
L 359 3322 
L 3078 3322 
L 3078 3053 
L 997 331 
L 2803 331 
L 2803 934 
L 3138 934 
L 3138 0 
L 256 0 
z
" transform="scale(0.015625)"/>
      </defs>
      <use xlink:href="#DejaVuSerif-41"/>
      <use xlink:href="#DejaVuSerif-62" x="72.216797"/>
      <use xlink:href="#DejaVuSerif-6b" x="136.230469"/>
      <use xlink:href="#DejaVuSerif-6f" x="196.826172"/>
      <use xlink:href="#DejaVuSerif-77" x="257.03125"/>
      <use xlink:href="#DejaVuSerif-69" x="342.626953"/>
      <use xlink:href="#DejaVuSerif-74" x="374.609375"/>
      <use xlink:href="#DejaVuSerif-7a" x="414.794922"/>
      <use xlink:href="#DejaVuSerif-20" x="467.480469"/>
      <use xlink:href="#DejaVuSerif-49" x="499.267578"/>
      <use xlink:href="#DejaVuSerif-44" x="538.769531"/>
     </g>
    </g>
   </g>
  </g>
  <g id="axes_2">
   <g id="patch_5">
    <path d="M 59.055781 204.76 
L 504.525781 204.76 
L 504.525781 105.98 
L 59.055781 105.98 
z
" style="fill: #ffffff"/>
   </g>
   <g id="line2d_25">
    <path d="M 79.304418 156.090921 
L 84.008645 156.141156 
L 87.368807 156.386266 
L 90.53696 156.834736 
L 93.321094 157.426066 
L 96.201233 158.286245 
L 99.561395 159.518142 
L 103.305576 161.156804 
L 108.489826 163.698162 
L 113.866085 166.753359 
L 121.642461 171.452961 
L 129.610845 176.735124 
L 142.283457 185.391716 
L 153.612003 193.201984 
L 157.06817 195.274934 
L 160.236323 196.896746 
L 162.540434 197.871553 
L 165.708587 198.936741 
L 168.108703 199.519625 
L 170.508818 199.87733 
L 173.004939 200.012233 
L 175.501059 199.912177 
L 178.381198 199.588782 
L 181.549351 198.985365 
L 185.197527 198.052167 
L 189.229722 196.787339 
L 194.99 194.679547 
L 199.982241 192.553779 
L 207.278593 189.161552 
L 212.558847 186.442102 
L 225.03945 179.744748 
L 237.424047 172.685495 
L 266.897469 154.588643 
L 277.07396 148.123954 
L 281.01015 145.654796 
L 292.626711 138.25005 
L 298.578998 134.413906 
L 318.93198 121.660809 
L 322.004128 119.965518 
L 326.132328 117.819423 
L 329.204476 116.508527 
L 332.084615 115.517005 
L 334.580735 114.879357 
L 337.652884 114.358183 
L 340.341013 114.137226 
L 342.741129 114.157511 
L 345.909282 114.428397 
L 349.941477 115.067422 
L 353.109629 115.807365 
L 358.29388 117.285811 
L 364.630185 119.412548 
L 368.182357 120.81142 
L 374.806676 123.659213 
L 382.295038 127.11684 
L 398.231807 135.066962 
L 410.712409 141.699814 
L 424.345067 149.354273 
L 468.027174 175.377351 
L 478.011656 181.391998 
L 482.427869 184.044842 
L 484.251957 185.170755 
L 484.251957 185.170755 
" clip-path="url(#p8aebc192f2)" style="fill: none; stroke: #000000; stroke-linecap: round"/>
   </g>
   <g id="line2d_26">
    <path d="M 79.304418 156.344601 
L 81.22451 161.249896 
L 84.488668 169.422232 
L 88.232848 178.781434 
L 89.480909 181.922843 
L 92.361048 188.499853 
L 102.345529 188.47902 
L 110.793937 188.47902 
L 147.179693 188.480282 
L 147.371702 188.085081 
L 148.043734 186.305412 
L 160.236323 155.808617 
L 161.292374 153.14448 
L 161.388378 153.14448 
L 173.100944 123.861699 
L 174.156994 123.943769 
L 182.701407 123.946294 
L 191.245819 123.945032 
L 315.763827 123.943769 
L 315.955837 124.361698 
L 316.243851 125.164727 
L 316.531864 125.879372 
L 317.587915 128.525833 
L 328.724453 156.126167 
L 330.548541 160.685503 
L 333.23667 167.426654 
L 333.332675 167.426654 
L 337.076856 176.809215 
L 337.940897 178.976509 
L 339.668981 183.276376 
L 340.245009 184.66842 
L 341.781083 188.420307 
L 342.069097 188.497328 
L 361.846051 188.478388 
L 484.251957 188.478388 
L 484.251957 188.478388 
" clip-path="url(#p8aebc192f2)" style="fill: none; stroke-dasharray: 5.55,2.4; stroke-dashoffset: 0; stroke: #808080; stroke-width: 1.5"/>
   </g>
   <g id="matplotlib.axis_3">
    <g id="xtick_6">
     <g id="line2d_27">
      <path d="M 79.304418 204.76 
L 79.304418 105.98 
" clip-path="url(#p8aebc192f2)" style="fill: none; stroke: #b0b0b0; stroke-width: 0.8; stroke-linecap: round"/>
     </g>
     <g id="line2d_28"/>
    </g>
    <g id="xtick_7">
     <g id="line2d_29">
      <path d="M 175.95662 204.76 
L 175.95662 105.98 
" clip-path="url(#p8aebc192f2)" style="fill: none; stroke: #b0b0b0; stroke-width: 0.8; stroke-linecap: round"/>
     </g>
     <g id="line2d_30"/>
    </g>
    <g id="xtick_8">
     <g id="line2d_31">
      <path d="M 272.608822 204.76 
L 272.608822 105.98 
" clip-path="url(#p8aebc192f2)" style="fill: none; stroke: #b0b0b0; stroke-width: 0.8; stroke-linecap: round"/>
     </g>
     <g id="line2d_32"/>
    </g>
    <g id="xtick_9">
     <g id="line2d_33">
      <path d="M 369.261024 204.76 
L 369.261024 105.98 
" clip-path="url(#p8aebc192f2)" style="fill: none; stroke: #b0b0b0; stroke-width: 0.8; stroke-linecap: round"/>
     </g>
     <g id="line2d_34"/>
    </g>
    <g id="xtick_10">
     <g id="line2d_35">
      <path d="M 465.913226 204.76 
L 465.913226 105.98 
" clip-path="url(#p8aebc192f2)" style="fill: none; stroke: #b0b0b0; stroke-width: 0.8; stroke-linecap: round"/>
     </g>
     <g id="line2d_36"/>
    </g>
   </g>
   <g id="matplotlib.axis_4">
    <g id="ytick_4">
     <g id="line2d_37">
      <path d="M 59.055781 188.479118 
L 504.525781 188.479118 
" clip-path="url(#p8aebc192f2)" style="fill: none; stroke: #b0b0b0; stroke-width: 0.8; stroke-linecap: round"/>
     </g>
     <g id="line2d_38"/>
     <g id="text_9">
      <!-- −20 -->
      <g style="fill: #262626" transform="translate(32.340625 192.658259) scale(0.11 -0.11)">
       <defs>
        <path id="DejaVuSerif-32" d="M 819 3553 
L 469 3553 
L 469 4384 
Q 803 4563 1142 4656 
Q 1481 4750 1806 4750 
Q 2534 4750 2956 4397 
Q 3378 4044 3378 3438 
Q 3378 2753 2422 1800 
Q 2347 1728 2309 1691 
L 1131 513 
L 3078 513 
L 3078 1088 
L 3444 1088 
L 3444 0 
L 434 0 
L 434 341 
L 1850 1753 
Q 2319 2222 2519 2614 
Q 2719 3006 2719 3438 
Q 2719 3909 2473 4175 
Q 2228 4441 1797 4441 
Q 1350 4441 1106 4219 
Q 863 3997 819 3553 
z
" transform="scale(0.015625)"/>
       </defs>
       <use xlink:href="#DejaVuSerif-2212"/>
       <use xlink:href="#DejaVuSerif-32" x="83.789062"/>
       <use xlink:href="#DejaVuSerif-30" x="147.412109"/>
      </g>
     </g>
    </g>
    <g id="ytick_5">
     <g id="line2d_39">
      <path d="M 59.055781 156.212026 
L 504.525781 156.212026 
" clip-path="url(#p8aebc192f2)" style="fill: none; stroke: #b0b0b0; stroke-width: 0.8; stroke-linecap: round"/>
     </g>
     <g id="line2d_40"/>
     <g id="text_10">
      <!-- 0 -->
      <g style="fill: #262626" transform="translate(48.557031 160.391166) scale(0.11 -0.11)">
       <use xlink:href="#DejaVuSerif-30"/>
      </g>
     </g>
    </g>
    <g id="ytick_6">
     <g id="line2d_41">
      <path d="M 59.055781 123.944933 
L 504.525781 123.944933 
" clip-path="url(#p8aebc192f2)" style="fill: none; stroke: #b0b0b0; stroke-width: 0.8; stroke-linecap: round"/>
     </g>
     <g id="line2d_42"/>
     <g id="text_11">
      <!-- 20 -->
      <g style="fill: #262626" transform="translate(41.558281 128.124074) scale(0.11 -0.11)">
       <use xlink:href="#DejaVuSerif-32"/>
       <use xlink:href="#DejaVuSerif-30" x="63.623047"/>
      </g>
     </g>
    </g>
    <g id="text_12">
     <!-- $\psi$ $[deg]$ -->
     <g style="fill: #262626" transform="translate(26.030625 175.445) rotate(-90) scale(0.11 -0.11)">
      <defs>
       <path id="DejaVuSans-Oblique-3c8" d="M 1591 -78 
Q 891 38 616 341 
Q 278 713 425 1472 
L 819 3500 
L 1400 3500 
L 1009 1494 
Q 900 922 1119 684 
Q 1313 478 1691 434 
L 2284 3500 
L 2856 3500 
L 2263 438 
Q 2681 481 2928 688 
Q 3247 950 3353 1497 
L 3741 3500 
L 4322 3500 
L 3928 1475 
Q 3775 688 3300 344 
Q 2872 34 2163 -75 
L 1919 -1331 
L 1347 -1331 
L 1591 -78 
z
" transform="scale(0.015625)"/>
      </defs>
      <use xlink:href="#DejaVuSans-Oblique-3c8" transform="translate(0 0.015625)"/>
      <use xlink:href="#DejaVuSerif-20" transform="translate(65.966797 0.015625)"/>
      <use xlink:href="#DejaVuSans-5b" transform="translate(97.753906 0.015625)"/>
      <use xlink:href="#DejaVuSans-Oblique-64" transform="translate(136.767578 0.015625)"/>
      <use xlink:href="#DejaVuSans-Oblique-65" transform="translate(200.244141 0.015625)"/>
      <use xlink:href="#DejaVuSans-Oblique-67" transform="translate(261.767578 0.015625)"/>
      <use xlink:href="#DejaVuSans-5d" transform="translate(325.244141 0.015625)"/>
     </g>
    </g>
   </g>
   <g id="line2d_43">
    <path d="M 79.304418 156.212026 
L 85.200202 156.319423 
L 88.583029 156.611421 
L 91.482595 157.080133 
L 94.382161 157.779314 
L 97.668336 158.813543 
L 101.437772 160.245529 
L 105.690469 162.105639 
L 110.619731 164.511074 
L 116.515515 167.645543 
L 123.377822 171.554732 
L 131.399955 176.387686 
L 140.678566 182.242221 
L 151.40696 189.285528 
L 157.012788 192.883729 
L 160.492267 194.855936 
L 163.488486 196.310744 
L 166.2914 197.430409 
L 168.901009 198.2416 
L 171.413966 198.795936 
L 173.830271 199.108061 
L 176.246576 199.198073 
L 178.856186 199.066892 
L 181.755752 198.694346 
L 185.041927 198.039949 
L 188.714711 197.075336 
L 192.870755 195.746138 
L 197.606713 193.991633 
L 203.019236 191.742323 
L 209.204977 188.921573 
L 215.970632 185.589081 
L 223.509503 181.618682 
L 232.014897 176.883487 
L 241.196856 171.513253 
L 250.862077 165.601363 
L 261.783775 158.656682 
L 273.768648 150.76595 
L 286.720044 141.97021 
L 302.667657 130.850266 
L 319.871749 118.85155 
L 323.254576 116.862797 
L 326.250794 115.354753 
L 329.053708 114.191855 
L 331.663318 113.341725 
L 334.176275 112.746756 
L 336.689232 112.379989 
L 339.202189 112.239638 
L 342.005103 112.31367 
L 345.097974 112.622811 
L 348.577453 113.199332 
L 352.443541 114.068741 
L 356.79289 115.282412 
L 361.6255 116.870998 
L 367.134676 118.926434 
L 373.320417 121.475126 
L 380.086071 124.506228 
L 387.334986 127.997376 
L 395.067162 131.973391 
L 404.152469 136.906058 
L 413.721037 142.352702 
L 423.289605 148.057723 
L 434.018 154.717781 
L 446.002873 162.421694 
L 458.664311 170.825385 
L 472.775533 180.452449 
L 484.277145 188.45368 
L 484.277145 188.45368 
" clip-path="url(#p8aebc192f2)" style="fill: none; stroke: #0000ff; stroke-linecap: round"/>
   </g>
   <g id="line2d_44">
    <path d="M 79.304418 156.212026 
L 85.200202 156.319219 
L 88.583029 156.610125 
L 91.482595 157.075709 
L 94.382161 157.769005 
L 97.668336 158.79322 
L 101.437772 160.209893 
L 105.787121 162.086302 
L 110.909688 164.544049 
L 117.192081 167.818107 
L 124.827605 172.061953 
L 133.719607 177.260359 
L 144.641306 183.912393 
L 160.009006 193.304098 
L 163.295181 194.954565 
L 166.194747 196.17086 
L 168.901009 197.075096 
L 171.510619 197.711079 
L 174.023576 198.093797 
L 176.439881 198.241006 
L 178.856186 198.169214 
L 181.562448 197.861285 
L 184.558666 197.294436 
L 187.941493 196.424764 
L 191.807581 195.19415 
L 196.253582 193.541446 
L 201.472801 191.355618 
L 207.755194 188.466019 
L 214.810805 184.968433 
L 222.639633 180.829403 
L 232.111549 175.56453 
L 242.839944 169.348281 
L 254.438208 162.369162 
L 268.066169 153.896723 
L 283.433869 144.081325 
L 302.764309 131.43875 
L 321.418184 119.264361 
L 324.801011 117.413254 
L 327.79723 116.021102 
L 330.600143 114.961654 
L 333.209753 114.20617 
L 335.72271 113.701565 
L 338.235667 113.425931 
L 340.748625 113.379565 
L 343.454886 113.555195 
L 346.547757 113.987746 
L 350.027236 114.710715 
L 353.893324 115.749104 
L 358.242673 117.155526 
L 363.171936 118.987636 
L 368.971068 121.387986 
L 375.543417 124.353846 
L 383.082289 128.008413 
L 391.104422 132.143952 
L 400.769642 137.394978 
L 411.787993 143.636121 
L 423.192953 150.355727 
L 435.951044 158.132971 
L 452.381918 168.438121 
L 468.909445 179.050828 
L 483.213971 188.417516 
L 483.213971 188.417516 
" clip-path="url(#p8aebc192f2)" style="fill: none; stroke: #008000; stroke-linecap: round"/>
   </g>
   <g id="line2d_45">
    <path d="M 79.304418 156.212026 
L 85.10355 156.321181 
L 88.486377 156.614554 
L 91.579247 157.10824 
L 94.575466 157.814423 
L 97.86164 158.820972 
L 101.534424 160.182812 
L 105.690469 161.967228 
L 110.329775 164.206186 
L 115.548993 166.975705 
L 121.54143 170.414271 
L 128.307084 174.559538 
L 135.942608 179.504794 
L 144.448002 185.285192 
L 158.462571 194.890497 
L 161.555442 196.626879 
L 164.261703 197.899097 
L 166.871313 198.881646 
L 169.38427 199.588148 
L 171.800575 200.036259 
L 174.120228 200.244861 
L 176.536533 200.241926 
L 179.146142 200.014556 
L 182.142361 199.518579 
L 185.428536 198.743538 
L 189.197972 197.618056 
L 193.354016 196.142281 
L 198.089974 194.218634 
L 203.309193 191.855019 
L 209.108325 188.98033 
L 215.487371 185.564845 
L 222.349677 181.638005 
L 229.791896 177.120103 
L 237.910681 171.927348 
L 246.706032 166.033614 
L 256.2746 159.350224 
L 266.80969 151.71677 
L 278.504606 142.96554 
L 291.456001 132.992116 
L 312.139573 116.988609 
L 315.232443 115.027569 
L 318.035357 113.513346 
L 320.548314 112.402863 
L 322.964619 111.568134 
L 325.380924 110.966468 
L 327.700577 110.612138 
L 330.116882 110.472111 
L 332.726492 110.55258 
L 335.626058 110.869527 
L 338.912233 111.459207 
L 342.585016 112.34891 
L 346.741061 113.591414 
L 351.380367 115.217514 
L 356.502934 117.255392 
L 362.108761 119.731533 
L 368.101198 122.623862 
L 374.576895 125.998745 
L 381.535854 129.878919 
L 389.074726 134.340914 
L 397.193511 139.405795 
L 405.892209 145.099095 
L 415.364125 151.571573 
L 425.70591 158.913658 
L 437.014218 167.21891 
L 449.965613 177.018931 
L 464.463443 188.274382 
L 464.656748 188.426145 
L 464.656748 188.426145 
" clip-path="url(#p8aebc192f2)" style="fill: none; stroke: #ff0000; stroke-linecap: round"/>
   </g>
   <g id="patch_6">
    <path d="M 59.055781 204.76 
L 59.055781 105.98 
" style="fill: none; stroke: #000000; stroke-linejoin: miter; stroke-linecap: square"/>
   </g>
   <g id="patch_7">
    <path d="M 59.055781 204.76 
L 504.525781 204.76 
" style="fill: none; stroke: #000000; stroke-linejoin: miter; stroke-linecap: square"/>
   </g>
  </g>
  <g id="axes_3">
   <g id="patch_8">
    <path d="M 59.055781 303.54 
L 504.525781 303.54 
L 504.525781 204.76 
L 59.055781 204.76 
z
" style="fill: #ffffff"/>
   </g>
   <g id="line2d_46">
    <path d="M 79.304418 253.799488 
L 80.168459 253.907764 
L 81.320515 254.31081 
L 82.184557 254.833649 
L 83.91264 256.251689 
L 85.448714 257.788553 
L 87.272802 259.970751 
L 89.480909 262.930272 
L 90.632964 264.490727 
L 91.78502 266.066531 
L 93.513103 268.801291 
L 95.049177 271.270391 
L 96.96927 273.900128 
L 98.985367 276.271866 
L 103.017562 280.51884 
L 104.265622 281.559331 
L 104.84165 281.634729 
L 105.513682 281.734461 
L 106.281719 282.163076 
L 107.241766 283.001473 
L 111.177956 286.69775 
L 111.849988 287.058754 
L 113.866085 287.817556 
L 115.498164 288.464434 
L 118.570312 289.576117 
L 119.050335 289.424802 
L 120.010382 289.184885 
L 120.490405 289.252558 
L 121.642461 289.96223 
L 122.698511 290.745789 
L 124.234586 291.596407 
L 125.098627 291.935162 
L 125.866664 292.203675 
L 126.538697 292.346257 
L 127.210729 292.504907 
L 132.778998 293.330792 
L 134.699091 292.016911 
L 135.179114 292.079655 
L 135.947151 292.524552 
L 137.195211 293.470341 
L 138.059253 293.994897 
L 138.923294 294.21632 
L 142.859484 294.427936 
L 143.627521 294.488942 
L 146.795674 294.912737 
L 147.179693 294.840142 
L 147.563711 294.558235 
L 149.003781 293.493012 
L 149.579809 293.351171 
L 151.211887 292.988956 
L 152.075929 292.484298 
L 153.708008 290.996655 
L 154.956068 289.478389 
L 155.82011 288.279645 
L 158.892258 283.207706 
L 160.236323 281.016483 
L 161.292374 279.136567 
L 162.828448 275.779943 
L 164.076508 273.352829 
L 167.244661 267.349368 
L 169.836786 261.649442 
L 174.445008 251.409224 
L 175.597064 249.385293 
L 179.24524 244.353387 
L 181.549351 241.543279 
L 183.469444 239.509757 
L 187.981662 235.711587 
L 190.285773 234.164815 
L 191.821847 233.815537 
L 192.685889 233.250154 
L 193.453926 232.640147 
L 195.278014 231.13718 
L 196.718083 230.333886 
L 197.48612 229.952995 
L 198.350162 229.591978 
L 199.310208 229.17647 
L 200.462264 228.512997 
L 201.134296 228.256733 
L 201.998338 227.909224 
L 203.246398 227.416768 
L 204.686468 226.904041 
L 206.318546 227.141124 
L 207.182588 226.775397 
L 210.926769 224.659598 
L 211.886815 224.4641 
L 215.438986 223.74165 
L 216.687047 223.467939 
L 217.359079 223.369008 
L 219.183167 223.412763 
L 220.719241 224.069606 
L 221.391274 223.94886 
L 222.35132 223.37481 
L 223.791389 222.536441 
L 224.655431 222.325904 
L 228.399612 221.815393 
L 229.935686 221.619576 
L 231.663769 221.213173 
L 232.71982 221.064027 
L 233.103839 221.117568 
L 234.735918 221.910223 
L 235.40795 221.897847 
L 236.271992 221.468535 
L 237.424047 220.733574 
L 238.384094 220.182478 
L 239.056126 219.993588 
L 241.360237 219.845417 
L 242.320284 219.863931 
L 244.432385 219.710662 
L 246.064464 219.538537 
L 247.024511 219.411208 
L 247.408529 219.477863 
L 247.984557 219.872525 
L 248.560585 220.298985 
L 249.136612 220.481507 
L 249.616636 220.446552 
L 250.384673 220.110244 
L 251.15271 219.58675 
L 251.824742 219.273014 
L 254.320863 218.855463 
L 257.969039 218.551252 
L 259.217099 218.534044 
L 260.27315 218.436446 
L 261.329201 218.236522 
L 261.713219 218.250067 
L 262.193242 218.544145 
L 263.345298 219.386651 
L 263.825321 219.447018 
L 264.305344 219.344105 
L 265.265391 218.76239 
L 266.801465 217.715025 
L 267.665506 217.584897 
L 270.929664 217.809821 
L 272.369733 217.932285 
L 276.113914 217.837977 
L 276.689942 218.258634 
L 277.841998 219.104657 
L 278.51403 219.12145 
L 279.186062 218.91114 
L 282.066201 217.732564 
L 282.738234 217.659061 
L 283.69828 217.599053 
L 287.538465 217.583062 
L 289.458558 217.587192 
L 290.514609 217.675226 
L 291.666665 218.557925 
L 292.146688 218.843497 
L 292.81872 218.911276 
L 293.298743 218.768485 
L 294.738813 218.133751 
L 296.658905 217.536546 
L 302.899207 217.950937 
L 304.62729 218.027717 
L 305.011309 218.216379 
L 306.259369 219.109539 
L 306.835397 219.271496 
L 308.083457 219.092625 
L 310.867591 218.031986 
L 311.635628 218.087658 
L 313.171702 218.406832 
L 318.163943 219.116244 
L 319.027985 219.592717 
L 319.604013 220.378256 
L 321.044082 222.368571 
L 321.812119 222.963579 
L 322.580156 223.405642 
L 323.828216 224.218848 
L 324.500249 224.899746 
L 326.420342 227.505964 
L 332.948657 238.275329 
L 337.940897 247.584355 
L 340.821036 253.010871 
L 343.79718 258.671616 
L 346.965333 263.035584 
L 347.73337 263.812531 
L 349.653463 265.146426 
L 354.35769 270.070323 
L 355.125727 270.59728 
L 356.085773 271.067613 
L 357.429838 271.700205 
L 359.253926 273.01415 
L 361.462032 274.247218 
L 362.230069 274.482405 
L 363.958153 274.520872 
L 364.630185 274.831224 
L 365.398222 275.403148 
L 368.278361 277.637252 
L 369.046398 278.026057 
L 370.294459 278.497467 
L 374.326653 279.979446 
L 375.190695 280.135291 
L 376.438755 280.384264 
L 377.014783 280.27179 
L 377.686815 280.197797 
L 378.358848 280.339034 
L 383.063075 282.463265 
L 383.639103 282.587048 
L 389.495385 283.122228 
L 390.551436 283.278285 
L 391.031459 283.129128 
L 392.183515 282.574093 
L 392.567533 282.503646 
L 392.951552 282.57351 
L 393.431575 282.806681 
L 394.391621 283.308172 
L 396.791737 284.057262 
L 397.367765 284.252086 
L 397.943793 284.433737 
L 399.287858 284.490764 
L 400.439913 284.472926 
L 401.39996 284.629686 
L 401.975987 284.720277 
L 403.320052 285.017532 
L 405.240145 285.263833 
L 406.58421 284.456285 
L 407.064233 284.445037 
L 408.312293 284.934651 
L 409.944372 285.769301 
L 412.152478 286.259207 
L 419.44883 286.96918 
L 419.928854 286.627505 
L 420.8889 286.071296 
L 421.464928 286.068291 
L 422.040955 286.232216 
L 425.017099 287.746755 
L 426.169155 287.877011 
L 426.745182 287.896994 
L 427.801233 288.005844 
L 429.145298 287.973841 
L 429.721326 287.971313 
L 430.393359 288.033126 
L 432.50546 287.979022 
L 433.753521 288.083269 
L 434.137539 287.889344 
L 435.385599 287.271495 
L 435.961627 287.366362 
L 436.921674 287.94098 
L 438.361743 288.80843 
L 438.937771 288.99203 
L 440.089826 289.023257 
L 443.738002 288.77547 
L 445.178072 288.789509 
L 446.618141 288.986146 
L 448.154216 288.837949 
L 449.594285 287.802947 
L 450.458327 287.716003 
L 451.706387 288.050874 
L 452.282415 288.391229 
L 453.050452 288.821777 
L 454.586526 289.209137 
L 455.162554 289.229294 
L 457.082646 288.927721 
L 458.042693 288.968902 
L 459.098744 289.051744 
L 461.30685 289.141099 
L 462.458906 288.992329 
L 464.186989 287.998895 
L 464.667012 287.964523 
L 465.723063 288.352881 
L 466.875119 288.966698 
L 467.835165 289.275633 
L 468.795211 289.282777 
L 471.579346 289.220624 
L 472.443388 289.32883 
L 474.459485 289.255797 
L 475.131517 289.250246 
L 475.61154 289.178277 
L 476.283573 289.02038 
L 476.667591 288.910232 
L 477.147615 288.549688 
L 477.915652 288.10289 
L 478.683689 287.934392 
L 479.451726 288.018534 
L 480.219763 288.339153 
L 481.179809 288.720718 
L 482.043851 288.893484 
L 483.003897 289.112425 
L 483.48392 289.242225 
L 484.251957 289.425057 
L 484.251957 289.425057 
" clip-path="url(#p4cb277810a)" style="fill: none; stroke: #000000; stroke-linecap: round"/>
   </g>
   <g id="matplotlib.axis_5">
    <g id="xtick_11">
     <g id="line2d_47">
      <path d="M 79.304418 303.54 
L 79.304418 204.76 
" clip-path="url(#p4cb277810a)" style="fill: none; stroke: #b0b0b0; stroke-width: 0.8; stroke-linecap: round"/>
     </g>
     <g id="line2d_48"/>
     <g id="text_13">
      <!-- 0 -->
      <g style="fill: #262626" transform="translate(75.805043 315.398281) scale(0.11 -0.11)">
       <use xlink:href="#DejaVuSerif-30"/>
      </g>
     </g>
    </g>
    <g id="xtick_12">
     <g id="line2d_49">
      <path d="M 175.95662 303.54 
L 175.95662 204.76 
" clip-path="url(#p4cb277810a)" style="fill: none; stroke: #b0b0b0; stroke-width: 0.8; stroke-linecap: round"/>
     </g>
     <g id="line2d_50"/>
     <g id="text_14">
      <!-- 10 -->
      <g style="fill: #262626" transform="translate(168.95787 315.398281) scale(0.11 -0.11)">
       <use xlink:href="#DejaVuSerif-31"/>
       <use xlink:href="#DejaVuSerif-30" x="63.623047"/>
      </g>
     </g>
    </g>
    <g id="xtick_13">
     <g id="line2d_51">
      <path d="M 272.608822 303.54 
L 272.608822 204.76 
" clip-path="url(#p4cb277810a)" style="fill: none; stroke: #b0b0b0; stroke-width: 0.8; stroke-linecap: round"/>
     </g>
     <g id="line2d_52"/>
     <g id="text_15">
      <!-- 20 -->
      <g style="fill: #262626" transform="translate(265.610072 315.398281) scale(0.11 -0.11)">
       <use xlink:href="#DejaVuSerif-32"/>
       <use xlink:href="#DejaVuSerif-30" x="63.623047"/>
      </g>
     </g>
    </g>
    <g id="xtick_14">
     <g id="line2d_53">
      <path d="M 369.261024 303.54 
L 369.261024 204.76 
" clip-path="url(#p4cb277810a)" style="fill: none; stroke: #b0b0b0; stroke-width: 0.8; stroke-linecap: round"/>
     </g>
     <g id="line2d_54"/>
     <g id="text_16">
      <!-- 30 -->
      <g style="fill: #262626" transform="translate(362.262274 315.398281) scale(0.11 -0.11)">
       <defs>
        <path id="DejaVuSerif-33" d="M 622 4469 
Q 988 4606 1323 4678 
Q 1659 4750 1953 4750 
Q 2638 4750 3022 4454 
Q 3406 4159 3406 3634 
Q 3406 3213 3140 2930 
Q 2875 2647 2388 2547 
Q 2963 2466 3280 2130 
Q 3597 1794 3597 1259 
Q 3597 606 3158 257 
Q 2719 -91 1894 -91 
Q 1528 -91 1179 -12 
Q 831 66 488 225 
L 488 1131 
L 838 1131 
Q 869 681 1141 450 
Q 1413 219 1906 219 
Q 2384 219 2661 495 
Q 2938 772 2938 1253 
Q 2938 1803 2653 2086 
Q 2369 2369 1819 2369 
L 1522 2369 
L 1522 2688 
L 1678 2688 
Q 2225 2688 2498 2914 
Q 2772 3141 2772 3597 
Q 2772 4006 2547 4223 
Q 2322 4441 1900 4441 
Q 1478 4441 1245 4241 
Q 1013 4041 972 3647 
L 622 3647 
L 622 4469 
z
" transform="scale(0.015625)"/>
       </defs>
       <use xlink:href="#DejaVuSerif-33"/>
       <use xlink:href="#DejaVuSerif-30" x="63.623047"/>
      </g>
     </g>
    </g>
    <g id="xtick_15">
     <g id="line2d_55">
      <path d="M 465.913226 303.54 
L 465.913226 204.76 
" clip-path="url(#p4cb277810a)" style="fill: none; stroke: #b0b0b0; stroke-width: 0.8; stroke-linecap: round"/>
     </g>
     <g id="line2d_56"/>
     <g id="text_17">
      <!-- 40 -->
      <g style="fill: #262626" transform="translate(458.914476 315.398281) scale(0.11 -0.11)">
       <defs>
        <path id="DejaVuSerif-34" d="M 2234 1581 
L 2234 4063 
L 641 1581 
L 2234 1581 
z
M 3609 0 
L 1484 0 
L 1484 331 
L 2234 331 
L 2234 1247 
L 197 1247 
L 197 1588 
L 2241 4750 
L 2859 4750 
L 2859 1581 
L 3750 1581 
L 3750 1247 
L 2859 1247 
L 2859 331 
L 3609 331 
L 3609 0 
z
" transform="scale(0.015625)"/>
       </defs>
       <use xlink:href="#DejaVuSerif-34"/>
       <use xlink:href="#DejaVuSerif-30" x="63.623047"/>
      </g>
     </g>
    </g>
    <g id="text_18">
     <!-- Time [s] -->
     <g style="fill: #262626" transform="translate(259.030234 330.044219) scale(0.11 -0.11)">
      <defs>
       <path id="DejaVuSerif-54" d="M 1222 0 
L 1222 331 
L 1819 331 
L 1819 4294 
L 447 4294 
L 447 3566 
L 63 3566 
L 63 4666 
L 4206 4666 
L 4206 3566 
L 3822 3566 
L 3822 4294 
L 2450 4294 
L 2450 331 
L 3047 331 
L 3047 0 
L 1222 0 
z
" transform="scale(0.015625)"/>
       <path id="DejaVuSerif-5b" d="M 550 4863 
L 2003 4863 
L 2003 4531 
L 1147 4531 
L 1147 -513 
L 2003 -513 
L 2003 -844 
L 550 -844 
L 550 4863 
z
" transform="scale(0.015625)"/>
       <path id="DejaVuSerif-5d" d="M 1947 4863 
L 1947 -844 
L 494 -844 
L 494 -513 
L 1350 -513 
L 1350 4531 
L 494 4531 
L 494 4863 
L 1947 4863 
z
" transform="scale(0.015625)"/>
      </defs>
      <use xlink:href="#DejaVuSerif-54"/>
      <use xlink:href="#DejaVuSerif-69" x="66.699219"/>
      <use xlink:href="#DejaVuSerif-6d" x="98.681641"/>
      <use xlink:href="#DejaVuSerif-65" x="193.505859"/>
      <use xlink:href="#DejaVuSerif-20" x="252.685547"/>
      <use xlink:href="#DejaVuSerif-5b" x="284.472656"/>
      <use xlink:href="#DejaVuSerif-73" x="323.486328"/>
      <use xlink:href="#DejaVuSerif-5d" x="374.804688"/>
     </g>
    </g>
   </g>
   <g id="matplotlib.axis_6">
    <g id="ytick_7">
     <g id="line2d_57">
      <path d="M 59.055781 281.592041 
L 504.525781 281.592041 
" clip-path="url(#p4cb277810a)" style="fill: none; stroke: #b0b0b0; stroke-width: 0.8; stroke-linecap: round"/>
     </g>
     <g id="line2d_58"/>
     <g id="text_19">
      <!-- −0.05 -->
      <g style="fill: #262626" transform="translate(21.845938 285.771182) scale(0.11 -0.11)">
       <defs>
        <path id="DejaVuSerif-2e" d="M 603 325 
Q 603 500 722 622 
Q 841 744 1019 744 
Q 1191 744 1312 622 
Q 1434 500 1434 325 
Q 1434 153 1312 31 
Q 1191 -91 1019 -91 
Q 841 -91 722 29 
Q 603 150 603 325 
z
" transform="scale(0.015625)"/>
        <path id="DejaVuSerif-35" d="M 3219 4666 
L 3219 4153 
L 1081 4153 
L 1081 2816 
Q 1244 2928 1461 2984 
Q 1678 3041 1947 3041 
Q 2703 3041 3140 2622 
Q 3578 2203 3578 1478 
Q 3578 738 3136 323 
Q 2694 -91 1894 -91 
Q 1572 -91 1234 -12 
Q 897 66 544 225 
L 544 1131 
L 897 1131 
Q 925 688 1179 453 
Q 1434 219 1894 219 
Q 2388 219 2653 544 
Q 2919 869 2919 1478 
Q 2919 2084 2655 2407 
Q 2391 2731 1894 2731 
Q 1613 2731 1398 2631 
Q 1184 2531 1019 2322 
L 750 2322 
L 750 4666 
L 3219 4666 
z
" transform="scale(0.015625)"/>
       </defs>
       <use xlink:href="#DejaVuSerif-2212"/>
       <use xlink:href="#DejaVuSerif-30" x="83.789062"/>
       <use xlink:href="#DejaVuSerif-2e" x="147.412109"/>
       <use xlink:href="#DejaVuSerif-30" x="179.199219"/>
       <use xlink:href="#DejaVuSerif-35" x="242.822266"/>
      </g>
     </g>
    </g>
    <g id="ytick_8">
     <g id="line2d_59">
      <path d="M 59.055781 254.400534 
L 504.525781 254.400534 
" clip-path="url(#p4cb277810a)" style="fill: none; stroke: #b0b0b0; stroke-width: 0.8; stroke-linecap: round"/>
     </g>
     <g id="line2d_60"/>
     <g id="text_20">
      <!-- 0.00 -->
      <g style="fill: #262626" transform="translate(31.063594 258.579675) scale(0.11 -0.11)">
       <use xlink:href="#DejaVuSerif-30"/>
       <use xlink:href="#DejaVuSerif-2e" x="63.623047"/>
       <use xlink:href="#DejaVuSerif-30" x="95.410156"/>
       <use xlink:href="#DejaVuSerif-30" x="159.033203"/>
      </g>
     </g>
    </g>
    <g id="ytick_9">
     <g id="line2d_61">
      <path d="M 59.055781 227.209027 
L 504.525781 227.209027 
" clip-path="url(#p4cb277810a)" style="fill: none; stroke: #b0b0b0; stroke-width: 0.8; stroke-linecap: round"/>
     </g>
     <g id="line2d_62"/>
     <g id="text_21">
      <!-- 0.05 -->
      <g style="fill: #262626" transform="translate(31.063594 231.388167) scale(0.11 -0.11)">
       <use xlink:href="#DejaVuSerif-30"/>
       <use xlink:href="#DejaVuSerif-2e" x="63.623047"/>
       <use xlink:href="#DejaVuSerif-30" x="95.410156"/>
       <use xlink:href="#DejaVuSerif-35" x="159.033203"/>
      </g>
     </g>
    </g>
    <g id="text_22">
     <!-- $r$ $[rad/s]$ -->
     <g style="fill: #262626" transform="translate(15.558281 276.315) rotate(-90) scale(0.11 -0.11)">
      <defs>
       <path id="DejaVuSans-Oblique-72" d="M 2853 2969 
Q 2766 3016 2653 3041 
Q 2541 3066 2413 3066 
Q 1953 3066 1609 2717 
Q 1266 2369 1153 1784 
L 800 0 
L 225 0 
L 909 3500 
L 1484 3500 
L 1375 2956 
Q 1603 3259 1920 3421 
Q 2238 3584 2597 3584 
Q 2691 3584 2781 3573 
Q 2872 3563 2963 3538 
L 2853 2969 
z
" transform="scale(0.015625)"/>
       <path id="DejaVuSans-Oblique-61" d="M 3438 1997 
L 3047 0 
L 2472 0 
L 2578 531 
Q 2325 219 2001 64 
Q 1678 -91 1281 -91 
Q 834 -91 548 182 
Q 263 456 263 884 
Q 263 1497 752 1853 
Q 1241 2209 2100 2209 
L 2900 2209 
L 2931 2363 
Q 2938 2388 2941 2417 
Q 2944 2447 2944 2509 
Q 2944 2788 2717 2942 
Q 2491 3097 2081 3097 
Q 1800 3097 1504 3025 
Q 1209 2953 897 2809 
L 997 3341 
Q 1322 3463 1633 3523 
Q 1944 3584 2234 3584 
Q 2853 3584 3176 3315 
Q 3500 3047 3500 2534 
Q 3500 2431 3484 2292 
Q 3469 2153 3438 1997 
z
M 2816 1759 
L 2241 1759 
Q 1534 1759 1195 1570 
Q 856 1381 856 984 
Q 856 709 1029 553 
Q 1203 397 1509 397 
Q 1978 397 2328 733 
Q 2678 1069 2791 1631 
L 2816 1759 
z
" transform="scale(0.015625)"/>
       <path id="DejaVuSans-2f" d="M 1625 4666 
L 2156 4666 
L 531 -594 
L 0 -594 
L 1625 4666 
z
" transform="scale(0.015625)"/>
       <path id="DejaVuSans-Oblique-73" d="M 3200 3397 
L 3091 2853 
Q 2863 2978 2609 3040 
Q 2356 3103 2088 3103 
Q 1634 3103 1373 2948 
Q 1113 2794 1113 2528 
Q 1113 2219 1719 2053 
Q 1766 2041 1788 2034 
L 1972 1978 
Q 2547 1819 2739 1644 
Q 2931 1469 2931 1166 
Q 2931 609 2489 259 
Q 2047 -91 1331 -91 
Q 1053 -91 747 -37 
Q 441 16 72 128 
L 184 722 
Q 500 559 806 475 
Q 1113 391 1394 391 
Q 1816 391 2080 572 
Q 2344 753 2344 1031 
Q 2344 1331 1650 1516 
L 1591 1531 
L 1394 1581 
Q 956 1697 753 1886 
Q 550 2075 550 2369 
Q 550 2928 970 3256 
Q 1391 3584 2113 3584 
Q 2397 3584 2667 3537 
Q 2938 3491 3200 3397 
z
" transform="scale(0.015625)"/>
      </defs>
      <use xlink:href="#DejaVuSans-Oblique-72" transform="translate(0 0.015625)"/>
      <use xlink:href="#DejaVuSerif-20" transform="translate(41.113281 0.015625)"/>
      <use xlink:href="#DejaVuSans-5b" transform="translate(72.900391 0.015625)"/>
      <use xlink:href="#DejaVuSans-Oblique-72" transform="translate(111.914062 0.015625)"/>
      <use xlink:href="#DejaVuSans-Oblique-61" transform="translate(153.027344 0.015625)"/>
      <use xlink:href="#DejaVuSans-Oblique-64" transform="translate(214.306641 0.015625)"/>
      <use xlink:href="#DejaVuSans-2f" transform="translate(277.783203 0.015625)"/>
      <use xlink:href="#DejaVuSans-Oblique-73" transform="translate(311.474609 0.015625)"/>
      <use xlink:href="#DejaVuSans-5d" transform="translate(363.574219 0.015625)"/>
     </g>
    </g>
   </g>
   <g id="line2d_63">
    <path d="M 79.304418 254.400534 
L 80.367592 254.508521 
L 81.527418 254.863529 
L 82.687245 255.448172 
L 84.040376 256.391031 
L 85.393506 257.608509 
L 86.939942 259.306557 
L 88.679681 261.575816 
L 90.709377 264.614981 
L 94.382161 270.238474 
L 96.315205 272.684766 
L 98.344901 274.87276 
L 100.47125 276.862023 
L 102.790903 278.734057 
L 105.883773 280.864033 
L 108.783339 282.518607 
L 111.392949 283.759065 
L 115.355689 285.340381 
L 118.641864 286.432934 
L 123.377822 287.738386 
L 128.403736 288.893652 
L 134.589477 290.053496 
L 142.998219 291.367034 
L 150.537091 292.261604 
L 151.503613 292.20069 
L 152.566787 291.927581 
L 153.726613 291.39444 
L 154.983092 290.570001 
L 156.336223 289.404617 
L 157.786006 287.872756 
L 159.429093 285.808463 
L 161.362137 283.008114 
L 163.778442 279.091519 
L 166.388052 274.386541 
L 169.577574 268.155198 
L 173.057054 260.808585 
L 177.019794 252.47232 
L 178.759534 249.437934 
L 180.692578 246.500719 
L 182.625622 243.963946 
L 184.655318 241.648332 
L 187.071623 239.253282 
L 189.294624 237.341166 
L 191.710929 235.525018 
L 194.320538 233.846069 
L 197.510061 232.077378 
L 200.602931 230.623118 
L 204.855628 228.887628 
L 209.108325 227.462058 
L 215.390718 225.56509 
L 220.609937 224.223979 
L 227.278939 222.825636 
L 236.07429 221.224779 
L 247.769206 219.34785 
L 255.887991 218.289533 
L 267.002994 217.03338 
L 281.404172 215.678784 
L 291.84261 214.896336 
L 303.24757 214.292948 
L 313.106095 213.941793 
L 314.169269 214.196295 
L 315.329095 214.706925 
L 316.488922 215.454859 
L 317.938705 216.677922 
L 319.48514 218.297836 
L 321.418184 220.729465 
L 323.44788 223.663826 
L 325.670881 227.299624 
L 328.570447 232.478745 
L 331.953274 238.992228 
L 336.012667 247.312282 
L 338.912233 253.089442 
L 340.651972 256.014867 
L 342.585016 258.848271 
L 344.614713 261.421113 
L 346.741061 263.755941 
L 349.157366 266.055434 
L 351.766976 268.222297 
L 354.56989 270.254022 
L 357.566108 272.174845 
L 360.658978 273.895484 
L 363.848501 275.41166 
L 367.32798 276.810813 
L 371.773982 278.363881 
L 377.573114 280.14035 
L 384.145463 281.902725 
L 392.940814 284.045297 
L 397.966728 285.010716 
L 406.472122 286.367203 
L 428.702129 289.723141 
L 434.597913 290.391385 
L 455.95805 292.460707 
L 478.091404 293.930429 
L 484.277145 294.25822 
L 484.277145 294.25822 
" clip-path="url(#p4cb277810a)" style="fill: none; stroke: #0000ff; stroke-linecap: round"/>
   </g>
   <g id="line2d_64">
    <path d="M 79.304418 254.400534 
L 80.367592 254.508476 
L 81.527418 254.863127 
L 82.687245 255.44679 
L 84.040376 256.387328 
L 85.490159 257.695487 
L 87.036594 259.40586 
L 88.872986 261.802667 
L 90.902682 264.850192 
L 94.285509 269.960051 
L 96.218553 272.391532 
L 98.248249 274.577798 
L 100.374598 276.528113 
L 102.694251 278.326111 
L 105.207208 279.990037 
L 108.010122 281.539193 
L 110.619731 282.771899 
L 113.809254 283.970986 
L 116.902124 284.976855 
L 120.768212 285.983376 
L 126.084083 287.077986 
L 131.883216 288.096082 
L 137.199087 288.813549 
L 145.124567 289.667748 
L 151.600265 290.097491 
L 153.050048 290.078895 
L 154.209874 289.791657 
L 155.369701 289.284918 
L 156.626179 288.475601 
L 157.97931 287.32774 
L 159.525745 285.709396 
L 161.168833 283.674175 
L 163.101877 280.897609 
L 165.324878 277.29967 
L 168.127791 272.321343 
L 170.930705 266.860697 
L 174.700141 258.984051 
L 179.04949 249.933404 
L 180.885882 246.781126 
L 182.722274 244.068444 
L 184.75197 241.460348 
L 186.878319 239.076458 
L 189.004667 237.024488 
L 191.420972 235.026283 
L 193.740625 233.416692 
L 196.543539 231.753622 
L 199.443105 230.280688 
L 202.535975 228.962231 
L 205.82215 227.816215 
L 211.041369 226.2736 
L 216.743849 224.768338 
L 221.673111 223.711133 
L 226.795678 222.857097 
L 235.20442 221.726017 
L 245.836162 220.479044 
L 256.757861 219.3835 
L 264.779994 218.792569 
L 287.589913 217.399078 
L 297.158481 217.057449 
L 315.039139 216.661261 
L 316.198965 216.977212 
L 317.358792 217.544158 
L 318.711922 218.472288 
L 319.968401 219.575738 
L 321.611489 221.353129 
L 323.254576 223.434033 
L 325.284272 226.362608 
L 327.700577 230.269124 
L 330.406839 235.095 
L 333.693014 241.426737 
L 337.172493 248.567369 
L 340.458668 255.252044 
L 342.198408 258.288771 
L 344.131452 261.208786 
L 346.064496 263.738133 
L 348.190844 266.146986 
L 350.510497 268.432131 
L 352.83015 270.416888 
L 355.439759 272.385957 
L 358.049369 274.082451 
L 361.045587 275.741595 
L 364.041805 277.135185 
L 367.617937 278.538286 
L 371.967286 279.991476 
L 376.703244 281.335332 
L 381.922463 282.58048 
L 392.360901 284.78792 
L 396.033684 285.320809 
L 409.951601 287.037962 
L 422.902996 288.462196 
L 438.367349 289.773258 
L 450.25557 290.362289 
L 463.593574 291.07902 
L 472.872185 291.572672 
L 483.117318 291.794684 
L 483.213971 291.796428 
L 483.213971 291.796428 
" clip-path="url(#p4cb277810a)" style="fill: none; stroke: #008000; stroke-linecap: round"/>
   </g>
   <g id="line2d_65">
    <path d="M 79.304418 254.400534 
L 80.367592 254.520202 
L 81.430766 254.858116 
L 82.590592 255.463763 
L 83.943723 256.440997 
L 85.393506 257.765527 
L 87.036594 259.569081 
L 89.162942 262.266821 
L 91.965856 266.223369 
L 94.478813 269.718543 
L 96.798466 272.511651 
L 99.118119 274.952646 
L 101.437772 277.086937 
L 104.047381 279.173208 
L 106.850295 281.129133 
L 109.943166 283.012013 
L 113.132688 284.694621 
L 116.612168 286.273594 
L 120.574908 287.810176 
L 125.020909 289.293058 
L 129.370258 290.527532 
L 135.362695 292.021778 
L 141.548436 293.327391 
L 148.990655 294.688504 
L 150.05383 294.773559 
L 151.213656 294.657767 
L 152.373482 294.299188 
L 153.533309 293.704843 
L 154.693135 292.868307 
L 156.046266 291.59874 
L 157.496049 289.921477 
L 159.139137 287.660638 
L 160.878876 284.88174 
L 163.005225 281.02239 
L 165.518182 275.982067 
L 168.901009 268.659432 
L 176.923142 251.092794 
L 178.662881 247.968887 
L 180.595926 245.003614 
L 182.52897 242.440762 
L 184.655318 240.002113 
L 186.878319 237.790477 
L 189.391276 235.622666 
L 192.000885 233.664715 
L 194.900451 231.7705 
L 198.089974 229.955996 
L 201.85941 228.083711 
L 205.82215 226.349152 
L 210.268152 224.647779 
L 215.294066 222.964179 
L 221.769764 221.027126 
L 228.245461 219.322523 
L 235.494376 217.663711 
L 242.839944 216.187879 
L 251.538642 214.664433 
L 260.23734 213.367042 
L 268.936038 212.261376 
L 280.727607 211.003779 
L 292.71248 209.94743 
L 302.957614 209.25913 
L 304.11744 209.302339 
L 305.277266 209.57043 
L 306.437093 210.070142 
L 307.596919 210.808708 
L 308.853398 211.867443 
L 310.206529 213.305205 
L 311.656312 215.171895 
L 313.299399 217.652128 
L 315.135791 220.827512 
L 317.262139 224.955118 
L 320.161706 231.140951 
L 324.31775 240.587273 
L 330.02023 253.507851 
L 331.75997 256.799275 
L 333.596362 259.797023 
L 335.529406 262.513691 
L 337.559102 264.970507 
L 339.68545 267.199009 
L 342.005103 269.31549 
L 344.614713 271.393854 
L 347.417627 273.32873 
L 350.607149 275.256135 
L 354.279933 277.204077 
L 358.435978 279.156989 
L 363.075283 281.083817 
L 368.294502 283.006705 
L 374.673548 285.11165 
L 380.859289 286.906338 
L 387.52829 288.60798 
L 397.386815 290.789409 
L 405.988861 292.464485 
L 414.107646 293.829357 
L 423.676214 295.206292 
L 434.791217 296.568246 
L 443.586568 297.445389 
L 456.151354 298.481188 
L 464.656748 299.05 
L 464.656748 299.05 
" clip-path="url(#p4cb277810a)" style="fill: none; stroke: #ff0000; stroke-linecap: round"/>
   </g>
   <g id="patch_9">
    <path d="M 59.055781 303.54 
L 59.055781 204.76 
" style="fill: none; stroke: #000000; stroke-linejoin: miter; stroke-linecap: square"/>
   </g>
   <g id="patch_10">
    <path d="M 59.055781 303.54 
L 504.525781 303.54 
" style="fill: none; stroke: #000000; stroke-linejoin: miter; stroke-linecap: square"/>
   </g>
  </g>
 </g>
 <defs>
  <clipPath id="pb328c80160">
   <rect x="59.055781" y="7.2" width="445.47" height="98.78"/>
  </clipPath>
  <clipPath id="p8aebc192f2">
   <rect x="59.055781" y="105.98" width="445.47" height="98.78"/>
  </clipPath>
  <clipPath id="p4cb277810a">
   <rect x="59.055781" y="204.76" width="445.47" height="98.78"/>
  </clipPath>
 </defs>
</svg>
