<?xml version="1.0" encoding="utf-8" standalone="no"?>
<!DOCTYPE svg PUBLIC "-//W3C//DTD SVG 1.1//EN"
  "http://www.w3.org/Graphics/SVG/1.1/DTD/svg11.dtd">
<svg xmlns:xlink="http://www.w3.org/1999/xlink" width="518.4pt" height="345.6pt" viewBox="0 0 518.4 345.6" xmlns="http://www.w3.org/2000/svg" version="1.1">
 <metadata>
  <rdf:RDF xmlns:dc="http://purl.org/dc/elements/1.1/" xmlns:cc="http://creativecommons.org/ns#" xmlns:rdf="http://www.w3.org/1999/02/22-rdf-syntax-ns#">
   <cc:Work>
    <dc:type rdf:resource="http://purl.org/dc/dcmitype/StillImage"/>
    <dc:date>2024-02-05T08:14:27.919024</dc:date>
    <dc:format>image/svg+xml</dc:format>
    <dc:creator>
     <cc:Agent>
      <dc:title>Matplotlib v3.8.2, https://matplotlib.org/</dc:title>
     </cc:Agent>
    </dc:creator>
   </cc:Work>
  </rdf:RDF>
 </metadata>
 <defs>
  <style type="text/css">*{stroke-linejoin: round; stroke-linecap: butt}</style>
 </defs>
 <g id="figure_1">
  <g id="patch_1">
   <path d="M 0 345.6 
L 518.4 345.6 
L 518.4 0 
L 0 0 
z
" style="fill: #ffffff"/>
  </g>
  <g id="axes_1">
   <g id="patch_2">
    <path d="M 55.650084 104.738281 
L 515.39976 104.738281 
L 515.39976 6.27099 
L 55.650084 6.27099 
z
" style="fill: #ffffff"/>
   </g>
   <g id="matplotlib.axis_1">
    <g id="xtick_1">
     <g id="line2d_1">
      <path d="M 76.547796 104.738281 
L 76.547796 6.27099 
" clip-path="url(#p35706b4e61)" style="fill: none; stroke: #b0b0b0; stroke-width: 0.8; stroke-linecap: round"/>
     </g>
     <g id="line2d_2"/>
    </g>
    <g id="xtick_2">
     <g id="line2d_3">
      <path d="M 128.792078 104.738281 
L 128.792078 6.27099 
" clip-path="url(#p35706b4e61)" style="fill: none; stroke: #b0b0b0; stroke-width: 0.8; stroke-linecap: round"/>
     </g>
     <g id="line2d_4"/>
    </g>
    <g id="xtick_3">
     <g id="line2d_5">
      <path d="M 181.036359 104.738281 
L 181.036359 6.27099 
" clip-path="url(#p35706b4e61)" style="fill: none; stroke: #b0b0b0; stroke-width: 0.8; stroke-linecap: round"/>
     </g>
     <g id="line2d_6"/>
    </g>
    <g id="xtick_4">
     <g id="line2d_7">
      <path d="M 233.28064 104.738281 
L 233.28064 6.27099 
" clip-path="url(#p35706b4e61)" style="fill: none; stroke: #b0b0b0; stroke-width: 0.8; stroke-linecap: round"/>
     </g>
     <g id="line2d_8"/>
    </g>
    <g id="xtick_5">
     <g id="line2d_9">
      <path d="M 285.524922 104.738281 
L 285.524922 6.27099 
" clip-path="url(#p35706b4e61)" style="fill: none; stroke: #b0b0b0; stroke-width: 0.8; stroke-linecap: round"/>
     </g>
     <g id="line2d_10"/>
    </g>
    <g id="xtick_6">
     <g id="line2d_11">
      <path d="M 337.769203 104.738281 
L 337.769203 6.27099 
" clip-path="url(#p35706b4e61)" style="fill: none; stroke: #b0b0b0; stroke-width: 0.8; stroke-linecap: round"/>
     </g>
     <g id="line2d_12"/>
    </g>
    <g id="xtick_7">
     <g id="line2d_13">
      <path d="M 390.013485 104.738281 
L 390.013485 6.27099 
" clip-path="url(#p35706b4e61)" style="fill: none; stroke: #b0b0b0; stroke-width: 0.8; stroke-linecap: round"/>
     </g>
     <g id="line2d_14"/>
    </g>
    <g id="xtick_8">
     <g id="line2d_15">
      <path d="M 442.257766 104.738281 
L 442.257766 6.27099 
" clip-path="url(#p35706b4e61)" style="fill: none; stroke: #b0b0b0; stroke-width: 0.8; stroke-linecap: round"/>
     </g>
     <g id="line2d_16"/>
    </g>
    <g id="xtick_9">
     <g id="line2d_17">
      <path d="M 494.502047 104.738281 
L 494.502047 6.27099 
" clip-path="url(#p35706b4e61)" style="fill: none; stroke: #b0b0b0; stroke-width: 0.8; stroke-linecap: round"/>
     </g>
     <g id="line2d_18"/>
    </g>
   </g>
   <g id="matplotlib.axis_2">
    <g id="ytick_1">
     <g id="line2d_19">
      <path d="M 55.650084 93.321343 
L 515.39976 93.321343 
" clip-path="url(#p35706b4e61)" style="fill: none; stroke: #b0b0b0; stroke-width: 0.8; stroke-linecap: round"/>
     </g>
     <g id="line2d_20"/>
     <g id="text_1">
      <!-- −0.50 -->
      <g style="fill: #262626" transform="translate(18.44024 97.500484) scale(0.11 -0.11)">
       <defs>
        <path id="DejaVuSerif-2212" d="M 678 2259 
L 4684 2259 
L 4684 1753 
L 678 1753 
L 678 2259 
z
" transform="scale(0.015625)"/>
        <path id="DejaVuSerif-30" d="M 2034 219 
Q 2513 219 2750 744 
Q 2988 1269 2988 2328 
Q 2988 3391 2750 3916 
Q 2513 4441 2034 4441 
Q 1556 4441 1318 3916 
Q 1081 3391 1081 2328 
Q 1081 1269 1318 744 
Q 1556 219 2034 219 
z
M 2034 -91 
Q 1275 -91 848 546 
Q 422 1184 422 2328 
Q 422 3475 848 4112 
Q 1275 4750 2034 4750 
Q 2797 4750 3222 4112 
Q 3647 3475 3647 2328 
Q 3647 1184 3222 546 
Q 2797 -91 2034 -91 
z
" transform="scale(0.015625)"/>
        <path id="DejaVuSerif-2e" d="M 603 325 
Q 603 500 722 622 
Q 841 744 1019 744 
Q 1191 744 1312 622 
Q 1434 500 1434 325 
Q 1434 153 1312 31 
Q 1191 -91 1019 -91 
Q 841 -91 722 29 
Q 603 150 603 325 
z
" transform="scale(0.015625)"/>
        <path id="DejaVuSerif-35" d="M 3219 4666 
L 3219 4153 
L 1081 4153 
L 1081 2816 
Q 1244 2928 1461 2984 
Q 1678 3041 1947 3041 
Q 2703 3041 3140 2622 
Q 3578 2203 3578 1478 
Q 3578 738 3136 323 
Q 2694 -91 1894 -91 
Q 1572 -91 1234 -12 
Q 897 66 544 225 
L 544 1131 
L 897 1131 
Q 925 688 1179 453 
Q 1434 219 1894 219 
Q 2388 219 2653 544 
Q 2919 869 2919 1478 
Q 2919 2084 2655 2407 
Q 2391 2731 1894 2731 
Q 1613 2731 1398 2631 
Q 1184 2531 1019 2322 
L 750 2322 
L 750 4666 
L 3219 4666 
z
" transform="scale(0.015625)"/>
       </defs>
       <use xlink:href="#DejaVuSerif-2212"/>
       <use xlink:href="#DejaVuSerif-30" x="83.789062"/>
       <use xlink:href="#DejaVuSerif-2e" x="147.412109"/>
       <use xlink:href="#DejaVuSerif-35" x="179.199219"/>
       <use xlink:href="#DejaVuSerif-30" x="242.822266"/>
      </g>
     </g>
    </g>
    <g id="ytick_2">
     <g id="line2d_21">
      <path d="M 55.650084 64.60404 
L 515.39976 64.60404 
" clip-path="url(#p35706b4e61)" style="fill: none; stroke: #b0b0b0; stroke-width: 0.8; stroke-linecap: round"/>
     </g>
     <g id="line2d_22"/>
     <g id="text_2">
      <!-- −0.25 -->
      <g style="fill: #262626" transform="translate(18.44024 68.78318) scale(0.11 -0.11)">
       <defs>
        <path id="DejaVuSerif-32" d="M 819 3553 
L 469 3553 
L 469 4384 
Q 803 4563 1142 4656 
Q 1481 4750 1806 4750 
Q 2534 4750 2956 4397 
Q 3378 4044 3378 3438 
Q 3378 2753 2422 1800 
Q 2347 1728 2309 1691 
L 1131 513 
L 3078 513 
L 3078 1088 
L 3444 1088 
L 3444 0 
L 434 0 
L 434 341 
L 1850 1753 
Q 2319 2222 2519 2614 
Q 2719 3006 2719 3438 
Q 2719 3909 2473 4175 
Q 2228 4441 1797 4441 
Q 1350 4441 1106 4219 
Q 863 3997 819 3553 
z
" transform="scale(0.015625)"/>
       </defs>
       <use xlink:href="#DejaVuSerif-2212"/>
       <use xlink:href="#DejaVuSerif-30" x="83.789062"/>
       <use xlink:href="#DejaVuSerif-2e" x="147.412109"/>
       <use xlink:href="#DejaVuSerif-32" x="179.199219"/>
       <use xlink:href="#DejaVuSerif-35" x="242.822266"/>
      </g>
     </g>
    </g>
    <g id="ytick_3">
     <g id="line2d_23">
      <path d="M 55.650084 35.886736 
L 515.39976 35.886736 
" clip-path="url(#p35706b4e61)" style="fill: none; stroke: #b0b0b0; stroke-width: 0.8; stroke-linecap: round"/>
     </g>
     <g id="line2d_24"/>
     <g id="text_3">
      <!-- 0.00 -->
      <g style="fill: #262626" transform="translate(27.657896 40.065877) scale(0.11 -0.11)">
       <use xlink:href="#DejaVuSerif-30"/>
       <use xlink:href="#DejaVuSerif-2e" x="63.623047"/>
       <use xlink:href="#DejaVuSerif-30" x="95.410156"/>
       <use xlink:href="#DejaVuSerif-30" x="159.033203"/>
      </g>
     </g>
    </g>
    <g id="ytick_4">
     <g id="line2d_25">
      <path d="M 55.650084 7.169433 
L 515.39976 7.169433 
" clip-path="url(#p35706b4e61)" style="fill: none; stroke: #b0b0b0; stroke-width: 0.8; stroke-linecap: round"/>
     </g>
     <g id="line2d_26"/>
     <g id="text_4">
      <!-- 0.25 -->
      <g style="fill: #262626" transform="translate(27.657896 11.348574) scale(0.11 -0.11)">
       <use xlink:href="#DejaVuSerif-30"/>
       <use xlink:href="#DejaVuSerif-2e" x="63.623047"/>
       <use xlink:href="#DejaVuSerif-32" x="95.410156"/>
       <use xlink:href="#DejaVuSerif-35" x="159.033203"/>
      </g>
     </g>
    </g>
    <g id="text_5">
     <!-- $1000 \cdot {X'}_{(\bullet)}$ -->
     <g style="fill: #262626" transform="translate(11.58024 84.379635) rotate(-90) scale(0.11 -0.11)">
      <defs>
       <path id="DejaVuSans-31" d="M 794 531 
L 1825 531 
L 1825 4091 
L 703 3866 
L 703 4441 
L 1819 4666 
L 2450 4666 
L 2450 531 
L 3481 531 
L 3481 0 
L 794 0 
L 794 531 
z
" transform="scale(0.015625)"/>
       <path id="DejaVuSans-30" d="M 2034 4250 
Q 1547 4250 1301 3770 
Q 1056 3291 1056 2328 
Q 1056 1369 1301 889 
Q 1547 409 2034 409 
Q 2525 409 2770 889 
Q 3016 1369 3016 2328 
Q 3016 3291 2770 3770 
Q 2525 4250 2034 4250 
z
M 2034 4750 
Q 2819 4750 3233 4129 
Q 3647 3509 3647 2328 
Q 3647 1150 3233 529 
Q 2819 -91 2034 -91 
Q 1250 -91 836 529 
Q 422 1150 422 2328 
Q 422 3509 836 4129 
Q 1250 4750 2034 4750 
z
" transform="scale(0.015625)"/>
       <path id="DejaVuSans-22c5" d="M 684 2619 
L 1344 2619 
L 1344 1825 
L 684 1825 
L 684 2619 
z
" transform="scale(0.015625)"/>
       <path id="DejaVuSans-Oblique-58" d="M 878 4666 
L 1516 4666 
L 2316 2981 
L 3763 4666 
L 4500 4666 
L 2578 2438 
L 3738 0 
L 3103 0 
L 2163 1966 
L 459 0 
L -275 0 
L 1906 2509 
L 878 4666 
z
" transform="scale(0.015625)"/>
       <path id="Cmsy10-30" d="M 225 347 
Q 184 359 184 409 
L 966 3316 
Q 1003 3434 1093 3506 
Q 1184 3578 1300 3578 
Q 1450 3578 1564 3479 
Q 1678 3381 1678 3231 
Q 1678 3166 1644 3084 
L 488 319 
Q 466 275 428 275 
Q 394 275 320 306 
Q 247 338 225 347 
z
" transform="scale(0.015625)"/>
       <path id="DejaVuSans-28" d="M 1984 4856 
Q 1566 4138 1362 3434 
Q 1159 2731 1159 2009 
Q 1159 1288 1364 580 
Q 1569 -128 1984 -844 
L 1484 -844 
Q 1016 -109 783 600 
Q 550 1309 550 2009 
Q 550 2706 781 3412 
Q 1013 4119 1484 4856 
L 1984 4856 
z
" transform="scale(0.015625)"/>
       <path id="DejaVuSans-2219" d="M 1075 2006 
Q 1075 2394 1345 2661 
Q 1616 2928 2009 2928 
Q 2397 2928 2664 2661 
Q 2931 2394 2931 2006 
Q 2931 1616 2662 1347 
Q 2394 1078 2003 1078 
Q 1613 1078 1344 1347 
Q 1075 1616 1075 2006 
z
" transform="scale(0.015625)"/>
       <path id="DejaVuSans-29" d="M 513 4856 
L 1013 4856 
Q 1481 4119 1714 3412 
Q 1947 2706 1947 2009 
Q 1947 1309 1714 600 
Q 1481 -109 1013 -844 
L 513 -844 
Q 928 -128 1133 580 
Q 1338 1288 1338 2009 
Q 1338 2731 1133 3434 
Q 928 4138 513 4856 
z
" transform="scale(0.015625)"/>
      </defs>
      <use xlink:href="#DejaVuSans-31" transform="translate(0 0.584375)"/>
      <use xlink:href="#DejaVuSans-30" transform="translate(63.623047 0.584375)"/>
      <use xlink:href="#DejaVuSans-30" transform="translate(127.246094 0.584375)"/>
      <use xlink:href="#DejaVuSans-30" transform="translate(190.869141 0.584375)"/>
      <use xlink:href="#DejaVuSans-22c5" transform="translate(273.974609 0.584375)"/>
      <use xlink:href="#DejaVuSans-Oblique-58" transform="translate(325.244141 0.584375)"/>
      <use xlink:href="#Cmsy10-30" transform="translate(400.766771 38.865625) scale(0.7)"/>
      <use xlink:href="#DejaVuSans-28" transform="translate(423.701341 -15.821875) scale(0.7)"/>
      <use xlink:href="#DejaVuSans-2219" transform="translate(451.010911 -15.821875) scale(0.7)"/>
      <use xlink:href="#DejaVuSans-29" transform="translate(494.829271 -15.821875) scale(0.7)"/>
     </g>
    </g>
   </g>
   <g id="line2d_27">
    <defs>
     <path id="mefd3f452a1" d="M -3 3 
L 3 -3 
M -3 -3 
L 3 3 
" style="stroke: #ff0000"/>
    </defs>
    <g clip-path="url(#p35706b4e61)">
     <use xlink:href="#mefd3f452a1" x="76.547796" y="36.089328" style="fill: #ff0000; stroke: #ff0000"/>
     <use xlink:href="#mefd3f452a1" x="181.036359" y="34.894529" style="fill: #ff0000; stroke: #ff0000"/>
     <use xlink:href="#mefd3f452a1" x="494.502047" y="29.382005" style="fill: #ff0000; stroke: #ff0000"/>
    </g>
   </g>
   <g id="line2d_28">
    <defs>
     <path id="meeb6acd4d0" d="M -3 3 
L 3 -3 
M -3 -3 
L 3 3 
" style="stroke: #008000"/>
    </defs>
    <g clip-path="url(#p35706b4e61)">
     <use xlink:href="#meeb6acd4d0" x="76.547796" y="99.971586" style="fill: #008000; stroke: #008000"/>
     <use xlink:href="#meeb6acd4d0" x="181.036359" y="101.555742" style="fill: #008000; stroke: #008000"/>
     <use xlink:href="#meeb6acd4d0" x="494.502047" y="102.882428" style="fill: #008000; stroke: #008000"/>
    </g>
   </g>
   <g id="line2d_29">
    <defs>
     <path id="mf30a8f3f36" d="M -3 3 
L 3 -3 
M -3 -3 
L 3 3 
" style="stroke: #0000ff"/>
    </defs>
    <g clip-path="url(#p35706b4e61)">
     <use xlink:href="#mf30a8f3f36" x="76.547796" y="47.710541" style="fill: #0000ff; stroke: #0000ff"/>
     <use xlink:href="#mf30a8f3f36" x="181.036359" y="47.173851" style="fill: #0000ff; stroke: #0000ff"/>
     <use xlink:href="#mf30a8f3f36" x="494.502047" y="42.904137" style="fill: #0000ff; stroke: #0000ff"/>
    </g>
   </g>
   <g id="line2d_30">
    <path d="M 76.547796 31.953772 
L 181.036359 29.546324 
L 494.502047 25.842924 
" clip-path="url(#p35706b4e61)" style="fill: none; stroke: #ff0000; stroke-width: 1.5; stroke-linecap: round"/>
   </g>
   <g id="line2d_31">
    <path d="M 76.547796 99.714069 
L 181.036359 100.015888 
L 494.502047 102.11315 
" clip-path="url(#p35706b4e61)" style="fill: none; stroke: #008000; stroke-width: 1.5; stroke-linecap: round"/>
   </g>
   <g id="line2d_32">
    <path d="M 76.547796 47.707932 
L 181.036359 47.355711 
L 494.502047 44.25608 
" clip-path="url(#p35706b4e61)" style="fill: none; stroke: #0000ff; stroke-width: 1.5; stroke-linecap: round"/>
   </g>
   <g id="patch_3">
    <path d="M 55.650084 104.738281 
L 55.650084 6.27099 
" style="fill: none; stroke: #000000; stroke-linejoin: miter; stroke-linecap: square"/>
   </g>
   <g id="patch_4">
    <path d="M 55.650084 104.738281 
L 515.39976 104.738281 
" style="fill: none; stroke: #000000; stroke-linejoin: miter; stroke-linecap: square"/>
   </g>
   <g id="legend_1">
    <g id="line2d_33">
     <path d="M 465.107416 56.408749 
L 476.107416 56.408749 
L 487.107416 56.408749 
" style="fill: none; stroke: #ff0000; stroke-width: 1.5; stroke-linecap: round"/>
    </g>
    <g id="text_6">
     <!-- D -->
     <g style="fill: #262626" transform="translate(495.907416 60.258749) scale(0.11 -0.11)">
      <defs>
       <path id="DejaVuSerif-44" d="M 1581 331 
L 2163 331 
Q 3072 331 3558 850 
Q 4044 1369 4044 2338 
Q 4044 3306 3559 3818 
Q 3075 4331 2163 4331 
L 1581 4331 
L 1581 331 
z
M 353 0 
L 353 331 
L 947 331 
L 947 4331 
L 353 4331 
L 353 4666 
L 2209 4666 
Q 3416 4666 4089 4050 
Q 4763 3434 4763 2338 
Q 4763 1238 4088 619 
Q 3413 0 2209 0 
L 353 0 
z
" transform="scale(0.015625)"/>
      </defs>
      <use xlink:href="#DejaVuSerif-44"/>
     </g>
    </g>
    <g id="line2d_34">
     <path d="M 465.107416 72.554687 
L 476.107416 72.554687 
L 487.107416 72.554687 
" style="fill: none; stroke: #008000; stroke-width: 1.5; stroke-linecap: round"/>
    </g>
    <g id="text_7">
     <!-- H -->
     <g style="fill: #262626" transform="translate(495.907416 76.404687) scale(0.11 -0.11)">
      <defs>
       <path id="DejaVuSerif-48" d="M 353 0 
L 353 331 
L 947 331 
L 947 4331 
L 353 4331 
L 353 4666 
L 2175 4666 
L 2175 4331 
L 1581 4331 
L 1581 2719 
L 4000 2719 
L 4000 4331 
L 3406 4331 
L 3406 4666 
L 5228 4666 
L 5228 4331 
L 4634 4331 
L 4634 331 
L 5228 331 
L 5228 0 
L 3406 0 
L 3406 331 
L 4000 331 
L 4000 2338 
L 1581 2338 
L 1581 331 
L 2175 331 
L 2175 0 
L 353 0 
z
" transform="scale(0.015625)"/>
      </defs>
      <use xlink:href="#DejaVuSerif-48"/>
     </g>
    </g>
    <g id="line2d_35">
     <path d="M 465.107416 88.700624 
L 476.107416 88.700624 
L 487.107416 88.700624 
" style="fill: none; stroke: #0000ff; stroke-width: 1.5; stroke-linecap: round"/>
    </g>
    <g id="text_8">
     <!-- R -->
     <g style="fill: #262626" transform="translate(495.907416 92.550624) scale(0.11 -0.11)">
      <defs>
       <path id="DejaVuSerif-52" d="M 3066 2316 
Q 3284 2256 3442 2114 
Q 3600 1972 3725 1716 
L 4403 331 
L 4972 331 
L 4972 0 
L 3872 0 
L 3144 1484 
Q 2934 1916 2759 2042 
Q 2584 2169 2278 2169 
L 1581 2169 
L 1581 331 
L 2241 331 
L 2241 0 
L 353 0 
L 353 331 
L 947 331 
L 947 4331 
L 353 4331 
L 353 4666 
L 2719 4666 
Q 3400 4666 3770 4341 
Q 4141 4016 4141 3419 
Q 4141 2938 3870 2661 
Q 3600 2384 3066 2316 
z
M 1581 2503 
L 2503 2503 
Q 2975 2503 3200 2726 
Q 3425 2950 3425 3419 
Q 3425 3888 3200 4109 
Q 2975 4331 2503 4331 
L 1581 4331 
L 1581 2503 
z
" transform="scale(0.015625)"/>
      </defs>
      <use xlink:href="#DejaVuSerif-52"/>
     </g>
    </g>
   </g>
  </g>
  <g id="axes_2">
   <g id="patch_5">
    <path d="M 55.650084 209.206052 
L 515.39976 209.206052 
L 515.39976 110.738761 
L 55.650084 110.738761 
z
" style="fill: #ffffff"/>
   </g>
   <g id="matplotlib.axis_3">
    <g id="xtick_10">
     <g id="line2d_36">
      <path d="M 76.547796 209.206052 
L 76.547796 110.738761 
" clip-path="url(#p54676e675b)" style="fill: none; stroke: #b0b0b0; stroke-width: 0.8; stroke-linecap: round"/>
     </g>
     <g id="line2d_37"/>
    </g>
    <g id="xtick_11">
     <g id="line2d_38">
      <path d="M 128.792078 209.206052 
L 128.792078 110.738761 
" clip-path="url(#p54676e675b)" style="fill: none; stroke: #b0b0b0; stroke-width: 0.8; stroke-linecap: round"/>
     </g>
     <g id="line2d_39"/>
    </g>
    <g id="xtick_12">
     <g id="line2d_40">
      <path d="M 181.036359 209.206052 
L 181.036359 110.738761 
" clip-path="url(#p54676e675b)" style="fill: none; stroke: #b0b0b0; stroke-width: 0.8; stroke-linecap: round"/>
     </g>
     <g id="line2d_41"/>
    </g>
    <g id="xtick_13">
     <g id="line2d_42">
      <path d="M 233.28064 209.206052 
L 233.28064 110.738761 
" clip-path="url(#p54676e675b)" style="fill: none; stroke: #b0b0b0; stroke-width: 0.8; stroke-linecap: round"/>
     </g>
     <g id="line2d_43"/>
    </g>
    <g id="xtick_14">
     <g id="line2d_44">
      <path d="M 285.524922 209.206052 
L 285.524922 110.738761 
" clip-path="url(#p54676e675b)" style="fill: none; stroke: #b0b0b0; stroke-width: 0.8; stroke-linecap: round"/>
     </g>
     <g id="line2d_45"/>
    </g>
    <g id="xtick_15">
     <g id="line2d_46">
      <path d="M 337.769203 209.206052 
L 337.769203 110.738761 
" clip-path="url(#p54676e675b)" style="fill: none; stroke: #b0b0b0; stroke-width: 0.8; stroke-linecap: round"/>
     </g>
     <g id="line2d_47"/>
    </g>
    <g id="xtick_16">
     <g id="line2d_48">
      <path d="M 390.013485 209.206052 
L 390.013485 110.738761 
" clip-path="url(#p54676e675b)" style="fill: none; stroke: #b0b0b0; stroke-width: 0.8; stroke-linecap: round"/>
     </g>
     <g id="line2d_49"/>
    </g>
    <g id="xtick_17">
     <g id="line2d_50">
      <path d="M 442.257766 209.206052 
L 442.257766 110.738761 
" clip-path="url(#p54676e675b)" style="fill: none; stroke: #b0b0b0; stroke-width: 0.8; stroke-linecap: round"/>
     </g>
     <g id="line2d_51"/>
    </g>
    <g id="xtick_18">
     <g id="line2d_52">
      <path d="M 494.502047 209.206052 
L 494.502047 110.738761 
" clip-path="url(#p54676e675b)" style="fill: none; stroke: #b0b0b0; stroke-width: 0.8; stroke-linecap: round"/>
     </g>
     <g id="line2d_53"/>
    </g>
   </g>
   <g id="matplotlib.axis_4">
    <g id="ytick_5">
     <g id="line2d_54">
      <path d="M 55.650084 200.184822 
L 515.39976 200.184822 
" clip-path="url(#p54676e675b)" style="fill: none; stroke: #b0b0b0; stroke-width: 0.8; stroke-linecap: round"/>
     </g>
     <g id="line2d_55"/>
     <g id="text_9">
      <!-- −1 -->
      <g style="fill: #262626" transform="translate(35.933678 204.363963) scale(0.11 -0.11)">
       <defs>
        <path id="DejaVuSerif-31" d="M 909 0 
L 909 331 
L 1722 331 
L 1722 4213 
L 781 3603 
L 781 4013 
L 1919 4750 
L 2350 4750 
L 2350 331 
L 3163 331 
L 3163 0 
L 909 0 
z
" transform="scale(0.015625)"/>
       </defs>
       <use xlink:href="#DejaVuSerif-2212"/>
       <use xlink:href="#DejaVuSerif-31" x="83.789062"/>
      </g>
     </g>
    </g>
    <g id="ytick_6">
     <g id="line2d_56">
      <path d="M 55.650084 172.370356 
L 515.39976 172.370356 
" clip-path="url(#p54676e675b)" style="fill: none; stroke: #b0b0b0; stroke-width: 0.8; stroke-linecap: round"/>
     </g>
     <g id="line2d_57"/>
     <g id="text_10">
      <!-- 0 -->
      <g style="fill: #262626" transform="translate(45.151334 176.549497) scale(0.11 -0.11)">
       <use xlink:href="#DejaVuSerif-30"/>
      </g>
     </g>
    </g>
    <g id="ytick_7">
     <g id="line2d_58">
      <path d="M 55.650084 144.55589 
L 515.39976 144.55589 
" clip-path="url(#p54676e675b)" style="fill: none; stroke: #b0b0b0; stroke-width: 0.8; stroke-linecap: round"/>
     </g>
     <g id="line2d_59"/>
     <g id="text_11">
      <!-- 1 -->
      <g style="fill: #262626" transform="translate(45.151334 148.735031) scale(0.11 -0.11)">
       <use xlink:href="#DejaVuSerif-31"/>
      </g>
     </g>
    </g>
    <g id="ytick_8">
     <g id="line2d_60">
      <path d="M 55.650084 116.741424 
L 515.39976 116.741424 
" clip-path="url(#p54676e675b)" style="fill: none; stroke: #b0b0b0; stroke-width: 0.8; stroke-linecap: round"/>
     </g>
     <g id="line2d_61"/>
     <g id="text_12">
      <!-- 2 -->
      <g style="fill: #262626" transform="translate(45.151334 120.920565) scale(0.11 -0.11)">
       <use xlink:href="#DejaVuSerif-32"/>
      </g>
     </g>
    </g>
    <g id="text_13">
     <!-- $1000 \cdot {Y'}_{(\bullet)}$ -->
     <g style="fill: #262626" transform="translate(29.073678 188.462406) rotate(-90) scale(0.11 -0.11)">
      <defs>
       <path id="DejaVuSans-Oblique-59" d="M 403 4666 
L 1081 4666 
L 1953 2747 
L 3616 4666 
L 4325 4666 
L 2209 2222 
L 1778 0 
L 1147 0 
L 1575 2222 
L 403 4666 
z
" transform="scale(0.015625)"/>
      </defs>
      <use xlink:href="#DejaVuSans-31" transform="translate(0 0.584375)"/>
      <use xlink:href="#DejaVuSans-30" transform="translate(63.623047 0.584375)"/>
      <use xlink:href="#DejaVuSans-30" transform="translate(127.246094 0.584375)"/>
      <use xlink:href="#DejaVuSans-30" transform="translate(190.869141 0.584375)"/>
      <use xlink:href="#DejaVuSans-22c5" transform="translate(273.974609 0.584375)"/>
      <use xlink:href="#DejaVuSans-Oblique-59" transform="translate(325.244141 0.584375)"/>
      <use xlink:href="#Cmsy10-30" transform="translate(393.344896 38.865625) scale(0.7)"/>
      <use xlink:href="#DejaVuSans-28" transform="translate(416.279466 -15.821875) scale(0.7)"/>
      <use xlink:href="#DejaVuSans-2219" transform="translate(443.589036 -15.821875) scale(0.7)"/>
      <use xlink:href="#DejaVuSans-29" transform="translate(487.407396 -15.821875) scale(0.7)"/>
     </g>
    </g>
   </g>
   <g id="line2d_62">
    <g clip-path="url(#p54676e675b)">
     <use xlink:href="#mefd3f452a1" x="76.547796" y="163.975364" style="fill: #ff0000; stroke: #ff0000"/>
     <use xlink:href="#mefd3f452a1" x="181.036359" y="155.228855" style="fill: #ff0000; stroke: #ff0000"/>
     <use xlink:href="#mefd3f452a1" x="494.502047" y="110.738761" style="fill: #ff0000; stroke: #ff0000"/>
    </g>
   </g>
   <g id="line2d_63">
    <g clip-path="url(#p54676e675b)">
     <use xlink:href="#meeb6acd4d0" x="76.547796" y="167.340759" style="fill: #008000; stroke: #008000"/>
     <use xlink:href="#meeb6acd4d0" x="181.036359" y="161.740248" style="fill: #008000; stroke: #008000"/>
     <use xlink:href="#meeb6acd4d0" x="494.502047" y="128.653579" style="fill: #008000; stroke: #008000"/>
    </g>
   </g>
   <g id="line2d_64">
    <g clip-path="url(#p54676e675b)">
     <use xlink:href="#mf30a8f3f36" x="76.547796" y="169.004961" style="fill: #0000ff; stroke: #0000ff"/>
     <use xlink:href="#mf30a8f3f36" x="181.036359" y="165.858964" style="fill: #0000ff; stroke: #0000ff"/>
     <use xlink:href="#mf30a8f3f36" x="494.502047" y="154.455538" style="fill: #0000ff; stroke: #0000ff"/>
    </g>
   </g>
   <g id="line2d_65">
    <path d="M 76.547796 160.841218 
L 181.036359 149.312191 
L 494.502047 114.265595 
" clip-path="url(#p54676e675b)" style="fill: none; stroke: #ff0000; stroke-width: 1.5; stroke-linecap: round"/>
   </g>
   <g id="line2d_66">
    <path d="M 76.547796 164.190321 
L 181.036359 156.018668 
L 494.502047 131.585173 
" clip-path="url(#p54676e675b)" style="fill: none; stroke: #008000; stroke-width: 1.5; stroke-linecap: round"/>
   </g>
   <g id="line2d_67">
    <path d="M 76.547796 169.021253 
L 181.036359 165.66388 
L 494.502047 155.050778 
" clip-path="url(#p54676e675b)" style="fill: none; stroke: #0000ff; stroke-width: 1.5; stroke-linecap: round"/>
   </g>
   <g id="patch_6">
    <path d="M 55.650084 209.206052 
L 55.650084 110.738761 
" style="fill: none; stroke: #000000; stroke-linejoin: miter; stroke-linecap: square"/>
   </g>
   <g id="patch_7">
    <path d="M 55.650084 209.206052 
L 515.39976 209.206052 
" style="fill: none; stroke: #000000; stroke-linejoin: miter; stroke-linecap: square"/>
   </g>
  </g>
  <g id="axes_3">
   <g id="patch_8">
    <path d="M 55.650084 313.673822 
L 515.39976 313.673822 
L 515.39976 215.206532 
L 55.650084 215.206532 
z
" style="fill: #ffffff"/>
   </g>
   <g id="matplotlib.axis_5">
    <g id="xtick_19">
     <g id="line2d_68">
      <path d="M 76.547796 313.673822 
L 76.547796 215.206532 
" clip-path="url(#p82d451f3c8)" style="fill: none; stroke: #b0b0b0; stroke-width: 0.8; stroke-linecap: round"/>
     </g>
     <g id="line2d_69"/>
     <g id="text_14">
      <!-- 2 -->
      <g style="fill: #262626" transform="translate(73.048421 325.532104) scale(0.11 -0.11)">
       <use xlink:href="#DejaVuSerif-32"/>
      </g>
     </g>
    </g>
    <g id="xtick_20">
     <g id="line2d_70">
      <path d="M 128.792078 313.673822 
L 128.792078 215.206532 
" clip-path="url(#p82d451f3c8)" style="fill: none; stroke: #b0b0b0; stroke-width: 0.8; stroke-linecap: round"/>
     </g>
     <g id="line2d_71"/>
     <g id="text_15">
      <!-- 3 -->
      <g style="fill: #262626" transform="translate(125.292703 325.532104) scale(0.11 -0.11)">
       <defs>
        <path id="DejaVuSerif-33" d="M 622 4469 
Q 988 4606 1323 4678 
Q 1659 4750 1953 4750 
Q 2638 4750 3022 4454 
Q 3406 4159 3406 3634 
Q 3406 3213 3140 2930 
Q 2875 2647 2388 2547 
Q 2963 2466 3280 2130 
Q 3597 1794 3597 1259 
Q 3597 606 3158 257 
Q 2719 -91 1894 -91 
Q 1528 -91 1179 -12 
Q 831 66 488 225 
L 488 1131 
L 838 1131 
Q 869 681 1141 450 
Q 1413 219 1906 219 
Q 2384 219 2661 495 
Q 2938 772 2938 1253 
Q 2938 1803 2653 2086 
Q 2369 2369 1819 2369 
L 1522 2369 
L 1522 2688 
L 1678 2688 
Q 2225 2688 2498 2914 
Q 2772 3141 2772 3597 
Q 2772 4006 2547 4223 
Q 2322 4441 1900 4441 
Q 1478 4441 1245 4241 
Q 1013 4041 972 3647 
L 622 3647 
L 622 4469 
z
" transform="scale(0.015625)"/>
       </defs>
       <use xlink:href="#DejaVuSerif-33"/>
      </g>
     </g>
    </g>
    <g id="xtick_21">
     <g id="line2d_72">
      <path d="M 181.036359 313.673822 
L 181.036359 215.206532 
" clip-path="url(#p82d451f3c8)" style="fill: none; stroke: #b0b0b0; stroke-width: 0.8; stroke-linecap: round"/>
     </g>
     <g id="line2d_73"/>
     <g id="text_16">
      <!-- 4 -->
      <g style="fill: #262626" transform="translate(177.536984 325.532104) scale(0.11 -0.11)">
       <defs>
        <path id="DejaVuSerif-34" d="M 2234 1581 
L 2234 4063 
L 641 1581 
L 2234 1581 
z
M 3609 0 
L 1484 0 
L 1484 331 
L 2234 331 
L 2234 1247 
L 197 1247 
L 197 1588 
L 2241 4750 
L 2859 4750 
L 2859 1581 
L 3750 1581 
L 3750 1247 
L 2859 1247 
L 2859 331 
L 3609 331 
L 3609 0 
z
" transform="scale(0.015625)"/>
       </defs>
       <use xlink:href="#DejaVuSerif-34"/>
      </g>
     </g>
    </g>
    <g id="xtick_22">
     <g id="line2d_74">
      <path d="M 233.28064 313.673822 
L 233.28064 215.206532 
" clip-path="url(#p82d451f3c8)" style="fill: none; stroke: #b0b0b0; stroke-width: 0.8; stroke-linecap: round"/>
     </g>
     <g id="line2d_75"/>
     <g id="text_17">
      <!-- 5 -->
      <g style="fill: #262626" transform="translate(229.781265 325.532104) scale(0.11 -0.11)">
       <use xlink:href="#DejaVuSerif-35"/>
      </g>
     </g>
    </g>
    <g id="xtick_23">
     <g id="line2d_76">
      <path d="M 285.524922 313.673822 
L 285.524922 215.206532 
" clip-path="url(#p82d451f3c8)" style="fill: none; stroke: #b0b0b0; stroke-width: 0.8; stroke-linecap: round"/>
     </g>
     <g id="line2d_77"/>
     <g id="text_18">
      <!-- 6 -->
      <g style="fill: #262626" transform="translate(282.025547 325.532104) scale(0.11 -0.11)">
       <defs>
        <path id="DejaVuSerif-36" d="M 2094 219 
Q 2534 219 2771 542 
Q 3009 866 3009 1472 
Q 3009 2078 2771 2401 
Q 2534 2725 2094 2725 
Q 1647 2725 1412 2412 
Q 1178 2100 1178 1509 
Q 1178 888 1415 553 
Q 1653 219 2094 219 
z
M 1075 2569 
Q 1288 2803 1556 2918 
Q 1825 3034 2163 3034 
Q 2859 3034 3264 2615 
Q 3669 2197 3669 1472 
Q 3669 763 3233 336 
Q 2797 -91 2069 -91 
Q 1278 -91 853 498 
Q 428 1088 428 2181 
Q 428 3406 931 4078 
Q 1434 4750 2350 4750 
Q 2597 4750 2869 4703 
Q 3141 4656 3425 4563 
L 3425 3794 
L 3072 3794 
Q 3034 4109 2831 4275 
Q 2628 4441 2284 4441 
Q 1678 4441 1381 3981 
Q 1084 3522 1075 2569 
z
" transform="scale(0.015625)"/>
       </defs>
       <use xlink:href="#DejaVuSerif-36"/>
      </g>
     </g>
    </g>
    <g id="xtick_24">
     <g id="line2d_78">
      <path d="M 337.769203 313.673822 
L 337.769203 215.206532 
" clip-path="url(#p82d451f3c8)" style="fill: none; stroke: #b0b0b0; stroke-width: 0.8; stroke-linecap: round"/>
     </g>
     <g id="line2d_79"/>
     <g id="text_19">
      <!-- 7 -->
      <g style="fill: #262626" transform="translate(334.269828 325.532104) scale(0.11 -0.11)">
       <defs>
        <path id="DejaVuSerif-37" d="M 3609 4347 
L 1784 0 
L 1319 0 
L 3059 4153 
L 903 4153 
L 903 3578 
L 538 3578 
L 538 4666 
L 3609 4666 
L 3609 4347 
z
" transform="scale(0.015625)"/>
       </defs>
       <use xlink:href="#DejaVuSerif-37"/>
      </g>
     </g>
    </g>
    <g id="xtick_25">
     <g id="line2d_80">
      <path d="M 390.013485 313.673822 
L 390.013485 215.206532 
" clip-path="url(#p82d451f3c8)" style="fill: none; stroke: #b0b0b0; stroke-width: 0.8; stroke-linecap: round"/>
     </g>
     <g id="line2d_81"/>
     <g id="text_20">
      <!-- 8 -->
      <g style="fill: #262626" transform="translate(386.51411 325.532104) scale(0.11 -0.11)">
       <defs>
        <path id="DejaVuSerif-38" d="M 2981 1275 
Q 2981 1775 2732 2051 
Q 2484 2328 2034 2328 
Q 1584 2328 1336 2051 
Q 1088 1775 1088 1275 
Q 1088 772 1336 495 
Q 1584 219 2034 219 
Q 2484 219 2732 495 
Q 2981 772 2981 1275 
z
M 2853 3541 
Q 2853 3966 2637 4203 
Q 2422 4441 2034 4441 
Q 1650 4441 1433 4203 
Q 1216 3966 1216 3541 
Q 1216 3113 1433 2875 
Q 1650 2638 2034 2638 
Q 2422 2638 2637 2875 
Q 2853 3113 2853 3541 
z
M 2516 2484 
Q 3047 2413 3344 2092 
Q 3641 1772 3641 1275 
Q 3641 619 3225 264 
Q 2809 -91 2034 -91 
Q 1263 -91 845 264 
Q 428 619 428 1275 
Q 428 1772 725 2092 
Q 1022 2413 1556 2484 
Q 1084 2569 832 2842 
Q 581 3116 581 3541 
Q 581 4103 968 4426 
Q 1356 4750 2034 4750 
Q 2713 4750 3100 4426 
Q 3488 4103 3488 3541 
Q 3488 3116 3236 2842 
Q 2984 2569 2516 2484 
z
" transform="scale(0.015625)"/>
       </defs>
       <use xlink:href="#DejaVuSerif-38"/>
      </g>
     </g>
    </g>
    <g id="xtick_26">
     <g id="line2d_82">
      <path d="M 442.257766 313.673822 
L 442.257766 215.206532 
" clip-path="url(#p82d451f3c8)" style="fill: none; stroke: #b0b0b0; stroke-width: 0.8; stroke-linecap: round"/>
     </g>
     <g id="line2d_83"/>
     <g id="text_21">
      <!-- 9 -->
      <g style="fill: #262626" transform="translate(438.758391 325.532104) scale(0.11 -0.11)">
       <defs>
        <path id="DejaVuSerif-39" d="M 2994 2091 
Q 2784 1856 2512 1740 
Q 2241 1625 1900 1625 
Q 1206 1625 804 2044 
Q 403 2463 403 3188 
Q 403 3897 839 4323 
Q 1275 4750 2003 4750 
Q 2794 4750 3217 4161 
Q 3641 3572 3641 2478 
Q 3641 1253 3137 581 
Q 2634 -91 1722 -91 
Q 1475 -91 1203 -44 
Q 931 3 647 97 
L 647 872 
L 997 872 
Q 1038 556 1241 387 
Q 1444 219 1784 219 
Q 2391 219 2687 676 
Q 2984 1134 2994 2091 
z
M 1978 4441 
Q 1534 4441 1298 4117 
Q 1063 3794 1063 3188 
Q 1063 2581 1298 2256 
Q 1534 1931 1978 1931 
Q 2422 1931 2658 2245 
Q 2894 2559 2894 3150 
Q 2894 3772 2656 4106 
Q 2419 4441 1978 4441 
z
" transform="scale(0.015625)"/>
       </defs>
       <use xlink:href="#DejaVuSerif-39"/>
      </g>
     </g>
    </g>
    <g id="xtick_27">
     <g id="line2d_84">
      <path d="M 494.502047 313.673822 
L 494.502047 215.206532 
" clip-path="url(#p82d451f3c8)" style="fill: none; stroke: #b0b0b0; stroke-width: 0.8; stroke-linecap: round"/>
     </g>
     <g id="line2d_85"/>
     <g id="text_22">
      <!-- 10 -->
      <g style="fill: #262626" transform="translate(487.503297 325.532104) scale(0.11 -0.11)">
       <use xlink:href="#DejaVuSerif-31"/>
       <use xlink:href="#DejaVuSerif-30" x="63.623047"/>
      </g>
     </g>
    </g>
    <g id="text_23">
     <!-- $\beta$ $[deg]$ -->
     <g style="fill: #262626" transform="translate(265.559922 340.28976) scale(0.11 -0.11)">
      <defs>
       <path id="DejaVuSans-Oblique-3b2" d="M 872 216 
L 572 -1331 
L -6 -1331 
L 928 3478 
Q 1206 4903 2538 4903 
Q 3888 4903 3659 3700 
Q 3503 2844 2894 2531 
Q 3713 2250 3553 1416 
Q 3272 -69 1759 -66 
Q 1097 -63 872 216 
z
M 1019 966 
Q 1259 422 1875 425 
Q 2775 425 2966 1406 
Q 3138 2288 1675 2219 
L 1778 2750 
Q 2909 2731 3106 3750 
Q 3241 4438 2509 4434 
Q 1691 4434 1503 3459 
L 1019 966 
z
" transform="scale(0.015625)"/>
       <path id="DejaVuSerif-20" transform="scale(0.015625)"/>
       <path id="DejaVuSans-5b" d="M 550 4863 
L 1875 4863 
L 1875 4416 
L 1125 4416 
L 1125 -397 
L 1875 -397 
L 1875 -844 
L 550 -844 
L 550 4863 
z
" transform="scale(0.015625)"/>
       <path id="DejaVuSans-Oblique-64" d="M 2675 525 
Q 2444 222 2128 65 
Q 1813 -91 1428 -91 
Q 903 -91 598 267 
Q 294 625 294 1247 
Q 294 1766 478 2236 
Q 663 2706 1013 3078 
Q 1244 3325 1534 3454 
Q 1825 3584 2144 3584 
Q 2481 3584 2739 3421 
Q 2997 3259 3138 2956 
L 3513 4863 
L 4091 4863 
L 3144 0 
L 2566 0 
L 2675 525 
z
M 891 1350 
Q 891 897 1095 644 
Q 1300 391 1663 391 
Q 1931 391 2161 520 
Q 2391 650 2566 903 
Q 2750 1166 2856 1509 
Q 2963 1853 2963 2188 
Q 2963 2622 2758 2865 
Q 2553 3109 2194 3109 
Q 1922 3109 1687 2981 
Q 1453 2853 1288 2613 
Q 1106 2353 998 2009 
Q 891 1666 891 1350 
z
" transform="scale(0.015625)"/>
       <path id="DejaVuSans-Oblique-65" d="M 3078 2063 
Q 3088 2113 3092 2166 
Q 3097 2219 3097 2272 
Q 3097 2653 2873 2875 
Q 2650 3097 2266 3097 
Q 1838 3097 1509 2826 
Q 1181 2556 1013 2059 
L 3078 2063 
z
M 3578 1613 
L 903 1613 
Q 884 1494 878 1425 
Q 872 1356 872 1306 
Q 872 872 1139 634 
Q 1406 397 1894 397 
Q 2269 397 2603 481 
Q 2938 566 3225 728 
L 3116 159 
Q 2806 34 2476 -28 
Q 2147 -91 1806 -91 
Q 1078 -91 686 257 
Q 294 606 294 1247 
Q 294 1794 489 2264 
Q 684 2734 1063 3103 
Q 1306 3334 1642 3459 
Q 1978 3584 2356 3584 
Q 2950 3584 3301 3228 
Q 3653 2872 3653 2272 
Q 3653 2128 3634 1964 
Q 3616 1800 3578 1613 
z
" transform="scale(0.015625)"/>
       <path id="DejaVuSans-Oblique-67" d="M 3816 3500 
L 3219 434 
Q 3047 -456 2561 -893 
Q 2075 -1331 1253 -1331 
Q 950 -1331 690 -1286 
Q 431 -1241 206 -1147 
L 313 -588 
Q 525 -725 762 -790 
Q 1000 -856 1269 -856 
Q 1816 -856 2167 -557 
Q 2519 -259 2631 300 
L 2681 563 
Q 2441 288 2122 144 
Q 1803 0 1434 0 
Q 903 0 598 351 
Q 294 703 294 1319 
Q 294 1803 478 2267 
Q 663 2731 997 3091 
Q 1219 3328 1514 3456 
Q 1809 3584 2131 3584 
Q 2484 3584 2746 3420 
Q 3009 3256 3138 2956 
L 3238 3500 
L 3816 3500 
z
M 2950 2216 
Q 2950 2641 2750 2872 
Q 2550 3103 2181 3103 
Q 1953 3103 1747 3012 
Q 1541 2922 1394 2759 
Q 1156 2491 1023 2127 
Q 891 1763 891 1375 
Q 891 944 1092 712 
Q 1294 481 1672 481 
Q 2219 481 2584 976 
Q 2950 1472 2950 2216 
z
" transform="scale(0.015625)"/>
       <path id="DejaVuSans-5d" d="M 1947 4863 
L 1947 -844 
L 622 -844 
L 622 -397 
L 1369 -397 
L 1369 4416 
L 622 4416 
L 622 4863 
L 1947 4863 
z
" transform="scale(0.015625)"/>
      </defs>
      <use xlink:href="#DejaVuSans-Oblique-3b2" transform="translate(0 0.390625)"/>
      <use xlink:href="#DejaVuSerif-20" transform="translate(63.818359 0.390625)"/>
      <use xlink:href="#DejaVuSans-5b" transform="translate(95.605469 0.390625)"/>
      <use xlink:href="#DejaVuSans-Oblique-64" transform="translate(134.619141 0.390625)"/>
      <use xlink:href="#DejaVuSans-Oblique-65" transform="translate(198.095703 0.390625)"/>
      <use xlink:href="#DejaVuSans-Oblique-67" transform="translate(259.619141 0.390625)"/>
      <use xlink:href="#DejaVuSans-5d" transform="translate(323.095703 0.390625)"/>
     </g>
    </g>
   </g>
   <g id="matplotlib.axis_6">
    <g id="ytick_9">
     <g id="line2d_86">
      <path d="M 55.650084 285.180379 
L 515.39976 285.180379 
" clip-path="url(#p82d451f3c8)" style="fill: none; stroke: #b0b0b0; stroke-width: 0.8; stroke-linecap: round"/>
     </g>
     <g id="line2d_87"/>
     <g id="text_24">
      <!-- 0.0 -->
      <g style="fill: #262626" transform="translate(34.656646 289.35952) scale(0.11 -0.11)">
       <use xlink:href="#DejaVuSerif-30"/>
       <use xlink:href="#DejaVuSerif-2e" x="63.623047"/>
       <use xlink:href="#DejaVuSerif-30" x="95.410156"/>
      </g>
     </g>
    </g>
    <g id="ytick_10">
     <g id="line2d_88">
      <path d="M 55.650084 239.256504 
L 515.39976 239.256504 
" clip-path="url(#p82d451f3c8)" style="fill: none; stroke: #b0b0b0; stroke-width: 0.8; stroke-linecap: round"/>
     </g>
     <g id="line2d_89"/>
     <g id="text_25">
      <!-- 0.5 -->
      <g style="fill: #262626" transform="translate(34.656646 243.435644) scale(0.11 -0.11)">
       <use xlink:href="#DejaVuSerif-30"/>
       <use xlink:href="#DejaVuSerif-2e" x="63.623047"/>
       <use xlink:href="#DejaVuSerif-35" x="95.410156"/>
      </g>
     </g>
    </g>
    <g id="text_26">
     <!-- $1000 \cdot {N'}_{(\bullet)}$ -->
     <g style="fill: #262626" transform="translate(27.796646 293.700177) rotate(-90) scale(0.11 -0.11)">
      <defs>
       <path id="DejaVuSans-Oblique-4e" d="M 1081 4666 
L 1931 4666 
L 3219 666 
L 4000 4666 
L 4616 4666 
L 3706 0 
L 2853 0 
L 1569 4025 
L 788 0 
L 172 0 
L 1081 4666 
z
" transform="scale(0.015625)"/>
      </defs>
      <use xlink:href="#DejaVuSans-31" transform="translate(0 0.584375)"/>
      <use xlink:href="#DejaVuSans-30" transform="translate(63.623047 0.584375)"/>
      <use xlink:href="#DejaVuSans-30" transform="translate(127.246094 0.584375)"/>
      <use xlink:href="#DejaVuSans-30" transform="translate(190.869141 0.584375)"/>
      <use xlink:href="#DejaVuSans-22c5" transform="translate(273.974609 0.584375)"/>
      <use xlink:href="#DejaVuSans-Oblique-4e" transform="translate(325.244141 0.584375)"/>
      <use xlink:href="#Cmsy10-30" transform="translate(407.065599 38.865625) scale(0.7)"/>
      <use xlink:href="#DejaVuSans-28" transform="translate(430.000169 -15.821875) scale(0.7)"/>
      <use xlink:href="#DejaVuSans-2219" transform="translate(457.30974 -15.821875) scale(0.7)"/>
      <use xlink:href="#DejaVuSans-29" transform="translate(501.128099 -15.821875) scale(0.7)"/>
     </g>
    </g>
   </g>
   <g id="line2d_90">
    <g clip-path="url(#p82d451f3c8)">
     <use xlink:href="#mefd3f452a1" x="76.547796" y="282.514657" style="fill: #ff0000; stroke: #ff0000"/>
     <use xlink:href="#mefd3f452a1" x="181.036359" y="277.565144" style="fill: #ff0000; stroke: #ff0000"/>
     <use xlink:href="#mefd3f452a1" x="494.502047" y="265.224452" style="fill: #ff0000; stroke: #ff0000"/>
    </g>
   </g>
   <g id="line2d_91">
    <g clip-path="url(#p82d451f3c8)">
     <use xlink:href="#meeb6acd4d0" x="76.547796" y="277.158192" style="fill: #008000; stroke: #008000"/>
     <use xlink:href="#meeb6acd4d0" x="181.036359" y="267.204383" style="fill: #008000; stroke: #008000"/>
     <use xlink:href="#meeb6acd4d0" x="494.502047" y="236.731009" style="fill: #008000; stroke: #008000"/>
    </g>
   </g>
   <g id="line2d_92">
    <g clip-path="url(#p82d451f3c8)">
     <use xlink:href="#mf30a8f3f36" x="76.547796" y="290.536845" style="fill: #0000ff; stroke: #0000ff"/>
     <use xlink:href="#mf30a8f3f36" x="181.036359" y="295.54114" style="fill: #0000ff; stroke: #0000ff"/>
     <use xlink:href="#mf30a8f3f36" x="494.502047" y="313.673822" style="fill: #0000ff; stroke: #0000ff"/>
    </g>
   </g>
   <g id="line2d_93">
    <path d="M 76.547796 280.981666 
L 181.036359 276.810486 
L 494.502047 265.47882 
" clip-path="url(#p82d451f3c8)" style="fill: none; stroke: #ff0000; stroke-width: 1.5; stroke-linecap: round"/>
   </g>
   <g id="line2d_94">
    <path d="M 76.547796 275.578364 
L 181.036359 265.990538 
L 494.502047 237.536136 
" clip-path="url(#p82d451f3c8)" style="fill: none; stroke: #008000; stroke-width: 1.5; stroke-linecap: round"/>
   </g>
   <g id="line2d_95">
    <path d="M 76.547796 290.583682 
L 181.036359 296.000328 
L 494.502047 313.123063 
" clip-path="url(#p82d451f3c8)" style="fill: none; stroke: #0000ff; stroke-width: 1.5; stroke-linecap: round"/>
   </g>
   <g id="patch_9">
    <path d="M 55.650084 313.673822 
L 55.650084 215.206532 
" style="fill: none; stroke: #000000; stroke-linejoin: miter; stroke-linecap: square"/>
   </g>
   <g id="patch_10">
    <path d="M 55.650084 313.673822 
L 515.39976 313.673822 
" style="fill: none; stroke: #000000; stroke-linejoin: miter; stroke-linecap: square"/>
   </g>
  </g>
 </g>
 <defs>
  <clipPath id="p35706b4e61">
   <rect x="55.650084" y="6.27099" width="459.749676" height="98.467291"/>
  </clipPath>
  <clipPath id="p54676e675b">
   <rect x="55.650084" y="110.738761" width="459.749676" height="98.467291"/>
  </clipPath>
  <clipPath id="p82d451f3c8">
   <rect x="55.650084" y="215.206532" width="459.749676" height="98.467291"/>
  </clipPath>
 </defs>
</svg>
