<?xml version="1.0" encoding="utf-8" standalone="no"?>
<!DOCTYPE svg PUBLIC "-//W3C//DTD SVG 1.1//EN"
  "http://www.w3.org/Graphics/SVG/1.1/DTD/svg11.dtd">
<svg xmlns:xlink="http://www.w3.org/1999/xlink" width="518.4pt" height="345.6pt" viewBox="0 0 518.4 345.6" xmlns="http://www.w3.org/2000/svg" version="1.1">
 <metadata>
  <rdf:RDF xmlns:dc="http://purl.org/dc/elements/1.1/" xmlns:cc="http://creativecommons.org/ns#" xmlns:rdf="http://www.w3.org/1999/02/22-rdf-syntax-ns#">
   <cc:Work>
    <dc:type rdf:resource="http://purl.org/dc/dcmitype/StillImage"/>
    <dc:date>2024-02-05T08:14:27.679534</dc:date>
    <dc:format>image/svg+xml</dc:format>
    <dc:creator>
     <cc:Agent>
      <dc:title>Matplotlib v3.8.2, https://matplotlib.org/</dc:title>
     </cc:Agent>
    </dc:creator>
   </cc:Work>
  </rdf:RDF>
 </metadata>
 <defs>
  <style type="text/css">*{stroke-linejoin: round; stroke-linecap: butt}</style>
 </defs>
 <g id="figure_1">
  <g id="patch_1">
   <path d="M 0 345.6 
L 518.4 345.6 
L 518.4 0 
L 0 0 
z
" style="fill: #ffffff"/>
  </g>
  <g id="axes_1">
   <g id="patch_2">
    <path d="M 55.650084 104.782696 
L 515.39976 104.782696 
L 515.39976 6.270582 
L 55.650084 6.270582 
z
" style="fill: #ffffff"/>
   </g>
   <g id="matplotlib.axis_1">
    <g id="xtick_1">
     <g id="line2d_1">
      <path d="M 143.420476 104.782696 
L 143.420476 6.270582 
" clip-path="url(#p87d2452047)" style="fill: none; stroke: #b0b0b0; stroke-width: 0.8; stroke-linecap: round"/>
     </g>
     <g id="line2d_2"/>
    </g>
    <g id="xtick_2">
     <g id="line2d_3">
      <path d="M 243.729497 104.782696 
L 243.729497 6.270582 
" clip-path="url(#p87d2452047)" style="fill: none; stroke: #b0b0b0; stroke-width: 0.8; stroke-linecap: round"/>
     </g>
     <g id="line2d_4"/>
    </g>
    <g id="xtick_3">
     <g id="line2d_5">
      <path d="M 344.038517 104.782696 
L 344.038517 6.270582 
" clip-path="url(#p87d2452047)" style="fill: none; stroke: #b0b0b0; stroke-width: 0.8; stroke-linecap: round"/>
     </g>
     <g id="line2d_6"/>
    </g>
    <g id="xtick_4">
     <g id="line2d_7">
      <path d="M 444.347537 104.782696 
L 444.347537 6.270582 
" clip-path="url(#p87d2452047)" style="fill: none; stroke: #b0b0b0; stroke-width: 0.8; stroke-linecap: round"/>
     </g>
     <g id="line2d_8"/>
    </g>
   </g>
   <g id="matplotlib.axis_2">
    <g id="ytick_1">
     <g id="line2d_9">
      <path d="M 55.650084 93.360562 
L 515.39976 93.360562 
" clip-path="url(#p87d2452047)" style="fill: none; stroke: #b0b0b0; stroke-width: 0.8; stroke-linecap: round"/>
     </g>
     <g id="line2d_10"/>
     <g id="text_1">
      <!-- −0.50 -->
      <g style="fill: #262626" transform="translate(18.44024 97.539702) scale(0.11 -0.11)">
       <defs>
        <path id="DejaVuSerif-2212" d="M 678 2259 
L 4684 2259 
L 4684 1753 
L 678 1753 
L 678 2259 
z
" transform="scale(0.015625)"/>
        <path id="DejaVuSerif-30" d="M 2034 219 
Q 2513 219 2750 744 
Q 2988 1269 2988 2328 
Q 2988 3391 2750 3916 
Q 2513 4441 2034 4441 
Q 1556 4441 1318 3916 
Q 1081 3391 1081 2328 
Q 1081 1269 1318 744 
Q 1556 219 2034 219 
z
M 2034 -91 
Q 1275 -91 848 546 
Q 422 1184 422 2328 
Q 422 3475 848 4112 
Q 1275 4750 2034 4750 
Q 2797 4750 3222 4112 
Q 3647 3475 3647 2328 
Q 3647 1184 3222 546 
Q 2797 -91 2034 -91 
z
" transform="scale(0.015625)"/>
        <path id="DejaVuSerif-2e" d="M 603 325 
Q 603 500 722 622 
Q 841 744 1019 744 
Q 1191 744 1312 622 
Q 1434 500 1434 325 
Q 1434 153 1312 31 
Q 1191 -91 1019 -91 
Q 841 -91 722 29 
Q 603 150 603 325 
z
" transform="scale(0.015625)"/>
        <path id="DejaVuSerif-35" d="M 3219 4666 
L 3219 4153 
L 1081 4153 
L 1081 2816 
Q 1244 2928 1461 2984 
Q 1678 3041 1947 3041 
Q 2703 3041 3140 2622 
Q 3578 2203 3578 1478 
Q 3578 738 3136 323 
Q 2694 -91 1894 -91 
Q 1572 -91 1234 -12 
Q 897 66 544 225 
L 544 1131 
L 897 1131 
Q 925 688 1179 453 
Q 1434 219 1894 219 
Q 2388 219 2653 544 
Q 2919 869 2919 1478 
Q 2919 2084 2655 2407 
Q 2391 2731 1894 2731 
Q 1613 2731 1398 2631 
Q 1184 2531 1019 2322 
L 750 2322 
L 750 4666 
L 3219 4666 
z
" transform="scale(0.015625)"/>
       </defs>
       <use xlink:href="#DejaVuSerif-2212"/>
       <use xlink:href="#DejaVuSerif-30" x="83.789062"/>
       <use xlink:href="#DejaVuSerif-2e" x="147.412109"/>
       <use xlink:href="#DejaVuSerif-35" x="179.199219"/>
       <use xlink:href="#DejaVuSerif-30" x="242.822266"/>
      </g>
     </g>
    </g>
    <g id="ytick_2">
     <g id="line2d_11">
      <path d="M 55.650084 64.630186 
L 515.39976 64.630186 
" clip-path="url(#p87d2452047)" style="fill: none; stroke: #b0b0b0; stroke-width: 0.8; stroke-linecap: round"/>
     </g>
     <g id="line2d_12"/>
     <g id="text_2">
      <!-- −0.25 -->
      <g style="fill: #262626" transform="translate(18.44024 68.809326) scale(0.11 -0.11)">
       <defs>
        <path id="DejaVuSerif-32" d="M 819 3553 
L 469 3553 
L 469 4384 
Q 803 4563 1142 4656 
Q 1481 4750 1806 4750 
Q 2534 4750 2956 4397 
Q 3378 4044 3378 3438 
Q 3378 2753 2422 1800 
Q 2347 1728 2309 1691 
L 1131 513 
L 3078 513 
L 3078 1088 
L 3444 1088 
L 3444 0 
L 434 0 
L 434 341 
L 1850 1753 
Q 2319 2222 2519 2614 
Q 2719 3006 2719 3438 
Q 2719 3909 2473 4175 
Q 2228 4441 1797 4441 
Q 1350 4441 1106 4219 
Q 863 3997 819 3553 
z
" transform="scale(0.015625)"/>
       </defs>
       <use xlink:href="#DejaVuSerif-2212"/>
       <use xlink:href="#DejaVuSerif-30" x="83.789062"/>
       <use xlink:href="#DejaVuSerif-2e" x="147.412109"/>
       <use xlink:href="#DejaVuSerif-32" x="179.199219"/>
       <use xlink:href="#DejaVuSerif-35" x="242.822266"/>
      </g>
     </g>
    </g>
    <g id="ytick_3">
     <g id="line2d_13">
      <path d="M 55.650084 35.89981 
L 515.39976 35.89981 
" clip-path="url(#p87d2452047)" style="fill: none; stroke: #b0b0b0; stroke-width: 0.8; stroke-linecap: round"/>
     </g>
     <g id="line2d_14"/>
     <g id="text_3">
      <!-- 0.00 -->
      <g style="fill: #262626" transform="translate(27.657896 40.078951) scale(0.11 -0.11)">
       <use xlink:href="#DejaVuSerif-30"/>
       <use xlink:href="#DejaVuSerif-2e" x="63.623047"/>
       <use xlink:href="#DejaVuSerif-30" x="95.410156"/>
       <use xlink:href="#DejaVuSerif-30" x="159.033203"/>
      </g>
     </g>
    </g>
    <g id="ytick_4">
     <g id="line2d_15">
      <path d="M 55.650084 7.169434 
L 515.39976 7.169434 
" clip-path="url(#p87d2452047)" style="fill: none; stroke: #b0b0b0; stroke-width: 0.8; stroke-linecap: round"/>
     </g>
     <g id="line2d_16"/>
     <g id="text_4">
      <!-- 0.25 -->
      <g style="fill: #262626" transform="translate(27.657896 11.348575) scale(0.11 -0.11)">
       <use xlink:href="#DejaVuSerif-30"/>
       <use xlink:href="#DejaVuSerif-2e" x="63.623047"/>
       <use xlink:href="#DejaVuSerif-32" x="95.410156"/>
       <use xlink:href="#DejaVuSerif-35" x="159.033203"/>
      </g>
     </g>
    </g>
    <g id="text_5">
     <!-- $1000 \cdot {X'}_{(\bullet)}$ -->
     <g style="fill: #262626" transform="translate(11.58024 84.401639) rotate(-90) scale(0.11 -0.11)">
      <defs>
       <path id="DejaVuSans-31" d="M 794 531 
L 1825 531 
L 1825 4091 
L 703 3866 
L 703 4441 
L 1819 4666 
L 2450 4666 
L 2450 531 
L 3481 531 
L 3481 0 
L 794 0 
L 794 531 
z
" transform="scale(0.015625)"/>
       <path id="DejaVuSans-30" d="M 2034 4250 
Q 1547 4250 1301 3770 
Q 1056 3291 1056 2328 
Q 1056 1369 1301 889 
Q 1547 409 2034 409 
Q 2525 409 2770 889 
Q 3016 1369 3016 2328 
Q 3016 3291 2770 3770 
Q 2525 4250 2034 4250 
z
M 2034 4750 
Q 2819 4750 3233 4129 
Q 3647 3509 3647 2328 
Q 3647 1150 3233 529 
Q 2819 -91 2034 -91 
Q 1250 -91 836 529 
Q 422 1150 422 2328 
Q 422 3509 836 4129 
Q 1250 4750 2034 4750 
z
" transform="scale(0.015625)"/>
       <path id="DejaVuSans-22c5" d="M 684 2619 
L 1344 2619 
L 1344 1825 
L 684 1825 
L 684 2619 
z
" transform="scale(0.015625)"/>
       <path id="DejaVuSans-Oblique-58" d="M 878 4666 
L 1516 4666 
L 2316 2981 
L 3763 4666 
L 4500 4666 
L 2578 2438 
L 3738 0 
L 3103 0 
L 2163 1966 
L 459 0 
L -275 0 
L 1906 2509 
L 878 4666 
z
" transform="scale(0.015625)"/>
       <path id="Cmsy10-30" d="M 225 347 
Q 184 359 184 409 
L 966 3316 
Q 1003 3434 1093 3506 
Q 1184 3578 1300 3578 
Q 1450 3578 1564 3479 
Q 1678 3381 1678 3231 
Q 1678 3166 1644 3084 
L 488 319 
Q 466 275 428 275 
Q 394 275 320 306 
Q 247 338 225 347 
z
" transform="scale(0.015625)"/>
       <path id="DejaVuSans-28" d="M 1984 4856 
Q 1566 4138 1362 3434 
Q 1159 2731 1159 2009 
Q 1159 1288 1364 580 
Q 1569 -128 1984 -844 
L 1484 -844 
Q 1016 -109 783 600 
Q 550 1309 550 2009 
Q 550 2706 781 3412 
Q 1013 4119 1484 4856 
L 1984 4856 
z
" transform="scale(0.015625)"/>
       <path id="DejaVuSans-2219" d="M 1075 2006 
Q 1075 2394 1345 2661 
Q 1616 2928 2009 2928 
Q 2397 2928 2664 2661 
Q 2931 2394 2931 2006 
Q 2931 1616 2662 1347 
Q 2394 1078 2003 1078 
Q 1613 1078 1344 1347 
Q 1075 1616 1075 2006 
z
" transform="scale(0.015625)"/>
       <path id="DejaVuSans-29" d="M 513 4856 
L 1013 4856 
Q 1481 4119 1714 3412 
Q 1947 2706 1947 2009 
Q 1947 1309 1714 600 
Q 1481 -109 1013 -844 
L 513 -844 
Q 928 -128 1133 580 
Q 1338 1288 1338 2009 
Q 1338 2731 1133 3434 
Q 928 4138 513 4856 
z
" transform="scale(0.015625)"/>
      </defs>
      <use xlink:href="#DejaVuSans-31" transform="translate(0 0.584375)"/>
      <use xlink:href="#DejaVuSans-30" transform="translate(63.623047 0.584375)"/>
      <use xlink:href="#DejaVuSans-30" transform="translate(127.246094 0.584375)"/>
      <use xlink:href="#DejaVuSans-30" transform="translate(190.869141 0.584375)"/>
      <use xlink:href="#DejaVuSans-22c5" transform="translate(273.974609 0.584375)"/>
      <use xlink:href="#DejaVuSans-Oblique-58" transform="translate(325.244141 0.584375)"/>
      <use xlink:href="#Cmsy10-30" transform="translate(400.766771 38.865625) scale(0.7)"/>
      <use xlink:href="#DejaVuSans-28" transform="translate(423.701341 -15.821875) scale(0.7)"/>
      <use xlink:href="#DejaVuSans-2219" transform="translate(451.010911 -15.821875) scale(0.7)"/>
      <use xlink:href="#DejaVuSans-29" transform="translate(494.829271 -15.821875) scale(0.7)"/>
     </g>
    </g>
   </g>
   <g id="line2d_17">
    <defs>
     <path id="ma0a452d7fa" d="M -3 3 
L 3 -3 
M -3 -3 
L 3 3 
" style="stroke: #ff0000"/>
    </defs>
    <g clip-path="url(#p87d2452047)">
     <use xlink:href="#ma0a452d7fa" x="76.547796" y="30.216688" style="fill: #ff0000; stroke: #ff0000"/>
     <use xlink:href="#ma0a452d7fa" x="243.729497" y="30.05286" style="fill: #ff0000; stroke: #ff0000"/>
     <use xlink:href="#ma0a452d7fa" x="494.502047" y="35.750703" style="fill: #ff0000; stroke: #ff0000"/>
    </g>
   </g>
   <g id="line2d_18">
    <defs>
     <path id="m77cb154385" d="M -3 3 
L 3 -3 
M -3 -3 
L 3 3 
" style="stroke: #008000"/>
    </defs>
    <g clip-path="url(#p87d2452047)">
     <use xlink:href="#m77cb154385" x="76.547796" y="104.782696" style="fill: #008000; stroke: #008000"/>
     <use xlink:href="#m77cb154385" x="243.729497" y="102.189702" style="fill: #008000; stroke: #008000"/>
     <use xlink:href="#m77cb154385" x="494.502047" y="101.469757" style="fill: #008000; stroke: #008000"/>
    </g>
   </g>
   <g id="line2d_19">
    <defs>
     <path id="m624565ba72" d="M -3 3 
L 3 -3 
M -3 -3 
L 3 3 
" style="stroke: #0000ff"/>
    </defs>
    <g clip-path="url(#p87d2452047)">
     <use xlink:href="#m624565ba72" x="76.547796" y="41.848735" style="fill: #0000ff; stroke: #0000ff"/>
     <use xlink:href="#m624565ba72" x="243.729497" y="44.355203" style="fill: #0000ff; stroke: #0000ff"/>
     <use xlink:href="#m624565ba72" x="494.502047" y="46.953845" style="fill: #0000ff; stroke: #0000ff"/>
    </g>
   </g>
   <g id="line2d_20">
    <path d="M 76.547796 23.850681 
L 243.729497 25.558553 
L 494.502047 30.654777 
" clip-path="url(#p87d2452047)" style="fill: none; stroke: #ff0000; stroke-width: 1.5; stroke-linecap: round"/>
   </g>
   <g id="line2d_21">
    <path d="M 76.547796 103.523263 
L 243.729497 101.831082 
L 494.502047 100.199337 
" clip-path="url(#p87d2452047)" style="fill: none; stroke: #008000; stroke-width: 1.5; stroke-linecap: round"/>
   </g>
   <g id="line2d_22">
    <path d="M 76.547796 40.863759 
L 243.729497 44.345071 
L 494.502047 47.058389 
" clip-path="url(#p87d2452047)" style="fill: none; stroke: #0000ff; stroke-width: 1.5; stroke-linecap: round"/>
   </g>
   <g id="patch_3">
    <path d="M 55.650084 104.782696 
L 55.650084 6.270582 
" style="fill: none; stroke: #000000; stroke-linejoin: miter; stroke-linecap: square"/>
   </g>
   <g id="patch_4">
    <path d="M 55.650084 104.782696 
L 515.39976 104.782696 
" style="fill: none; stroke: #000000; stroke-linejoin: miter; stroke-linecap: square"/>
   </g>
   <g id="legend_1">
    <g id="line2d_23">
     <path d="M 65.550084 56.453165 
L 76.550084 56.453165 
L 87.550084 56.453165 
" style="fill: none; stroke: #ff0000; stroke-width: 1.5; stroke-linecap: round"/>
    </g>
    <g id="text_6">
     <!-- D -->
     <g style="fill: #262626" transform="translate(96.350084 60.303165) scale(0.11 -0.11)">
      <defs>
       <path id="DejaVuSerif-44" d="M 1581 331 
L 2163 331 
Q 3072 331 3558 850 
Q 4044 1369 4044 2338 
Q 4044 3306 3559 3818 
Q 3075 4331 2163 4331 
L 1581 4331 
L 1581 331 
z
M 353 0 
L 353 331 
L 947 331 
L 947 4331 
L 353 4331 
L 353 4666 
L 2209 4666 
Q 3416 4666 4089 4050 
Q 4763 3434 4763 2338 
Q 4763 1238 4088 619 
Q 3413 0 2209 0 
L 353 0 
z
" transform="scale(0.015625)"/>
      </defs>
      <use xlink:href="#DejaVuSerif-44"/>
     </g>
    </g>
    <g id="line2d_24">
     <path d="M 65.550084 72.599103 
L 76.550084 72.599103 
L 87.550084 72.599103 
" style="fill: none; stroke: #008000; stroke-width: 1.5; stroke-linecap: round"/>
    </g>
    <g id="text_7">
     <!-- H -->
     <g style="fill: #262626" transform="translate(96.350084 76.449103) scale(0.11 -0.11)">
      <defs>
       <path id="DejaVuSerif-48" d="M 353 0 
L 353 331 
L 947 331 
L 947 4331 
L 353 4331 
L 353 4666 
L 2175 4666 
L 2175 4331 
L 1581 4331 
L 1581 2719 
L 4000 2719 
L 4000 4331 
L 3406 4331 
L 3406 4666 
L 5228 4666 
L 5228 4331 
L 4634 4331 
L 4634 331 
L 5228 331 
L 5228 0 
L 3406 0 
L 3406 331 
L 4000 331 
L 4000 2338 
L 1581 2338 
L 1581 331 
L 2175 331 
L 2175 0 
L 353 0 
z
" transform="scale(0.015625)"/>
      </defs>
      <use xlink:href="#DejaVuSerif-48"/>
     </g>
    </g>
    <g id="line2d_25">
     <path d="M 65.550084 88.74504 
L 76.550084 88.74504 
L 87.550084 88.74504 
" style="fill: none; stroke: #0000ff; stroke-width: 1.5; stroke-linecap: round"/>
    </g>
    <g id="text_8">
     <!-- R -->
     <g style="fill: #262626" transform="translate(96.350084 92.59504) scale(0.11 -0.11)">
      <defs>
       <path id="DejaVuSerif-52" d="M 3066 2316 
Q 3284 2256 3442 2114 
Q 3600 1972 3725 1716 
L 4403 331 
L 4972 331 
L 4972 0 
L 3872 0 
L 3144 1484 
Q 2934 1916 2759 2042 
Q 2584 2169 2278 2169 
L 1581 2169 
L 1581 331 
L 2241 331 
L 2241 0 
L 353 0 
L 353 331 
L 947 331 
L 947 4331 
L 353 4331 
L 353 4666 
L 2719 4666 
Q 3400 4666 3770 4341 
Q 4141 4016 4141 3419 
Q 4141 2938 3870 2661 
Q 3600 2384 3066 2316 
z
M 1581 2503 
L 2503 2503 
Q 2975 2503 3200 2726 
Q 3425 2950 3425 3419 
Q 3425 3888 3200 4109 
Q 2975 4331 2503 4331 
L 1581 4331 
L 1581 2503 
z
" transform="scale(0.015625)"/>
      </defs>
      <use xlink:href="#DejaVuSerif-52"/>
     </g>
    </g>
   </g>
  </g>
  <g id="axes_2">
   <g id="patch_5">
    <path d="M 55.650084 209.295291 
L 515.39976 209.295291 
L 515.39976 110.783176 
L 55.650084 110.783176 
z
" style="fill: #ffffff"/>
   </g>
   <g id="matplotlib.axis_3">
    <g id="xtick_5">
     <g id="line2d_26">
      <path d="M 143.420476 209.295291 
L 143.420476 110.783176 
" clip-path="url(#p96a6aa40fc)" style="fill: none; stroke: #b0b0b0; stroke-width: 0.8; stroke-linecap: round"/>
     </g>
     <g id="line2d_27"/>
    </g>
    <g id="xtick_6">
     <g id="line2d_28">
      <path d="M 243.729497 209.295291 
L 243.729497 110.783176 
" clip-path="url(#p96a6aa40fc)" style="fill: none; stroke: #b0b0b0; stroke-width: 0.8; stroke-linecap: round"/>
     </g>
     <g id="line2d_29"/>
    </g>
    <g id="xtick_7">
     <g id="line2d_30">
      <path d="M 344.038517 209.295291 
L 344.038517 110.783176 
" clip-path="url(#p96a6aa40fc)" style="fill: none; stroke: #b0b0b0; stroke-width: 0.8; stroke-linecap: round"/>
     </g>
     <g id="line2d_31"/>
    </g>
    <g id="xtick_8">
     <g id="line2d_32">
      <path d="M 444.347537 209.295291 
L 444.347537 110.783176 
" clip-path="url(#p96a6aa40fc)" style="fill: none; stroke: #b0b0b0; stroke-width: 0.8; stroke-linecap: round"/>
     </g>
     <g id="line2d_33"/>
    </g>
   </g>
   <g id="matplotlib.axis_4">
    <g id="ytick_5">
     <g id="line2d_34">
      <path d="M 55.650084 200.269955 
L 515.39976 200.269955 
" clip-path="url(#p96a6aa40fc)" style="fill: none; stroke: #b0b0b0; stroke-width: 0.8; stroke-linecap: round"/>
     </g>
     <g id="line2d_35"/>
     <g id="text_9">
      <!-- −1 -->
      <g style="fill: #262626" transform="translate(35.933678 204.449095) scale(0.11 -0.11)">
       <defs>
        <path id="DejaVuSerif-31" d="M 909 0 
L 909 331 
L 1722 331 
L 1722 4213 
L 781 3603 
L 781 4013 
L 1919 4750 
L 2350 4750 
L 2350 331 
L 3163 331 
L 3163 0 
L 909 0 
z
" transform="scale(0.015625)"/>
       </defs>
       <use xlink:href="#DejaVuSerif-2212"/>
       <use xlink:href="#DejaVuSerif-31" x="83.789062"/>
      </g>
     </g>
    </g>
    <g id="ytick_6">
     <g id="line2d_36">
      <path d="M 55.650084 172.442827 
L 515.39976 172.442827 
" clip-path="url(#p96a6aa40fc)" style="fill: none; stroke: #b0b0b0; stroke-width: 0.8; stroke-linecap: round"/>
     </g>
     <g id="line2d_37"/>
     <g id="text_10">
      <!-- 0 -->
      <g style="fill: #262626" transform="translate(45.151334 176.621968) scale(0.11 -0.11)">
       <use xlink:href="#DejaVuSerif-30"/>
      </g>
     </g>
    </g>
    <g id="ytick_7">
     <g id="line2d_38">
      <path d="M 55.650084 144.6157 
L 515.39976 144.6157 
" clip-path="url(#p96a6aa40fc)" style="fill: none; stroke: #b0b0b0; stroke-width: 0.8; stroke-linecap: round"/>
     </g>
     <g id="line2d_39"/>
     <g id="text_11">
      <!-- 1 -->
      <g style="fill: #262626" transform="translate(45.151334 148.794841) scale(0.11 -0.11)">
       <use xlink:href="#DejaVuSerif-31"/>
      </g>
     </g>
    </g>
    <g id="ytick_8">
     <g id="line2d_40">
      <path d="M 55.650084 116.788572 
L 515.39976 116.788572 
" clip-path="url(#p96a6aa40fc)" style="fill: none; stroke: #b0b0b0; stroke-width: 0.8; stroke-linecap: round"/>
     </g>
     <g id="line2d_41"/>
     <g id="text_12">
      <!-- 2 -->
      <g style="fill: #262626" transform="translate(45.151334 120.967713) scale(0.11 -0.11)">
       <use xlink:href="#DejaVuSerif-32"/>
      </g>
     </g>
    </g>
    <g id="text_13">
     <!-- $1000 \cdot {Y'}_{(\bullet)}$ -->
     <g style="fill: #262626" transform="translate(29.073678 188.529234) rotate(-90) scale(0.11 -0.11)">
      <defs>
       <path id="DejaVuSans-Oblique-59" d="M 403 4666 
L 1081 4666 
L 1953 2747 
L 3616 4666 
L 4325 4666 
L 2209 2222 
L 1778 0 
L 1147 0 
L 1575 2222 
L 403 4666 
z
" transform="scale(0.015625)"/>
      </defs>
      <use xlink:href="#DejaVuSans-31" transform="translate(0 0.584375)"/>
      <use xlink:href="#DejaVuSans-30" transform="translate(63.623047 0.584375)"/>
      <use xlink:href="#DejaVuSans-30" transform="translate(127.246094 0.584375)"/>
      <use xlink:href="#DejaVuSans-30" transform="translate(190.869141 0.584375)"/>
      <use xlink:href="#DejaVuSans-22c5" transform="translate(273.974609 0.584375)"/>
      <use xlink:href="#DejaVuSans-Oblique-59" transform="translate(325.244141 0.584375)"/>
      <use xlink:href="#Cmsy10-30" transform="translate(393.344896 38.865625) scale(0.7)"/>
      <use xlink:href="#DejaVuSans-28" transform="translate(416.279466 -15.821875) scale(0.7)"/>
      <use xlink:href="#DejaVuSans-2219" transform="translate(443.589036 -15.821875) scale(0.7)"/>
      <use xlink:href="#DejaVuSans-29" transform="translate(487.407396 -15.821875) scale(0.7)"/>
     </g>
    </g>
   </g>
   <g id="line2d_42">
    <g clip-path="url(#p96a6aa40fc)">
     <use xlink:href="#ma0a452d7fa" x="76.547796" y="201.935626" style="fill: #ff0000; stroke: #ff0000"/>
     <use xlink:href="#ma0a452d7fa" x="243.729497" y="194.637418" style="fill: #ff0000; stroke: #ff0000"/>
     <use xlink:href="#ma0a452d7fa" x="494.502047" y="183.228671" style="fill: #ff0000; stroke: #ff0000"/>
    </g>
   </g>
   <g id="line2d_43">
    <g clip-path="url(#p96a6aa40fc)">
     <use xlink:href="#m77cb154385" x="76.547796" y="177.212545" style="fill: #008000; stroke: #008000"/>
     <use xlink:href="#m77cb154385" x="243.729497" y="176.756424" style="fill: #008000; stroke: #008000"/>
     <use xlink:href="#m77cb154385" x="494.502047" y="174.952881" style="fill: #008000; stroke: #008000"/>
    </g>
   </g>
   <g id="line2d_44">
    <g clip-path="url(#p96a6aa40fc)">
     <use xlink:href="#m624565ba72" x="76.547796" y="197.165908" style="fill: #0000ff; stroke: #0000ff"/>
     <use xlink:href="#m624565ba72" x="243.729497" y="190.323821" style="fill: #0000ff; stroke: #0000ff"/>
     <use xlink:href="#m624565ba72" x="494.502047" y="180.718617" style="fill: #0000ff; stroke: #0000ff"/>
    </g>
   </g>
   <g id="line2d_45">
    <path d="M 76.547796 201.182255 
L 243.729497 192.503089 
L 494.502047 181.640443 
" clip-path="url(#p96a6aa40fc)" style="fill: none; stroke: #ff0000; stroke-width: 1.5; stroke-linecap: round"/>
   </g>
   <g id="line2d_46">
    <path d="M 76.547796 175.709584 
L 243.729497 174.723039 
L 494.502047 173.488303 
" clip-path="url(#p96a6aa40fc)" style="fill: none; stroke: #008000; stroke-width: 1.5; stroke-linecap: round"/>
   </g>
   <g id="line2d_47">
    <path d="M 76.547796 197.915499 
L 243.729497 190.222877 
L 494.502047 180.594968 
" clip-path="url(#p96a6aa40fc)" style="fill: none; stroke: #0000ff; stroke-width: 1.5; stroke-linecap: round"/>
   </g>
   <g id="patch_6">
    <path d="M 55.650084 209.295291 
L 55.650084 110.783176 
" style="fill: none; stroke: #000000; stroke-linejoin: miter; stroke-linecap: square"/>
   </g>
   <g id="patch_7">
    <path d="M 55.650084 209.295291 
L 515.39976 209.295291 
" style="fill: none; stroke: #000000; stroke-linejoin: miter; stroke-linecap: square"/>
   </g>
  </g>
  <g id="axes_3">
   <g id="patch_8">
    <path d="M 55.650084 313.807885 
L 515.39976 313.807885 
L 515.39976 215.295771 
L 55.650084 215.295771 
z
" style="fill: #ffffff"/>
   </g>
   <g id="matplotlib.axis_5">
    <g id="xtick_9">
     <g id="line2d_48">
      <path d="M 143.420476 313.807885 
L 143.420476 215.295771 
" clip-path="url(#p704e37d4bd)" style="fill: none; stroke: #b0b0b0; stroke-width: 0.8; stroke-linecap: round"/>
     </g>
     <g id="line2d_49"/>
     <g id="text_14">
      <!-- −0.30 -->
      <g style="fill: #262626" transform="translate(126.565555 325.666166) scale(0.11 -0.11)">
       <defs>
        <path id="DejaVuSerif-33" d="M 622 4469 
Q 988 4606 1323 4678 
Q 1659 4750 1953 4750 
Q 2638 4750 3022 4454 
Q 3406 4159 3406 3634 
Q 3406 3213 3140 2930 
Q 2875 2647 2388 2547 
Q 2963 2466 3280 2130 
Q 3597 1794 3597 1259 
Q 3597 606 3158 257 
Q 2719 -91 1894 -91 
Q 1528 -91 1179 -12 
Q 831 66 488 225 
L 488 1131 
L 838 1131 
Q 869 681 1141 450 
Q 1413 219 1906 219 
Q 2384 219 2661 495 
Q 2938 772 2938 1253 
Q 2938 1803 2653 2086 
Q 2369 2369 1819 2369 
L 1522 2369 
L 1522 2688 
L 1678 2688 
Q 2225 2688 2498 2914 
Q 2772 3141 2772 3597 
Q 2772 4006 2547 4223 
Q 2322 4441 1900 4441 
Q 1478 4441 1245 4241 
Q 1013 4041 972 3647 
L 622 3647 
L 622 4469 
z
" transform="scale(0.015625)"/>
       </defs>
       <use xlink:href="#DejaVuSerif-2212"/>
       <use xlink:href="#DejaVuSerif-30" x="83.789062"/>
       <use xlink:href="#DejaVuSerif-2e" x="147.412109"/>
       <use xlink:href="#DejaVuSerif-33" x="179.199219"/>
       <use xlink:href="#DejaVuSerif-30" x="242.822266"/>
      </g>
     </g>
    </g>
    <g id="xtick_10">
     <g id="line2d_50">
      <path d="M 243.729497 313.807885 
L 243.729497 215.295771 
" clip-path="url(#p704e37d4bd)" style="fill: none; stroke: #b0b0b0; stroke-width: 0.8; stroke-linecap: round"/>
     </g>
     <g id="line2d_51"/>
     <g id="text_15">
      <!-- −0.25 -->
      <g style="fill: #262626" transform="translate(226.874575 325.666166) scale(0.11 -0.11)">
       <use xlink:href="#DejaVuSerif-2212"/>
       <use xlink:href="#DejaVuSerif-30" x="83.789062"/>
       <use xlink:href="#DejaVuSerif-2e" x="147.412109"/>
       <use xlink:href="#DejaVuSerif-32" x="179.199219"/>
       <use xlink:href="#DejaVuSerif-35" x="242.822266"/>
      </g>
     </g>
    </g>
    <g id="xtick_11">
     <g id="line2d_52">
      <path d="M 344.038517 313.807885 
L 344.038517 215.295771 
" clip-path="url(#p704e37d4bd)" style="fill: none; stroke: #b0b0b0; stroke-width: 0.8; stroke-linecap: round"/>
     </g>
     <g id="line2d_53"/>
     <g id="text_16">
      <!-- −0.20 -->
      <g style="fill: #262626" transform="translate(327.183595 325.666166) scale(0.11 -0.11)">
       <use xlink:href="#DejaVuSerif-2212"/>
       <use xlink:href="#DejaVuSerif-30" x="83.789062"/>
       <use xlink:href="#DejaVuSerif-2e" x="147.412109"/>
       <use xlink:href="#DejaVuSerif-32" x="179.199219"/>
       <use xlink:href="#DejaVuSerif-30" x="242.822266"/>
      </g>
     </g>
    </g>
    <g id="xtick_12">
     <g id="line2d_54">
      <path d="M 444.347537 313.807885 
L 444.347537 215.295771 
" clip-path="url(#p704e37d4bd)" style="fill: none; stroke: #b0b0b0; stroke-width: 0.8; stroke-linecap: round"/>
     </g>
     <g id="line2d_55"/>
     <g id="text_17">
      <!-- −0.15 -->
      <g style="fill: #262626" transform="translate(427.492615 325.666166) scale(0.11 -0.11)">
       <use xlink:href="#DejaVuSerif-2212"/>
       <use xlink:href="#DejaVuSerif-30" x="83.789062"/>
       <use xlink:href="#DejaVuSerif-2e" x="147.412109"/>
       <use xlink:href="#DejaVuSerif-31" x="179.199219"/>
       <use xlink:href="#DejaVuSerif-35" x="242.822266"/>
      </g>
     </g>
    </g>
    <g id="text_18">
     <!-- $r'$ -->
     <g style="fill: #262626" transform="translate(281.784922 340.312104) scale(0.11 -0.11)">
      <defs>
       <path id="DejaVuSans-Oblique-72" d="M 2853 2969 
Q 2766 3016 2653 3041 
Q 2541 3066 2413 3066 
Q 1953 3066 1609 2717 
Q 1266 2369 1153 1784 
L 800 0 
L 225 0 
L 909 3500 
L 1484 3500 
L 1375 2956 
Q 1603 3259 1920 3421 
Q 2238 3584 2597 3584 
Q 2691 3584 2781 3573 
Q 2872 3563 2963 3538 
L 2853 2969 
z
" transform="scale(0.015625)"/>
      </defs>
      <use xlink:href="#DejaVuSans-Oblique-72" transform="translate(0 0.584375)"/>
      <use xlink:href="#Cmsy10-30" transform="translate(45.763177 38.865625) scale(0.7)"/>
     </g>
    </g>
   </g>
   <g id="matplotlib.axis_6">
    <g id="ytick_9">
     <g id="line2d_56">
      <path d="M 55.650084 285.301471 
L 515.39976 285.301471 
" clip-path="url(#p704e37d4bd)" style="fill: none; stroke: #b0b0b0; stroke-width: 0.8; stroke-linecap: round"/>
     </g>
     <g id="line2d_57"/>
     <g id="text_19">
      <!-- 0.0 -->
      <g style="fill: #262626" transform="translate(34.656646 289.480612) scale(0.11 -0.11)">
       <use xlink:href="#DejaVuSerif-30"/>
       <use xlink:href="#DejaVuSerif-2e" x="63.623047"/>
       <use xlink:href="#DejaVuSerif-30" x="95.410156"/>
      </g>
     </g>
    </g>
    <g id="ytick_10">
     <g id="line2d_58">
      <path d="M 55.650084 239.35669 
L 515.39976 239.35669 
" clip-path="url(#p704e37d4bd)" style="fill: none; stroke: #b0b0b0; stroke-width: 0.8; stroke-linecap: round"/>
     </g>
     <g id="line2d_59"/>
     <g id="text_20">
      <!-- 0.5 -->
      <g style="fill: #262626" transform="translate(34.656646 243.535831) scale(0.11 -0.11)">
       <use xlink:href="#DejaVuSerif-30"/>
       <use xlink:href="#DejaVuSerif-2e" x="63.623047"/>
       <use xlink:href="#DejaVuSerif-35" x="95.410156"/>
      </g>
     </g>
    </g>
    <g id="text_21">
     <!-- $1000 \cdot {N'}_{(\bullet)}$ -->
     <g style="fill: #262626" transform="translate(27.796646 293.811828) rotate(-90) scale(0.11 -0.11)">
      <defs>
       <path id="DejaVuSans-Oblique-4e" d="M 1081 4666 
L 1931 4666 
L 3219 666 
L 4000 4666 
L 4616 4666 
L 3706 0 
L 2853 0 
L 1569 4025 
L 788 0 
L 172 0 
L 1081 4666 
z
" transform="scale(0.015625)"/>
      </defs>
      <use xlink:href="#DejaVuSans-31" transform="translate(0 0.584375)"/>
      <use xlink:href="#DejaVuSans-30" transform="translate(63.623047 0.584375)"/>
      <use xlink:href="#DejaVuSans-30" transform="translate(127.246094 0.584375)"/>
      <use xlink:href="#DejaVuSans-30" transform="translate(190.869141 0.584375)"/>
      <use xlink:href="#DejaVuSans-22c5" transform="translate(273.974609 0.584375)"/>
      <use xlink:href="#DejaVuSans-Oblique-4e" transform="translate(325.244141 0.584375)"/>
      <use xlink:href="#Cmsy10-30" transform="translate(407.065599 38.865625) scale(0.7)"/>
      <use xlink:href="#DejaVuSans-28" transform="translate(430.000169 -15.821875) scale(0.7)"/>
      <use xlink:href="#DejaVuSans-2219" transform="translate(457.30974 -15.821875) scale(0.7)"/>
      <use xlink:href="#DejaVuSans-29" transform="translate(501.128099 -15.821875) scale(0.7)"/>
     </g>
    </g>
   </g>
   <g id="line2d_60">
    <g clip-path="url(#p704e37d4bd)">
     <use xlink:href="#ma0a452d7fa" x="76.547796" y="215.295771" style="fill: #ff0000; stroke: #ff0000"/>
     <use xlink:href="#ma0a452d7fa" x="243.729497" y="236.509857" style="fill: #ff0000; stroke: #ff0000"/>
     <use xlink:href="#ma0a452d7fa" x="494.502047" y="264.136242" style="fill: #ff0000; stroke: #ff0000"/>
    </g>
   </g>
   <g id="line2d_61">
    <g clip-path="url(#p704e37d4bd)">
     <use xlink:href="#m77cb154385" x="76.547796" y="254.641946" style="fill: #008000; stroke: #008000"/>
     <use xlink:href="#m77cb154385" x="243.729497" y="264.972446" style="fill: #008000; stroke: #008000"/>
     <use xlink:href="#m77cb154385" x="494.502047" y="277.30076" style="fill: #008000; stroke: #008000"/>
    </g>
   </g>
   <g id="line2d_62">
    <g clip-path="url(#p704e37d4bd)">
     <use xlink:href="#m624565ba72" x="76.547796" y="245.955296" style="fill: #0000ff; stroke: #0000ff"/>
     <use xlink:href="#m624565ba72" x="243.729497" y="256.838883" style="fill: #0000ff; stroke: #0000ff"/>
     <use xlink:href="#m624565ba72" x="494.502047" y="272.136953" style="fill: #0000ff; stroke: #0000ff"/>
    </g>
   </g>
   <g id="line2d_63">
    <path d="M 76.547796 215.30942 
L 243.729497 235.211258 
L 494.502047 261.595592 
" clip-path="url(#p704e37d4bd)" style="fill: none; stroke: #ff0000; stroke-width: 1.5; stroke-linecap: round"/>
   </g>
   <g id="line2d_64">
    <path d="M 76.547796 256.405963 
L 243.729497 263.896846 
L 494.502047 274.747914 
" clip-path="url(#p704e37d4bd)" style="fill: none; stroke: #008000; stroke-width: 1.5; stroke-linecap: round"/>
   </g>
   <g id="line2d_65">
    <path d="M 76.547796 244.204929 
L 243.729497 256.615884 
L 494.502047 272.149149 
" clip-path="url(#p704e37d4bd)" style="fill: none; stroke: #0000ff; stroke-width: 1.5; stroke-linecap: round"/>
   </g>
   <g id="patch_9">
    <path d="M 55.650084 313.807885 
L 55.650084 215.295771 
" style="fill: none; stroke: #000000; stroke-linejoin: miter; stroke-linecap: square"/>
   </g>
   <g id="patch_10">
    <path d="M 55.650084 313.807885 
L 515.39976 313.807885 
" style="fill: none; stroke: #000000; stroke-linejoin: miter; stroke-linecap: square"/>
   </g>
  </g>
 </g>
 <defs>
  <clipPath id="p87d2452047">
   <rect x="55.650084" y="6.270582" width="459.749676" height="98.512114"/>
  </clipPath>
  <clipPath id="p96a6aa40fc">
   <rect x="55.650084" y="110.783176" width="459.749676" height="98.512114"/>
  </clipPath>
  <clipPath id="p704e37d4bd">
   <rect x="55.650084" y="215.295771" width="459.749676" height="98.512114"/>
  </clipPath>
 </defs>
</svg>
